<svg width="482" height="89" viewBox="0 0 482 89" fill="none" xmlns="http://www.w3.org/2000/svg">
<path d="M32.92 0.96C32.7333 5.46667 32.64 10.3067 32.64 15.48C32.64 20.6533 32.7333 25.4933 32.92 30H23.52V9.04H10V30H0.6C0.813333 24.8267 0.92 19.9867 0.92 15.48C0.92 10.9733 0.813333 6.13333 0.6 0.96H32.92ZM53.5878 7.76C55.3211 7.76 56.8811 8.25333 58.2678 9.24C59.6545 10.2267 60.7345 11.5733 61.5078 13.28C62.2811 14.96 62.6678 16.8133 62.6678 18.84C62.6678 20.84 62.2811 22.7333 61.5078 24.52C60.7345 26.28 59.6411 27.7067 58.2278 28.8C56.8411 29.8667 55.2545 30.4 53.4678 30.4C51.3878 30.4 49.6011 29.9733 48.1078 29.12C46.6411 28.24 45.5478 26.8933 44.8278 25.08C44.8278 26.6 44.8811 29.04 44.9878 32.4C45.0945 35.6533 45.1478 37.9467 45.1478 39.28H36.1078C36.2678 34.32 36.3478 29.1333 36.3478 23.72C36.3478 18.3067 36.2678 13.12 36.1078 8.16H43.7878L44.9478 13.16C45.6945 11.2933 46.8145 9.93333 48.3078 9.08C49.8011 8.2 51.5611 7.76 53.5878 7.76ZM49.3078 23.2C50.5078 23.2 51.5078 22.8267 52.3078 22.08C53.1345 21.3067 53.5478 20.3067 53.5478 19.08C53.5478 17.72 53.1745 16.6133 52.4278 15.76C51.6811 14.9067 50.6678 14.48 49.3878 14.48C47.9211 14.48 46.8145 14.84 46.0678 15.56C45.3211 16.2533 44.9478 17.4267 44.9478 19.08C44.9478 20.0133 45.1878 20.8 45.6678 21.44C46.1478 22.0533 46.7211 22.5067 47.3878 22.8C48.0545 23.0667 48.6945 23.2 49.3078 23.2ZM90.5228 8.16C90.3895 12.0267 90.3228 15.52 90.3228 18.64C90.3228 21.7067 90.3895 25.2 90.5228 29.12H82.3228L82.7628 15.28L76.6428 29.12H65.4828C65.6428 25.6 65.7228 22.1067 65.7228 18.64C65.7228 15.12 65.6428 11.6267 65.4828 8.16H73.3628L72.9628 22.36L79.0828 8.16H90.5228ZM118.645 30.2H109.885V15.72H104.205L104.165 16.96C104.138 18.24 104.085 19.3733 104.005 20.36C103.952 21.32 103.818 22.36 103.605 23.48C102.698 28.36 99.005 30.8 92.525 30.8V24.44C93.7783 24.28 94.6317 23.8933 95.085 23.28C95.5383 22.64 95.765 21.6533 95.765 20.32V8.16L118.645 8.2V30.2ZM134.73 30.4C130.17 30.4 126.81 29.36 124.65 27.28C122.517 25.1733 121.45 22.4133 121.45 19C121.45 15.6667 122.517 12.96 124.65 10.88C126.81 8.8 130.17 7.76 134.73 7.76C137.797 7.76 140.357 8.26667 142.41 9.28C144.49 10.2667 146.023 11.6133 147.01 13.32C147.997 15 148.49 16.8933 148.49 19C148.49 22.44 147.343 25.2 145.05 27.28C142.783 29.36 139.343 30.4 134.73 30.4ZM134.89 23.6C136.623 23.6 137.917 23.1867 138.77 22.36C139.623 21.5333 140.05 20.4267 140.05 19.04C140.05 17.7333 139.623 16.6667 138.77 15.84C137.917 14.9867 136.623 14.56 134.89 14.56C133.157 14.56 131.89 14.9733 131.09 15.8C130.29 16.6267 129.89 17.7067 129.89 19.04C129.89 20.4267 130.29 21.5333 131.09 22.36C131.89 23.1867 133.157 23.6 134.89 23.6ZM173.983 18.08C174.676 18.48 175.29 18.9733 175.823 19.56C176.73 20.52 177.423 21.5867 177.903 22.76C178.383 23.9067 178.863 25.36 179.343 27.12C179.69 28.4 179.983 29.36 180.223 30H172.503C172.396 29.6267 172.263 29.0133 172.103 28.16C171.943 27.2 171.783 26.4267 171.623 25.84C171.463 25.2533 171.223 24.7333 170.903 24.28C170.476 23.64 170.01 23.1333 169.503 22.76C168.996 22.36 168.41 22.0667 167.743 21.88C167.743 23.6667 167.796 26.3733 167.903 30H161.943C162.05 26.4267 162.103 23.7467 162.103 21.96C161.516 22.1467 160.996 22.44 160.543 22.84C160.09 23.2133 159.65 23.6933 159.223 24.28C158.903 24.7333 158.663 25.2533 158.503 25.84C158.343 26.4267 158.183 27.2 158.023 28.16C157.863 29.0133 157.73 29.6267 157.623 30H149.903C150.143 29.36 150.436 28.4 150.783 27.12C151.263 25.36 151.743 23.9067 152.223 22.76C152.703 21.5867 153.396 20.52 154.303 19.56C154.836 18.9733 155.45 18.48 156.143 18.08L149.703 8.16H157.743C158.863 10.72 160.316 13.2933 162.103 15.88C162.05 12.4133 161.996 9.84 161.943 8.16H167.903C167.796 11.68 167.743 14.32 167.743 16.08L167.863 16.12C169.676 13.5333 171.183 10.88 172.383 8.16H180.423L173.983 18.08ZM202.385 20H189.345C189.558 21.1733 190.078 22.1333 190.905 22.88C191.758 23.6 192.958 23.96 194.505 23.96C195.625 23.96 196.678 23.7467 197.665 23.32C198.652 22.8667 199.438 22.24 200.025 21.44C201.812 22.32 204.185 23.2667 207.145 24.28C206.318 26.1467 204.812 27.64 202.625 28.76C200.465 29.8533 197.638 30.4 194.145 30.4C189.612 30.4 186.252 29.36 184.065 27.28C181.905 25.1733 180.825 22.4133 180.825 19C180.825 15.6667 181.905 12.96 184.065 10.88C186.225 8.8 189.585 7.76 194.145 7.76C196.865 7.76 199.225 8.21333 201.225 9.12C203.225 10.0267 204.758 11.2933 205.825 12.92C206.892 14.52 207.425 16.36 207.425 18.44C207.425 19.1333 207.398 19.6533 207.345 20H202.385ZM194.705 13.8C193.372 13.8 192.278 14.0533 191.425 14.56C190.572 15.0667 189.972 15.76 189.625 16.64H199.065C198.745 15.7867 198.225 15.1067 197.505 14.6C196.785 14.0667 195.852 13.8 194.705 13.8ZM235.409 8.16C235.276 12.2133 235.209 15.8533 235.209 19.08C235.209 22.3067 235.276 25.9467 235.409 30H226.729V22.72H218.889V30H210.209C210.343 26.96 210.409 23.32 210.409 19.08C210.409 14.84 210.343 11.2 210.209 8.16H218.889V15.44H226.729V8.16H235.409ZM263.648 8.16C263.514 12.0267 263.448 15.52 263.448 18.64C263.448 21.7067 263.514 25.2 263.648 29.12H255.448L255.888 15.28L249.768 29.12H238.608C238.768 25.6 238.848 22.1067 238.848 18.64C238.848 15.12 238.768 11.6267 238.608 8.16H246.488L246.088 22.36L252.208 8.16H263.648ZM288.01 20H274.97C275.183 21.1733 275.703 22.1333 276.53 22.88C277.383 23.6 278.583 23.96 280.13 23.96C281.25 23.96 282.303 23.7467 283.29 23.32C284.277 22.8667 285.063 22.24 285.65 21.44C287.437 22.32 289.81 23.2667 292.77 24.28C291.943 26.1467 290.437 27.64 288.25 28.76C286.09 29.8533 283.263 30.4 279.77 30.4C275.237 30.4 271.877 29.36 269.69 27.28C267.53 25.1733 266.45 22.4133 266.45 19C266.45 15.6667 267.53 12.96 269.69 10.88C271.85 8.8 275.21 7.76 279.77 7.76C282.49 7.76 284.85 8.21333 286.85 9.12C288.85 10.0267 290.383 11.2933 291.45 12.92C292.517 14.52 293.05 16.36 293.05 18.44C293.05 19.1333 293.023 19.6533 292.97 20H288.01ZM280.33 13.8C278.997 13.8 277.903 14.0533 277.05 14.56C276.197 15.0667 275.597 15.76 275.25 16.64H284.69C284.37 15.7867 283.85 15.1067 283.13 14.6C282.41 14.0667 281.477 13.8 280.33 13.8Z" fill="white"/>
<path d="M341.242 0.96L344.362 30H334.002L333.362 9.28L329.362 30H318.882L314.802 9.44L314.202 30H303.842L306.962 0.96H320.562L324.042 19.88L327.082 0.96H341.242ZM360.433 30.4C355.873 30.4 352.513 29.36 350.353 27.28C348.22 25.1733 347.153 22.4133 347.153 19C347.153 15.6667 348.22 12.96 350.353 10.88C352.513 8.8 355.873 7.76 360.433 7.76C363.5 7.76 366.06 8.26667 368.113 9.28C370.193 10.2667 371.726 11.6133 372.713 13.32C373.7 15 374.193 16.8933 374.193 19C374.193 22.44 373.046 25.2 370.753 27.28C368.486 29.36 365.046 30.4 360.433 30.4ZM360.593 23.6C362.326 23.6 363.62 23.1867 364.473 22.36C365.326 21.5333 365.753 20.4267 365.753 19.04C365.753 17.7333 365.326 16.6667 364.473 15.84C363.62 14.9867 362.326 14.56 360.593 14.56C358.86 14.56 357.593 14.9733 356.793 15.8C355.993 16.6267 355.593 17.7067 355.593 19.04C355.593 20.4267 355.993 21.5333 356.793 22.36C357.593 23.1867 358.86 23.6 360.593 23.6ZM386.286 14.08C387.406 10.0533 390.193 8.04 394.646 8.04C395.42 8.04 396.166 8.09333 396.886 8.2L395.606 17.16C393.686 16.44 392.113 16.08 390.886 16.08C389.366 16.08 388.246 16.5333 387.526 17.44C386.806 18.3467 386.446 19.56 386.446 21.08V21.04L386.406 23.68C386.406 25.5733 386.46 27.68 386.566 30H377.006C377.22 26.16 377.326 22.5333 377.326 19.12C377.326 15.7067 377.22 12.0533 377.006 8.16C378.766 8.24 380.113 8.28 381.046 8.28C382.033 8.28 383.38 8.24 385.086 8.16L386.286 14.08ZM420.041 20H407.001C407.215 21.1733 407.735 22.1333 408.561 22.88C409.415 23.6 410.615 23.96 412.161 23.96C413.281 23.96 414.335 23.7467 415.321 23.32C416.308 22.8667 417.095 22.24 417.681 21.44C419.468 22.32 421.841 23.2667 424.801 24.28C423.975 26.1467 422.468 27.64 420.281 28.76C418.121 29.8533 415.295 30.4 411.801 30.4C407.268 30.4 403.908 29.36 401.721 27.28C399.561 25.1733 398.481 22.4133 398.481 19C398.481 15.6667 399.561 12.96 401.721 10.88C403.881 8.8 407.241 7.76 411.801 7.76C414.521 7.76 416.881 8.21333 418.881 9.12C420.881 10.0267 422.415 11.2933 423.481 12.92C424.548 14.52 425.081 16.36 425.081 18.44C425.081 19.1333 425.055 19.6533 425.001 20H420.041ZM412.361 13.8C411.028 13.8 409.935 14.0533 409.081 14.56C408.228 15.0667 407.628 15.76 407.281 16.64H416.721C416.401 15.7867 415.881 15.1067 415.161 14.6C414.441 14.0667 413.508 13.8 412.361 13.8ZM440.746 30.4C436.186 30.4 432.826 29.36 430.666 27.28C428.532 25.1733 427.466 22.4133 427.466 19C427.466 15.6667 428.532 12.96 430.666 10.88C432.826 8.8 436.186 7.76 440.746 7.76C443.812 7.76 446.372 8.26667 448.426 9.28C450.506 10.2667 452.039 11.6133 453.026 13.32C454.012 15 454.506 16.8933 454.506 19C454.506 22.44 453.359 25.2 451.066 27.28C448.799 29.36 445.359 30.4 440.746 30.4ZM440.906 23.6C442.639 23.6 443.932 23.1867 444.786 22.36C445.639 21.5333 446.066 20.4267 446.066 19.04C446.066 17.7333 445.639 16.6667 444.786 15.84C443.932 14.9867 442.639 14.56 440.906 14.56C439.172 14.56 437.906 14.9733 437.106 15.8C436.306 16.6267 435.906 17.7067 435.906 19.04C435.906 20.4267 436.306 21.5333 437.106 22.36C437.906 23.1867 439.172 23.6 440.906 23.6ZM472.919 30C473.079 26.08 473.159 22.4667 473.159 19.16C473.159 17.9867 472.865 17.0533 472.279 16.36C471.719 15.6667 470.999 15.32 470.119 15.32C469.239 15.32 468.492 15.72 467.879 16.52C467.265 17.2933 466.905 18.36 466.799 19.72C466.745 21.7467 466.719 23.1867 466.719 24.04C466.719 25.8533 466.772 27.84 466.879 30H457.319C457.532 26.16 457.639 22.5333 457.639 19.12C457.639 15.7067 457.532 12.0533 457.319 8.16C459.079 8.24 460.425 8.28 461.359 8.28C462.345 8.28 463.692 8.24 465.399 8.16L466.559 14.04C467.172 11.9067 468.132 10.3333 469.439 9.32C470.745 8.28 472.265 7.76 473.999 7.76C475.599 7.76 476.985 8.12 478.159 8.84C479.332 9.53333 480.212 10.48 480.799 11.68C481.412 12.88 481.719 14.2267 481.719 15.72V21.48C481.719 25.0267 481.785 27.8667 481.919 30H472.919ZM31.8 66.44H10.04V70.64C11.4 70.6667 13.44 70.68 16.16 70.68C20.8533 70.68 25.6267 70.6 30.48 70.44V78.28C25.6267 78.0933 20.5067 78 15.12 78C12.88 78 11.1867 78.0133 10.04 78.04V88H0.6C0.813333 82.8267 0.92 77.9867 0.92 73.48C0.92 68.9733 0.813333 64.1333 0.6 58.96H31.8V66.44ZM40.3741 63.8C38.6941 63.8 37.4407 63.3867 36.6141 62.56C35.8141 61.7333 35.4141 60.6533 35.4141 59.32C35.4141 58.0133 35.8141 56.9333 36.6141 56.08C37.4407 55.2267 38.6941 54.8 40.3741 54.8C41.9741 54.8 43.2007 55.24 44.0541 56.12C44.9074 56.9733 45.3341 58.04 45.3341 59.32C45.3341 60.6533 44.9207 61.7333 44.0941 62.56C43.2674 63.3867 42.0274 63.8 40.3741 63.8ZM35.7341 88C35.9207 83.7067 36.0141 80.16 36.0141 77.36C36.0141 74.0267 35.9074 70.2933 35.6941 66.16H45.2941C45.0807 70.1333 44.9741 73.8667 44.9741 77.36C44.9741 80.2933 45.0674 83.84 45.2541 88H35.7341ZM67.0403 73.32C64.587 73.16 62.347 73.04 60.3203 72.96L60.2803 77.2C60.2803 78.64 60.587 79.7733 61.2003 80.6C61.8403 81.4 62.9603 81.8 64.5603 81.8C65.1736 81.8 65.7603 81.7467 66.3203 81.64C66.2136 82.6267 66.1603 83.6267 66.1603 84.64C66.1603 85.12 66.187 86.2133 66.2403 87.92C65.067 88.1333 64.0803 88.2667 63.2803 88.32C62.4803 88.3733 61.4403 88.4 60.1603 88.4C57.0403 88.4 54.827 87.6533 53.5203 86.16C52.2403 84.64 51.6003 82.5333 51.6003 79.84L51.6403 73.08C50.387 73.1333 49.0803 73.2133 47.7203 73.32V66.24C49.107 66.24 50.2803 65.8 51.2403 64.92C52.2003 64.04 52.7736 62.9867 52.9603 61.76H63.8403C62.4803 63.6267 60.9736 65.12 59.3203 66.24H67.0403V73.32ZM85.0281 88C85.1881 84.08 85.2681 80.4667 85.2681 77.16C85.2681 75.9867 84.9748 75.0533 84.3881 74.36C83.8281 73.6667 83.1081 73.32 82.2281 73.32C81.3481 73.32 80.6015 73.72 79.9881 74.52C79.3748 75.2933 79.0148 76.36 78.9081 77.72C78.8548 79.7467 78.8281 81.1867 78.8281 82.04C78.8281 83.8533 78.8815 85.84 78.9881 88H69.4281C69.6415 84.16 69.7481 80.5333 69.7481 77.12C69.7481 73.7067 69.6415 70.0533 69.4281 66.16C71.1881 66.24 72.5348 66.28 73.4681 66.28C74.4548 66.28 75.8015 66.24 77.5081 66.16L78.6681 72.04C79.2815 69.9067 80.2415 68.3333 81.5481 67.32C82.8548 66.28 84.3748 65.76 86.1081 65.76C87.7081 65.76 89.0948 66.12 90.2681 66.84C91.4415 67.5333 92.3215 68.48 92.9081 69.68C93.5215 70.88 93.8281 72.2267 93.8281 73.72V79.48C93.8281 83.0267 93.8948 85.8667 94.0281 88H85.0281ZM118.401 78H105.361C105.574 79.1733 106.094 80.1333 106.921 80.88C107.774 81.6 108.974 81.96 110.521 81.96C111.641 81.96 112.694 81.7467 113.681 81.32C114.667 80.8667 115.454 80.24 116.041 79.44C117.827 80.32 120.201 81.2667 123.161 82.28C122.334 84.1467 120.827 85.64 118.641 86.76C116.481 87.8533 113.654 88.4 110.161 88.4C105.627 88.4 102.267 87.36 100.081 85.28C97.9206 83.1733 96.8406 80.4133 96.8406 77C96.8406 73.6667 97.9206 70.96 100.081 68.88C102.241 66.8 105.601 65.76 110.161 65.76C112.881 65.76 115.241 66.2133 117.241 67.12C119.241 68.0267 120.774 69.2933 121.841 70.92C122.907 72.52 123.441 74.36 123.441 76.44C123.441 77.1333 123.414 77.6533 123.361 78H118.401ZM110.721 71.8C109.387 71.8 108.294 72.0533 107.441 72.56C106.587 73.0667 105.987 73.76 105.641 74.64H115.081C114.761 73.7867 114.241 73.1067 113.521 72.6C112.801 72.0667 111.867 71.8 110.721 71.8ZM139.145 88.4C136.905 88.4 134.625 88.0933 132.305 87.48C130.012 86.84 127.852 85.88 125.825 84.6L130.025 78.88C131.252 79.76 132.732 80.4533 134.465 80.96C136.198 81.44 137.692 81.68 138.945 81.68C140.145 81.68 141.065 81.52 141.705 81.2C142.372 80.8533 142.705 80.4133 142.705 79.88C142.705 79.4533 142.545 79.12 142.225 78.88C141.905 78.64 141.465 78.52 140.905 78.52C140.558 78.52 140.158 78.5333 139.705 78.56C139.278 78.5867 138.932 78.6133 138.665 78.64C137.278 78.8 135.852 78.88 134.385 78.88C132.012 78.88 130.078 78.44 128.585 77.56C127.118 76.6533 126.385 75.1867 126.385 73.16C126.385 70.8133 127.492 69 129.705 67.72C131.918 66.4133 135.172 65.76 139.465 65.76C141.572 65.76 143.692 66.0667 145.825 66.68C147.985 67.2667 149.892 68.16 151.545 69.36L146.945 74C145.425 73.2 143.998 72.64 142.665 72.32C141.358 71.9733 140.038 71.8 138.705 71.8C137.772 71.8 136.972 71.9867 136.305 72.36C135.638 72.7333 135.305 73.16 135.305 73.64C135.305 74.0133 135.438 74.3067 135.705 74.52C135.998 74.7333 136.372 74.84 136.825 74.84C137.278 74.84 137.905 74.8 138.705 74.72C140.652 74.5867 142.105 74.52 143.065 74.52C145.838 74.52 147.985 74.9867 149.505 75.92C151.025 76.8533 151.785 78.28 151.785 80.2C151.785 83.08 150.665 85.1733 148.425 86.48C146.185 87.76 143.092 88.4 139.145 88.4ZM167.504 88.4C165.264 88.4 162.984 88.0933 160.664 87.48C158.371 86.84 156.211 85.88 154.184 84.6L158.384 78.88C159.611 79.76 161.091 80.4533 162.824 80.96C164.558 81.44 166.051 81.68 167.304 81.68C168.504 81.68 169.424 81.52 170.064 81.2C170.731 80.8533 171.064 80.4133 171.064 79.88C171.064 79.4533 170.904 79.12 170.584 78.88C170.264 78.64 169.824 78.52 169.264 78.52C168.918 78.52 168.518 78.5333 168.064 78.56C167.638 78.5867 167.291 78.6133 167.024 78.64C165.638 78.8 164.211 78.88 162.744 78.88C160.371 78.88 158.438 78.44 156.944 77.56C155.478 76.6533 154.744 75.1867 154.744 73.16C154.744 70.8133 155.851 69 158.064 67.72C160.278 66.4133 163.531 65.76 167.824 65.76C169.931 65.76 172.051 66.0667 174.184 66.68C176.344 67.2667 178.251 68.16 179.904 69.36L175.304 74C173.784 73.2 172.358 72.64 171.024 72.32C169.718 71.9733 168.398 71.8 167.064 71.8C166.131 71.8 165.331 71.9867 164.664 72.36C163.998 72.7333 163.664 73.16 163.664 73.64C163.664 74.0133 163.798 74.3067 164.064 74.52C164.358 74.7333 164.731 74.84 165.184 74.84C165.638 74.84 166.264 74.8 167.064 74.72C169.011 74.5867 170.464 74.52 171.424 74.52C174.198 74.52 176.344 74.9867 177.864 75.92C179.384 76.8533 180.144 78.28 180.144 80.2C180.144 83.08 179.024 85.1733 176.784 86.48C174.544 87.76 171.451 88.4 167.504 88.4Z" fill="#33B0AA"/>
</svg>
