<svg width="549" height="198" viewBox="0 0 549 198" fill="none" xmlns="http://www.w3.org/2000/svg">
<path d="M24.92 41.54C16.784 41.54 10.79 39.812 6.938 36.356C3.086 32.9 1.16 27.968 1.16 21.56C1.16 15.116 3.086 10.022 6.938 6.278C10.79 2.534 16.784 0.661998 24.92 0.661998C36.296 0.661998 43.91 4.568 47.762 12.38C44.522 13.496 40.724 15.17 36.368 17.402C35.324 15.386 33.668 13.892 31.4 12.92C29.168 11.948 26.882 11.462 24.542 11.462C21.086 11.462 18.512 12.38 16.82 14.216C15.128 16.016 14.282 18.248 14.282 20.912C14.282 23.792 15.182 26.15 16.982 27.986C18.818 29.786 21.608 30.686 25.352 30.686C28.34 30.686 30.716 30.2 32.48 29.228C34.244 28.22 35.54 26.636 36.368 24.476C39.32 26.06 43.1 27.842 47.708 29.822C45.908 34.178 42.902 37.22 38.69 38.948C34.478 40.676 29.888 41.54 24.92 41.54ZM69.4894 41.54C63.3334 41.54 58.7974 40.136 55.8814 37.328C53.0014 34.484 51.5614 30.758 51.5614 26.15C51.5614 21.65 53.0014 17.996 55.8814 15.188C58.7974 12.38 63.3334 10.976 69.4894 10.976C73.6294 10.976 77.0854 11.66 79.8574 13.028C82.6654 14.36 84.7354 16.178 86.0674 18.482C87.3994 20.75 88.0654 23.306 88.0654 26.15C88.0654 30.794 86.5174 34.52 83.4214 37.328C80.3614 40.136 75.7174 41.54 69.4894 41.54ZM69.7054 32.36C72.0454 32.36 73.7914 31.802 74.9434 30.686C76.0954 29.57 76.6714 28.076 76.6714 26.204C76.6714 24.44 76.0954 23 74.9434 21.884C73.7914 20.732 72.0454 20.156 69.7054 20.156C67.3654 20.156 65.6554 20.714 64.5754 21.83C63.4954 22.946 62.9554 24.404 62.9554 26.204C62.9554 28.076 63.4954 29.57 64.5754 30.686C65.6554 31.802 67.3654 32.36 69.7054 32.36ZM115.569 25.88C115.929 25.844 116.433 25.826 117.081 25.826C119.493 25.826 121.257 26.384 122.373 27.5C123.525 28.616 124.101 29.93 124.101 31.442C124.101 34.646 122.643 37.13 119.727 38.894C116.811 40.658 113.067 41.54 108.495 41.54C104.499 41.54 100.971 40.856 97.9111 39.488C94.8871 38.12 92.6911 35.816 91.3231 32.576L93.6451 31.982C96.9931 31.154 99.4771 30.362 101.097 29.606C101.673 30.722 102.483 31.586 103.527 32.198C104.571 32.774 105.957 33.062 107.685 33.062C109.629 33.062 111.105 32.882 112.113 32.522C113.157 32.162 113.679 31.568 113.679 30.74C113.679 30.092 113.103 29.642 111.951 29.39C110.799 29.138 109.143 29.012 106.983 29.012H103.905V21.884H105.741C107.721 21.884 109.305 21.794 110.493 21.614C111.681 21.434 112.275 21.038 112.275 20.426C112.275 19.814 111.933 19.328 111.249 18.968C110.565 18.608 109.647 18.428 108.495 18.428C106.623 18.428 105.147 18.77 104.067 19.454C103.023 20.138 102.033 21.254 101.097 22.802C98.2531 21.614 95.1391 20.768 91.7551 20.264C94.5271 14.108 100.287 11.03 109.035 11.03C111.591 11.03 113.931 11.408 116.055 12.164C118.179 12.884 119.853 13.892 121.077 15.188C122.301 16.448 122.913 17.87 122.913 19.454C122.913 22.91 120.465 25.052 115.569 25.88ZM161.577 33.332H163.197V47.858H152.991V41.972H135.927V47.966H125.721V33.332H127.503C128.727 33.152 129.645 32.702 130.257 31.982C130.905 31.262 131.409 30.074 131.769 28.418C132.021 27.122 132.147 24.026 132.147 19.13V11.516L161.577 11.57V33.332ZM141.327 31.55C141.255 31.946 141.111 32.54 140.895 33.332H151.263V20.642H142.083V22.262C142.047 24.35 141.993 26.006 141.921 27.23C141.849 28.418 141.651 29.858 141.327 31.55ZM202.151 32.036C202.151 33.26 202.295 34.124 202.583 34.628C202.871 35.132 203.447 35.492 204.311 35.708L204.095 40.784C202.943 40.964 201.935 41.09 201.071 41.162C200.243 41.234 199.127 41.27 197.723 41.27C194.627 41.27 192.575 40.586 191.567 39.218C190.559 37.814 190.055 36.032 190.055 33.872V32.522C189.011 35.474 187.481 37.67 185.465 39.11C183.485 40.55 180.947 41.27 177.851 41.27C174.251 41.27 171.533 40.55 169.697 39.11C167.897 37.67 166.997 35.528 166.997 32.684C166.997 30.344 167.771 28.508 169.319 27.176C170.867 25.844 173.261 24.926 176.501 24.422C173.765 22.478 171.029 20.786 168.293 19.346C170.453 16.61 172.919 14.54 175.691 13.136C178.463 11.696 181.829 10.976 185.789 10.976C191.333 10.976 195.437 12.182 198.101 14.594C200.801 16.97 202.151 20.642 202.151 25.61V32.036ZM186.923 20.48C185.087 20.48 183.467 20.786 182.063 21.398C180.659 22.01 179.399 22.928 178.283 24.152C180.443 23.9 183.143 23.774 186.383 23.774C187.715 23.774 188.651 23.612 189.191 23.288C189.731 22.964 190.001 22.55 190.001 22.046C190.001 21.614 189.731 21.254 189.191 20.966C188.651 20.642 187.895 20.48 186.923 20.48ZM181.253 32.468C183.269 32.468 185.087 32.09 186.707 31.334C188.327 30.542 189.443 29.516 190.055 28.256V26.852C189.191 27.284 188.237 27.626 187.193 27.878C186.149 28.094 184.889 28.31 183.413 28.526L181.469 28.85C179.453 29.246 178.445 29.93 178.445 30.902C178.445 31.946 179.381 32.468 181.253 32.468ZM241.366 11.516C241.186 16.736 241.096 21.452 241.096 25.664C241.096 29.804 241.186 34.52 241.366 39.812H230.296L230.89 21.128L222.628 39.812H207.562C207.778 35.06 207.886 30.344 207.886 25.664C207.886 20.912 207.778 16.196 207.562 11.516H218.2L217.66 30.686L225.922 11.516H241.366ZM223.924 10.22C222.232 10.22 220.666 9.842 219.226 9.086C217.822 8.33 216.706 7.25 215.878 5.846C215.05 4.442 214.636 2.804 214.636 0.931998H219.982C219.982 2.336 220.342 3.38 221.062 4.064C221.818 4.712 222.772 5.036 223.924 5.036C225.076 5.036 226.012 4.712 226.732 4.064C227.488 3.38 227.866 2.336 227.866 0.931998H233.212C233.212 2.804 232.798 4.442 231.97 5.846C231.142 7.25 230.008 8.33 228.568 9.086C227.164 9.842 225.616 10.22 223.924 10.22ZM289.278 21.668C283.878 21.524 279.954 21.434 277.506 21.398V41H266.058V21.398C263.646 21.434 259.74 21.524 254.34 21.668V11.516H289.278V21.668ZM317.339 27.5H299.735C300.023 29.084 300.725 30.38 301.841 31.388C302.993 32.36 304.613 32.846 306.701 32.846C308.213 32.846 309.635 32.558 310.967 31.982C312.299 31.37 313.361 30.524 314.153 29.444C316.565 30.632 319.769 31.91 323.765 33.278C322.649 35.798 320.615 37.814 317.663 39.326C314.747 40.802 310.931 41.54 306.215 41.54C300.095 41.54 295.559 40.136 292.607 37.328C289.691 34.484 288.233 30.758 288.233 26.15C288.233 21.65 289.691 17.996 292.607 15.188C295.523 12.38 300.059 10.976 306.215 10.976C309.887 10.976 313.073 11.588 315.773 12.812C318.473 14.036 320.543 15.746 321.983 17.942C323.423 20.102 324.143 22.586 324.143 25.394C324.143 26.33 324.107 27.032 324.035 27.5H317.339ZM306.971 19.13C305.171 19.13 303.695 19.472 302.543 20.156C301.391 20.84 300.581 21.776 300.113 22.964H312.857C312.425 21.812 311.723 20.894 310.751 20.21C309.779 19.49 308.519 19.13 306.971 19.13ZM361.544 41.27H349.718V21.722H342.05L341.996 23.396C341.96 25.124 341.888 26.654 341.78 27.986C341.708 29.282 341.528 30.686 341.24 32.198C340.016 38.786 335.03 42.08 326.282 42.08V33.494C327.974 33.278 329.126 32.756 329.738 31.928C330.35 31.064 330.656 29.732 330.656 27.932V11.516L361.544 11.57V41.27ZM383.259 41.54C377.103 41.54 372.567 40.136 369.651 37.328C366.771 34.484 365.331 30.758 365.331 26.15C365.331 21.65 366.771 17.996 369.651 15.188C372.567 12.38 377.103 10.976 383.259 10.976C387.399 10.976 390.855 11.66 393.627 13.028C396.435 14.36 398.505 16.178 399.837 18.482C401.169 20.75 401.835 23.306 401.835 26.15C401.835 30.794 400.287 34.52 397.191 37.328C394.131 40.136 389.487 41.54 383.259 41.54ZM383.475 32.36C385.815 32.36 387.561 31.802 388.713 30.686C389.865 29.57 390.441 28.076 390.441 26.204C390.441 24.44 389.865 23 388.713 21.884C387.561 20.732 385.815 20.156 383.475 20.156C381.135 20.156 379.425 20.714 378.345 21.83C377.265 22.946 376.725 24.404 376.725 26.204C376.725 28.076 377.265 29.57 378.345 30.686C379.425 31.802 381.135 32.36 383.475 32.36ZM42.362 89.516L44.414 119H33.938L33.29 97.886L29.186 119H16.388L12.23 98.156L11.636 119H1.16L3.212 89.516H19.196L22.706 108.794L25.838 89.516H42.362ZM77.2924 105.5H59.6884C59.9764 107.084 60.6784 108.38 61.7944 109.388C62.9464 110.36 64.5664 110.846 66.6544 110.846C68.1664 110.846 69.5884 110.558 70.9204 109.982C72.2524 109.37 73.3144 108.524 74.1064 107.444C76.5184 108.632 79.7224 109.91 83.7184 111.278C82.6024 113.798 80.5684 115.814 77.6164 117.326C74.7004 118.802 70.8844 119.54 66.1684 119.54C60.0484 119.54 55.5124 118.136 52.5604 115.328C49.6444 112.484 48.1864 108.758 48.1864 104.15C48.1864 99.65 49.6444 95.996 52.5604 93.188C55.4764 90.38 60.0124 88.976 66.1684 88.976C69.8404 88.976 73.0264 89.588 75.7264 90.812C78.4264 92.036 80.4964 93.746 81.9364 95.942C83.3764 98.102 84.0964 100.586 84.0964 103.394C84.0964 104.33 84.0604 105.032 83.9884 105.5H77.2924ZM66.9244 97.13C65.1244 97.13 63.6484 97.472 62.4964 98.156C61.3444 98.84 60.5344 99.776 60.0664 100.964H72.8104C72.3784 99.812 71.6764 98.894 70.7044 98.21C69.7324 97.49 68.4724 97.13 66.9244 97.13ZM120.417 89.516C120.237 93.548 120.147 98.444 120.147 104.204C120.147 109.928 120.237 114.824 120.417 118.892H108.591L108.699 113.006C105.963 114.626 103.011 115.436 99.8433 115.436C95.7033 115.436 92.6973 114.23 90.8253 111.818C88.9893 109.37 88.0713 106.184 88.0713 102.26V98.75C88.0713 94.538 87.9993 91.46 87.8553 89.516H99.0873C98.9073 93.944 98.8173 97.652 98.8173 100.64C98.8173 102.656 99.1953 104.132 99.9513 105.068C100.743 105.968 102.003 106.418 103.731 106.418C104.595 106.418 105.459 106.22 106.323 105.824C107.223 105.392 108.033 104.834 108.753 104.15C108.753 96.482 108.699 91.604 108.591 89.516H120.417ZM157.495 99.668C152.095 99.524 148.171 99.434 145.723 99.398V119H134.275V99.398C131.863 99.434 127.957 99.524 122.557 99.668V89.516H157.495V99.668ZM178.418 96.104C183.782 96.104 187.526 97.166 189.65 99.29C191.774 101.378 192.836 104.294 192.836 108.038C192.836 111.53 191.774 114.23 189.65 116.138C187.562 118.01 183.818 118.946 178.418 118.946H171.236V119H159.68C159.86 114.896 159.95 109.982 159.95 104.258C159.95 98.534 159.86 93.62 159.68 89.516H171.236V96.104H178.418ZM206.768 89.516C206.588 93.548 206.498 98.444 206.498 104.204C206.498 109.928 206.588 114.824 206.768 118.892H194.942C195.05 111.656 195.104 105.572 195.104 100.64C195.104 95.708 195.05 92 194.942 89.516H206.768ZM175.178 110.36C177.734 110.36 179.516 110.162 180.524 109.766C181.532 109.37 182.036 108.596 182.036 107.444C182.036 106.292 181.514 105.518 180.47 105.122C179.426 104.69 177.662 104.474 175.178 104.474L171.236 104.528V110.36H175.178ZM245.72 104.366C251.876 104.366 254.954 106.328 254.954 110.252C254.954 113.06 253.874 115.22 251.714 116.732C249.59 118.244 245.738 119 240.158 119H221.906C222.086 114.896 222.176 109.982 222.176 104.258C222.176 98.534 222.086 93.62 221.906 89.516H233.084V89.57H240.104C243.488 89.57 246.134 89.858 248.042 90.434C249.986 90.974 251.354 91.766 252.146 92.81C252.938 93.854 253.334 95.186 253.334 96.806C253.334 100.442 250.796 102.962 245.72 104.366ZM233.084 96.968V100.748H237.188C238.844 100.748 240.014 100.604 240.698 100.316C241.382 99.992 241.724 99.434 241.724 98.642C241.724 98.03 241.364 97.598 240.644 97.346C239.96 97.094 238.808 96.968 237.188 96.968H233.084ZM237.188 111.548C239.24 111.548 240.644 111.404 241.4 111.116C242.156 110.792 242.534 110.234 242.534 109.442C242.534 108.758 242.138 108.254 241.346 107.93C240.554 107.606 239.168 107.444 237.188 107.444H233.084V111.548H237.188ZM299.917 89.516L301.969 119H291.493L290.845 97.886L286.741 119H273.943L269.785 98.156L269.191 119H258.715L260.767 89.516H276.751L280.261 108.794L283.393 89.516H299.917ZM334.847 105.5H317.243C317.531 107.084 318.233 108.38 319.349 109.388C320.501 110.36 322.121 110.846 324.209 110.846C325.721 110.846 327.143 110.558 328.475 109.982C329.807 109.37 330.869 108.524 331.661 107.444C334.073 108.632 337.277 109.91 341.273 111.278C340.157 113.798 338.123 115.814 335.171 117.326C332.255 118.802 328.439 119.54 323.723 119.54C317.603 119.54 313.067 118.136 310.115 115.328C307.199 112.484 305.741 108.758 305.741 104.15C305.741 99.65 307.199 95.996 310.115 93.188C313.031 90.38 317.567 88.976 323.723 88.976C327.395 88.976 330.581 89.588 333.281 90.812C335.981 92.036 338.051 93.746 339.491 95.942C340.931 98.102 341.651 100.586 341.651 103.394C341.651 104.33 341.615 105.032 341.543 105.5H334.847ZM324.479 97.13C322.679 97.13 321.203 97.472 320.051 98.156C318.899 98.84 318.089 99.776 317.621 100.964H330.365C329.933 99.812 329.231 98.894 328.259 98.21C327.287 97.49 326.027 97.13 324.479 97.13ZM356.372 104.258C356.444 106.094 357.02 107.57 358.1 108.686C359.216 109.802 360.854 110.36 363.014 110.36C364.202 110.36 365.264 110.144 366.2 109.712C367.136 109.244 368 108.56 368.792 107.66C371.852 108.848 375.434 109.874 379.538 110.738C378.35 113.51 376.334 115.67 373.49 117.218C370.682 118.766 367.028 119.54 362.528 119.54C356.516 119.54 352.07 118.136 349.19 115.328C346.31 112.52 344.87 108.83 344.87 104.258C344.87 99.686 346.31 95.996 349.19 93.188C352.07 90.38 356.516 88.976 362.528 88.976C367.028 88.976 370.682 89.75 373.49 91.298C376.334 92.846 378.35 95.006 379.538 97.778C376.334 98.462 372.752 99.488 368.792 100.856C368 99.956 367.136 99.29 366.2 98.858C365.264 98.39 364.202 98.156 363.014 98.156C360.854 98.156 359.216 98.714 358.1 99.83C357.02 100.946 356.444 102.422 356.372 104.258ZM416.368 99.668C410.968 99.524 407.044 99.434 404.596 99.398V119H393.148V99.398C390.736 99.434 386.83 99.524 381.43 99.668V89.516H416.368V99.668ZM444.429 105.5H426.825C427.113 107.084 427.815 108.38 428.931 109.388C430.083 110.36 431.703 110.846 433.791 110.846C435.303 110.846 436.725 110.558 438.057 109.982C439.389 109.37 440.451 108.524 441.243 107.444C443.655 108.632 446.859 109.91 450.855 111.278C449.739 113.798 447.705 115.814 444.753 117.326C441.837 118.802 438.021 119.54 433.305 119.54C427.185 119.54 422.649 118.136 419.697 115.328C416.781 112.484 415.323 108.758 415.323 104.15C415.323 99.65 416.781 95.996 419.697 93.188C422.613 90.38 427.149 88.976 433.305 88.976C436.977 88.976 440.163 89.588 442.863 90.812C445.563 92.036 447.633 93.746 449.073 95.942C450.513 98.102 451.233 100.586 451.233 103.394C451.233 104.33 451.197 105.032 451.125 105.5H444.429ZM434.061 97.13C432.261 97.13 430.785 97.472 429.633 98.156C428.481 98.84 427.671 99.776 427.203 100.964H439.947C439.515 99.812 438.813 98.894 437.841 98.21C436.869 97.49 435.609 97.13 434.061 97.13Z" fill="white"/>
<path d="M12.122 182.258C12.194 184.094 12.77 185.57 13.85 186.686C14.966 187.802 16.604 188.36 18.764 188.36C19.952 188.36 21.014 188.144 21.95 187.712C22.886 187.244 23.75 186.56 24.542 185.66C27.602 186.848 31.184 187.874 35.288 188.738C34.1 191.51 32.084 193.67 29.24 195.218C26.432 196.766 22.778 197.54 18.278 197.54C12.266 197.54 7.82 196.136 4.94 193.328C2.06 190.52 0.62 186.83 0.62 182.258C0.62 177.686 2.06 173.996 4.94 171.188C7.82 168.38 12.266 166.976 18.278 166.976C22.778 166.976 26.432 167.75 29.24 169.298C32.084 170.846 34.1 173.006 35.288 175.778C32.084 176.462 28.502 177.488 24.542 178.856C23.75 177.956 22.886 177.29 21.95 176.858C21.014 176.39 19.952 176.156 18.764 176.156C16.604 176.156 14.966 176.714 13.85 177.83C12.77 178.946 12.194 180.422 12.122 182.258ZM100.64 157.796L104.852 197H90.8662L90.0022 169.028L84.6022 197H70.4542L64.9462 169.244L64.1362 197H50.1502L54.3622 157.796H72.7222L77.4202 183.338L81.5242 157.796H100.64ZM126.548 197.54C120.392 197.54 115.856 196.136 112.94 193.328C110.06 190.484 108.62 186.758 108.62 182.15C108.62 177.65 110.06 173.996 112.94 171.188C115.856 168.38 120.392 166.976 126.548 166.976C130.688 166.976 134.144 167.66 136.916 169.028C139.724 170.36 141.794 172.178 143.126 174.482C144.458 176.75 145.124 179.306 145.124 182.15C145.124 186.794 143.576 190.52 140.48 193.328C137.42 196.136 132.776 197.54 126.548 197.54ZM126.764 188.36C129.104 188.36 130.85 187.802 132.002 186.686C133.154 185.57 133.73 184.076 133.73 182.204C133.73 180.44 133.154 179 132.002 177.884C130.85 176.732 129.104 176.156 126.764 176.156C124.424 176.156 122.714 176.714 121.634 177.83C120.554 178.946 120.014 180.404 120.014 182.204C120.014 184.076 120.554 185.57 121.634 186.686C122.714 187.802 124.424 188.36 126.764 188.36ZM161.45 175.508C162.962 170.072 166.724 167.354 172.736 167.354C173.78 167.354 174.788 167.426 175.76 167.57L174.032 179.666C171.44 178.694 169.316 178.208 167.66 178.208C165.608 178.208 164.096 178.82 163.124 180.044C162.152 181.268 161.666 182.906 161.666 184.958V184.904L161.612 188.468C161.612 191.024 161.684 193.868 161.828 197H148.922C149.21 191.816 149.354 186.92 149.354 182.312C149.354 177.704 149.21 172.772 148.922 167.516C151.298 167.624 153.116 167.678 154.376 167.678C155.708 167.678 157.526 167.624 159.83 167.516L161.45 175.508ZM207.019 183.5H189.415C189.703 185.084 190.405 186.38 191.521 187.388C192.673 188.36 194.293 188.846 196.381 188.846C197.893 188.846 199.315 188.558 200.647 187.982C201.979 187.37 203.041 186.524 203.833 185.444C206.245 186.632 209.449 187.91 213.445 189.278C212.329 191.798 210.295 193.814 207.343 195.326C204.427 196.802 200.611 197.54 195.895 197.54C189.775 197.54 185.239 196.136 182.287 193.328C179.371 190.484 177.913 186.758 177.913 182.15C177.913 177.65 179.371 173.996 182.287 171.188C185.203 168.38 189.739 166.976 195.895 166.976C199.567 166.976 202.753 167.588 205.453 168.812C208.153 170.036 210.223 171.746 211.663 173.942C213.103 176.102 213.823 178.586 213.823 181.394C213.823 182.33 213.787 183.032 213.715 183.5H207.019ZM196.651 175.13C194.851 175.13 193.375 175.472 192.223 176.156C191.071 176.84 190.261 177.776 189.793 178.964H202.537C202.105 177.812 201.403 176.894 200.431 176.21C199.459 175.49 198.199 175.13 196.651 175.13ZM234.97 197.54C228.814 197.54 224.278 196.136 221.362 193.328C218.482 190.484 217.042 186.758 217.042 182.15C217.042 177.65 218.482 173.996 221.362 171.188C224.278 168.38 228.814 166.976 234.97 166.976C239.11 166.976 242.566 167.66 245.338 169.028C248.146 170.36 250.216 172.178 251.548 174.482C252.88 176.75 253.546 179.306 253.546 182.15C253.546 186.794 251.998 190.52 248.902 193.328C245.842 196.136 241.198 197.54 234.97 197.54ZM235.186 188.36C237.526 188.36 239.272 187.802 240.424 186.686C241.576 185.57 242.152 184.076 242.152 182.204C242.152 180.44 241.576 179 240.424 177.884C239.272 176.732 237.526 176.156 235.186 176.156C232.846 176.156 231.136 176.714 230.056 177.83C228.976 178.946 228.436 180.404 228.436 182.204C228.436 184.076 228.976 185.57 230.056 186.686C231.136 187.802 232.846 188.36 235.186 188.36ZM278.404 197C278.62 191.708 278.728 186.83 278.728 182.366C278.728 180.782 278.332 179.522 277.54 178.586C276.784 177.65 275.812 177.182 274.624 177.182C273.436 177.182 272.428 177.722 271.6 178.802C270.772 179.846 270.286 181.286 270.142 183.122C270.07 185.858 270.034 187.802 270.034 188.954C270.034 191.402 270.106 194.084 270.25 197H257.344C257.632 191.816 257.776 186.92 257.776 182.312C257.776 177.704 257.632 172.772 257.344 167.516C259.72 167.624 261.538 167.678 262.798 167.678C264.13 167.678 265.948 167.624 268.252 167.516L269.818 175.454C270.646 172.574 271.942 170.45 273.706 169.082C275.47 167.678 277.522 166.976 279.862 166.976C282.022 166.976 283.894 167.462 285.478 168.434C287.062 169.37 288.25 170.648 289.042 172.268C289.87 173.888 290.284 175.706 290.284 177.722V185.498C290.284 190.286 290.374 194.12 290.554 197H278.404ZM347.821 167.894H318.445V173.564C320.281 173.6 323.035 173.618 326.707 173.618C333.043 173.618 339.487 173.51 346.039 173.294V183.878C339.487 183.626 332.575 183.5 325.303 183.5C322.279 183.5 319.993 183.518 318.445 183.554V197H305.701C305.989 190.016 306.133 183.482 306.133 177.398C306.133 171.314 305.989 164.78 305.701 157.796H347.821V167.894ZM359.396 164.33C357.128 164.33 355.436 163.772 354.32 162.656C353.24 161.54 352.7 160.082 352.7 158.282C352.7 156.518 353.24 155.06 354.32 153.908C355.436 152.756 357.128 152.18 359.396 152.18C361.556 152.18 363.212 152.774 364.364 153.962C365.516 155.114 366.092 156.554 366.092 158.282C366.092 160.082 365.534 161.54 364.418 162.656C363.302 163.772 361.628 164.33 359.396 164.33ZM353.132 197C353.384 191.204 353.51 186.416 353.51 182.636C353.51 178.136 353.366 173.096 353.078 167.516H366.038C365.75 172.88 365.606 177.92 365.606 182.636C365.606 186.596 365.732 191.384 365.984 197H353.132ZM395.395 177.182C392.083 176.966 389.059 176.804 386.323 176.696L386.269 182.42C386.269 184.364 386.683 185.894 387.511 187.01C388.375 188.09 389.887 188.63 392.047 188.63C392.875 188.63 393.667 188.558 394.423 188.414C394.279 189.746 394.207 191.096 394.207 192.464C394.207 193.112 394.243 194.588 394.315 196.892C392.731 197.18 391.399 197.36 390.319 197.432C389.239 197.504 387.835 197.54 386.107 197.54C381.895 197.54 378.907 196.532 377.143 194.516C375.415 192.464 374.551 189.62 374.551 185.984L374.605 176.858C372.913 176.93 371.149 177.038 369.313 177.182V167.624C371.185 167.624 372.769 167.03 374.065 165.842C375.361 164.654 376.135 163.232 376.387 161.576H391.075C389.239 164.096 387.205 166.112 384.973 167.624H395.395V177.182ZM419.679 197C419.895 191.708 420.003 186.83 420.003 182.366C420.003 180.782 419.607 179.522 418.815 178.586C418.059 177.65 417.087 177.182 415.899 177.182C414.711 177.182 413.703 177.722 412.875 178.802C412.047 179.846 411.561 181.286 411.417 183.122C411.345 185.858 411.309 187.802 411.309 188.954C411.309 191.402 411.381 194.084 411.525 197H398.619C398.907 191.816 399.051 186.92 399.051 182.312C399.051 177.704 398.907 172.772 398.619 167.516C400.995 167.624 402.813 167.678 404.073 167.678C405.405 167.678 407.223 167.624 409.527 167.516L411.093 175.454C411.921 172.574 413.217 170.45 414.981 169.082C416.745 167.678 418.797 166.976 421.137 166.976C423.297 166.976 425.169 167.462 426.753 168.434C428.337 169.37 429.525 170.648 430.317 172.268C431.145 173.888 431.559 175.706 431.559 177.722V185.498C431.559 190.286 431.649 194.12 431.829 197H419.679ZM464.732 183.5H447.128C447.416 185.084 448.118 186.38 449.234 187.388C450.386 188.36 452.006 188.846 454.094 188.846C455.606 188.846 457.028 188.558 458.36 187.982C459.692 187.37 460.754 186.524 461.546 185.444C463.958 186.632 467.162 187.91 471.158 189.278C470.042 191.798 468.008 193.814 465.056 195.326C462.14 196.802 458.324 197.54 453.608 197.54C447.488 197.54 442.952 196.136 440 193.328C437.084 190.484 435.626 186.758 435.626 182.15C435.626 177.65 437.084 173.996 440 171.188C442.916 168.38 447.452 166.976 453.608 166.976C457.28 166.976 460.466 167.588 463.166 168.812C465.866 170.036 467.936 171.746 469.376 173.942C470.816 176.102 471.536 178.586 471.536 181.394C471.536 182.33 471.5 183.032 471.428 183.5H464.732ZM454.364 175.13C452.564 175.13 451.088 175.472 449.936 176.156C448.784 176.84 447.974 177.776 447.506 178.964H460.25C459.818 177.812 459.116 176.894 458.144 176.21C457.172 175.49 455.912 175.13 454.364 175.13ZM492.737 197.54C489.713 197.54 486.635 197.126 483.503 196.298C480.407 195.434 477.491 194.138 474.755 192.41L480.425 184.688C482.081 185.876 484.079 186.812 486.419 187.496C488.759 188.144 490.775 188.468 492.467 188.468C494.087 188.468 495.329 188.252 496.193 187.82C497.093 187.352 497.543 186.758 497.543 186.038C497.543 185.462 497.327 185.012 496.895 184.688C496.463 184.364 495.869 184.202 495.113 184.202C494.645 184.202 494.105 184.22 493.493 184.256C492.917 184.292 492.449 184.328 492.089 184.364C490.217 184.58 488.291 184.688 486.311 184.688C483.107 184.688 480.497 184.094 478.481 182.906C476.501 181.682 475.511 179.702 475.511 176.966C475.511 173.798 477.005 171.35 479.993 169.622C482.981 167.858 487.373 166.976 493.169 166.976C496.013 166.976 498.875 167.39 501.755 168.218C504.671 169.01 507.245 170.216 509.477 171.836L503.267 178.1C501.215 177.02 499.289 176.264 497.489 175.832C495.725 175.364 493.943 175.13 492.143 175.13C490.883 175.13 489.803 175.382 488.903 175.886C488.003 176.39 487.553 176.966 487.553 177.614C487.553 178.118 487.733 178.514 488.093 178.802C488.489 179.09 488.993 179.234 489.605 179.234C490.217 179.234 491.063 179.18 492.143 179.072C494.771 178.892 496.733 178.802 498.029 178.802C501.773 178.802 504.671 179.432 506.723 180.692C508.775 181.952 509.801 183.878 509.801 186.47C509.801 190.358 508.289 193.184 505.265 194.948C502.241 196.676 498.065 197.54 492.737 197.54ZM531.022 197.54C527.998 197.54 524.92 197.126 521.788 196.298C518.692 195.434 515.776 194.138 513.04 192.41L518.71 184.688C520.366 185.876 522.364 186.812 524.704 187.496C527.044 188.144 529.06 188.468 530.752 188.468C532.372 188.468 533.614 188.252 534.478 187.82C535.378 187.352 535.828 186.758 535.828 186.038C535.828 185.462 535.612 185.012 535.18 184.688C534.748 184.364 534.154 184.202 533.398 184.202C532.93 184.202 532.39 184.22 531.778 184.256C531.202 184.292 530.734 184.328 530.374 184.364C528.502 184.58 526.576 184.688 524.596 184.688C521.392 184.688 518.782 184.094 516.766 182.906C514.786 181.682 513.796 179.702 513.796 176.966C513.796 173.798 515.29 171.35 518.278 169.622C521.266 167.858 525.658 166.976 531.454 166.976C534.298 166.976 537.16 167.39 540.04 168.218C542.956 169.01 545.53 170.216 547.762 171.836L541.552 178.1C539.5 177.02 537.574 176.264 535.774 175.832C534.01 175.364 532.228 175.13 530.428 175.13C529.168 175.13 528.088 175.382 527.188 175.886C526.288 176.39 525.838 176.966 525.838 177.614C525.838 178.118 526.018 178.514 526.378 178.802C526.774 179.09 527.278 179.234 527.89 179.234C528.502 179.234 529.348 179.18 530.428 179.072C533.056 178.892 535.018 178.802 536.314 178.802C540.058 178.802 542.956 179.432 545.008 180.692C547.06 181.952 548.086 183.878 548.086 186.47C548.086 190.358 546.574 193.184 543.55 194.948C540.526 196.676 536.35 197.54 531.022 197.54Z" fill="#33B0AA"/>
</svg>
