<svg width="90" height="63" viewBox="0 0 90 63" fill="none" xmlns="http://www.w3.org/2000/svg">
<path d="M11.4335 13.2323L32.2594 16.1192C32.9864 18.1091 36.6494 27.905 37.3364 29.6595H37.3262C31.293 32.8781 25.2606 36.0849 19.2242 39.3018C21.3198 38.8874 23.442 38.6807 25.5759 38.6807C28.3664 38.6807 31.1021 39.0461 33.7141 39.7541C38.9828 41.1997 43.7421 43.5044 48.3441 45.7475C52.4445 47.7374 56.3265 49.6243 60.2 50.707C60.7462 50.8623 61.2721 50.9931 61.7979 51.107C57.2069 40.9702 44.8619 13.6567 42.4228 7.64399C41.2772 4.80935 39.6988 3.75702 37.46 3.44562L13.0001 0.0540167C9.6251 -0.409281 6.53572 2.15869 6.09673 5.79755C5.6773 9.43726 8.0585 12.7681 11.4335 13.2323Z" fill="white"/>
<path d="M1.59398 60.6055C2.27164 61.1313 3.04712 61.3802 3.82181 61.3802C3.9924 61.3802 4.15517 61.3684 4.32028 61.3363C5.33286 61.1946 6.29066 60.6157 6.92919 59.657C9.40664 55.9321 13.2418 53.0038 17.7068 51.3961C20.2696 50.4788 22.9458 50.0164 25.5766 50.0164C35.11 50.0164 43.285 56.1624 51.8927 59.7C56.4994 61.598 61.3071 62.9997 66.5414 62.9997C68.7411 62.9997 71.0158 62.7482 73.3775 62.1811C78.9333 60.8612 83.6973 58.0148 87.1341 54.024C87.9589 53.0696 88.7086 52.0561 89.3651 50.9767C90.5326 49.0788 90.0428 46.5218 88.2829 45.2619C87.6349 44.7977 86.9072 44.58 86.1787 44.58C84.9368 44.58 83.7224 45.229 82.9891 46.429C82.6902 46.9134 82.367 47.3767 82.0133 47.829C79.6235 50.8991 76.0373 53.1075 71.7342 54.1287C67.7645 55.0654 63.3863 54.7869 59.4729 53.6966C55.3608 52.5405 51.3825 50.6105 47.1569 48.5598C42.6644 46.3843 38.028 44.1268 32.9972 42.7445C30.6058 42.0812 28.1002 41.7656 25.5664 41.7656C22.1163 41.7656 18.6075 42.3715 15.2693 43.5699C12.352 44.623 9.64453 46.0847 7.21872 47.9328C4.65363 49.8797 2.46571 52.2029 0.705827 54.8426C0.591579 55.0164 0.496112 55.1911 0.410035 55.3759C-0.423346 57.1599 0.0344262 59.4005 1.59398 60.6055Z" fill="white"/>
<path d="M84.3329 26.9167C84.3329 34.9557 78.2942 41.468 70.8423 41.468C63.3927 41.468 57.3494 34.9557 57.3494 26.9167C57.3494 18.882 63.3935 12.3672 70.8423 12.3672C78.295 12.3672 84.3329 18.882 84.3329 26.9167Z" fill="white"/>
</svg>
