<svg width="87" height="92" viewBox="0 0 87 92" fill="none" xmlns="http://www.w3.org/2000/svg">
<path d="M7.23773 62.0944C7.54844 62.145 7.85833 62.1873 8.16904 62.2221C13.4611 62.8276 18.7101 61.4515 23.041 58.2995C26.463 55.8128 29.0084 52.4377 30.4492 48.5557C36.6138 52.6201 38.6148 60.8717 34.8655 67.3408C33.8671 69.0603 34.4529 71.2642 36.1697 72.262C36.6121 72.52 37.0861 72.6701 37.5658 72.7257C38.9429 72.8833 40.3465 72.2322 41.0864 70.9548C46.5202 61.5818 43.9682 49.7377 35.5474 43.3549C35.5541 43.3135 35.5632 43.2737 35.5673 43.233L37.2626 28.4095C40.1584 31.0141 43.8182 32.6797 47.7125 33.1267C50.2653 33.4204 52.9209 33.1889 55.525 32.3553C57.1466 31.8377 58.0414 30.1008 57.5244 28.4775C57.0065 26.8534 55.2723 25.9576 53.6492 26.4769C47.0347 28.592 39.938 24.9258 37.8252 18.3066C37.5633 17.4829 36.9858 16.8484 36.2699 16.4892C35.6576 16.0031 34.9252 15.6805 34.114 15.5876L32.2025 15.3686C31.8214 15.3263 31.4452 15.3396 31.0798 15.3968C21.1519 14.7183 12.321 21.9961 11.1776 31.9929C10.9837 33.685 12.1984 35.2145 13.8895 35.4094C15.5814 35.6044 17.1093 34.3884 17.3032 32.6954C17.9196 27.3063 21.8636 23.0935 26.8441 21.8791L24.5457 41.9706C24.5109 42.28 24.5051 42.5844 24.52 42.8855C24.4811 43.0215 24.4488 43.1584 24.4256 43.301C23.8381 47.0129 21.8462 50.2711 18.8145 52.4766C15.7828 54.6814 12.0733 55.5747 8.36376 54.9833C6.40253 54.6739 4.5598 56.0119 4.24908 57.9752C3.93671 59.9402 5.27568 61.7825 7.23773 62.0944Z" fill="white"/>
<path d="M34.9399 14.242C38.8685 14.242 42.0532 11.0538 42.0532 7.12101C42.0532 3.18819 38.8685 0 34.9399 0C31.0114 0 27.8267 3.18819 27.8267 7.12101C27.8267 11.0538 31.0114 14.242 34.9399 14.242Z" fill="white"/>
<path d="M76.824 75.5625H6.05269C2.71522 75.5625 0 78.279 0 81.6218C0 84.9612 2.71522 87.6794 6.05269 87.6794H76.824C80.1607 87.6794 82.8776 84.9621 82.8776 81.6218C82.8767 78.2798 80.1607 75.5625 76.824 75.5625ZM6.05269 85.7011C3.80479 85.7011 1.97696 83.8713 1.97696 81.6218C1.97696 79.3706 3.80479 77.54 6.05269 77.54H8.91788C7.0188 77.9265 5.58787 79.6062 5.58787 81.6218C5.58787 83.6374 7.0188 85.3163 8.91788 85.7011H6.05269ZM10.5767 85.7011C12.4766 85.3163 13.9059 83.6374 13.9059 81.6218C13.9059 79.6062 12.4766 77.9265 10.5767 77.54H72.2992C70.401 77.9265 68.9692 79.6062 68.9692 81.6218C68.9692 83.6374 70.401 85.3163 72.3009 85.7011H10.5767ZM76.824 85.7011H73.9605C75.8588 85.3163 77.2905 83.6374 77.2905 81.6218C77.2905 79.6062 75.8588 77.9265 73.9605 77.54H76.824C79.0719 77.54 80.8989 79.3706 80.8989 81.6218C80.8989 83.8713 79.0719 85.7011 76.824 85.7011Z" fill="white"/>
<path d="M79.8004 88.8945H3.07574C2.219 88.8945 1.52466 89.5888 1.52466 90.4456C1.52466 91.3033 2.219 91.9992 3.07574 91.9992H79.7995C80.6554 91.9992 81.3514 91.3033 81.3514 90.4456C81.3523 89.5888 80.6563 88.8945 79.8004 88.8945Z" fill="white"/>
<path d="M67.9619 29.7291L77.9843 43.0239L60.3433 72.748H79.7144L87 44.4746L86.7 44.3295L86.8616 44.2059L75.1481 28.6707L81.9598 22.6504L79.9762 20.4025L73.3394 26.2694L72.7536 25.493L81.978 17.3368L78.9653 13.9219L62.157 28.781L65.1688 32.1976L67.9619 29.7291Z" fill="white"/>
</svg>
