<svg width="108" height="92" viewBox="0 0 108 92" fill="none" xmlns="http://www.w3.org/2000/svg">
<path fill-rule="evenodd" clip-rule="evenodd" d="M53.6875 13.1964C55.6675 11.3826 57.5405 9.53865 59.5465 7.85415C65.2895 3.03025 71.8225 0.0903961 79.4175 0.0151951C93.2375 -0.120167 104.102 7.4992 107.227 20.7356C108.609 26.6003 108.01 32.4128 106.445 38.1712C106.25 38.8901 105.82 38.9041 105.246 38.9031C96.6425 38.8951 88.0375 38.8991 79.4335 38.8991C74.2495 38.8991 69.0655 38.8771 63.8815 38.9172C63.0475 38.9242 62.6735 38.6565 62.4395 37.8744C61.9945 36.3914 61.4615 34.9355 60.9405 33.4766C60.4175 32.0087 59.7555 31.4532 58.6075 31.4572C57.3915 31.4592 56.6465 32.0448 56.1515 33.4947C54.3735 38.7096 52.6155 43.9326 50.8485 49.1525C50.7805 49.3511 50.6865 49.5406 50.5355 49.9005C50.3615 49.5025 50.2245 49.2398 50.1295 48.962C46.5965 38.6765 43.0665 28.386 39.5375 18.0965C39.5145 18.0293 39.4965 17.9582 39.4725 17.891C38.9325 16.3358 37.9465 15.4424 36.7835 15.4555C35.6545 15.4675 34.7135 16.3248 34.1885 17.8549C31.7075 25.0762 29.2335 32.3005 26.7555 39.5228C26.6305 39.8898 26.4905 40.2518 26.2745 40.8483C25.4095 38.3527 24.6445 36.0856 23.8295 33.8366C23.6245 33.2741 23.3465 32.6845 22.9435 32.2614C21.7235 30.984 20.0055 31.2838 19.2005 32.854C18.2965 34.6167 17.3805 36.3744 16.5135 38.1562C16.2365 38.7247 15.8745 38.9172 15.2575 38.9152C11.0465 38.8931 6.83348 38.9172 2.62148 38.8731C2.27848 38.8701 1.71348 38.5241 1.63048 38.2313C-0.712522 29.867 -0.866523 21.629 3.41048 13.7639C7.51948 6.20675 14.0495 2.02156 22.3775 0.526562C32.9945 -1.37652 42.0175 1.97042 49.8515 9.08644C50.5975 9.76325 51.3025 10.4902 51.9885 11.2302C52.6495 11.9421 53.2605 12.7001 53.6875 13.1964Z" fill="white"/>
<path fill-rule="evenodd" clip-rule="evenodd" d="M20.9135 40.2323C21.8925 43.0679 22.7845 45.6488 23.6755 48.2317C24.2095 49.7799 25.1025 50.579 26.2885 50.576C27.4585 50.573 28.3715 49.7638 28.9025 48.2157C31.3785 40.9924 33.8456 33.7651 36.3195 26.5387C36.4576 26.1367 36.6145 25.7416 36.8305 25.1641C38.1115 28.883 39.3355 32.4205 40.5495 35.9609C42.9685 43.0138 45.3835 50.0686 47.8005 57.1215C47.8705 57.326 47.9395 57.5306 48.0175 57.7311C48.5265 59.0406 49.4276 59.7535 50.5485 59.7375C51.6955 59.7224 52.6005 59.0256 53.0585 57.7071C54.0485 54.8464 55.0045 51.9767 55.9765 49.1111C56.7935 46.6936 57.6145 44.2761 58.4915 41.6872C58.6955 41.9971 58.8365 42.1725 58.9365 42.3691C59.4785 43.4229 60.3565 43.8049 61.5065 43.8029C71.6585 43.7888 81.8145 43.7939 91.9665 43.7939C95.6035 43.7939 99.2395 43.7949 102.876 43.7999C103.191 43.7999 103.505 43.835 104 43.864C102.265 47.1619 100.006 49.8791 97.5355 52.5142C97.2895 52.3928 97.0616 52.3066 96.8586 52.1813C82.4156 43.2634 63.9886 51.2147 60.5386 67.8812C59.7046 71.915 59.9535 75.9237 61.2825 79.8362C61.5355 80.5782 61.3935 81.0234 60.8795 81.627C58.7555 84.1187 56.7235 86.6945 54.6615 89.2423C54.4415 89.5141 54.2455 89.8038 53.9865 90.1538C53.1545 89.0007 52.3815 87.9238 51.6035 86.852C47.8026 81.613 42.9095 77.5621 37.6885 73.8402C31.7065 69.5748 25.7215 65.3054 19.8625 60.8745C14.9665 57.1736 10.4195 53.0566 6.71755 48.1024C5.75455 46.8149 4.90855 45.4362 3.86255 43.8831C4.50155 43.842 4.86955 43.7989 5.23755 43.7989C9.01755 43.7939 12.8005 43.7257 16.5785 43.8259C18.3725 43.8741 19.5535 43.2705 20.1885 41.584C20.3395 41.1869 20.5905 40.8269 20.9135 40.2323Z" fill="white"/>
<path fill-rule="evenodd" clip-rule="evenodd" d="M84.0925 91.9984C73.5135 92.1027 64.7045 83.3583 64.6185 72.6677C64.5345 61.9982 73.1965 53.1044 83.7805 52.9971C94.4895 52.8868 103.384 61.4979 103.491 72.0842C103.608 83.1768 95.1175 91.8921 84.0925 91.9984ZM68.4215 72.4993C68.3885 81.1444 75.4025 88.2223 84.0355 88.2514C92.6205 88.2815 99.7335 81.1975 99.7765 72.5785C99.8175 64.0537 92.7745 56.8364 84.3835 56.8023C75.4465 56.7672 68.4545 63.6436 68.4215 72.4993Z" fill="white"/>
<path fill-rule="evenodd" clip-rule="evenodd" d="M86.9295 69.6697C89.3255 69.6697 91.6205 69.6657 93.9185 69.6717C95.4285 69.6747 95.7005 69.9474 95.7005 71.4184C95.7005 72.2105 95.7055 73.0056 95.6955 73.7997C95.6805 75.035 95.4145 75.3228 94.1565 75.3358C92.1065 75.3569 90.0525 75.385 88.0035 75.3288C87.0985 75.3047 86.8275 75.6106 86.8535 76.502C86.9115 78.5585 86.8805 80.617 86.8665 82.6734C86.8585 83.9088 86.6245 84.1384 85.4115 84.1624C84.5135 84.1805 83.6125 84.1835 82.7125 84.1684C81.5665 84.1494 81.2615 83.8376 81.2565 82.6564C81.2445 80.278 81.2535 77.8997 81.2535 75.3439C79.7595 75.3439 78.3355 75.3418 76.9095 75.3439C75.9375 75.3459 74.9675 75.3689 73.9935 75.3539C72.7885 75.3328 72.4355 74.9849 72.4165 73.8128C72.4015 72.9464 72.4015 72.0801 72.4165 71.2138C72.4355 70.0517 72.8055 69.6797 73.9895 69.6737C76.3605 69.6617 78.7295 69.6697 81.2525 69.6697C81.2525 68.5166 81.2525 67.4467 81.2525 66.3789C81.2525 65.0433 81.2425 63.7077 81.2545 62.3732C81.2655 61.19 81.6055 60.8511 82.8135 60.826C83.6775 60.81 84.5425 60.805 85.4065 60.8291C86.5425 60.8591 86.8675 61.19 86.8745 62.3461C86.8875 64.3675 86.8715 66.3879 86.8755 68.4093C86.8745 68.7953 86.9075 69.1804 86.9295 69.6697Z" fill="white"/>
</svg>
