<svg width="99" height="92" viewBox="0 0 99 92" fill="none" xmlns="http://www.w3.org/2000/svg">
<path fill-rule="evenodd" clip-rule="evenodd" d="M88.7369 65.8905C86.4076 65.8905 84.3094 65.8905 82.2075 65.8905C72.368 65.8905 62.5176 65.886 52.68 65.8979C51.6552 65.8979 50.612 65.9594 49.5899 66.0448C47.0343 66.2651 44.7655 65.4151 42.8295 63.8785C42.2071 63.3829 41.9331 62.2456 41.8093 61.3543C41.4683 58.8952 41.9816 56.6032 43.8388 54.8005C44.2687 54.3792 44.8178 54.0864 45.5704 53.5531C45.5704 55.4219 45.5328 56.9741 45.5795 58.5226C45.6565 61.0376 47.7859 62.7734 50.2233 62.3612C51.9118 62.0767 53.2685 60.351 53.3198 58.316C53.3712 56.1544 53.4087 53.99 53.3583 51.8412C53.3391 51.0637 53.6095 50.9077 54.3199 50.7617C59.8565 49.6465 65.3372 50.1678 70.751 51.3987C73.1784 51.955 75.3004 53.2492 76.6039 55.5945C76.7808 55.9212 77.4573 56.1131 77.901 56.1158C82.9335 56.1434 87.9724 56.2434 93.0002 56.1002C96.0536 56.0084 98.271 58.3886 98.3288 61.1175C98.5277 69.754 98.8 78.3868 98.9989 87.0142C99.0585 89.6688 96.7787 91.9506 94.1864 92.0002C91.7215 92.0406 89.3419 89.7991 89.2649 87.2409C89.0632 80.6788 88.9055 74.114 88.7396 67.5446C88.7259 67.0609 88.7369 66.5753 88.7369 65.8905Z" fill="white"/>
<path fill-rule="evenodd" clip-rule="evenodd" d="M16.6249 26.1185C15.8238 25.1978 15.0795 24.3846 14.38 23.5318C12.5871 21.3353 10.4842 20.9562 8.54733 22.5111C6.63334 24.0504 6.44817 26.5159 8.21 28.594C9.57399 30.1958 11.048 31.7066 12.4881 33.246C12.698 33.4791 12.9455 33.749 13.2232 33.8252C15.1482 34.3419 14.9805 35.6307 14.8127 37.2379C14.4919 40.3588 14.1985 43.5237 14.425 46.6335C14.5909 48.9063 15.734 51.0909 16.2207 53.3627C17.7983 60.6994 18.3519 68.1124 17.46 75.5979C16.9439 79.8992 16.1382 84.105 14.5588 88.1557C13.8126 90.0557 11.7245 92.3964 9.16883 91.8851C5.98343 91.2554 4.03827 88.4512 5.22901 85.39C6.879 81.1402 7.46933 76.7131 7.94691 72.2512C8.42541 67.7957 8.0835 63.3632 7.253 58.9582C6.96242 57.417 6.76992 55.8502 6.39867 54.3329C6.28684 53.8638 5.81476 53.2782 5.37385 53.1203C2.3617 52.0556 1.06554 49.625 0.59896 46.7896C-0.380951 40.7773 -0.234285 34.7798 1.60545 28.9071C2.25353 26.8253 2.82003 24.682 3.76144 22.7342C4.82752 20.522 6.66817 19.0717 9.15324 18.4384C14.3782 17.1065 17.6314 20.7781 16.6249 26.1185Z" fill="white"/>
<path fill-rule="evenodd" clip-rule="evenodd" d="M61.8505 24.7755C62.0806 31.2201 56.0921 37.0414 49.4041 37.0368C43.1378 37.0322 36.9054 31.6157 37.0108 24.435C37.1098 17.9004 42.6795 12.1911 49.6012 12.2664C56.6366 12.3389 62.1943 18.4062 61.8505 24.7755ZM49.3491 29.3687C52.177 29.4008 54.2532 27.4273 54.278 24.6654C54.289 22.0714 52.0166 19.6802 49.5003 19.6463C47.0034 19.6197 44.4752 21.9998 44.5944 24.535C44.7383 27.4209 46.0702 29.3209 49.3491 29.3687Z" fill="white"/>
<path fill-rule="evenodd" clip-rule="evenodd" d="M85.4781 69.2109C85.4781 70.8971 85.4781 72.4557 85.4781 74.0914C64.3674 74.0914 43.3355 74.0914 22.2056 74.0914C22.2056 72.4631 22.2056 70.8742 22.2056 69.2109C43.2879 69.2109 64.3307 69.2109 85.4781 69.2109Z" fill="white"/>
<path fill-rule="evenodd" clip-rule="evenodd" d="M22.1825 57.7948C21.902 53.9277 26.3175 48.6498 31.3711 48.9967C35.992 49.3171 39.9914 53.287 39.907 58.038C39.8282 62.6927 35.7601 66.6746 31.1199 66.6883C26.5962 66.7076 22.0358 62.7533 22.1825 57.7948Z" fill="white"/>
<path fill-rule="evenodd" clip-rule="evenodd" d="M19.1739 0.00111122C22.9277 -0.0677313 27.6567 3.06506 27.7667 8.58531C27.8666 13.9358 23.9305 17.5009 19.2757 17.6909C14.553 17.8846 10.4079 13.9275 10.3456 9.11402C10.275 3.78286 14.1195 0.252616 19.1739 0.00111122Z" fill="white"/>
<path fill-rule="evenodd" clip-rule="evenodd" d="M31.0769 38.7629C26.7393 38.8143 22.6189 37.879 18.6827 36.0845C14.5642 34.2074 11.2248 31.3518 8.6132 27.6756C7.25013 25.7599 7.61038 24.0444 9.42445 22.9374C10.5052 22.2802 11.6309 22.1654 12.6832 23.0081C13.1681 23.3972 13.6466 23.8314 14.0151 24.3271C18.9577 30.9249 25.8107 32.8268 33.6161 32.2311C35.8032 32.0687 38.0371 31.2793 39.2737 34.0036C39.3351 34.1422 39.5863 34.1844 39.7054 34.3138C40.1546 34.8269 41.063 35.6402 40.9558 35.8229C40.4938 36.5811 39.8301 37.4182 39.0464 37.7128C37.7731 38.1938 36.3468 38.3324 34.9709 38.5096C33.6802 38.6665 32.374 38.6849 31.0769 38.7629Z" fill="white"/>
<path fill-rule="evenodd" clip-rule="evenodd" d="M46.3927 38.4141C48.4377 38.4141 50.3407 38.4141 52.395 38.4141C52.4216 38.6986 52.4738 39.0823 52.4738 39.4651C52.4811 45.6159 52.4885 51.7612 52.472 57.9185C52.4683 59.2082 52.2776 60.4749 51.0255 61.1853C49.0556 62.3098 46.8418 61.189 46.4669 58.9264C46.3927 58.4426 46.3963 57.9506 46.3945 57.4596C46.3908 51.5272 46.3927 45.5957 46.3927 39.6707C46.3927 39.231 46.3927 38.7904 46.3927 38.4141Z" fill="white"/>
<path fill-rule="evenodd" clip-rule="evenodd" d="M49.4077 28.3766C47.4103 28.3573 45.8566 26.7216 45.8465 24.6114C45.8337 22.6269 47.5176 20.9086 49.4829 20.8985C51.3951 20.8902 53.1193 22.7003 53.0533 24.6756C52.9983 26.773 51.3951 28.3959 49.4077 28.3766Z" fill="white"/>
</svg>
