<svg width="91" height="92" viewBox="0 0 91 92" fill="none" xmlns="http://www.w3.org/2000/svg">
<path fill-rule="evenodd" clip-rule="evenodd" d="M41.9136 92.0009C39.4454 91.0598 36.8509 90.3643 34.5308 89.1357C26.1474 84.6997 21.3149 74.4084 22.9283 65.4833C24.8506 54.8549 32.7143 47.3159 43.0335 46.1044C55.1938 44.6782 65.8881 52.9702 67.9924 65.7161C69.9062 77.3121 62.3685 88.4299 51.2925 91.2309C50.5298 91.4251 49.7951 91.7417 49.0493 92.0009C46.6699 92.0009 44.2931 92.0009 41.9136 92.0009ZM45.5154 48.9209C34.5756 48.9063 25.5049 58.1009 25.5608 69.1511C25.615 79.9848 34.5926 89.0467 45.3351 89.1117C56.3213 89.1768 65.3717 80.0883 65.3641 68.9962C65.3556 58.0042 56.3899 48.9354 45.5154 48.9209Z" fill="white"/>
<path fill-rule="evenodd" clip-rule="evenodd" d="M0 17.1869C2.02474 14.7229 4.04779 12.259 6.296 9.51953C13.5172 22.0233 20.5945 34.2773 27.6151 46.4328C25.5158 48.7719 23.5376 50.9775 21.4325 53.3259C18.2955 48.0677 15.1754 42.8096 12.0274 37.5694C8.03041 30.9184 4.01139 24.2819 0.000846403 17.6395C-6.13913e-08 17.4881 0 17.3366 0 17.1869Z" fill="white"/>
<path fill-rule="evenodd" clip-rule="evenodd" d="M73.8212 0.242188C72.2993 2.85502 70.9762 5.27449 69.4831 7.58104C69.1284 8.12859 68.2007 8.58801 67.5337 8.59058C52.8331 8.64705 38.1317 8.64705 23.4303 8.59058C22.7642 8.58801 21.8356 8.12944 21.4809 7.58361C19.9869 5.27621 18.6639 2.85673 17.1411 0.242188C36.0892 0.242188 54.802 0.242188 73.8212 0.242188Z" fill="white"/>
<path fill-rule="evenodd" clip-rule="evenodd" d="M13.9846 0.0234375C21.9719 13.8636 29.8118 27.4462 37.7313 41.1657C35.0751 42.3917 32.5704 43.5484 29.8965 44.7838C26.9762 39.7523 24.0482 34.726 21.1389 29.6894C17.1377 22.7655 13.1906 15.8091 9.12083 8.92708C8.33362 7.59585 8.3497 6.71721 9.37393 5.59046C10.9204 3.88622 12.3222 2.0468 13.9846 0.0234375Z" fill="white"/>
<path fill-rule="evenodd" clip-rule="evenodd" d="M60.9081 44.715C58.4465 43.5797 55.9774 42.4384 53.234 41.1713C61.09 27.5553 68.952 13.9291 76.9883 0C78.8074 2.2458 80.5553 4.33162 82.1992 6.50127C82.4641 6.84948 82.4734 7.68706 82.2432 8.08574C75.1684 20.2969 68.0488 32.4816 60.9081 44.715Z" fill="white"/>
<path fill-rule="evenodd" clip-rule="evenodd" d="M84.6779 9.49219C86.921 12.265 88.9271 14.7435 91.0001 17.3059C83.8289 29.3417 76.6898 41.3261 69.5372 53.3319C67.4303 50.9801 65.453 48.7762 63.3521 46.4337C70.3472 34.3149 77.4042 22.0909 84.6779 9.49219Z" fill="white"/>
<path fill-rule="evenodd" clip-rule="evenodd" d="M23.9194 11.7656C38.4312 11.7656 52.5663 11.7656 67.046 11.7656C65.4639 14.4803 64.0622 16.9981 62.5191 19.4253C62.2499 19.8479 61.3823 20.0644 60.7897 20.067C50.5568 20.1046 40.3231 20.1097 30.0893 20.055C29.4655 20.0524 28.5835 19.6708 28.2669 19.1738C26.7923 16.863 25.4727 14.452 23.9194 11.7656Z" fill="white"/>
<path fill-rule="evenodd" clip-rule="evenodd" d="M62.4622 69.1019C62.4546 78.8517 55.0683 86.194 45.2807 86.176C35.7943 86.1597 28.4961 78.6635 28.4843 68.9257C28.4724 59.2178 35.9078 51.8345 45.6785 51.8516C55.1767 51.8678 62.469 59.3633 62.4622 69.1019ZM43.3363 80.4858C45.2002 80.4858 46.6536 80.4858 48.2213 80.4858C48.2213 72.7705 48.2213 65.1801 48.2213 57.612C44.9573 57.2159 45.0547 57.3091 43.1789 59.347C42.092 60.5277 40.7199 61.5175 39.3182 62.3055C36.5925 63.8352 36.5164 63.8198 37.3357 67.307C39.2818 66.3334 41.1787 65.3863 43.3363 64.3075C43.3363 69.7282 43.3363 74.9992 43.3363 80.4858Z" fill="white"/>
</svg>
