<svg width="77" height="92" viewBox="0 0 77 92" fill="none" xmlns="http://www.w3.org/2000/svg">
<path fill-rule="evenodd" clip-rule="evenodd" d="M66.6715 91.7275C69.897 91.7275 72.5458 88.9305 72.5458 85.5093V82.6375C72.5458 80.3301 63.1584 71.9417 57.3251 66.8201C51.3608 61.5868 51.899 61.0857 51.899 50.4334L52.2972 51.5119C52.5594 52.3687 53.028 53.1769 53.7006 53.8571L53.7129 53.8456L67.313 67.552C69.5193 69.7764 73.1086 69.7846 75.3297 67.5733C77.5483 65.3588 77.5581 61.7601 75.351 59.5373L66.7321 50.8523C58.7761 42.8302 59.6372 27.8637 51.6877 27.9894H38.8086H38.1941H25.3134C17.3614 27.8646 18.2233 42.8302 10.2673 50.8523L1.64923 59.5373C-0.55791 61.7601 -0.548898 65.3588 1.67135 67.5733C3.88997 69.7838 7.47842 69.7764 9.68639 67.552L23.2856 53.8464L23.2971 53.8579C23.9714 53.1778 24.4408 52.3687 24.7014 51.5127L25.0995 50.4342C25.0995 61.0865 25.637 61.5876 19.6751 66.8209C13.8393 71.9417 4.452 80.331 4.452 82.6384V85.5101C4.452 88.9313 7.10155 91.7283 10.3287 91.7283H23.5462C21.285 89.4603 20.9466 87.0683 21.2989 84.2188C22.4319 75.013 37.4527 73.4687 47.062 74.0306C54.583 75.4106 51.3116 77.7246 49.5297 77.6769C49.2134 77.6663 48.9021 77.6613 48.6063 77.6597C27.2592 75.6291 18.4953 85.4624 31.1294 91.219C34.5704 92.6015 61.3658 91.7275 66.6715 91.7275ZM38.4866 0C31.2335 0 25.3527 5.89541 25.3527 13.1667C25.3527 20.4429 31.2335 26.3383 38.4866 26.3383C45.7413 26.3383 51.6221 20.4429 51.6221 13.1667C51.6221 5.89541 45.7421 0 38.4866 0Z" fill="white"/>
</svg>
