<svg width="463" height="42" viewBox="0 0 463 42" fill="none" xmlns="http://www.w3.org/2000/svg">
<path d="M22.92 16.28C23.88 16.0933 24.8267 16 25.76 16C27.3867 16 28.7067 16.28 29.72 16.84C30.76 17.3733 31.5067 18.0667 31.96 18.92C32.4133 19.7467 32.64 20.6133 32.64 21.52C32.64 23.6267 31.9467 25.4267 30.56 26.92C29.1733 28.3867 27.2933 29.5067 24.92 30.28C22.5467 31.0267 19.9067 31.4 17 31.4C8.57333 31.4 3.12 28.4667 0.64 22.6L2.88 22.04C4.53333 21.64 5.93333 21.2667 7.08 20.92C8.25333 20.5467 9.28 20.1333 10.16 19.68C10.6933 21.0133 11.4533 21.9733 12.44 22.56C13.4533 23.12 14.84 23.4 16.6 23.4C18.4667 23.4 19.9867 23.1867 21.16 22.76C22.3333 22.3333 22.92 21.6933 22.92 20.84C22.92 20.3867 22.6933 20.04 22.24 19.8C21.7867 19.56 21.0667 19.4 20.08 19.32C19.0933 19.2133 17.7067 19.16 15.92 19.16H12.88V12.16H14.72C16.7467 12.16 18.4 12.08 19.68 11.92C20.96 11.7333 21.6 11.3467 21.6 10.76C21.6 10.0933 21.2533 9.56 20.56 9.16C19.8933 8.73333 18.84 8.52 17.4 8.52C15.5333 8.52 14.0133 8.90667 12.84 9.68C11.6933 10.4533 10.8 11.5733 10.16 13.04C7.30667 11.8933 4.26667 11.08 1.04 10.6C2.32 7.72 4.28 5.49333 6.92 3.92C9.58667 2.34666 13.0133 1.56 17.2 1.56C19.92 1.56 22.36 1.92 24.52 2.64C26.7067 3.33333 28.4133 4.30667 29.64 5.56C30.8933 6.81333 31.52 8.21333 31.52 9.76C31.52 10.6667 31.3067 11.48 30.88 12.2C30.4533 12.8933 29.6133 13.5867 28.36 14.28C27.1067 14.9467 25.2933 15.6133 22.92 16.28ZM48.7144 31.4C44.1544 31.4 40.7944 30.36 38.6344 28.28C36.501 26.1733 35.4344 23.4133 35.4344 20C35.4344 16.6667 36.501 13.96 38.6344 11.88C40.7944 9.8 44.1544 8.76 48.7144 8.76C51.781 8.76 54.341 9.26667 56.3944 10.28C58.4744 11.2667 60.0077 12.6133 60.9944 14.32C61.981 16 62.4744 17.8933 62.4744 20C62.4744 23.44 61.3277 26.2 59.0344 28.28C56.7677 30.36 53.3277 31.4 48.7144 31.4ZM48.8744 24.6C50.6077 24.6 51.901 24.1867 52.7544 23.36C53.6077 22.5333 54.0344 21.4267 54.0344 20.04C54.0344 18.7333 53.6077 17.6667 52.7544 16.84C51.901 15.9867 50.6077 15.56 48.8744 15.56C47.141 15.56 45.8744 15.9733 45.0744 16.8C44.2744 17.6267 43.8744 18.7067 43.8744 20.04C43.8744 21.4267 44.2744 22.5333 45.0744 23.36C45.8744 24.1867 47.141 24.6 48.8744 24.6ZM90.4875 9.16C90.3542 13.2133 90.2875 16.8533 90.2875 20.08C90.2875 23.3067 90.3542 26.9467 90.4875 31H81.8075V23.72H73.9675V31H65.2875C65.4208 27.96 65.4875 24.32 65.4875 20.08C65.4875 15.84 65.4208 12.2 65.2875 9.16H73.9675V16.44H81.8075V9.16H90.4875ZM107.566 14.04C111.539 14.04 114.313 14.8267 115.886 16.4C117.459 17.9467 118.246 20.1067 118.246 22.88C118.246 25.4667 117.459 27.4667 115.886 28.88C114.339 30.2667 111.566 30.96 107.566 30.96H102.246V31H93.6859C93.8193 27.96 93.8859 24.32 93.8859 20.08C93.8859 15.84 93.8193 12.2 93.6859 9.16H102.246V14.04H107.566ZM128.566 9.16C128.433 12.1467 128.366 15.7733 128.366 20.04C128.366 24.28 128.433 27.9067 128.566 30.92H119.806C119.886 25.56 119.926 21.0533 119.926 17.4C119.926 13.7467 119.886 11 119.806 9.16H128.566ZM105.166 24.6C107.059 24.6 108.379 24.4533 109.126 24.16C109.873 23.8667 110.246 23.2933 110.246 22.44C110.246 21.5867 109.859 21.0133 109.086 20.72C108.313 20.4 107.006 20.24 105.166 20.24L102.246 20.28V24.6H105.166Z" fill="#33B0AA"/>
<path d="M169.38 20C169.38 22.9067 168.46 25.3467 166.62 27.32C164.806 29.2933 162.06 30.56 158.38 31.12C158.38 35.3333 158.406 38.3867 158.46 40.28H150.14L150.22 31.16C146.513 30.6267 143.78 29.3733 142.02 27.4C140.26 25.4 139.38 22.9333 139.38 20C139.38 17.1467 140.246 14.7333 141.98 12.76C143.74 10.7867 146.473 9.54667 150.18 9.04L150.14 5.12H158.46L158.42 9.08C162.046 9.66667 164.78 10.9467 166.62 12.92C168.46 14.8933 169.38 17.2533 169.38 20ZM147.38 20.04C147.38 22.1733 148.34 23.6533 150.26 24.48V22.24C150.26 19.3333 150.246 17.16 150.22 15.72C148.326 16.5467 147.38 17.9867 147.38 20.04ZM158.38 24.48C159.393 24.0533 160.14 23.4533 160.62 22.68C161.126 21.9067 161.38 21.0267 161.38 20.04C161.38 19.1067 161.14 18.2667 160.66 17.52C160.18 16.7467 159.446 16.1467 158.46 15.72C158.46 18.6533 158.446 20.8267 158.42 22.24C158.42 23.2267 158.406 23.9733 158.38 24.48ZM197.203 9.16C197.069 13.0267 197.003 16.52 197.003 19.64C197.003 22.7067 197.069 26.2 197.203 30.12H189.003L189.443 16.28L183.323 30.12H172.163C172.323 26.6 172.403 23.1067 172.403 19.64C172.403 16.12 172.323 12.6267 172.163 9.16H180.043L179.643 23.36L185.763 9.16H197.203ZM224.685 16.68C220.685 16.5733 217.778 16.5067 215.965 16.48V31H207.485V16.48C205.698 16.5067 202.805 16.5733 198.805 16.68V9.16H224.685V16.68ZM251.503 9.16C251.37 13.2133 251.303 16.8533 251.303 20.08C251.303 23.3067 251.37 26.9467 251.503 31H242.823V23.72H234.983V31H226.303C226.436 27.96 226.503 24.32 226.503 20.08C226.503 15.84 226.436 12.2 226.303 9.16H234.983V16.44H242.823V9.16H251.503ZM275.862 21H262.822C263.035 22.1733 263.555 23.1333 264.382 23.88C265.235 24.6 266.435 24.96 267.982 24.96C269.102 24.96 270.155 24.7467 271.142 24.32C272.128 23.8667 272.915 23.24 273.502 22.44C275.288 23.32 277.662 24.2667 280.622 25.28C279.795 27.1467 278.288 28.64 276.102 29.76C273.942 30.8533 271.115 31.4 267.622 31.4C263.088 31.4 259.728 30.36 257.542 28.28C255.382 26.1733 254.302 23.4133 254.302 20C254.302 16.6667 255.382 13.96 257.542 11.88C259.702 9.8 263.062 8.76 267.622 8.76C270.342 8.76 272.702 9.21333 274.702 10.12C276.702 11.0267 278.235 12.2933 279.302 13.92C280.368 15.52 280.902 17.36 280.902 19.44C280.902 20.1333 280.875 20.6533 280.822 21H275.862ZM268.182 14.8C266.848 14.8 265.755 15.0533 264.902 15.56C264.048 16.0667 263.448 16.76 263.102 17.64H272.542C272.222 16.7867 271.702 16.1067 270.982 15.6C270.262 15.0667 269.328 14.8 268.182 14.8ZM291.806 20.08C291.859 21.44 292.286 22.5333 293.086 23.36C293.913 24.1867 295.126 24.6 296.726 24.6C297.606 24.6 298.393 24.44 299.086 24.12C299.779 23.7733 300.419 23.2667 301.006 22.6C303.273 23.48 305.926 24.24 308.966 24.88C308.086 26.9333 306.593 28.5333 304.486 29.68C302.406 30.8267 299.699 31.4 296.366 31.4C291.913 31.4 288.619 30.36 286.486 28.28C284.353 26.2 283.286 23.4667 283.286 20.08C283.286 16.6933 284.353 13.96 286.486 11.88C288.619 9.8 291.913 8.76 296.366 8.76C299.699 8.76 302.406 9.33333 304.486 10.48C306.593 11.6267 308.086 13.2267 308.966 15.28C306.593 15.7867 303.939 16.5467 301.006 17.56C300.419 16.8933 299.779 16.4 299.086 16.08C298.393 15.7333 297.606 15.56 296.726 15.56C295.126 15.56 293.913 15.9733 293.086 16.8C292.286 17.6267 291.859 18.72 291.806 20.08ZM340.415 20.56C341.615 21.52 342.535 22.6 343.175 23.8C343.815 25 344.415 26.44 344.975 28.12C345.535 29.5867 345.935 30.5467 346.175 31H336.535C336.455 30.8133 336.295 30.2267 336.055 29.24C335.842 28.2533 335.628 27.4667 335.415 26.88C335.202 26.2667 334.882 25.7333 334.455 25.28C333.788 24.56 333.042 24.0933 332.215 23.88C331.388 23.6667 330.162 23.56 328.535 23.56V31H319.975C320.108 27.96 320.175 24.32 320.175 20.08C320.175 15.84 320.108 12.2 319.975 9.16H328.535V17H328.695C331.868 13.8267 334.175 11.2133 335.615 9.16H346.175L336.815 18.48C338.202 19.0667 339.402 19.76 340.415 20.56ZM372.708 31.2H363.948V16.72H358.268L358.228 17.96C358.201 19.24 358.148 20.3733 358.068 21.36C358.014 22.32 357.881 23.36 357.668 24.48C356.761 29.36 353.068 31.8 346.588 31.8V25.44C347.841 25.28 348.694 24.8933 349.148 24.28C349.601 23.64 349.828 22.6533 349.828 21.32V9.16L372.708 9.2V31.2ZM402.233 9.16L401.313 11.48C398.779 18.2267 396.126 24.7333 393.353 31C391.913 34.2 389.833 36.76 387.113 38.68C384.393 40.6267 380.979 41.56 376.873 41.48C376.366 39.2667 375.939 37.5333 375.593 36.28C375.273 35.0533 374.846 33.8133 374.312 32.56C375.779 32.9067 377.153 33.08 378.433 33.08C380.513 33.08 382.166 32.64 383.393 31.76C382.433 28.9067 381.299 25.84 379.993 22.56C378.686 19.28 376.793 14.8133 374.312 9.16H383.793C384.113 10.4933 384.553 12.04 385.113 13.8C385.673 15.56 386.233 17.2533 386.793 18.88C386.953 19.3867 387.206 20.16 387.553 21.2C387.926 22.2133 388.219 23.0667 388.433 23.76L389.473 20.6C391.473 14.8133 392.659 11 393.033 9.16H402.233ZM420.362 11.16C422.682 11.16 424.722 11.6 426.482 12.48C428.269 13.3333 429.629 14.48 430.562 15.92C431.522 17.36 432.002 18.9467 432.002 20.68C432.002 22.8667 431.376 24.7733 430.122 26.4C428.869 28.0267 427.162 29.2667 425.002 30.12C422.842 30.9733 420.429 31.4 417.762 31.4C415.042 31.4 412.629 30.8133 410.522 29.64C408.416 28.44 406.776 26.7867 405.602 24.68C404.429 22.5733 403.842 20.1733 403.842 17.48C403.842 12.1467 405.176 8.14667 407.842 5.48C410.509 2.78667 414.162 1.26667 418.802 0.919999L421.602 0.799998C424.402 0.693331 426.362 0.559998 427.482 0.399998V8C426.549 8.13333 425.002 8.25333 422.842 8.36C421.136 8.46667 419.909 8.56 419.162 8.64C417.776 8.82667 416.469 9.24 415.242 9.88C414.016 10.4933 413.042 11.2 412.322 12C411.602 12.7733 411.242 13.4533 411.242 14.04C412.442 13.0533 413.856 12.3333 415.482 11.88C417.109 11.4 418.736 11.16 420.362 11.16ZM418.162 16.32C416.722 16.32 415.562 16.7067 414.682 17.48C413.802 18.2267 413.362 19.4133 413.362 21.04C413.362 22.6667 413.802 23.8533 414.682 24.6C415.562 25.3467 416.722 25.72 418.162 25.72C419.602 25.72 420.762 25.3467 421.642 24.6C422.522 23.8533 422.962 22.6667 422.962 21.04C422.962 19.4133 422.522 18.2267 421.642 17.48C420.762 16.7067 419.602 16.32 418.162 16.32ZM460.459 24.36C460.459 25.2667 460.565 25.9067 460.779 26.28C460.992 26.6533 461.419 26.92 462.059 27.08L461.899 30.84C461.045 30.9733 460.299 31.0667 459.659 31.12C459.045 31.1733 458.219 31.2 457.179 31.2C454.885 31.2 453.365 30.6933 452.619 29.68C451.872 28.64 451.499 27.32 451.499 25.72V24.72C450.725 26.9067 449.592 28.5333 448.099 29.6C446.632 30.6667 444.752 31.2 442.459 31.2C439.792 31.2 437.779 30.6667 436.419 29.6C435.085 28.5333 434.419 26.9467 434.419 24.84C434.419 23.1067 434.992 21.7467 436.139 20.76C437.285 19.7733 439.059 19.0933 441.459 18.72C439.432 17.28 437.405 16.0267 435.379 14.96C436.979 12.9333 438.805 11.4 440.859 10.36C442.912 9.29333 445.405 8.76 448.339 8.76C452.445 8.76 455.485 9.65333 457.459 11.44C459.459 13.2 460.459 15.92 460.459 19.6V24.36ZM449.179 15.8C447.819 15.8 446.619 16.0267 445.579 16.48C444.539 16.9333 443.605 17.6133 442.779 18.52C444.379 18.3333 446.379 18.24 448.779 18.24C449.765 18.24 450.459 18.12 450.859 17.88C451.259 17.64 451.459 17.3333 451.459 16.96C451.459 16.64 451.259 16.3733 450.859 16.16C450.459 15.92 449.899 15.8 449.179 15.8ZM444.979 24.68C446.472 24.68 447.819 24.4 449.019 23.84C450.219 23.2533 451.045 22.4933 451.499 21.56V20.52C450.859 20.84 450.152 21.0933 449.379 21.28C448.605 21.44 447.672 21.6 446.579 21.76L445.139 22C443.645 22.2933 442.899 22.8 442.899 23.52C442.899 24.2933 443.592 24.68 444.979 24.68Z" fill="white"/>
</svg>
