<svg width="955" height="42" viewBox="0 0 955 42" fill="none" xmlns="http://www.w3.org/2000/svg">
<path d="M36.24 16.44C36.24 23.4267 31.8267 27.4267 23 28.44L23.08 32H13.64L13.68 28.4C9.2 27.8667 5.89333 26.5733 3.76 24.52C1.65333 22.4667 0.6 19.7733 0.6 16.44C0.6 13.1333 1.65333 10.4533 3.76 8.4C5.86667 6.32 9.17333 5.01333 13.68 4.48L13.64 0.799999H23.08C23.0533 1.57333 23.04 2.8 23.04 4.48C27.5733 5.01333 30.9067 6.32 33.04 8.4C35.1733 10.4533 36.24 13.1333 36.24 16.44ZM23 20.48C24.3067 20.16 25.2533 19.6667 25.84 19C26.4533 18.3333 26.76 17.48 26.76 16.44C26.76 14.4133 25.5333 13.0933 23.08 12.48L23.04 16C23.0133 16.9867 23 18.48 23 20.48ZM10.08 16.44C10.08 17.4533 10.3733 18.2933 10.96 18.96C11.5467 19.6267 12.48 20.12 13.76 20.44V16V12.48C11.3067 13.0933 10.08 14.4133 10.08 16.44ZM52.3081 32.4C47.7481 32.4 44.3881 31.36 42.2281 29.28C40.0948 27.1733 39.0281 24.4133 39.0281 21C39.0281 17.6667 40.0948 14.96 42.2281 12.88C44.3881 10.8 47.7481 9.76 52.3081 9.76C55.3748 9.76 57.9348 10.2667 59.9881 11.28C62.0681 12.2667 63.6015 13.6133 64.5881 15.32C65.5748 17 66.0681 18.8933 66.0681 21C66.0681 24.44 64.9215 27.2 62.6281 29.28C60.3615 31.36 56.9215 32.4 52.3081 32.4ZM52.4681 25.6C54.2015 25.6 55.4948 25.1867 56.3481 24.36C57.2015 23.5333 57.6281 22.4267 57.6281 21.04C57.6281 19.7333 57.2015 18.6667 56.3481 17.84C55.4948 16.9867 54.2015 16.56 52.4681 16.56C50.7348 16.56 49.4681 16.9733 48.6681 17.8C47.8681 18.6267 47.4681 19.7067 47.4681 21.04C47.4681 22.4267 47.8681 23.5333 48.6681 24.36C49.4681 25.1867 50.7348 25.6 52.4681 25.6ZM86.3613 9.76C88.0946 9.76 89.6546 10.2533 91.0413 11.24C92.4279 12.2267 93.5079 13.5733 94.2813 15.28C95.0546 16.96 95.4413 18.8133 95.4413 20.84C95.4413 22.84 95.0546 24.7333 94.2813 26.52C93.5079 28.28 92.4146 29.7067 91.0013 30.8C89.6146 31.8667 88.0279 32.4 86.2413 32.4C84.1613 32.4 82.3746 31.9733 80.8813 31.12C79.4146 30.24 78.3213 28.8933 77.6013 27.08C77.6013 28.6 77.6546 31.04 77.7613 34.4C77.8679 37.6533 77.9213 39.9467 77.9213 41.28H68.8813C69.0413 36.32 69.1213 31.1333 69.1213 25.72C69.1213 20.3067 69.0413 15.12 68.8813 10.16H76.5613L77.7213 15.16C78.4679 13.2933 79.5879 11.9333 81.0813 11.08C82.5746 10.2 84.3346 9.76 86.3613 9.76ZM82.0813 25.2C83.2813 25.2 84.2813 24.8267 85.0813 24.08C85.9079 23.3067 86.3213 22.3067 86.3213 21.08C86.3213 19.72 85.9479 18.6133 85.2013 17.76C84.4546 16.9067 83.4413 16.48 82.1613 16.48C80.6946 16.48 79.5879 16.84 78.8413 17.56C78.0946 18.2533 77.7213 19.4267 77.7213 21.08C77.7213 22.0133 77.9613 22.8 78.4413 23.44C78.9213 24.0533 79.4946 24.5067 80.1613 24.8C80.8279 25.0667 81.4679 25.2 82.0813 25.2ZM128.776 10.16L130.296 32H122.536L122.056 16.36L119.016 32H109.536L106.456 16.56L106.016 32H98.2563L99.7763 10.16H111.616L114.216 24.44L116.536 10.16H128.776ZM159.131 25.36C159.131 26.2667 159.237 26.9067 159.451 27.28C159.664 27.6533 160.091 27.92 160.731 28.08L160.571 31.84C159.717 31.9733 158.971 32.0667 158.331 32.12C157.717 32.1733 156.891 32.2 155.851 32.2C153.557 32.2 152.037 31.6933 151.291 30.68C150.544 29.64 150.171 28.32 150.171 26.72V25.72C149.397 27.9067 148.264 29.5333 146.771 30.6C145.304 31.6667 143.424 32.2 141.131 32.2C138.464 32.2 136.451 31.6667 135.091 30.6C133.757 29.5333 133.091 27.9467 133.091 25.84C133.091 24.1067 133.664 22.7467 134.811 21.76C135.957 20.7733 137.731 20.0933 140.131 19.72C138.104 18.28 136.077 17.0267 134.051 15.96C135.651 13.9333 137.477 12.4 139.531 11.36C141.584 10.2933 144.077 9.76 147.011 9.76C151.117 9.76 154.157 10.6533 156.131 12.44C158.131 14.2 159.131 16.92 159.131 20.6V25.36ZM147.851 16.8C146.491 16.8 145.291 17.0267 144.251 17.48C143.211 17.9333 142.277 18.6133 141.451 19.52C143.051 19.3333 145.051 19.24 147.451 19.24C148.437 19.24 149.131 19.12 149.531 18.88C149.931 18.64 150.131 18.3333 150.131 17.96C150.131 17.64 149.931 17.3733 149.531 17.16C149.131 16.92 148.571 16.8 147.851 16.8ZM143.651 25.68C145.144 25.68 146.491 25.4 147.691 24.84C148.891 24.2533 149.717 23.4933 150.171 22.56V21.52C149.531 21.84 148.824 22.0933 148.051 22.28C147.277 22.44 146.344 22.6 145.251 22.76L143.811 23C142.317 23.2933 141.571 23.8 141.571 24.52C141.571 25.2933 142.264 25.68 143.651 25.68ZM187.419 17.68C183.419 17.5733 180.512 17.5067 178.699 17.48V32H170.219V17.48C168.432 17.5067 165.539 17.5733 161.539 17.68V10.16H187.419V17.68ZM192.878 23.88C194.078 23.88 195.078 24.3467 195.878 25.28C196.704 26.1867 197.118 27.4533 197.118 29.08C197.118 30.4133 196.878 31.8133 196.398 33.28C195.944 34.7467 195.304 35.9333 194.478 36.84H191.078C192.198 35.32 192.904 33.8267 193.198 32.36C191.811 32.36 190.704 31.9467 189.878 31.12C189.051 30.2933 188.638 29.2933 188.638 28.12C188.638 26.9467 189.051 25.9467 189.878 25.12C190.704 24.2933 191.704 23.88 192.878 23.88Z" fill="#33B0AA"/>
<path d="M236.392 21.56C237.592 22.52 238.512 23.6 239.152 24.8C239.792 26 240.392 27.44 240.952 29.12C241.512 30.5867 241.912 31.5467 242.152 32H232.512C232.432 31.8133 232.272 31.2267 232.032 30.24C231.818 29.2533 231.605 28.4667 231.392 27.88C231.178 27.2667 230.858 26.7333 230.432 26.28C229.765 25.56 229.018 25.0933 228.192 24.88C227.365 24.6667 226.138 24.56 224.512 24.56V32H215.952C216.085 28.96 216.152 25.32 216.152 21.08C216.152 16.84 216.085 13.2 215.952 10.16H224.512V18H224.672C227.845 14.8267 230.152 12.2133 231.592 10.16H242.152L232.792 19.48C234.178 20.0667 235.378 20.76 236.392 21.56ZM256.644 32.4C252.084 32.4 248.724 31.36 246.564 29.28C244.431 27.1733 243.364 24.4133 243.364 21C243.364 17.6667 244.431 14.96 246.564 12.88C248.724 10.8 252.084 9.76 256.644 9.76C259.711 9.76 262.271 10.2667 264.324 11.28C266.404 12.2667 267.937 13.6133 268.924 15.32C269.911 17 270.404 18.8933 270.404 21C270.404 24.44 269.257 27.2 266.964 29.28C264.697 31.36 261.257 32.4 256.644 32.4ZM256.804 25.6C258.537 25.6 259.831 25.1867 260.684 24.36C261.537 23.5333 261.964 22.4267 261.964 21.04C261.964 19.7333 261.537 18.6667 260.684 17.84C259.831 16.9867 258.537 16.56 256.804 16.56C255.071 16.56 253.804 16.9733 253.004 17.8C252.204 18.6267 251.804 19.7067 251.804 21.04C251.804 22.4267 252.204 23.5333 253.004 24.36C253.804 25.1867 255.071 25.6 256.804 25.6ZM297.497 17.68C293.497 17.5733 290.591 17.5067 288.777 17.48V32H280.297V17.48C278.511 17.5067 275.617 17.5733 271.617 17.68V10.16H297.497V17.68ZM311.996 32.4C307.436 32.4 304.076 31.36 301.916 29.28C299.782 27.1733 298.716 24.4133 298.716 21C298.716 17.6667 299.782 14.96 301.916 12.88C304.076 10.8 307.436 9.76 311.996 9.76C315.062 9.76 317.622 10.2667 319.676 11.28C321.756 12.2667 323.289 13.6133 324.276 15.32C325.262 17 325.756 18.8933 325.756 21C325.756 24.44 324.609 27.2 322.316 29.28C320.049 31.36 316.609 32.4 311.996 32.4ZM312.156 25.6C313.889 25.6 315.182 25.1867 316.036 24.36C316.889 23.5333 317.316 22.4267 317.316 21.04C317.316 19.7333 316.889 18.6667 316.036 17.84C315.182 16.9867 313.889 16.56 312.156 16.56C310.422 16.56 309.156 16.9733 308.356 17.8C307.556 18.6267 307.156 19.7067 307.156 21.04C307.156 22.4267 307.556 23.5333 308.356 24.36C309.156 25.1867 310.422 25.6 312.156 25.6ZM346.049 9.76C347.782 9.76 349.342 10.2533 350.729 11.24C352.115 12.2267 353.195 13.5733 353.969 15.28C354.742 16.96 355.129 18.8133 355.129 20.84C355.129 22.84 354.742 24.7333 353.969 26.52C353.195 28.28 352.102 29.7067 350.689 30.8C349.302 31.8667 347.715 32.4 345.929 32.4C343.849 32.4 342.062 31.9733 340.569 31.12C339.102 30.24 338.009 28.8933 337.289 27.08C337.289 28.6 337.342 31.04 337.449 34.4C337.555 37.6533 337.609 39.9467 337.609 41.28H328.569C328.729 36.32 328.809 31.1333 328.809 25.72C328.809 20.3067 328.729 15.12 328.569 10.16H336.249L337.409 15.16C338.155 13.2933 339.275 11.9333 340.769 11.08C342.262 10.2 344.022 9.76 346.049 9.76ZM341.769 25.2C342.969 25.2 343.969 24.8267 344.769 24.08C345.595 23.3067 346.009 22.3067 346.009 21.08C346.009 19.72 345.635 18.6133 344.889 17.76C344.142 16.9067 343.129 16.48 341.849 16.48C340.382 16.48 339.275 16.84 338.529 17.56C337.782 18.2533 337.409 19.4267 337.409 21.08C337.409 22.0133 337.649 22.8 338.129 23.44C338.609 24.0533 339.182 24.5067 339.849 24.8C340.515 25.0667 341.155 25.2 341.769 25.2ZM371.824 15.04C375.797 15.04 378.57 15.8267 380.144 17.4C381.717 18.9467 382.504 21.1067 382.504 23.88C382.504 26.4667 381.717 28.4667 380.144 29.88C378.597 31.2667 375.824 31.96 371.824 31.96H366.504V32H357.944C358.077 28.96 358.144 25.32 358.144 21.08C358.144 16.84 358.077 13.2 357.944 10.16H366.504V15.04H371.824ZM392.824 10.16C392.69 13.1467 392.624 16.7733 392.624 21.04C392.624 25.28 392.69 28.9067 392.824 31.92H384.064C384.144 26.56 384.184 22.0533 384.184 18.4C384.184 14.7467 384.144 12 384.064 10.16H392.824ZM369.424 25.6C371.317 25.6 372.637 25.4533 373.384 25.16C374.13 24.8667 374.504 24.2933 374.504 23.44C374.504 22.5867 374.117 22.0133 373.344 21.72C372.57 21.4 371.264 21.24 369.424 21.24L366.504 21.28V25.6H369.424ZM421.07 10.16C420.936 14.0267 420.87 17.52 420.87 20.64C420.87 23.7067 420.936 27.2 421.07 31.12H412.87L413.31 17.28L407.19 31.12H396.03C396.19 27.6 396.27 24.1067 396.27 20.64C396.27 17.12 396.19 13.6267 396.03 10.16H403.91L403.51 24.36L409.63 10.16H421.07ZM408.15 9.2C406.896 9.2 405.736 8.92 404.67 8.36C403.63 7.8 402.803 7 402.19 5.96C401.576 4.92 401.27 3.70666 401.27 2.32H405.23C405.23 3.36 405.496 4.13333 406.03 4.64C406.59 5.12 407.296 5.36 408.15 5.36C409.003 5.36 409.696 5.12 410.23 4.64C410.79 4.13333 411.07 3.36 411.07 2.32H415.03C415.03 3.70666 414.723 4.92 414.11 5.96C413.496 7 412.656 7.8 411.59 8.36C410.55 8.92 409.403 9.2 408.15 9.2ZM432.28 10.2H458.12V32.2H449.36V17.72H441.04V32.2H432.28V10.2ZM474.183 32.4C469.623 32.4 466.263 31.36 464.103 29.28C461.97 27.1733 460.903 24.4133 460.903 21C460.903 17.6667 461.97 14.96 464.103 12.88C466.263 10.8 469.623 9.76 474.183 9.76C477.25 9.76 479.81 10.2667 481.863 11.28C483.943 12.2667 485.476 13.6133 486.463 15.32C487.45 17 487.943 18.8933 487.943 21C487.943 24.44 486.796 27.2 484.503 29.28C482.236 31.36 478.796 32.4 474.183 32.4ZM474.343 25.6C476.076 25.6 477.37 25.1867 478.223 24.36C479.076 23.5333 479.503 22.4267 479.503 21.04C479.503 19.7333 479.076 18.6667 478.223 17.84C477.37 16.9867 476.076 16.56 474.343 16.56C472.61 16.56 471.343 16.9733 470.543 17.8C469.743 18.6267 469.343 19.7067 469.343 21.04C469.343 22.4267 469.743 23.5333 470.543 24.36C471.343 25.1867 472.61 25.6 474.343 25.6ZM515.716 26.32H516.916V37.08H509.356V32.72H496.716V37.16H489.156V26.32H490.476C491.383 26.1867 492.063 25.8533 492.516 25.32C492.996 24.7867 493.37 23.9067 493.636 22.68C493.823 21.72 493.916 19.4267 493.916 15.8V10.16L515.716 10.2V26.32ZM500.716 25C500.663 25.2933 500.556 25.7333 500.396 26.32H508.076V16.92H501.276V18.12C501.25 19.6667 501.21 20.8933 501.156 21.8C501.103 22.68 500.956 23.7467 500.716 25ZM533.011 32.4C528.451 32.4 525.091 31.36 522.931 29.28C520.798 27.1733 519.731 24.4133 519.731 21C519.731 17.6667 520.798 14.96 522.931 12.88C525.091 10.8 528.451 9.76 533.011 9.76C536.078 9.76 538.638 10.2667 540.691 11.28C542.771 12.2667 544.305 13.6133 545.291 15.32C546.278 17 546.771 18.8933 546.771 21C546.771 24.44 545.625 27.2 543.331 29.28C541.065 31.36 537.625 32.4 533.011 32.4ZM533.171 25.6C534.905 25.6 536.198 25.1867 537.051 24.36C537.905 23.5333 538.331 22.4267 538.331 21.04C538.331 19.7333 537.905 18.6667 537.051 17.84C536.198 16.9867 534.905 16.56 533.171 16.56C531.438 16.56 530.171 16.9733 529.371 17.8C528.571 18.6267 528.171 19.7067 528.171 21.04C528.171 22.4267 528.571 23.5333 529.371 24.36C530.171 25.1867 531.438 25.6 533.171 25.6ZM574.624 10.16C574.491 14.0267 574.424 17.52 574.424 20.64C574.424 23.7067 574.491 27.2 574.624 31.12H566.424L566.864 17.28L560.744 31.12H549.584C549.744 27.6 549.824 24.1067 549.824 20.64C549.824 17.12 549.744 13.6267 549.584 10.16H557.464L557.064 24.36L563.184 10.16H574.624ZM561.704 9.2C560.451 9.2 559.291 8.92 558.224 8.36C557.184 7.8 556.358 7 555.744 5.96C555.131 4.92 554.824 3.70666 554.824 2.32H558.784C558.784 3.36 559.051 4.13333 559.584 4.64C560.144 5.12 560.851 5.36 561.704 5.36C562.558 5.36 563.251 5.12 563.784 4.64C564.344 4.13333 564.624 3.36 564.624 2.32H568.584C568.584 3.70666 568.278 4.92 567.664 5.96C567.051 7 566.211 7.8 565.144 8.36C564.104 8.92 562.958 9.2 561.704 9.2ZM602.787 26.32H603.987V37.08H596.427V32.72H583.787V37.16H576.227V26.32H577.547C578.453 26.1867 579.133 25.8533 579.587 25.32C580.067 24.7867 580.44 23.9067 580.707 22.68C580.893 21.72 580.987 19.4267 580.987 15.8V10.16L602.787 10.2V26.32ZM587.787 25C587.733 25.2933 587.627 25.7333 587.467 26.32H595.147V16.92H588.347V18.12C588.32 19.6667 588.28 20.8933 588.227 21.8C588.173 22.68 588.027 23.7467 587.787 25ZM628.362 22H615.322C615.535 23.1733 616.055 24.1333 616.882 24.88C617.735 25.6 618.935 25.96 620.482 25.96C621.602 25.96 622.655 25.7467 623.642 25.32C624.628 24.8667 625.415 24.24 626.002 23.44C627.788 24.32 630.162 25.2667 633.122 26.28C632.295 28.1467 630.788 29.64 628.602 30.76C626.442 31.8533 623.615 32.4 620.122 32.4C615.588 32.4 612.228 31.36 610.042 29.28C607.882 27.1733 606.802 24.4133 606.802 21C606.802 17.6667 607.882 14.96 610.042 12.88C612.202 10.8 615.562 9.76 620.122 9.76C622.842 9.76 625.202 10.2133 627.202 11.12C629.202 12.0267 630.735 13.2933 631.802 14.92C632.868 16.52 633.402 18.36 633.402 20.44C633.402 21.1333 633.375 21.6533 633.322 22H628.362ZM620.682 15.8C619.348 15.8 618.255 16.0533 617.402 16.56C616.548 17.0667 615.948 17.76 615.602 18.64H625.042C624.722 17.7867 624.202 17.1067 623.482 16.6C622.762 16.0667 621.828 15.8 620.682 15.8ZM660.466 17.68C656.466 17.5733 653.559 17.5067 651.746 17.48V32H643.266V17.48C641.479 17.5067 638.586 17.5733 634.586 17.68V10.16H660.466V17.68ZM695.132 10.16C694.999 14.0267 694.932 17.52 694.932 20.64C694.932 23.7067 694.999 27.2 695.132 31.12H686.932L687.372 17.28L681.252 31.12H670.092C670.252 27.6 670.332 24.1067 670.332 20.64C670.332 17.12 670.252 13.6267 670.092 10.16H677.972L677.572 24.36L683.692 10.16H695.132ZM728.854 10.16L730.374 32H722.614L722.134 16.36L719.094 32H709.614L706.534 16.56L706.094 32H698.334L699.854 10.16H711.694L714.294 24.44L716.614 10.16H728.854ZM754.729 22H741.689C741.902 23.1733 742.422 24.1333 743.249 24.88C744.102 25.6 745.302 25.96 746.849 25.96C747.969 25.96 749.022 25.7467 750.009 25.32C750.995 24.8667 751.782 24.24 752.369 23.44C754.155 24.32 756.529 25.2667 759.489 26.28C758.662 28.1467 757.155 29.64 754.969 30.76C752.809 31.8533 749.982 32.4 746.489 32.4C741.955 32.4 738.595 31.36 736.409 29.28C734.249 27.1733 733.169 24.4133 733.169 21C733.169 17.6667 734.249 14.96 736.409 12.88C738.569 10.8 741.929 9.76 746.489 9.76C749.209 9.76 751.569 10.2133 753.569 11.12C755.569 12.0267 757.102 13.2933 758.169 14.92C759.235 16.52 759.769 18.36 759.769 20.44C759.769 21.1333 759.742 21.6533 759.689 22H754.729ZM747.049 15.8C745.715 15.8 744.622 16.0533 743.769 16.56C742.915 17.0667 742.315 17.76 741.969 18.64H751.409C751.089 17.7867 750.569 17.1067 749.849 16.6C749.129 16.0667 748.195 15.8 747.049 15.8ZM787.753 10.16C787.62 14.2133 787.553 17.8533 787.553 21.08C787.553 24.3067 787.62 27.9467 787.753 32H779.073V24.72H771.233V32H762.553C762.686 28.96 762.753 25.32 762.753 21.08C762.753 16.84 762.686 13.2 762.553 10.16H771.233V17.44H779.073V10.16H787.753ZM816.152 10.16C816.018 14.2133 815.952 17.8533 815.952 21.08C815.952 24.3067 816.018 27.9467 816.152 32H807.472V24.72H799.632V32H790.952C791.085 28.96 791.152 25.32 791.152 21.08C791.152 16.84 791.085 13.2 790.952 10.16H799.632V17.44H807.472V10.16H816.152ZM832.23 32.4C827.67 32.4 824.31 31.36 822.15 29.28C820.017 27.1733 818.95 24.4133 818.95 21C818.95 17.6667 820.017 14.96 822.15 12.88C824.31 10.8 827.67 9.76 832.23 9.76C835.297 9.76 837.857 10.2667 839.91 11.28C841.99 12.2667 843.523 13.6133 844.51 15.32C845.497 17 845.99 18.8933 845.99 21C845.99 24.44 844.843 27.2 842.55 29.28C840.283 31.36 836.843 32.4 832.23 32.4ZM832.39 25.6C834.123 25.6 835.417 25.1867 836.27 24.36C837.123 23.5333 837.55 22.4267 837.55 21.04C837.55 19.7333 837.123 18.6667 836.27 17.84C835.417 16.9867 834.123 16.56 832.39 16.56C830.657 16.56 829.39 16.9733 828.59 17.8C827.79 18.6267 827.39 19.7067 827.39 21.04C827.39 22.4267 827.79 23.5333 828.59 24.36C829.39 25.1867 830.657 25.6 832.39 25.6ZM880.251 17.56C886.331 17.56 889.371 19.4933 889.371 23.36C889.371 25.1733 888.958 26.72 888.131 28C887.304 29.2533 885.824 30.24 883.691 30.96C881.558 31.6533 878.598 32 874.811 32H856.811C857.024 26.8267 857.131 21.9867 857.131 17.48C857.131 12.9733 857.024 8.13333 856.811 2.96H866.211V3H874.731C878.038 3 880.638 3.28 882.531 3.84C884.451 4.37333 885.798 5.16 886.571 6.2C887.371 7.24 887.771 8.56 887.771 10.16C887.771 11.7867 887.198 13.24 886.051 14.52C884.931 15.7733 882.998 16.7867 880.251 17.56ZM866.211 10.28V14H873.891C875.544 14 876.691 13.8533 877.331 13.56C877.998 13.2667 878.331 12.7333 878.331 11.96C878.331 11.3467 877.984 10.92 877.291 10.68C876.624 10.4133 875.491 10.28 873.891 10.28H866.211ZM873.891 24.68C875.278 24.68 876.331 24.6267 877.051 24.52C877.798 24.3867 878.331 24.1733 878.651 23.88C878.971 23.56 879.131 23.1333 879.131 22.6C879.131 21.9067 878.744 21.4133 877.971 21.12C877.224 20.8 875.864 20.64 873.891 20.64H866.211V24.68H873.891ZM918.193 25.36C918.193 26.2667 918.3 26.9067 918.513 27.28C918.726 27.6533 919.153 27.92 919.793 28.08L919.633 31.84C918.78 31.9733 918.033 32.0667 917.393 32.12C916.78 32.1733 915.953 32.2 914.913 32.2C912.62 32.2 911.1 31.6933 910.353 30.68C909.606 29.64 909.233 28.32 909.233 26.72V25.72C908.46 27.9067 907.326 29.5333 905.833 30.6C904.366 31.6667 902.486 32.2 900.193 32.2C897.526 32.2 895.513 31.6667 894.153 30.6C892.82 29.5333 892.153 27.9467 892.153 25.84C892.153 24.1067 892.726 22.7467 893.873 21.76C895.02 20.7733 896.793 20.0933 899.193 19.72C897.166 18.28 895.14 17.0267 893.113 15.96C894.713 13.9333 896.54 12.4 898.593 11.36C900.646 10.2933 903.14 9.76 906.073 9.76C910.18 9.76 913.22 10.6533 915.193 12.44C917.193 14.2 918.193 16.92 918.193 20.6V25.36ZM906.913 16.8C905.553 16.8 904.353 17.0267 903.313 17.48C902.273 17.9333 901.34 18.6133 900.513 19.52C902.113 19.3333 904.113 19.24 906.513 19.24C907.5 19.24 908.193 19.12 908.593 18.88C908.993 18.64 909.193 18.3333 909.193 17.96C909.193 17.64 908.993 17.3733 908.593 17.16C908.193 16.92 907.633 16.8 906.913 16.8ZM902.713 25.68C904.206 25.68 905.553 25.4 906.753 24.84C907.953 24.2533 908.78 23.4933 909.233 22.56V21.52C908.593 21.84 907.886 22.0933 907.113 22.28C906.34 22.44 905.406 22.6 904.313 22.76L902.873 23C901.38 23.2933 900.633 23.8 900.633 24.52C900.633 25.2933 901.326 25.68 902.713 25.68ZM952.722 10.16L954.242 32H946.482L946.002 16.36L942.962 32H933.482L930.402 16.56L929.962 32H922.202L923.722 10.16H935.562L938.162 24.44L940.482 10.16H952.722Z" fill="white"/>
</svg>
