<svg width="707" height="41" viewBox="0 0 707 41" fill="none" xmlns="http://www.w3.org/2000/svg">
<path d="M22.92 15.28C23.88 15.0933 24.8267 15 25.76 15C27.3867 15 28.7067 15.28 29.72 15.84C30.76 16.3733 31.5067 17.0667 31.96 17.92C32.4133 18.7467 32.64 19.6133 32.64 20.52C32.64 22.6267 31.9467 24.4267 30.56 25.92C29.1733 27.3867 27.2933 28.5067 24.92 29.28C22.5467 30.0267 19.9067 30.4 17 30.4C8.57333 30.4 3.12 27.4667 0.64 21.6L2.88 21.04C4.53333 20.64 5.93333 20.2667 7.08 19.92C8.25333 19.5467 9.28 19.1333 10.16 18.68C10.6933 20.0133 11.4533 20.9733 12.44 21.56C13.4533 22.12 14.84 22.4 16.6 22.4C18.4667 22.4 19.9867 22.1867 21.16 21.76C22.3333 21.3333 22.92 20.6933 22.92 19.84C22.92 19.3867 22.6933 19.04 22.24 18.8C21.7867 18.56 21.0667 18.4 20.08 18.32C19.0933 18.2133 17.7067 18.16 15.92 18.16H12.88V11.16H14.72C16.7467 11.16 18.4 11.08 19.68 10.92C20.96 10.7333 21.6 10.3467 21.6 9.76C21.6 9.09333 21.2533 8.56 20.56 8.16C19.8933 7.73333 18.84 7.52 17.4 7.52C15.5333 7.52 14.0133 7.90667 12.84 8.68C11.6933 9.45333 10.8 10.5733 10.16 12.04C7.30667 10.8933 4.26667 10.08 1.04 9.6C2.32 6.72 4.28 4.49333 6.92 2.92C9.58667 1.34666 13.0133 0.559998 17.2 0.559998C19.92 0.559998 22.36 0.919998 24.52 1.64C26.7067 2.33333 28.4133 3.30667 29.64 4.56C30.8933 5.81333 31.52 7.21333 31.52 8.76C31.52 9.66667 31.3067 10.48 30.88 11.2C30.4533 11.8933 29.6133 12.5867 28.36 13.28C27.1067 13.9467 25.2933 14.6133 22.92 15.28ZM61.4744 23.36C61.4744 24.2667 61.581 24.9067 61.7944 25.28C62.0077 25.6533 62.4344 25.92 63.0744 26.08L62.9144 29.84C62.061 29.9733 61.3144 30.0667 60.6744 30.12C60.061 30.1733 59.2344 30.2 58.1944 30.2C55.901 30.2 54.381 29.6933 53.6344 28.68C52.8877 27.64 52.5144 26.32 52.5144 24.72V23.72C51.741 25.9067 50.6077 27.5333 49.1144 28.6C47.6477 29.6667 45.7677 30.2 43.4744 30.2C40.8077 30.2 38.7944 29.6667 37.4344 28.6C36.101 27.5333 35.4344 25.9467 35.4344 23.84C35.4344 22.1067 36.0077 20.7467 37.1544 19.76C38.301 18.7733 40.0744 18.0933 42.4744 17.72C40.4477 16.28 38.421 15.0267 36.3944 13.96C37.9944 11.9333 39.821 10.4 41.8744 9.36C43.9277 8.29333 46.421 7.76 49.3544 7.76C53.461 7.76 56.501 8.65333 58.4744 10.44C60.4744 12.2 61.4744 14.92 61.4744 18.6V23.36ZM50.1944 14.8C48.8344 14.8 47.6344 15.0267 46.5944 15.48C45.5544 15.9333 44.621 16.6133 43.7944 17.52C45.3944 17.3333 47.3944 17.24 49.7944 17.24C50.781 17.24 51.4744 17.12 51.8744 16.88C52.2744 16.64 52.4744 16.3333 52.4744 15.96C52.4744 15.64 52.2744 15.3733 51.8744 15.16C51.4744 14.92 50.9144 14.8 50.1944 14.8ZM45.9944 23.68C47.4877 23.68 48.8344 23.4 50.0344 22.84C51.2344 22.2533 52.061 21.4933 52.5144 20.56V19.52C51.8744 19.84 51.1677 20.0933 50.3944 20.28C49.621 20.44 48.6877 20.6 47.5944 20.76L46.1544 21C44.661 21.2933 43.9144 21.8 43.9144 22.52C43.9144 23.2933 44.6077 23.68 45.9944 23.68ZM96.0028 8.16L97.5228 30H89.7628L89.2828 14.36L86.2428 30H76.7628L73.6828 14.56L73.2428 30H65.4828L67.0028 8.16H78.8428L81.4428 22.44L83.7628 8.16H96.0028ZM113.597 30.4C109.037 30.4 105.677 29.36 103.517 27.28C101.384 25.1733 100.317 22.4133 100.317 19C100.317 15.6667 101.384 12.96 103.517 10.88C105.677 8.8 109.037 7.76 113.597 7.76C116.664 7.76 119.224 8.26667 121.277 9.28C123.357 10.2667 124.891 11.6133 125.877 13.32C126.864 15 127.357 16.8933 127.357 19C127.357 22.44 126.211 25.2 123.917 27.28C121.651 29.36 118.211 30.4 113.597 30.4ZM113.757 23.6C115.491 23.6 116.784 23.1867 117.637 22.36C118.491 21.5333 118.917 20.4267 118.917 19.04C118.917 17.7333 118.491 16.6667 117.637 15.84C116.784 14.9867 115.491 14.56 113.757 14.56C112.024 14.56 110.757 14.9733 109.957 15.8C109.157 16.6267 108.757 17.7067 108.757 19.04C108.757 20.4267 109.157 21.5333 109.957 22.36C110.757 23.1867 112.024 23.6 113.757 23.6ZM147.65 7.76C149.384 7.76 150.944 8.25333 152.33 9.24C153.717 10.2267 154.797 11.5733 155.57 13.28C156.344 14.96 156.73 16.8133 156.73 18.84C156.73 20.84 156.344 22.7333 155.57 24.52C154.797 26.28 153.704 27.7067 152.29 28.8C150.904 29.8667 149.317 30.4 147.53 30.4C145.45 30.4 143.664 29.9733 142.17 29.12C140.704 28.24 139.61 26.8933 138.89 25.08C138.89 26.6 138.944 29.04 139.05 32.4C139.157 35.6533 139.21 37.9467 139.21 39.28H130.17C130.33 34.32 130.41 29.1333 130.41 23.72C130.41 18.3067 130.33 13.12 130.17 8.16H137.85L139.01 13.16C139.757 11.2933 140.877 9.93333 142.37 9.08C143.864 8.2 145.624 7.76 147.65 7.76ZM143.37 23.2C144.57 23.2 145.57 22.8267 146.37 22.08C147.197 21.3067 147.61 20.3067 147.61 19.08C147.61 17.72 147.237 16.6133 146.49 15.76C145.744 14.9067 144.73 14.48 143.45 14.48C141.984 14.48 140.877 14.84 140.13 15.56C139.384 16.2533 139.01 17.4267 139.01 19.08C139.01 20.0133 139.25 20.8 139.73 21.44C140.21 22.0533 140.784 22.5067 141.45 22.8C142.117 23.0667 142.757 23.2 143.37 23.2ZM172.425 30.4C167.865 30.4 164.505 29.36 162.345 27.28C160.212 25.1733 159.145 22.4133 159.145 19C159.145 15.6667 160.212 12.96 162.345 10.88C164.505 8.8 167.865 7.76 172.425 7.76C175.492 7.76 178.052 8.26667 180.105 9.28C182.185 10.2667 183.719 11.6133 184.705 13.32C185.692 15 186.185 16.8933 186.185 19C186.185 22.44 185.039 25.2 182.745 27.28C180.479 29.36 177.039 30.4 172.425 30.4ZM172.585 23.6C174.319 23.6 175.612 23.1867 176.465 22.36C177.319 21.5333 177.745 20.4267 177.745 19.04C177.745 17.7333 177.319 16.6667 176.465 15.84C175.612 14.9867 174.319 14.56 172.585 14.56C170.852 14.56 169.585 14.9733 168.785 15.8C167.985 16.6267 167.585 17.7067 167.585 19.04C167.585 20.4267 167.985 21.5333 168.785 22.36C169.585 23.1867 170.852 23.6 172.585 23.6ZM206.558 18.8C206.825 18.7733 207.198 18.76 207.678 18.76C209.465 18.76 210.772 19.1733 211.598 20C212.452 20.8267 212.878 21.8 212.878 22.92C212.878 25.2933 211.798 27.1333 209.638 28.44C207.478 29.7467 204.705 30.4 201.318 30.4C198.358 30.4 195.745 29.8933 193.478 28.88C191.238 27.8667 189.612 26.16 188.598 23.76L190.318 23.32C192.798 22.7067 194.638 22.12 195.838 21.56C196.265 22.3867 196.865 23.0267 197.638 23.48C198.412 23.9067 199.438 24.12 200.718 24.12C202.158 24.12 203.252 23.9867 203.998 23.72C204.772 23.4533 205.158 23.0133 205.158 22.4C205.158 21.92 204.732 21.5867 203.878 21.4C203.025 21.2133 201.798 21.12 200.198 21.12H197.918V15.84H199.278C200.745 15.84 201.918 15.7733 202.798 15.64C203.678 15.5067 204.118 15.2133 204.118 14.76C204.118 14.3067 203.865 13.9467 203.358 13.68C202.852 13.4133 202.172 13.28 201.318 13.28C199.932 13.28 198.838 13.5333 198.038 14.04C197.265 14.5467 196.532 15.3733 195.838 16.52C193.732 15.64 191.425 15.0133 188.918 14.64C190.972 10.08 195.238 7.8 201.718 7.8C203.612 7.8 205.345 8.08 206.918 8.64C208.492 9.17333 209.732 9.92 210.638 10.88C211.545 11.8133 211.998 12.8667 211.998 14.04C211.998 16.6 210.185 18.1867 206.558 18.8ZM229.558 13.04C233.531 13.04 236.305 13.8267 237.878 15.4C239.451 16.9467 240.238 19.1067 240.238 21.88C240.238 24.4667 239.451 26.4667 237.878 27.88C236.331 29.2667 233.558 29.96 229.558 29.96H224.238V30H215.678C215.811 26.96 215.878 23.32 215.878 19.08C215.878 14.84 215.811 11.2 215.678 8.16H224.238V13.04H229.558ZM227.158 23.6C229.051 23.6 230.371 23.4533 231.118 23.16C231.865 22.8667 232.238 22.2933 232.238 21.44C232.238 20.5867 231.851 20.0133 231.078 19.72C230.305 19.4 228.998 19.24 227.158 19.24L224.238 19.28V23.6H227.158ZM259.15 19.08C259.203 20.44 259.63 21.5333 260.43 22.36C261.256 23.1867 262.47 23.6 264.07 23.6C264.95 23.6 265.736 23.44 266.43 23.12C267.123 22.7733 267.763 22.2667 268.35 21.6C270.616 22.48 273.27 23.24 276.31 23.88C275.43 25.9333 273.936 27.5333 271.83 28.68C269.75 29.8267 267.043 30.4 263.71 30.4C259.256 30.4 255.963 29.36 253.83 27.28C251.696 25.2 250.63 22.4667 250.63 19.08C250.63 15.6933 251.696 12.96 253.83 10.88C255.963 8.8 259.256 7.76 263.71 7.76C267.043 7.76 269.75 8.33333 271.83 9.48C273.936 10.6267 275.43 12.2267 276.31 14.28C273.936 14.7867 271.283 15.5467 268.35 16.56C267.763 15.8933 267.123 15.4 266.43 15.08C265.736 14.7333 264.95 14.56 264.07 14.56C262.47 14.56 261.256 14.9733 260.43 15.8C259.63 16.6267 259.203 17.72 259.15 19.08ZM296.951 19.16C301.511 19.16 303.791 20.6133 303.791 23.52C303.791 25.6 302.991 27.2 301.391 28.32C299.818 29.44 296.964 30 292.831 30H279.311C279.444 26.96 279.511 23.32 279.511 19.08C279.511 14.84 279.444 11.2 279.311 8.16H287.591V8.2H292.791C295.298 8.2 297.258 8.41333 298.671 8.84C300.111 9.24 301.124 9.82667 301.711 10.6C302.298 11.3733 302.591 12.36 302.591 13.56C302.591 16.2533 300.711 18.12 296.951 19.16ZM287.591 13.68V16.48H290.631C291.858 16.48 292.724 16.3733 293.231 16.16C293.738 15.92 293.991 15.5067 293.991 14.92C293.991 14.4667 293.724 14.1467 293.191 13.96C292.684 13.7733 291.831 13.68 290.631 13.68H287.591ZM290.631 24.48C292.151 24.48 293.191 24.3733 293.751 24.16C294.311 23.92 294.591 23.5067 294.591 22.92C294.591 22.4133 294.298 22.04 293.711 21.8C293.124 21.56 292.098 21.44 290.631 21.44H287.591V24.48H290.631ZM319.457 30.4C314.897 30.4 311.537 29.36 309.377 27.28C307.243 25.1733 306.177 22.4133 306.177 19C306.177 15.6667 307.243 12.96 309.377 10.88C311.537 8.8 314.897 7.76 319.457 7.76C322.523 7.76 325.083 8.26667 327.137 9.28C329.217 10.2667 330.75 11.6133 331.737 13.32C332.723 15 333.217 16.8933 333.217 19C333.217 22.44 332.07 25.2 329.777 27.28C327.51 29.36 324.07 30.4 319.457 30.4ZM319.617 23.6C321.35 23.6 322.643 23.1867 323.497 22.36C324.35 21.5333 324.777 20.4267 324.777 19.04C324.777 17.7333 324.35 16.6667 323.497 15.84C322.643 14.9867 321.35 14.56 319.617 14.56C317.883 14.56 316.617 14.9733 315.817 15.8C315.017 16.6267 314.617 17.7067 314.617 19.04C314.617 20.4267 315.017 21.5333 315.817 22.36C316.617 23.1867 317.883 23.6 319.617 23.6ZM357.75 7.76C361.59 7.76 364.403 8.76 366.19 10.76C368.003 12.76 368.91 15.5333 368.91 19.08C368.91 22.68 368.016 25.4667 366.23 27.44C364.443 29.4133 361.616 30.4 357.75 30.4C354.523 30.4 352.016 29.6933 350.23 28.28C348.443 26.84 347.31 24.8 346.83 22.16H344.31V24.36C344.31 25.8 344.336 27.72 344.39 30.12H336.03C336.083 25.5333 336.11 21.8133 336.11 18.96C336.11 16.08 336.083 12.48 336.03 8.16H344.39C344.336 11.2 344.31 13.76 344.31 15.84H346.87C347.35 13.28 348.483 11.2933 350.27 9.88C352.056 8.46666 354.55 7.76 357.75 7.76ZM357.75 24.08C358.87 24.08 359.763 23.6533 360.43 22.8C361.096 21.9467 361.43 20.7067 361.43 19.08C361.43 17.48 361.096 16.2533 360.43 15.4C359.763 14.5467 358.87 14.12 357.75 14.12C356.603 14.12 355.696 14.5467 355.03 15.4C354.39 16.2533 354.07 17.48 354.07 19.08C354.07 20.7067 354.403 21.9467 355.07 22.8C355.736 23.6533 356.63 24.08 357.75 24.08Z" fill="white"/>
<path d="M400.571 19.56C401.771 20.52 402.691 21.6 403.331 22.8C403.971 24 404.571 25.44 405.131 27.12C405.691 28.5867 406.091 29.5467 406.331 30H396.691C396.611 29.8133 396.451 29.2267 396.211 28.24C395.998 27.2533 395.785 26.4667 395.571 25.88C395.358 25.2667 395.038 24.7333 394.611 24.28C393.945 23.56 393.198 23.0933 392.371 22.88C391.545 22.6667 390.318 22.56 388.691 22.56V30H380.131C380.265 26.96 380.331 23.32 380.331 19.08C380.331 14.84 380.265 11.2 380.131 8.16H388.691V16H388.851C392.025 12.8267 394.331 10.2133 395.771 8.16H406.331L396.971 17.48C398.358 18.0667 399.558 18.76 400.571 19.56ZM433.584 23.36C433.584 24.2667 433.69 24.9067 433.904 25.28C434.117 25.6533 434.544 25.92 435.184 26.08L435.024 29.84C434.17 29.9733 433.424 30.0667 432.784 30.12C432.17 30.1733 431.344 30.2 430.304 30.2C428.01 30.2 426.49 29.6933 425.744 28.68C424.997 27.64 424.624 26.32 424.624 24.72V23.72C423.85 25.9067 422.717 27.5333 421.224 28.6C419.757 29.6667 417.877 30.2 415.584 30.2C412.917 30.2 410.904 29.6667 409.544 28.6C408.21 27.5333 407.544 25.9467 407.544 23.84C407.544 22.1067 408.117 20.7467 409.264 19.76C410.41 18.7733 412.184 18.0933 414.584 17.72C412.557 16.28 410.53 15.0267 408.504 13.96C410.104 11.9333 411.93 10.4 413.984 9.36C416.037 8.29333 418.53 7.76 421.464 7.76C425.57 7.76 428.61 8.65333 430.584 10.44C432.584 12.2 433.584 14.92 433.584 18.6V23.36ZM422.304 14.8C420.944 14.8 419.744 15.0267 418.704 15.48C417.664 15.9333 416.73 16.6133 415.904 17.52C417.504 17.3333 419.504 17.24 421.904 17.24C422.89 17.24 423.584 17.12 423.984 16.88C424.384 16.64 424.584 16.3333 424.584 15.96C424.584 15.64 424.384 15.3733 423.984 15.16C423.584 14.92 423.024 14.8 422.304 14.8ZM418.104 23.68C419.597 23.68 420.944 23.4 422.144 22.84C423.344 22.2533 424.17 21.4933 424.624 20.56V19.52C423.984 19.84 423.277 20.0933 422.504 20.28C421.73 20.44 420.797 20.6 419.704 20.76L418.264 21C416.77 21.2933 416.024 21.8 416.024 22.52C416.024 23.2933 416.717 23.68 418.104 23.68ZM455.072 7.76C456.806 7.76 458.366 8.25333 459.752 9.24C461.139 10.2267 462.219 11.5733 462.992 13.28C463.766 14.96 464.152 16.8133 464.152 18.84C464.152 20.84 463.766 22.7333 462.992 24.52C462.219 26.28 461.126 27.7067 459.712 28.8C458.326 29.8667 456.739 30.4 454.952 30.4C452.872 30.4 451.086 29.9733 449.592 29.12C448.126 28.24 447.032 26.8933 446.312 25.08C446.312 26.6 446.366 29.04 446.472 32.4C446.579 35.6533 446.632 37.9467 446.632 39.28H437.592C437.752 34.32 437.832 29.1333 437.832 23.72C437.832 18.3067 437.752 13.12 437.592 8.16H445.272L446.432 13.16C447.179 11.2933 448.299 9.93333 449.792 9.08C451.286 8.2 453.046 7.76 455.072 7.76ZM450.792 23.2C451.992 23.2 452.992 22.8267 453.792 22.08C454.619 21.3067 455.032 20.3067 455.032 19.08C455.032 17.72 454.659 16.6133 453.912 15.76C453.166 14.9067 452.152 14.48 450.872 14.48C449.406 14.48 448.299 14.84 447.552 15.56C446.806 16.2533 446.432 17.4267 446.432 19.08C446.432 20.0133 446.672 20.8 447.152 21.44C447.632 22.0533 448.206 22.5067 448.872 22.8C449.539 23.0667 450.179 23.2 450.792 23.2ZM491.247 15.68C487.247 15.5733 484.341 15.5067 482.527 15.48V30H474.047V15.48C472.261 15.5067 469.367 15.5733 465.367 15.68V8.16H491.247V15.68ZM519.186 8.16L518.266 10.48C515.732 17.2267 513.079 23.7333 510.306 30C508.866 33.2 506.786 35.76 504.066 37.68C501.346 39.6267 497.932 40.56 493.826 40.48C493.319 38.2667 492.892 36.5333 492.546 35.28C492.226 34.0533 491.799 32.8133 491.266 31.56C492.732 31.9067 494.106 32.08 495.386 32.08C497.466 32.08 499.119 31.64 500.346 30.76C499.386 27.9067 498.252 24.84 496.946 21.56C495.639 18.28 493.746 13.8133 491.266 8.16H500.746C501.066 9.49333 501.506 11.04 502.066 12.8C502.626 14.56 503.186 16.2533 503.746 17.88C503.906 18.3867 504.159 19.16 504.506 20.2C504.879 21.2133 505.172 22.0667 505.386 22.76L506.426 19.6C508.426 13.8133 509.612 10 509.986 8.16H519.186ZM566.203 0.96L569.323 30H558.963L558.323 9.28L554.323 30H543.843L539.763 9.44L539.163 30H528.803L531.923 0.96H545.523L549.003 19.88L552.043 0.96H566.203ZM585.394 30.4C580.834 30.4 577.474 29.36 575.314 27.28C573.181 25.1733 572.114 22.4133 572.114 19C572.114 15.6667 573.181 12.96 575.314 10.88C577.474 8.8 580.834 7.76 585.394 7.76C588.461 7.76 591.021 8.26667 593.074 9.28C595.154 10.2667 596.687 11.6133 597.674 13.32C598.661 15 599.154 16.8933 599.154 19C599.154 22.44 598.007 25.2 595.714 27.28C593.447 29.36 590.007 30.4 585.394 30.4ZM585.554 23.6C587.287 23.6 588.581 23.1867 589.434 22.36C590.287 21.5333 590.714 20.4267 590.714 19.04C590.714 17.7333 590.287 16.6667 589.434 15.84C588.581 14.9867 587.287 14.56 585.554 14.56C583.821 14.56 582.554 14.9733 581.754 15.8C580.954 16.6267 580.554 17.7067 580.554 19.04C580.554 20.4267 580.954 21.5333 581.754 22.36C582.554 23.1867 583.821 23.6 585.554 23.6ZM611.247 14.08C612.367 10.0533 615.154 8.04 619.607 8.04C620.381 8.04 621.127 8.09333 621.847 8.2L620.567 17.16C618.647 16.44 617.074 16.08 615.847 16.08C614.327 16.08 613.207 16.5333 612.487 17.44C611.767 18.3467 611.407 19.56 611.407 21.08V21.04L611.367 23.68C611.367 25.5733 611.421 27.68 611.527 30H601.967C602.181 26.16 602.287 22.5333 602.287 19.12C602.287 15.7067 602.181 12.0533 601.967 8.16C603.727 8.24 605.074 8.28 606.007 8.28C606.994 8.28 608.341 8.24 610.047 8.16L611.247 14.08ZM645.002 20H631.962C632.176 21.1733 632.696 22.1333 633.522 22.88C634.376 23.6 635.576 23.96 637.122 23.96C638.242 23.96 639.296 23.7467 640.282 23.32C641.269 22.8667 642.056 22.24 642.642 21.44C644.429 22.32 646.802 23.2667 649.762 24.28C648.936 26.1467 647.429 27.64 645.242 28.76C643.082 29.8533 640.256 30.4 636.762 30.4C632.229 30.4 628.869 29.36 626.682 27.28C624.522 25.1733 623.442 22.4133 623.442 19C623.442 15.6667 624.522 12.96 626.682 10.88C628.842 8.8 632.202 7.76 636.762 7.76C639.482 7.76 641.842 8.21333 643.842 9.12C645.842 10.0267 647.376 11.2933 648.442 12.92C649.509 14.52 650.042 16.36 650.042 18.44C650.042 19.1333 650.016 19.6533 649.962 20H645.002ZM637.322 13.8C635.989 13.8 634.896 14.0533 634.042 14.56C633.189 15.0667 632.589 15.76 632.242 16.64H641.682C641.362 15.7867 640.842 15.1067 640.122 14.6C639.402 14.0667 638.469 13.8 637.322 13.8ZM665.707 30.4C661.147 30.4 657.787 29.36 655.627 27.28C653.493 25.1733 652.427 22.4133 652.427 19C652.427 15.6667 653.493 12.96 655.627 10.88C657.787 8.8 661.147 7.76 665.707 7.76C668.773 7.76 671.333 8.26667 673.387 9.28C675.467 10.2667 677 11.6133 677.987 13.32C678.973 15 679.467 16.8933 679.467 19C679.467 22.44 678.32 25.2 676.027 27.28C673.76 29.36 670.32 30.4 665.707 30.4ZM665.867 23.6C667.6 23.6 668.893 23.1867 669.747 22.36C670.6 21.5333 671.027 20.4267 671.027 19.04C671.027 17.7333 670.6 16.6667 669.747 15.84C668.893 14.9867 667.6 14.56 665.867 14.56C664.133 14.56 662.867 14.9733 662.067 15.8C661.267 16.6267 660.867 17.7067 660.867 19.04C660.867 20.4267 661.267 21.5333 662.067 22.36C662.867 23.1867 664.133 23.6 665.867 23.6ZM697.88 30C698.04 26.08 698.12 22.4667 698.12 19.16C698.12 17.9867 697.826 17.0533 697.24 16.36C696.68 15.6667 695.96 15.32 695.08 15.32C694.2 15.32 693.453 15.72 692.84 16.52C692.226 17.2933 691.866 18.36 691.76 19.72C691.706 21.7467 691.68 23.1867 691.68 24.04C691.68 25.8533 691.733 27.84 691.84 30H682.28C682.493 26.16 682.6 22.5333 682.6 19.12C682.6 15.7067 682.493 12.0533 682.28 8.16C684.04 8.24 685.386 8.28 686.32 8.28C687.306 8.28 688.653 8.24 690.36 8.16L691.52 14.04C692.133 11.9067 693.093 10.3333 694.4 9.32C695.706 8.28 697.226 7.76 698.96 7.76C700.56 7.76 701.946 8.12 703.12 8.84C704.293 9.53333 705.173 10.48 705.76 11.68C706.373 12.88 706.68 14.2267 706.68 15.72V21.48C706.68 25.0267 706.746 27.8667 706.88 30H697.88Z" fill="#33B0AA"/>
</svg>
