<svg width="160" height="61" viewBox="0 0 160 61" fill="none" xmlns="http://www.w3.org/2000/svg">
<g clip-path="url(#clip0_365_3036)">
<path fill-rule="evenodd" clip-rule="evenodd" d="M78.7708 51.7447L79.3455 51.4011C79.7498 52.1351 80.2025 52.5024 80.7272 52.5024C80.9511 52.5024 81.1705 52.4595 81.3625 52.3506C81.555 52.2412 81.7118 52.1137 81.8053 51.9267C81.9164 51.7601 81.9681 51.5649 81.9681 51.3752C81.9681 51.1542 81.8883 50.9331 81.7332 50.7154C81.5258 50.4201 81.1441 50.0545 80.5919 49.6492C80.0265 49.222 79.6827 48.9218 79.5419 48.7255C79.3087 48.4187 79.1992 48.0679 79.1992 47.7077C79.1992 47.4223 79.2608 47.1589 79.4038 46.9132C79.5413 46.6751 79.7344 46.4953 79.9869 46.3551C80.2454 46.2204 80.522 46.1406 80.818 46.1406C81.1342 46.1406 81.4356 46.2204 81.7024 46.3815C81.9747 46.5283 82.27 46.8246 82.5764 47.2398L82.0264 47.6538C81.7728 47.3201 81.5704 47.0985 81.3883 46.9918C81.2002 46.8884 81.0176 46.8367 80.8037 46.8367C80.5336 46.8367 80.3141 46.9126 80.1348 47.0737C79.9698 47.2392 79.878 47.4427 79.878 47.6786C79.878 47.8298 79.9154 47.9628 79.9698 48.1052C80.0292 48.2301 80.1458 48.3802 80.3009 48.5473C80.3966 48.6392 80.6881 48.858 81.1705 49.2154C81.747 49.6487 82.1567 50.0209 82.358 50.3519C82.5764 50.6862 82.6859 51.0272 82.6859 51.3571C82.6859 51.8404 82.5027 52.2599 82.1369 52.6283C81.7734 52.9725 81.324 53.1595 80.7971 53.1595C80.3933 53.1595 80.0265 53.0506 79.6953 52.8345C79.3653 52.614 79.0502 52.2555 78.7708 51.7447ZM84.0961 46.305H85.4261C86.1873 46.305 86.7077 46.3441 86.9717 46.4128C87.3556 46.5096 87.668 46.6921 87.9073 46.9934C88.1427 47.2805 88.273 47.6555 88.273 48.0953C88.273 48.5352 88.1482 48.8954 87.9188 49.1956C87.6862 49.4821 87.3561 49.6674 86.9337 49.7762C86.6384 49.8527 86.0729 49.8857 85.2479 49.8857H84.7672V52.9951H84.0961V46.305ZM84.7666 46.9643V49.2253L85.8991 49.2533C86.3523 49.2533 86.6939 49.2115 86.898 49.1153C87.1163 49.0449 87.2846 48.8954 87.3996 48.7172C87.52 48.5352 87.5761 48.3279 87.5761 48.0953C87.5761 47.8738 87.5195 47.6665 87.3996 47.4806C87.2846 47.2975 87.1196 47.1666 86.9134 47.0787C86.7225 47.0066 86.398 46.9643 85.9393 46.9643H84.7666ZM92.3295 46.305L95.4509 52.9951H94.7276L93.6941 50.7968H90.7894L89.7614 52.9951H89.0073L92.1628 46.305H92.3295ZM92.2475 47.7187L91.1018 50.1474H93.4004L92.2475 47.7187Z" fill="white"/>
<g opacity="0.25">
<path opacity="0.25" fill-rule="evenodd" clip-rule="evenodd" d="M18.3214 27.9747C23.7508 32.1459 29.1542 33.6151 31.6068 34.0968C44.0287 36.4947 18.7251 -1.16688 15.1857 4.14249C10.0022 11.9152 10.219 21.7553 18.3214 27.9747Z" fill="white"/>
<path opacity="0.25" d="M32.6556 34.2641V34.1497C34.1803 34.1497 34.9504 33.2793 34.9531 31.5649C34.9564 28.2492 31.9263 21.6923 27.2395 14.8488C22.6721 8.17306 18.2152 3.68682 16.1526 3.68682V3.56641C18.5793 3.56641 23.5213 9.19579 27.3418 14.7762C30.9071 19.9899 35.0719 27.5058 35.0719 31.5649C35.0714 33.3546 34.2579 34.2641 32.6556 34.2641Z" fill="white"/>
</g>
<g opacity="0.25">
<path opacity="0.25" fill-rule="evenodd" clip-rule="evenodd" d="M28.6934 14.1665C26.9828 20.3666 27.6104 25.577 28.062 27.8765C30.3661 39.5168 54.1729 4.22843 48.3069 3.02646C39.722 1.27463 31.2489 4.93059 28.6934 14.1665Z" fill="white"/>
<path opacity="0.25" d="M30.1822 30.2852C29.0492 30.2852 28.3165 29.4764 28.008 27.8911C27.6097 25.8792 26.8749 20.5132 28.6394 14.147C29.6531 10.4636 31.702 7.45204 34.5577 5.43299C37.2385 3.54095 40.5547 2.54297 44.1628 2.54297C45.5346 2.54297 46.9289 2.68923 48.3172 2.9713C49.0647 3.12581 49.3876 3.80653 49.2649 4.99201C48.9679 7.94141 45.7832 14.1113 41.5167 19.9892C36.853 26.4395 32.6128 30.2852 30.1822 30.2852ZM44.1628 2.65954C40.5811 2.65954 37.2831 3.65037 34.6254 5.52976C31.7927 7.53507 29.7604 10.5208 28.7478 14.1828C26.9981 20.5209 27.7297 25.8611 28.1213 27.8653C28.4227 29.3911 29.1141 30.1653 30.1817 30.1653C31.4154 30.1653 33.1832 29.1162 35.2914 27.1235C37.1912 25.3261 39.3116 22.8363 41.427 19.9232C45.6765 14.058 48.8491 7.91062 49.1494 4.97991C49.2616 3.86536 48.9756 3.22863 48.2936 3.09337C46.9102 2.8025 45.5231 2.65954 44.1628 2.65954Z" fill="white"/>
</g>
<g opacity="0.25">
<path opacity="0.25" fill-rule="evenodd" clip-rule="evenodd" d="M21.2075 19.44C23.4879 24.9297 26.9091 28.3673 28.5465 29.7865C36.8481 36.9703 34.1293 -2.29128 29.168 0.169852C21.9154 3.76368 17.8182 11.2549 21.2075 19.44Z" fill="white"/>
<path opacity="0.25" d="M30.4128 30.7241V30.6047C31.5337 30.6047 32.4055 29.4132 33.0034 27.067C33.5265 25.0051 33.8015 22.1222 33.8015 18.723C33.8015 10.1195 31.9743 0.117118 29.6174 0.117118V0C32.0843 0 33.9203 9.88633 33.9203 18.723C33.9203 22.1288 33.6436 25.0243 33.1173 27.1011C32.5067 29.5045 31.5975 30.7241 30.4128 30.7241Z" fill="white"/>
</g>
<g opacity="0.25">
<path opacity="0.25" fill-rule="evenodd" clip-rule="evenodd" d="M44.8562 18.1776C38.5424 20.8521 34.6009 24.8297 32.9871 26.7262C24.7713 36.3546 70.0227 32.8971 67.145 27.2034C62.9329 18.8633 54.271 14.2033 44.8562 18.1776Z" fill="white"/>
<path opacity="0.25" d="M45.2877 32.8267C37.8348 32.8267 33.0281 31.672 32.0969 29.6551C31.7053 28.8007 31.9913 27.8043 32.9379 26.6854C34.3542 25.0287 38.3496 20.8718 44.8361 18.1248C47.1033 17.168 49.4014 16.6836 51.6603 16.6836C58.0737 16.6836 63.8814 20.6051 67.197 27.1764C67.3955 27.5734 67.3807 27.9819 67.1337 28.3751C65.5199 30.9902 54.3269 32.8267 45.2877 32.8267ZM51.6603 16.7952C49.419 16.7952 47.1369 17.2818 44.8779 18.2336C38.4244 20.9664 34.4433 25.1128 33.0287 26.7657C32.1118 27.8434 31.8346 28.799 32.2025 29.6024C33.1128 31.5769 37.8794 32.6964 45.2882 32.6964C49.8925 32.6964 54.9126 32.251 59.061 31.4504C63.4777 30.6042 66.3147 29.4896 67.0386 28.3102C67.2564 27.955 67.2762 27.5926 67.0919 27.2297C63.7967 20.7003 58.028 16.7952 51.6603 16.7952Z" fill="white"/>
</g>
<g opacity="0.25">
<path opacity="0.25" fill-rule="evenodd" clip-rule="evenodd" d="M45.1111 21.2759C38.7516 22.226 34.242 24.9269 32.3323 26.279C22.6265 33.1197 64.5595 40.4943 63.2752 34.6466C61.3848 26.0915 54.5936 19.8408 45.1111 21.2759Z" fill="white"/>
<path opacity="0.25" d="M57.4038 36.8254C48.3525 36.8254 32.2295 33.1557 30.9012 28.9697C30.6004 28.014 31.0684 27.0996 32.2966 26.2353C33.9698 25.0503 38.5686 22.201 45.0997 21.2102C46.0023 21.0809 46.901 21.0078 47.7706 21.0078C55.4006 21.0078 61.4988 26.3557 63.3287 34.6359C63.4101 34.9916 63.3369 35.3078 63.118 35.5822C62.2891 36.6055 59.5533 36.8254 57.4038 36.8254ZM47.7711 21.1266C46.9065 21.1266 46.0094 21.1953 45.1189 21.3322C38.6121 22.3082 34.0314 25.1526 32.3643 26.3254C31.1839 27.1645 30.7329 28.0344 31.0156 28.9328C31.5976 30.7699 35.3581 32.7466 41.3276 34.3538C46.6249 35.7785 52.9359 36.7121 57.4043 36.7121C60.4476 36.7121 62.392 36.297 63.0234 35.5058C63.2187 35.2682 63.283 34.9784 63.2176 34.6606C61.397 26.4376 55.3384 21.1266 47.7711 21.1266Z" fill="white"/>
</g>
<g opacity="0.25">
<path opacity="0.25" fill-rule="evenodd" clip-rule="evenodd" d="M37.2448 16.5919C33.1597 20.9044 31.4046 25.4308 30.7842 27.5048C27.6001 38.0092 62.3509 19.5441 58.0909 16.0151C51.8486 10.8449 43.3375 10.1614 37.2448 16.5919Z" fill="white"/>
<path opacity="0.25" d="M33.2772 30.7577C32.1024 30.7577 31.2872 30.4652 30.861 29.8923C30.4523 29.3419 30.405 28.533 30.7235 27.4867C31.2757 25.6749 33 20.9852 37.2006 16.549C40.086 13.505 43.6689 11.8945 47.5538 11.8945C51.2021 11.8945 54.9522 13.3434 58.1303 15.9645C58.5191 16.2895 58.6149 16.7387 58.4102 17.3056C57.7238 19.1977 53.5639 22.4423 47.8095 25.5649C43.1822 28.0739 36.9327 30.7577 33.2772 30.7577ZM47.5538 12.0083C43.7063 12.0083 40.1504 13.6062 37.2908 16.6249C33.1073 21.0496 31.3857 25.7178 30.8368 27.5213C30.5304 28.533 30.57 29.3034 30.9528 29.8268C31.3604 30.3624 32.1387 30.6324 33.2778 30.6324C35.6605 30.6324 40.7109 29.2748 47.7479 25.4638C53.4798 22.3533 57.6248 19.1366 58.2931 17.266C58.4806 16.7475 58.402 16.3428 58.0511 16.058C54.8994 13.4479 51.1724 12.0083 47.5538 12.0083Z" fill="white"/>
</g>
<g opacity="0.25">
<path opacity="0.25" fill-rule="evenodd" clip-rule="evenodd" d="M44.7252 39.9145C42.8689 33.3053 39.424 28.8999 37.7426 27.054C29.2397 17.6873 26.9384 63.0039 32.959 60.8754C41.7589 57.7512 47.4825 49.7475 44.7252 39.9145Z" fill="white"/>
<path opacity="0.25" d="M32.5518 61.0016C31.565 61.0016 30.7917 59.7364 30.256 57.2154C29.7736 54.9835 29.5222 51.912 29.5222 48.3435C29.5222 43.0748 30.0909 37.4311 31.0469 33.2666C32.4698 27.0252 34.2618 25.7188 35.5115 25.7188V25.8386C31.8879 25.8386 29.6388 37.518 29.6388 48.344C29.6388 55.9705 30.7856 60.884 32.5512 60.8889V61.0016H32.5518Z" fill="white"/>
</g>
<g opacity="0.25">
<path opacity="0.25" fill-rule="evenodd" clip-rule="evenodd" d="M41.622 39.775C41.473 33.3434 39.3647 28.5344 38.2663 26.4647C32.7099 15.9747 20.0923 56.6307 26.0551 56.0869C34.7846 55.2868 41.8437 49.3408 41.622 39.775Z" fill="white"/>
<path opacity="0.25" d="M25.9366 56.1559C24.9537 56.1559 24.4307 54.9831 24.4307 52.7831C24.4307 48.894 26.0868 41.8718 28.4514 35.7108C29.7313 32.3979 33.0287 24.6758 36.1243 24.6758V24.7929C34.0314 24.7929 31.2032 28.892 28.5614 35.7613C26.2029 41.8982 24.5506 48.894 24.5506 52.7831C24.5506 54.265 24.7904 56.03 25.9366 56.03V56.1559Z" fill="white"/>
</g>
<g opacity="0.25">
<path opacity="0.25" fill-rule="evenodd" clip-rule="evenodd" d="M47.2674 32.5627C43.5041 27.9616 39.2287 25.6549 37.259 24.7658C27.2359 20.2845 41.1598 57.0872 45.2042 53.2998C51.1148 47.7639 52.8721 39.4166 47.2674 32.5627Z" fill="white"/>
<path opacity="0.25" d="M44.5412 53.6347C43.2855 53.6347 40.8505 51.041 37.7781 43.7676C35.2611 37.811 33.6353 31.6384 33.6353 28.044C33.6353 26.8767 33.8014 25.9738 34.1259 25.3552C34.4828 24.6729 35.0285 24.3281 35.7551 24.3281V24.4458C35.0791 24.4458 34.5654 24.7774 34.2359 25.408C33.918 26.0151 33.759 26.8987 33.759 28.0435C33.759 35.8882 41.2152 53.5187 44.5418 53.5198V53.6347H44.5412Z" fill="white"/>
</g>
<g opacity="0.25">
<path opacity="0.25" fill-rule="evenodd" clip-rule="evenodd" d="M24.0261 41.1873C29.6216 37.2366 32.617 32.5085 33.7957 30.303C39.7548 19.1432 -3.70519 32.1989 0.325968 37.1569C6.21952 44.3985 15.685 47.0966 24.0261 41.1873Z" fill="white"/>
<path opacity="0.25" d="M14.3712 44.4697C9.18445 44.4697 4.04663 41.8232 0.274535 37.1962C-0.0461314 36.7948 -0.0862835 36.3269 0.156829 35.8199C1.97192 32.0012 19.8352 25.8594 29.1147 25.8594C31.8313 25.8594 33.5227 26.3823 34.1458 27.427C34.587 28.1578 34.483 29.1403 33.8461 30.3308C32.8208 32.2558 29.7995 37.1792 24.0561 41.2349C21.0227 43.3809 17.7643 44.4697 14.3712 44.4697ZM29.1147 25.9748C19.8654 25.9748 2.06873 32.0749 0.262985 35.8755C0.0424231 36.3313 0.0748748 36.7541 0.37079 37.1231C4.11758 41.716 9.21745 44.3608 14.3718 44.3608C17.744 44.3608 20.9754 43.2737 23.9912 41.142C29.7126 37.0939 32.7174 32.197 33.7366 30.2758C34.3631 29.1194 34.461 28.1803 34.0452 27.4913C33.4424 26.4857 31.784 25.9748 29.1147 25.9748Z" fill="white"/>
</g>
<g opacity="0.25">
<path opacity="0.25" fill-rule="evenodd" clip-rule="evenodd" d="M23.1173 38.2275C29.1154 35.9258 32.9452 32.3298 34.5276 30.5983C42.5355 21.8365 0.000705719 23.6158 2.51049 29.0478C6.19018 36.9959 14.1645 41.6449 23.1173 38.2275Z" fill="white"/>
<path opacity="0.25" d="M17.2026 39.4166C14.0862 39.4166 11.0731 38.4263 8.47258 36.5475C5.9683 34.7566 3.88645 32.1674 2.45692 29.0728C2.28476 28.6962 2.31116 28.3283 2.54218 27.9704C3.36557 26.6755 6.59259 25.8474 9.15572 25.3894C12.4878 24.7856 16.7406 24.4414 20.8026 24.4414C29.0277 24.4414 34.4999 25.7231 35.4432 27.8516C35.8052 28.6775 35.5087 29.6111 34.5681 30.6338C33.1876 32.1443 29.3005 35.924 23.1336 38.2801C21.1551 39.0323 19.1569 39.4166 17.2026 39.4166ZM20.8026 24.564C12.9674 24.564 4.02725 25.8595 2.63953 28.0341C2.43437 28.358 2.40742 28.6885 2.56473 29.025C5.53983 35.4665 11.0115 39.3028 17.2026 39.3028C19.1398 39.3028 21.1243 38.9185 23.0929 38.1751C29.2384 35.8189 33.1067 32.0624 34.4829 30.5602C35.3871 29.5682 35.6704 28.6775 35.3338 27.9033C34.8619 26.8201 33.1205 25.9409 30.3115 25.3586C27.7907 24.8422 24.507 24.564 20.8026 24.564Z" fill="white"/>
</g>
<g opacity="0.25">
<path opacity="0.25" fill-rule="evenodd" clip-rule="evenodd" d="M31.7996 41.1208C34.8693 36.0374 35.6107 31.2333 35.7785 29.0757C36.6382 18.1353 6.644 43.6083 11.5646 46.142C18.771 49.8535 27.2272 48.6983 31.7996 41.1208Z" fill="white"/>
<path opacity="0.25" d="M19.6057 48.2509C16.931 48.2509 14.1456 47.541 11.5385 46.1939C11.0176 45.9233 10.8471 45.4169 11.0286 44.6686C12.2035 39.8238 27.9975 26.3008 33.742 26.3008C34.4301 26.3008 34.9565 26.491 35.3102 26.8765C35.7408 27.3395 35.9146 28.0796 35.8393 29.0742C35.6902 30.9641 35.0065 35.9155 31.856 41.1484C29.0893 45.7243 24.7436 48.2509 19.6057 48.2509ZM33.742 26.419C30.7004 26.419 25.0296 30.2119 20.7448 33.7661C15.541 38.0759 11.6848 42.473 11.1436 44.6917C10.9758 45.3878 11.1304 45.8458 11.5902 46.0866C14.1786 47.4255 16.9513 48.1216 19.6057 48.1216C24.6968 48.1216 29.0167 45.6248 31.7498 41.0912C34.8943 35.8753 35.5758 30.9492 35.721 29.0682C35.7975 28.101 35.6292 27.3939 35.226 26.9606C34.8943 26.6043 34.3977 26.419 33.742 26.419Z" fill="white"/>
</g>
<path d="M95.6928 38.5078C94.8683 38.5078 94.1483 38.2021 93.7375 37.6759L94.6841 36.9567C94.8744 37.2102 95.365 37.3597 95.882 37.3125C96.3963 37.2652 96.7945 37.0491 96.959 36.7368C97.2076 36.2738 97.2203 35.7245 97.0162 35.3082C96.8226 34.8964 96.4299 34.6369 95.8991 34.5379C94.5867 34.3163 93.0191 34.9739 91.7629 35.4881L91.4433 35.6343C91.1017 35.7635 90.7679 35.9164 90.4252 36.0533C89.1722 36.5916 87.8637 37.1393 86.5255 37.5654C84.0333 38.3506 82.0406 38.3572 80.5896 37.5813C79.5159 37.0111 78.7706 36.0247 78.3834 34.649L79.5308 34.324C79.8234 35.3935 80.3558 36.1099 81.144 36.5355C82.2853 37.1393 84.0289 37.1035 86.1762 36.425C87.4583 36.0247 88.7317 35.4881 89.9599 34.953C90.3058 34.8156 90.6463 34.6759 90.995 34.5352L91.3058 34.4026C92.7012 33.816 94.4503 33.0797 96.0982 33.3766C97.0123 33.53 97.7169 34.0359 98.0844 34.7716C98.454 35.5414 98.4375 36.4783 98.0079 37.2883C97.6641 37.9684 96.8952 38.4122 95.9893 38.4996C95.882 38.5029 95.7869 38.5078 95.6928 38.5078Z" fill="white"/>
<path d="M116.296 38.9027C115.473 38.9027 114.747 38.5899 114.335 38.0763L115.272 37.3461C115.473 37.5985 115.97 37.7475 116.481 37.7074C116.986 37.6524 117.393 37.4506 117.562 37.1273C117.803 36.6615 117.827 36.1117 117.619 35.6971C117.42 35.2831 117.031 35.0296 116.49 34.941C115.189 34.7002 113.615 35.3622 112.368 35.8873L112.042 36.0248C111.702 36.1672 111.354 36.3085 111.016 36.446C109.754 36.9766 108.462 37.527 107.131 37.9553C104.627 38.7383 102.623 38.7532 101.181 37.9691C100.103 37.3989 99.3693 36.413 98.9739 35.0455L100.111 34.7195C100.421 35.7796 100.952 36.4971 101.742 36.9282C102.884 37.5435 104.622 37.5072 106.767 36.827C108.043 36.4135 109.323 35.8763 110.554 35.3606C110.892 35.216 111.24 35.067 111.577 34.9191L111.902 34.7898C113.305 34.2059 115.047 33.4707 116.699 33.7671C117.616 33.926 118.323 34.4269 118.689 35.172C119.06 35.9379 119.039 36.8727 118.615 37.6771C118.251 38.3512 117.503 38.8109 116.582 38.8912C116.485 38.9027 116.391 38.9027 116.296 38.9027Z" fill="white"/>
<path d="M136.857 38.6317C136.045 38.6317 135.316 38.3178 134.914 37.8064L135.849 37.0718C136.046 37.3264 136.541 37.4759 137.044 37.4314C137.56 37.3836 137.962 37.179 138.128 36.8546C138.366 36.3894 138.392 35.8379 138.183 35.4184C137.984 35.011 137.595 34.7597 137.063 34.6635C135.752 34.4287 134.186 35.0901 132.935 35.6164L132.612 35.7505C132.274 35.8896 131.932 36.0381 131.589 36.1722C130.339 36.704 129.033 37.2555 127.703 37.6788C125.214 38.469 123.208 38.4811 121.755 37.6992C120.675 37.1301 119.939 36.1398 119.553 34.7745L120.694 34.4435C120.994 35.5064 121.53 36.2272 122.308 36.6517C123.457 37.2681 125.196 37.2351 127.344 36.5516C128.63 36.1398 129.9 35.6043 131.128 35.0896C131.473 34.9439 131.809 34.7921 132.158 34.6519L132.472 34.5172C133.87 33.9333 135.612 33.1987 137.266 33.4928C138.18 33.6545 138.889 34.1565 139.25 34.9004C139.631 35.6636 139.604 36.6011 139.179 37.4023C138.83 38.0797 138.065 38.5355 137.154 38.6158C137.053 38.6317 136.957 38.6317 136.857 38.6317Z" fill="white"/>
<path d="M157.347 39.0111C156.533 39.0111 155.803 38.718 155.394 38.1852L156.33 37.4649C156.536 37.7228 157.027 37.8724 157.528 37.8179C158.043 37.7816 158.449 37.5661 158.618 37.251C158.85 36.7754 158.87 36.2399 158.671 35.8192C158.471 35.4118 158.082 35.1396 157.548 35.0434C156.243 34.8262 154.679 35.4739 153.418 35.9996L153.103 36.1354C152.756 36.274 152.418 36.423 152.079 36.5687C150.823 37.102 149.527 37.6469 148.187 38.0714C145.695 38.861 143.697 38.8632 142.247 38.0934C141.172 37.5166 140.428 36.534 140.041 35.1572L141.181 34.8267C141.482 35.894 142.007 36.6248 142.804 37.0443C143.938 37.6513 145.681 37.6183 147.827 36.936C149.112 36.534 150.382 35.9913 151.62 35.4745C151.961 35.3227 152.3 35.1792 152.643 35.0439L152.957 34.9076C154.356 34.3225 156.095 33.5967 157.749 33.886C158.67 34.0388 159.366 34.537 159.733 35.2826C160.114 36.0524 160.08 36.9888 159.668 37.7981C159.312 38.4778 158.557 38.9187 157.638 39.0095C157.538 39.0111 157.439 39.0111 157.347 39.0111Z" fill="white"/>
<path d="M78.7844 18.8086H79.9697L83.5944 23.7628L87.0662 18.8086H88.1866V28.4651H87.0123V20.6583L83.595 25.4612H83.4245L79.9565 20.7034V28.4651H78.785V18.8086H78.7844Z" fill="white"/>
<path d="M99.3858 18.6719C102.182 18.6719 104.294 20.7041 104.294 23.6447C104.294 26.5095 102.183 28.6027 99.3858 28.6027C96.5762 28.6027 94.4619 26.5743 94.4619 23.6447C94.4619 20.846 96.508 18.6719 99.3858 18.6719ZM99.3858 27.503C101.591 27.503 103.065 25.8216 103.065 23.6447C103.065 21.3936 101.455 19.7776 99.3858 19.7776C97.2808 19.7776 95.6973 21.3936 95.6973 23.6447C95.6973 25.8293 97.3111 27.503 99.3858 27.503Z" fill="white"/>
<path d="M110.574 28.4647V18.8082C111.112 18.8082 112.492 18.7812 113.1 18.7812C115.859 18.7812 116.675 20.2719 116.675 21.7785C116.675 23.3494 115.564 24.8071 113.201 24.8071C112.812 24.8071 112.232 24.7994 111.754 24.7548V28.4647H110.574ZM111.754 19.9134V23.6436C112.218 23.6815 112.671 23.7068 113.155 23.7068C114.577 23.7068 115.432 22.9799 115.432 21.7631C115.432 20.6238 114.746 19.8892 113.211 19.8892C112.825 19.8892 112.206 19.9051 111.754 19.9134Z" fill="white"/>
<path d="M122.952 18.8086H128.392V19.9138H124.125V23.0342H127.984V24.1383H124.125V27.3654H128.537V28.4651H122.952V18.8086Z" fill="white"/>
<path d="M139.178 18.6719C141.978 18.6719 144.096 20.7041 144.096 23.6447C144.096 26.5095 141.978 28.6027 139.178 28.6027C136.381 28.6027 134.256 26.5743 134.256 23.6447C134.256 20.846 136.309 18.6719 139.178 18.6719ZM139.178 27.503C141.379 27.503 142.86 25.8216 142.86 23.6447C142.86 21.3936 141.244 19.7776 139.178 19.7776C137.079 19.7776 135.496 21.3936 135.496 23.6447C135.496 25.8293 137.102 27.503 139.178 27.503Z" fill="white"/>
<path d="M156.853 24.0943H151.538V28.4651H150.37V18.8086H151.538V22.9902H156.853V18.8086H158.021V28.4651H156.853V24.0943Z" fill="white"/>
</g>
<defs>
<clipPath id="clip0_365_3036">
<rect width="160" height="61" fill="white"/>
</clipPath>
</defs>
</svg>
