<svg width="126" height="126" viewBox="0 0 126 126" fill="none" xmlns="http://www.w3.org/2000/svg">
<g clip-path="url(#clip0_365_3273)">
<path d="M62.9995 126C97.7932 126 125.999 97.7939 125.999 63C125.999 28.2061 97.7932 0 62.9995 0C28.2058 0 0 28.2061 0 63C0 97.7939 28.2058 126 62.9995 126Z" fill="white"/>
<path fill-rule="evenodd" clip-rule="evenodd" d="M4.93201 90.2907L41.1826 66.5664L43.3548 69.883L6.2716 94.1532L4.93201 90.2907Z" fill="#00100F"/>
<path fill-rule="evenodd" clip-rule="evenodd" d="M109.847 116.264L66.351 49.8363L69.6825 47.6641L112.644 113.285L109.847 116.264Z" fill="#00100F"/>
<path fill-rule="evenodd" clip-rule="evenodd" d="M84.7436 28.506L85.0046 28.4144L85.2635 28.3487L85.5364 28.3098L85.7974 28.2969H86.0703L86.3302 28.3238L86.5902 28.3756L86.8372 28.4403L87.0852 28.5309L87.3322 28.6485L87.5543 28.7789L87.7744 28.9214L87.9826 29.0907L88.1778 29.2849L88.36 29.494L88.5164 29.7152L88.6718 29.9871L88.8162 30.2869L88.9058 30.5737L88.9716 30.8725L89.0094 31.1852L89.0244 31.483L89.0094 31.7828L88.9576 32.0816L88.8799 32.3814L88.7764 32.6553L88.6459 32.9411L88.4905 33.2001L88.2933 33.4481L88.0861 33.6692L87.8531 33.8774L87.5921 34.0716L87.3202 34.229L87.0324 34.3714L86.7336 34.463L86.4338 34.5407L86.135 34.5785H85.8233L85.5245 34.5666L85.2257 34.5138L84.9389 34.4491L84.653 34.3445L84.3791 34.215L84.1192 34.0457L83.8722 33.8634L83.6381 33.6563L83.4299 33.4222L83.2347 33.1623L83.0923 32.9272L82.9758 32.6802L82.8842 32.4332L82.8065 32.1852L82.7676 31.9262L82.7278 31.6653V31.4053L82.7407 31.1454L82.7786 30.8854L82.8314 30.6384L82.9091 30.3904L83.0136 30.1434L83.1302 29.9094L83.2736 29.6753L83.4299 29.4672L83.6122 29.26L83.7676 29.0907L84.8213 30.6902L84.7177 30.8595L84.6391 31.0418L84.6002 31.2241L84.5753 31.4193L84.5883 31.6135L84.6281 31.7958L84.6918 31.978L84.7835 32.1603L84.9518 32.3695L85.147 32.5238L85.3681 32.6404L85.6022 32.719L85.8502 32.733L86.0962 32.719L86.3432 32.6404L86.5782 32.5238L86.7864 32.3545L86.9428 32.1603L87.0722 31.9382L87.1499 31.7051L87.1758 31.4571L87.1499 31.2101L87.0852 30.9641L86.9667 30.7301L86.8511 30.5737L86.7077 30.4422L86.5653 30.3386L86.396 30.248L86.2137 30.1962L86.0314 30.1564L85.8502 30.1434L85.655 30.1693L84.6002 28.5708L84.7436 28.506Z" fill="#00100F"/>
<path fill-rule="evenodd" clip-rule="evenodd" d="M96.6445 30.0156L98.8297 33.3323L82.5714 43.9733L80.3992 40.6547L96.6445 30.0156Z" fill="#00100F"/>
<path fill-rule="evenodd" clip-rule="evenodd" d="M90.1288 41.4599L90.1547 41.4469L92.6645 39.7816L93.4713 39.2617L103.812 55.0531L104.358 54.5979L104.891 54.1288L105.386 53.6607L105.868 53.1667L106.309 52.6726L106.739 52.1786L107.128 51.6707L107.506 51.1637L107.843 50.6558L108.157 50.1359L108.43 49.6289L108.691 49.109L108.911 48.6011L109.105 48.0941L109.261 47.5872L109.393 47.0931L107.388 47.6519L108.299 45.2326L109.223 42.8005L110.901 44.5036L112.591 46.2077L110.967 46.6629L111.044 47.2754L111.07 47.8989L111.019 48.5493L110.914 49.1997L110.745 49.8749L110.51 50.5651L110.226 51.2544L109.887 51.9565L109.483 52.6468L109.027 53.336L108.533 54.0381L107.975 54.7154L107.377 55.3907L106.726 56.0411L106.037 56.6914L105.295 57.3159L105.791 58.0709L102.472 60.2421L101.992 59.527L101.106 59.9822L100.223 60.3856L99.3376 60.7501L98.4661 61.0489L97.5946 61.3088L96.7371 61.505L95.9035 61.6614L95.0848 61.764L94.291 61.8038H93.5221L92.7821 61.752L92.066 61.6335L91.4026 61.4781L90.7792 61.27L90.1806 60.9971L89.6467 60.6853L88.4645 61.9991L87.6956 59.7222L86.9287 57.4464L89.5043 57.6934L92.0809 57.9534L90.8827 59.293L91.4026 59.3716L91.9245 59.4234L92.4693 59.4364H93.042L93.6147 59.3975L94.2003 59.3447L94.7989 59.2551L95.4095 59.1366L96.021 58.9932L96.6445 58.8248L97.2819 58.6296L97.9074 58.4085L98.5438 58.1615L99.1942 57.8886L99.8306 57.5759L100.469 57.2512L90.1288 41.4599Z" fill="#00100F"/>
<path fill-rule="evenodd" clip-rule="evenodd" d="M53.4619 68.9447L53.6302 68.4885L53.8254 68.0592L54.0466 67.631L54.2677 67.2136L54.5147 66.8113L54.7756 66.4338L55.0485 66.0563L55.3473 65.6928L55.6461 65.3412L55.9718 65.0155L56.648 64.391L57.3641 63.8193L58.145 63.3253L58.9497 62.8951L59.7814 62.5315L60.6539 62.2327L61.109 62.1152L61.5512 62.0106L62.0203 61.9329L62.4755 61.8682L62.9426 61.8294L63.4127 61.8164H63.8798L64.3609 61.8294L64.831 61.8682L65.311 61.9329L64.0352 66.876L63.594 66.8631L63.1518 66.889L62.7105 66.9407L62.2803 67.0324L61.864 67.1489L61.4606 67.2923L61.0702 67.4746L60.6927 67.6828L60.3292 67.9168L59.9905 68.1768L59.6659 68.4507L59.3541 68.7624L59.0802 69.1L58.8213 69.4506L58.6002 69.8281L58.39 70.2185L53.4619 68.9447Z" fill="#00100F"/>
<path fill-rule="evenodd" clip-rule="evenodd" d="M57.8841 72.0942L57.8582 72.5493V73.0045L57.898 73.4467L57.9757 73.8879L58.0922 74.3182L58.2227 74.7345L58.404 75.1509L58.6002 75.5403L58.8342 75.9048L59.0922 76.2693L59.38 76.608L59.6927 76.9197L60.0294 77.2185L60.3949 77.4785L60.7714 77.7265L61.1748 77.9336L59.887 82.8638L59.4308 82.6815L58.9906 82.4863L58.5603 82.2652L58.145 82.0451L57.7406 81.7841L57.3502 81.5242L56.9737 81.2373L56.6082 80.9515L56.2716 80.6397L55.9329 80.314L55.6073 79.9774L55.3085 79.6248L55.0226 79.2613L54.7497 78.8838L54.4878 78.4934L54.2537 78.103L54.0336 77.6996L53.8255 77.2833L53.6302 76.854L53.4619 76.4257L53.3175 75.9835L53.187 75.5403L53.0715 75.0851L52.9799 74.631L52.9022 74.1618L52.8494 73.6947L52.8106 73.2266L52.7976 72.7446L52.8106 72.2625L52.8374 71.7814L52.8902 71.2994L52.9679 70.8203L57.8841 72.0942Z" fill="#00100F"/>
<path fill-rule="evenodd" clip-rule="evenodd" d="M67.1835 62.4023L67.6516 62.5717L68.0948 62.7669L68.5371 62.9611L68.9663 63.1961L69.3697 63.4302L69.7721 63.6911L70.1615 63.976L70.526 64.2628L70.8905 64.5616L71.2302 64.8873L71.5678 65.226L71.8795 65.5636L72.1803 65.9271L72.4522 66.3056L72.7251 66.6821L72.9721 67.0855L73.1932 67.4888L73.4134 67.8922L73.6096 68.3205L73.7918 68.7508L73.9482 69.193L74.0906 69.6342L74.2081 70.0894L74.3117 70.5445L74.3894 71.0136L74.4561 71.4817L74.494 71.9628L74.5199 72.4309V72.913L74.494 73.394L74.4561 73.887L74.3894 74.3691L69.4593 73.0942L69.4733 72.6391L69.4593 72.171L69.3956 71.7287L69.304 71.2865L69.1874 70.8583L69.0181 70.4419L68.8358 70.0246L68.6157 69.6481L68.3677 69.2707L68.0948 68.9191L67.795 68.5934L67.4574 68.2816L67.1048 67.9958L66.7294 67.7488L66.326 67.5147L65.9097 67.3195L67.1835 62.4023Z" fill="#00100F"/>
<path fill-rule="evenodd" clip-rule="evenodd" d="M73.9222 76.2397L73.7529 76.7078L73.5577 77.163L73.3496 77.6042L73.1155 78.0345L72.8685 78.4518L72.5966 78.8412L72.3207 79.2316L72.0219 79.6091L71.7102 79.9736L71.3855 80.3103L71.0479 80.636L70.6953 80.9477L70.3188 81.2475L69.9423 81.5334L69.5509 81.7943L69.1485 82.0413L68.7442 82.2744L68.3159 82.4825L67.8866 82.6778L67.4574 82.8481L67.0012 83.0024L66.546 83.1469L66.0899 83.2634L65.6228 83.355L65.1547 83.4327L64.6736 83.4845L64.2055 83.5233L63.7115 83.5373L63.2284 83.5233L62.7344 83.4974L62.2544 83.4457L61.7604 83.368L63.0342 78.4518L63.5033 78.4896L63.9844 78.4767L64.4386 78.4378L64.8947 78.3602L65.3379 78.2426L65.7791 78.0863L66.1955 77.904L66.5988 77.6958L66.9753 77.4488L67.3398 77.1759L67.6914 76.8642L68.0032 76.5385L68.3029 76.175L68.5619 75.7975L68.7969 75.3941L69.0051 74.9648L73.9222 76.2397Z" fill="#00100F"/>
<path fill-rule="evenodd" clip-rule="evenodd" d="M70.8517 47.1835L71.1644 46.9494L71.4891 46.7283L72.1136 46.3757L72.752 46.1038L73.4133 45.8957L74.0786 45.7522L74.7539 45.6875H75.4192L76.0945 45.7393L76.7449 45.8568L77.3952 46.051L78.0187 46.2851L78.6193 46.5978L79.189 46.9614L79.7228 47.3787L80.2298 47.8468L80.686 48.3796L81.0893 48.9653L81.4399 49.5888L81.7128 50.2272L81.921 50.8905L82.0644 51.5539L82.1291 52.2301L82.1421 52.9064L82.0913 53.5697L81.9728 54.2321L81.7915 54.8705L81.5574 55.495L81.2576 56.1065L80.8941 56.6782L80.4778 57.212L80.0087 57.706L79.4768 58.1742L78.8912 58.5775L78.4729 58.8106L76.1991 55.3515L76.459 55.235L76.718 55.1045L76.953 54.9352L77.1731 54.74L77.3693 54.5458L77.5367 54.3107L77.693 54.0767L77.8106 53.8297L77.9141 53.5697L77.9809 53.3098L78.0317 53.0369L78.0446 52.763V52.4771L78.0187 52.2042L77.954 51.9313L77.8763 51.6584L77.7588 51.3975L77.6154 51.1375L77.447 50.9035L77.2648 50.6824L77.0566 50.4862L76.8355 50.3049L76.6005 50.1615L76.3545 50.032L76.0945 49.9274L75.8346 49.8497L75.5607 49.7979L75.2868 49.772H75.0009L74.728 49.7979L74.4561 49.8627L74.1812 49.9414L73.9223 50.0579L73.6603 50.2003L73.3745 50.4085L73.1155 50.6435L70.8517 47.1835Z" fill="#00100F"/>
<path fill-rule="evenodd" clip-rule="evenodd" d="M30.205 80.6752L33.5345 78.5039L45.8667 97.326L42.5361 99.4983L30.205 80.6752Z" fill="#00100F"/>
<path fill-rule="evenodd" clip-rule="evenodd" d="M40.9744 73.6137L44.291 71.4414L56.6082 90.2625L53.2916 92.4348L40.9744 73.6137Z" fill="#00100F"/>
<path d="M16.7283 68.2073L14.6374 69.5683L13.0579 68.6961C12.8072 68.5566 12.6094 68.4951 12.4645 68.5116C12.3226 68.5261 12.1727 68.5848 12.0148 68.6876L13.1978 70.5052L11.3437 71.712L8.19778 66.8786L10.0519 65.6718L11.1875 67.4166C11.3295 67.3026 11.4092 67.1793 11.4268 67.0468C11.4443 66.9144 11.4275 66.6594 11.3764 66.2819C11.3283 65.9025 11.3154 65.6103 11.3378 65.4056C11.3601 65.2008 11.4346 65.0096 11.5612 64.8321C11.6878 64.6546 11.8727 64.4737 12.116 64.2894C12.3592 64.1052 12.7329 63.849 13.237 63.5208L14.094 64.8374L14.012 64.8907C13.7629 65.0528 13.58 65.187 13.4633 65.2933C13.3445 65.3965 13.2664 65.5057 13.229 65.6209C13.1915 65.736 13.1854 65.9259 13.2107 66.1905C13.2359 66.4552 13.2393 66.6497 13.2208 66.7741C13.2034 66.8935 13.1368 67.0104 13.021 67.1247C13.2949 66.981 13.5304 66.9077 13.7274 66.9048C13.9225 66.8989 14.3144 67.0394 14.9033 67.3263L16.7283 68.2073ZM16.9 63.439L15.0063 64.4057C14.8715 64.0524 14.809 63.7472 14.8189 63.49C14.8298 63.2278 14.9112 62.9543 15.0631 62.6695C15.1719 62.4647 15.3583 62.2396 15.6223 61.9942C15.8864 61.7489 16.1915 61.5135 16.5377 61.2882C17.0935 60.9264 17.5607 60.6677 17.9393 60.5121C18.3159 60.3534 18.6809 60.2996 19.0341 60.3508C19.281 60.3847 19.532 60.498 19.7872 60.6907C20.0404 60.8805 20.2411 61.0892 20.3894 61.317L21.78 63.4536C21.9282 63.6813 22.0585 63.8516 22.1709 63.9644C22.2842 64.0722 22.4548 64.1947 22.6824 64.3319L20.9422 65.4646C20.7913 65.3855 20.6845 65.321 20.6217 65.2711C20.557 65.2181 20.4685 65.1287 20.3563 65.0028C20.2655 65.3948 20.1328 65.719 19.9581 65.9754C19.7171 66.3225 19.3795 66.6374 18.9452 66.9201C18.3681 67.2956 17.8423 67.4476 17.3677 67.3761C16.8961 67.3025 16.5328 67.0699 16.2778 66.6781C16.0386 66.3106 15.9498 65.9383 16.0112 65.561C16.0727 65.1838 16.3559 64.7487 16.8608 64.2557C17.4654 63.6634 17.8531 63.2726 18.024 63.0835C18.193 62.8914 18.3632 62.6747 18.5347 62.4333C18.3865 62.2056 18.2356 62.0768 18.0822 62.0469C17.9287 62.0171 17.7336 62.0793 17.4967 62.2335C17.193 62.4311 16.9968 62.628 16.9082 62.824C16.8392 62.977 16.8365 63.182 16.9 63.439ZM19.1426 63.3672C18.9468 63.6244 18.7334 63.8778 18.5025 64.1276C18.1912 64.4729 18.017 64.7268 17.98 64.8892C17.942 65.0566 17.9645 65.2041 18.0475 65.3317C18.1424 65.4775 18.2706 65.5648 18.4321 65.5937C18.5947 65.6176 18.7746 65.5653 18.972 65.4368C19.1786 65.3024 19.3373 65.1278 19.4482 64.9129C19.5621 64.6961 19.6091 64.4925 19.5891 64.3024C19.5701 64.1072 19.4855 63.8942 19.3353 63.6633L19.1426 63.3672ZM25.826 56.0987C25.9376 55.4596 26.2804 54.9533 26.8544 54.5797C27.4769 54.1745 28.1291 54.0937 28.8109 54.3374C29.4907 54.5781 30.0817 55.0841 30.5837 55.8555C31.07 56.6026 31.2747 57.319 31.1978 58.0046C31.1189 58.6872 30.7651 59.2331 30.1365 59.6423C29.5412 60.0298 28.9465 60.1423 28.3523 59.98L29.8585 62.2942L28.0044 63.501L26.5041 61.1959C26.3624 61.8285 26.0122 62.3267 25.4534 62.6904C24.8339 63.0937 24.1842 63.175 23.5044 62.9343C22.8226 62.6906 22.2297 62.1815 21.7256 61.4071C21.2394 60.66 21.0357 59.9451 21.1145 59.2626C21.1934 58.58 21.5457 58.0351 22.1713 57.6279C22.7635 57.2424 23.3677 57.141 23.9838 57.3237L22.4538 54.973L24.3079 53.7662L25.826 56.0987ZM28.6746 58.6417C28.9175 58.4836 29.0381 58.2603 29.0362 57.9718C29.0344 57.6833 28.9228 57.369 28.7014 57.0289C28.1835 56.2332 27.6633 56.0053 27.141 56.3453C26.9132 56.4936 26.7736 56.7076 26.7223 56.9875C26.674 57.2653 26.7922 57.623 27.0768 58.0603C27.2884 58.3852 27.5382 58.6096 27.8263 58.7334C28.1124 58.8541 28.3952 58.8236 28.6746 58.6417ZM25.1668 60.9249C25.3976 60.7746 25.5372 60.5606 25.5855 60.2827C25.6348 59.9998 25.5172 59.6397 25.2325 59.2024C25.021 58.8774 24.7722 58.6545 24.4861 58.5338C24.1999 58.4131 23.9157 58.4446 23.6332 58.6284C23.3933 58.7846 23.2727 59.0079 23.2715 59.2984C23.2714 59.5838 23.382 59.8966 23.6034 60.2368C24.1233 61.0355 24.6444 61.2649 25.1668 60.9249ZM37.1149 52.1493L33.3976 54.5688C33.6247 54.8447 33.8495 55.0141 34.0719 55.0768C34.3875 55.1697 34.6895 55.1223 34.978 54.9345C35.1603 54.8159 35.3037 54.6577 35.4084 54.4598C35.4711 54.3369 35.5127 54.165 35.5332 53.9441L37.4697 52.9236C37.5065 53.5914 37.3968 54.1601 37.1403 54.6297C36.8819 55.0962 36.3837 55.5696 35.6457 56.05C35.0049 56.4671 34.4424 56.7056 33.9583 56.7656C33.4722 56.8226 32.9802 56.7342 32.4823 56.5006C31.9854 56.262 31.564 55.8769 31.218 55.3454C30.7258 54.5892 30.569 53.8201 30.7474 53.0381C30.9289 52.2541 31.4464 51.5844 32.2998 51.0289C32.9922 50.5782 33.6071 50.3272 34.1444 50.2758C34.6817 50.2244 35.1845 50.3295 35.6531 50.5909C36.1216 50.8524 36.5634 51.302 36.9785 51.9398L37.1149 52.1493ZM34.6507 52.4885C34.381 52.1539 34.1168 51.9605 33.858 51.9084C33.6023 51.8544 33.3469 51.9103 33.0918 52.0764C32.7972 52.2681 32.638 52.5382 32.614 52.8868C32.5965 53.1057 32.6665 53.3693 32.8239 53.6776L34.6507 52.4885ZM36.8346 50.6326L39.5314 48.8772L40.4654 50.3122L37.7686 52.0676L36.8346 50.6326ZM43.5556 53.366L39.2088 46.6876L40.9445 45.5579L41.41 46.2731C41.4542 45.8163 41.5419 45.4695 41.6732 45.2327C41.8506 44.9141 42.1033 44.648 42.4313 44.4345C43.0782 44.0135 43.7389 43.9358 44.4134 44.2015C45.0909 44.4653 45.6669 44.9616 46.1413 45.6905C46.6651 46.4953 46.8725 47.2358 46.7636 47.9121C46.6526 48.5853 46.3026 49.1136 45.7134 49.4971C45.4279 49.6829 45.1351 49.8043 44.835 49.8613C44.5379 49.9163 44.2344 49.9085 43.9246 49.8377L45.4279 52.1474L43.5556 53.366ZM42.6508 47.9105C42.8999 48.2932 43.1652 48.5248 43.4467 48.6052C43.7283 48.6857 43.992 48.6459 44.238 48.4858C44.4537 48.3455 44.577 48.1398 44.6082 47.8687C44.6373 47.5947 44.5135 47.245 44.2368 46.8199C43.9818 46.4281 43.719 46.1905 43.4486 46.1071C43.1762 46.0207 42.9306 46.0486 42.712 46.191C42.4751 46.3452 42.3379 46.5663 42.3006 46.8543C42.2633 47.1424 42.38 47.4944 42.6508 47.9105ZM52.6674 42.0264L48.9501 44.446C49.1772 44.7219 49.402 44.8912 49.6245 44.9539C49.94 45.0469 50.2421 44.9994 50.5306 44.8116C50.7128 44.693 50.8563 44.5348 50.961 44.3369C51.0236 44.214 51.0652 44.0421 51.0858 43.8212L53.0222 42.8008C53.0591 43.4685 52.9493 44.0372 52.6929 44.5068C52.4344 44.9733 51.9362 45.4468 51.1982 45.9271C50.5574 46.3442 49.995 46.5827 49.5109 46.6427C49.0248 46.6997 48.5328 46.6114 48.0348 46.3777C47.5379 46.1391 47.1165 45.754 46.7706 45.2225C46.2784 44.4663 46.1215 43.6972 46.3 42.9152C46.4815 42.1312 46.9989 41.4615 47.8523 40.906C48.5448 40.4553 49.1596 40.2043 49.6969 40.1529C50.2342 40.1015 50.7371 40.2066 51.2056 40.468C51.6741 40.7295 52.1159 41.1791 52.531 41.8169L52.6674 42.0264ZM50.2032 42.3657C49.9335 42.031 49.6693 41.8376 49.4106 41.7855C49.1549 41.7315 48.8995 41.7875 48.6444 41.9535C48.3498 42.1453 48.1905 42.4154 48.1666 42.7639C48.1491 42.9828 48.2191 43.2464 48.3765 43.5547L50.2032 42.3657ZM57.1717 39.1919L59.0652 38.2449C59.2072 38.6756 59.2553 39.0983 59.2095 39.5129C59.1618 39.9244 59.0132 40.3173 58.7639 40.6915C58.5175 41.0637 58.1286 41.4227 57.5972 41.7686C57.0839 42.1027 56.6251 42.3344 56.2206 42.4636C55.8172 42.5878 55.4233 42.6237 55.0389 42.5712C54.6526 42.5157 54.2957 42.3891 53.9682 42.1915C53.6407 41.9939 53.3218 41.6567 53.0114 41.1799C52.6873 40.6819 52.5025 40.212 52.4571 39.7702C52.4235 39.4462 52.4522 39.1184 52.5433 38.7867C52.6324 38.452 52.7602 38.1634 52.9267 37.921C53.1913 37.537 53.606 37.1611 54.1709 36.7934C54.9605 36.2795 55.6537 36.0293 56.2506 36.0429C56.8505 36.0545 57.4109 36.2778 57.9318 36.7127L56.3382 38.0807C56.1491 37.9097 55.9481 37.8201 55.7351 37.8117C55.5232 37.7983 55.2957 37.8707 55.0528 38.0288C54.746 38.2285 54.5692 38.5014 54.5221 38.8477C54.4762 39.1889 54.5985 39.5827 54.889 40.0292C55.148 40.427 55.4388 40.6679 55.7615 40.7519C56.0842 40.8358 56.3914 40.7829 56.6829 40.5932C56.9259 40.435 57.0888 40.2403 57.1718 40.0091C57.2578 39.7758 57.2578 39.5035 57.1717 39.1919ZM62.829 33.2463L61.4851 34.121L63.7504 37.6015L61.8918 38.8112L59.6265 35.3308L58.2826 36.2055L57.402 34.8525L61.9484 31.8933L62.829 33.2463ZM63.9615 34.0397C63.4812 33.3017 63.3349 32.5322 63.5226 31.7312C63.7084 30.9272 64.2249 30.2494 65.0722 29.6979C66.041 29.0673 66.9558 28.8719 67.8165 29.1115C68.5089 29.3051 69.0706 29.7329 69.5015 30.395C69.9858 31.139 70.1356 31.9106 69.9509 32.7096C69.7673 33.5036 69.2396 34.1843 68.368 34.7516C67.5905 35.2577 66.8334 35.4694 66.0966 35.3869C65.1891 35.2815 64.4775 34.8324 63.9615 34.0397ZM65.8172 32.8254C66.0979 33.2567 66.392 33.5192 66.6995 33.6131C67.0101 33.7049 67.2975 33.6649 67.5617 33.4929C67.829 33.319 67.9814 33.0749 68.0191 32.7607C68.0597 32.4446 67.9338 32.0617 67.6412 31.6123C67.3684 31.1931 67.0793 30.9382 66.7737 30.8474C66.4662 30.7535 66.1849 30.7896 65.9298 30.9557C65.6595 31.1316 65.5045 31.3817 65.4647 31.7059C65.423 32.0271 65.5405 32.4002 65.8172 32.8254ZM73.1847 34.081L68.8379 27.4026L70.5736 26.2728L71.0391 26.9881C71.0833 26.5312 71.1711 26.1844 71.3023 25.9477C71.4797 25.629 71.7324 25.3629 72.0604 25.1494C72.7073 24.7284 73.368 24.6507 74.0425 24.9165C74.72 25.1802 75.296 25.6766 75.7704 26.4054C76.2942 27.2103 76.5016 27.9508 76.3927 28.627C76.2818 29.3002 75.9317 29.8285 75.3425 30.212C75.057 30.3978 74.7642 30.5192 74.4641 30.5763C74.167 30.6313 73.8635 30.6234 73.5537 30.5527L75.057 32.8623L73.1847 34.081ZM72.2799 28.6254C72.529 29.0081 72.7943 29.2397 73.0758 29.3202C73.3574 29.4007 73.6211 29.3609 73.8671 29.2007C74.0828 29.0604 74.2061 28.8547 74.2373 28.5837C74.2664 28.3096 74.1426 27.96 73.8659 27.5348C73.6109 27.143 73.3482 26.9054 73.0777 26.8221C72.8053 26.7356 72.5597 26.7636 72.3411 26.9059C72.1042 27.0601 71.9671 27.2812 71.9297 27.5693C71.8924 27.8573 72.0091 28.2094 72.2799 28.6254ZM77.7617 23.8252L75.8681 24.7918C75.7332 24.4386 75.6708 24.1334 75.6806 23.8762C75.6916 23.614 75.773 23.3405 75.9249 23.0557C76.0337 22.8508 76.2201 22.6257 76.4841 22.3804C76.7481 22.135 77.0532 21.8997 77.3995 21.6743C77.9552 21.3126 78.4224 21.0539 78.8011 20.8983C79.1777 20.7396 79.5426 20.6858 79.8959 20.7369C80.1427 20.7708 80.3938 20.8841 80.6489 21.0769C80.9021 21.2666 81.1029 21.4754 81.2511 21.7032L82.6417 23.8397C82.79 24.0675 82.9203 24.2378 83.0326 24.3506C83.146 24.4584 83.3165 24.5809 83.5442 24.7181L81.804 25.8507C81.6531 25.7717 81.5462 25.7072 81.4835 25.6572C81.4187 25.6043 81.3303 25.5148 81.2181 25.389C81.1273 25.781 80.9946 26.1052 80.8199 26.3615C80.5789 26.7087 80.2412 27.0236 79.8069 27.3062C79.2299 27.6818 78.7041 27.8338 78.2295 27.7623C77.7579 27.6887 77.3946 27.4561 77.1396 27.0643C76.9004 26.6968 76.8115 26.3244 76.873 25.9472C76.9344 25.57 77.2176 25.1349 77.7226 24.6419C78.3271 24.0495 78.7149 23.6588 78.8858 23.4697C79.0548 23.2776 79.225 23.0609 79.3965 22.8195C79.2483 22.5917 79.0974 22.4629 78.944 22.4331C78.7905 22.4033 78.5953 22.4654 78.3585 22.6196C78.0548 22.8173 77.8586 23.0142 77.77 23.2102C77.701 23.3632 77.6982 23.5682 77.7617 23.8252ZM80.0044 23.7534C79.8085 24.0106 79.5952 24.264 79.3643 24.5137C79.0529 24.8591 78.8788 25.113 78.8418 25.2754C78.8038 25.4428 78.8263 25.5903 78.9093 25.7179C79.0042 25.8636 79.1324 25.951 79.2939 25.9799C79.4564 26.0038 79.6364 25.9515 79.8338 25.823C80.0403 25.6886 80.199 25.5139 80.31 25.2991C80.4239 25.0822 80.4709 24.8787 80.4509 24.6885C80.4319 24.4933 80.3473 24.2803 80.1971 24.0495L80.0044 23.7534ZM89.89 20.5877L88.0314 21.7974L86.8424 19.9707L85.1568 21.0677L86.3458 22.8945L84.4872 24.1043L81.3412 19.2709L83.1999 18.0611L84.2762 19.7148L85.9617 18.6177L84.8854 16.964L86.7441 15.7542L89.89 20.5877Z" fill="#00100F"/>
</g>
<defs>
<clipPath id="clip0_365_3273">
<rect width="126" height="126" fill="white"/>
</clipPath>
</defs>
</svg>
