<svg width="123" height="87" viewBox="0 0 123 87" fill="none" xmlns="http://www.w3.org/2000/svg">
<g clip-path="url(#clip0_365_3257)">
<path d="M0 3.9246V0H26.3661V3.9246H0ZM0 51.0034H26.3661V54.928H0V51.0034ZM15.1416 43.1572H11.0967V14.7772C8.16652 15.3008 5.64037 16.6237 3.52536 18.7448V13.6008C6.44629 11.5678 9.64539 10.5482 13.1186 10.5482C16.736 10.5482 19.9351 11.5668 22.7129 13.6008V18.7448C20.7697 16.7989 18.2445 15.475 15.1426 14.7772V43.1572H15.1416Z" fill="white"/>
<path d="M22.4929 3.9246V0H44.7701V3.9246H22.4929ZM22.4929 51.0034H44.7701V54.928H22.4929V51.0034ZM29.3248 29.5134C29.8464 32.5936 31.3191 35.1595 33.7409 37.2078C36.1628 39.2572 38.9242 40.2809 42.0292 40.2809V44.3797C37.387 44.3797 33.428 42.7228 30.1522 39.4089C26.8733 36.0981 25.2338 32.1161 25.2338 27.465C25.2338 22.7873 26.8661 18.7971 30.1286 15.4986C33.3912 12.2001 37.3594 10.5503 42.0292 10.5503V14.6491C38.8965 14.6491 36.127 15.6666 33.7184 17.7006C31.3099 19.7347 29.8453 22.3077 29.3238 25.4166H42.0292V29.5154H29.3248V29.5134Z" fill="white"/>
<path d="M43.9448 3.9246V0H65.1768V3.9246H43.9448ZM43.9448 51.0034H65.1768V54.928H43.9448V51.0034ZM46.6837 43.1572V11.7707C49.44 11.7707 51.6573 11.9449 53.3417 12.2933C55.9241 12.8169 58.0841 14.0804 59.8238 16.0847C61.5665 18.0911 62.4338 20.3874 62.4338 22.9737C62.4338 26.0837 61.2699 28.6854 58.9422 30.7779C56.6124 32.8703 53.8756 33.9155 50.7307 33.9155V43.1562H46.6837V43.1572ZM50.7307 29.8607C52.726 29.8607 54.5015 29.2008 56.056 27.879C57.6116 26.5561 58.3889 24.9207 58.3889 22.9737C58.3889 21.0258 57.5952 19.3853 56.0131 18.048C54.4872 16.7989 52.726 16.1728 50.7307 16.1728V29.8607Z" fill="white"/>
<path d="M63.7397 3.9246V0H94.7623V3.9246H63.7397ZM63.7397 51.0034H94.7623V54.928H63.7397V51.0034ZM87.9744 17.6566C84.9972 19.6332 83.0551 22.1612 82.151 25.2404C81.567 27.216 81.2766 30.4704 81.2766 35.0047H77.2286C77.2286 32.7104 77.157 30.7174 77.0128 29.0328C76.7786 26.3891 76.1813 24.2013 75.2148 22.4727C74.2514 20.744 72.6897 19.167 70.5276 17.7416V43.1562H66.4827V11.7707C68.7164 11.7707 71.1955 12.7882 73.9211 14.8212C76.5607 16.7989 78.3301 18.8616 79.229 21.0114C80.1577 18.8616 81.9628 16.7835 84.6475 14.7772C87.3291 12.7739 89.7877 11.7707 92.0214 11.7707V43.1562H87.9744V17.6566Z" fill="white"/>
<path d="M94.2397 3.9246V0H123V3.9246H94.2397ZM94.2397 51.0034H123V54.928H94.2397V51.0034ZM101.025 21.0114C104.172 21.0114 106.893 22.0577 109.193 24.1491C111.493 26.2415 112.644 28.8442 112.644 31.9511C112.644 35.9639 110.948 38.9283 107.553 40.8455C104.826 42.3867 101.302 43.1552 96.9807 43.1552V11.7707H101.024V21.0114H101.025ZM101.025 39.1476C102.998 39.1476 104.753 38.4426 106.291 37.0336C107.827 35.6247 108.596 33.9309 108.596 31.9532C108.596 29.9796 107.834 28.337 106.312 27.0285C104.79 25.722 103.028 25.0672 101.025 25.0672V39.1476ZM120.258 43.1572H116.212V11.7707H120.258V43.1572Z" fill="white"/>
<path d="M17.5031 80.4521V66.9629L11.9261 80.4521H10.931L5.31925 66.9629V80.4521H2.65503V63.2617H6.17119L11.4301 76.0038L16.6133 63.2617H20.1673V80.4521H17.5031Z" fill="white"/>
<path d="M24.4954 71.841C24.4954 66.8579 27.764 62.8359 32.9851 62.8359C38.2071 62.8359 41.4758 66.8579 41.4758 71.841C41.4758 76.8231 38.2082 80.8809 32.9851 80.8809C27.764 80.8809 24.4954 76.8231 24.4954 71.841ZM38.6684 71.841C38.6684 68.3509 36.6444 65.2204 32.9851 65.2204C29.3278 65.2204 27.267 68.3519 27.267 71.841C27.267 75.3629 29.3278 78.4944 32.9851 78.4944C36.6444 78.4944 38.6684 75.3619 38.6684 71.841Z" fill="white"/>
<path d="M48.4684 77.8549V87.0024H45.8052V63.2622H48.4684V65.826C49.713 64.0809 51.8444 62.8359 54.2581 62.8359C58.7704 62.8359 61.8958 66.2513 61.8958 71.841C61.8958 77.3918 58.7704 80.8809 54.2581 80.8809C51.914 80.8809 49.8532 79.7773 48.4684 77.8549ZM59.0905 71.841C59.0905 68.0312 57.0297 65.2204 53.5831 65.2204C51.4865 65.2204 49.3919 66.4654 48.4674 67.9594V75.7205C49.3919 77.2135 51.4865 78.4954 53.5831 78.4954C57.0307 78.4944 59.0905 75.6478 59.0905 71.841Z" fill="white"/>
<path d="M65.1257 71.841C65.1257 66.8579 68.6767 62.8359 73.5796 62.8359C78.7639 62.8359 81.8198 66.8927 81.8198 72.0531V72.7294H67.9311C68.1428 75.9685 70.4163 78.6727 74.1115 78.6727C76.0659 78.6727 78.0531 77.8898 79.4031 76.5013L80.6835 78.2454C78.9776 79.9535 76.6673 80.8799 73.8629 80.8799C68.783 80.8809 65.1257 77.2135 65.1257 71.841ZM73.5428 65.0411C69.8835 65.0411 68.0732 68.1388 67.9311 70.7722H79.1914C79.1556 68.2084 77.4497 65.0411 73.5428 65.0411Z" fill="white"/>
<path d="M85.1169 71.841C85.1169 66.8579 88.3856 62.8359 93.6097 62.8359C98.8297 62.8359 102.097 66.8579 102.097 71.841C102.097 76.8231 98.8308 80.8809 93.6097 80.8809C88.3856 80.8809 85.1169 76.8231 85.1169 71.841ZM99.29 71.841C99.29 68.3509 97.266 65.2204 93.6087 65.2204C89.9483 65.2204 87.8875 68.3519 87.8875 71.841C87.8875 75.3629 89.9483 78.4944 93.6087 78.4944C97.266 78.4944 99.29 75.3619 99.29 71.841Z" fill="white"/>
<path d="M106.427 80.4521V63.2617H109.092V70.4151H118.043V63.2617H120.706V80.4521H118.043V72.7648H109.092V80.4521H106.427Z" fill="white"/>
</g>
<defs>
<clipPath id="clip0_365_3257">
<rect width="123" height="87" fill="white"/>
</clipPath>
</defs>
</svg>
