<svg width="160" height="45" viewBox="0 0 160 45" fill="none" xmlns="http://www.w3.org/2000/svg">
<path d="M68.0691 33.7867H63.0971V23.4545L59.8001 30.3131H57.6611L54.3651 23.4545V33.7862H49.5366V17.3281H55.0449L58.8039 24.9497L62.5624 17.3281H68.0697V33.7867H68.0691Z" fill="white"/>
<path d="M86.9368 25.5658C86.9368 28.2738 86.2078 30.4067 84.747 31.9635C83.2863 33.5235 81.2211 34.3019 78.5505 34.3019C75.9013 34.3019 73.8409 33.5235 72.3718 31.9635C70.9016 30.4067 70.1667 28.2738 70.1667 25.5658C70.1667 22.8313 70.9016 20.6888 72.3718 19.1399C73.8409 17.5911 75.9013 16.8164 78.5505 16.8164C81.2117 16.8164 83.2753 17.5959 84.7386 19.1538C86.203 20.7138 86.9368 22.8499 86.9368 25.5658ZM81.7464 25.5966C81.7464 24.6191 81.6679 23.8051 81.5081 23.1552C81.3499 22.5053 81.1294 21.9854 80.8508 21.5946C80.5528 21.1847 80.2139 20.898 79.8394 20.7387C79.4623 20.5768 79.0339 20.4966 78.551 20.4966C78.0985 20.4966 77.6894 20.5661 77.3233 20.709C76.9567 20.8497 76.6199 21.121 76.3109 21.5224C76.0218 21.9026 75.7903 22.4267 75.6175 23.0899C75.4436 23.7546 75.3577 24.5899 75.3577 25.5966C75.3577 26.6017 75.4389 27.4162 75.6023 28.0359C75.7662 28.6571 75.9783 29.1536 76.2392 29.5242C76.5084 29.9044 76.8457 30.1842 77.2505 30.3589C77.6549 30.5357 78.1037 30.6238 78.595 30.6238C78.9993 30.6238 79.412 30.5357 79.8305 30.3589C80.2495 30.1837 80.5858 29.9198 80.8356 29.5677C81.1347 29.1477 81.3604 28.6422 81.5149 28.0513C81.67 27.4608 81.7464 26.6415 81.7464 25.5966Z" fill="white"/>
<path d="M105.099 25.3313C105.099 27.9596 104.442 30.0792 103.126 31.6918C101.81 33.3044 100.189 34.1115 98.2619 34.1115C97.4506 34.1115 96.7472 34.0164 96.1506 33.8316C95.5536 33.6463 94.9162 33.3575 94.241 32.9683V39.8269H89.1826V17.3285H94.241V19.043C94.9842 18.3989 95.7395 17.8759 96.5105 17.475C97.2819 17.0752 98.1734 16.875 99.1847 16.875C101.066 16.875 102.52 17.6316 103.552 19.1465C104.584 20.6608 105.099 22.7221 105.099 25.3313ZM99.9222 25.4332C99.9222 23.8313 99.6797 22.669 99.1931 21.9463C98.706 21.2226 97.9471 20.8615 96.9148 20.8615C96.4623 20.8615 96.0118 20.9354 95.5651 21.0824C95.1168 21.2279 94.6758 21.4477 94.241 21.7414V30.023C94.5113 30.1387 94.8083 30.2215 95.1304 30.2709C95.453 30.3187 95.8374 30.3447 96.2805 30.3447C97.5145 30.3447 98.43 29.9364 99.0266 29.1198C99.6242 28.3037 99.9222 27.0761 99.9222 25.4332Z" fill="white"/>
<path d="M116.75 34.2276C113.685 34.2276 111.337 33.4858 109.702 32.0001C108.07 30.5161 107.252 28.4007 107.252 25.655C107.252 22.9677 108.014 20.8231 109.536 19.2207C111.059 17.6182 113.189 16.8164 115.927 16.8164C118.413 16.8164 120.282 17.4971 121.537 18.8543C122.788 20.213 123.416 22.1559 123.416 24.687V26.5338H112.327C112.375 27.2957 112.534 27.9329 112.803 28.4463C113.074 28.9592 113.43 29.3665 113.873 29.6713C114.308 29.9739 114.813 30.1911 115.391 30.3233C115.969 30.4545 116.6 30.5214 117.284 30.5214C117.873 30.5214 118.451 30.4545 119.019 30.3233C119.588 30.1911 120.109 30.018 120.58 29.8024C120.995 29.6182 121.377 29.4159 121.73 29.2024C122.083 28.9879 122.369 28.7962 122.592 28.63H123.127V32.8651C122.712 33.0307 122.333 33.1858 121.991 33.327C121.649 33.4693 121.18 33.6143 120.58 33.7598C120.032 33.9063 119.467 34.021 118.884 34.1038C118.299 34.1861 117.59 34.2276 116.75 34.2276ZM118.427 23.4414C118.399 22.355 118.151 21.5309 117.684 20.9633C117.215 20.3973 116.5 20.1138 115.536 20.1138C114.553 20.1138 113.786 20.4122 113.23 21.0084C112.675 21.6047 112.371 22.4145 112.313 23.4414H118.427Z" fill="white"/>
<path d="M142.34 25.5658C142.34 28.2738 141.611 30.4067 140.151 31.9635C138.69 33.5235 136.627 34.3019 133.957 34.3019C131.306 34.3019 129.247 33.5235 127.776 31.9635C126.306 30.4067 125.573 28.2738 125.573 25.5658C125.573 22.8313 126.306 20.6888 127.776 19.1399C129.247 17.5911 131.307 16.8164 133.957 16.8164C136.617 16.8164 138.679 17.5959 140.145 19.1538C141.609 20.7138 142.34 22.8499 142.34 25.5658ZM137.152 25.5966C137.152 24.6191 137.071 23.8051 136.913 23.1552C136.753 22.5053 136.535 21.9854 136.254 21.5946C135.956 21.1847 135.619 20.898 135.243 20.7387C134.868 20.5768 134.437 20.4966 133.956 20.4966C133.504 20.4966 133.093 20.5661 132.728 20.709C132.361 20.8497 132.023 21.121 131.714 21.5224C131.425 21.9026 131.195 22.4267 131.021 23.0899C130.847 23.7546 130.761 24.5899 130.761 25.5966C130.761 26.6017 130.842 27.4162 131.007 28.0359C131.171 28.6571 131.381 29.1536 131.642 29.5242C131.912 29.9044 132.249 30.1842 132.655 30.3589C133.06 30.5357 133.507 30.6238 134 30.6238C134.404 30.6238 134.815 30.5357 135.236 30.3589C135.655 30.1837 135.989 29.9198 136.24 29.5677C136.538 29.1477 136.765 28.6422 136.919 28.0513C137.074 27.4608 137.152 26.6415 137.152 25.5966Z" fill="white"/>
<path d="M160 33.7867H154.94V26.738H149.705V33.7867H144.647V17.3281H149.705V23.0292H154.94V17.3281H160V33.7867Z" fill="white"/>
<path d="M53.2577 10.773H52.5826V7.60946L51.61 9.66326H51.1025L50.1378 7.60946V10.773H49.4988V6.74609H50.3226L51.3895 8.98096L52.4203 6.74609H53.2588V10.773H53.2577Z" fill="white"/>
<path d="M57.3562 10.773H56.6738V8.95972H54.838V10.773H54.155V6.74609H54.838V8.37618H56.6738V6.74609H57.3562V10.773Z" fill="white"/>
<path d="M61.5853 8.76042C61.5853 9.43741 61.4219 9.96202 61.0925 10.33C60.7636 10.6985 60.3252 10.8838 59.7784 10.8838C59.2143 10.8838 58.7712 10.6942 58.4486 10.3114C58.126 9.93122 57.9641 9.41458 57.9641 8.76095C57.9641 8.08821 58.1307 7.56414 58.4638 7.1914C58.7964 6.82025 59.2347 6.63281 59.7789 6.63281C60.3257 6.63281 60.7641 6.81918 61.093 7.19087C61.4219 7.56095 61.5853 8.08503 61.5853 8.76042ZM60.8819 8.76042C60.8819 8.23848 60.7866 7.8514 60.5949 7.59865C60.4032 7.34379 60.1314 7.21741 59.7779 7.21741C59.4228 7.21741 59.1488 7.34326 58.9561 7.59865C58.7639 7.85193 58.668 8.23848 58.668 8.76042C58.668 9.26485 58.7644 9.64768 58.9561 9.90892C59.1488 10.1696 59.4228 10.2997 59.7779 10.2997C60.1288 10.2997 60.4001 10.1723 60.5928 9.91582C60.7861 9.66042 60.8819 9.27387 60.8819 8.76042Z" fill="white"/>
<path d="M64.7731 7.34131H62.8798V10.773H62.1968V6.74609H64.7731V7.34131Z" fill="white"/>
<path d="M68.5262 8.76042C68.5262 9.43741 68.3617 9.96202 68.0334 10.33C67.705 10.6985 67.2655 10.8838 66.7193 10.8838C66.1557 10.8838 65.7126 10.6942 65.3895 10.3114C65.0663 9.93122 64.9055 9.41458 64.9055 8.76095C64.9055 8.08821 65.071 7.56414 65.4041 7.1914C65.7362 6.82025 66.1756 6.63281 66.7193 6.63281C67.2655 6.63281 67.705 6.81918 68.0334 7.19087C68.3617 7.56095 68.5262 8.08503 68.5262 8.76042ZM67.8228 8.76042C67.8228 8.23848 67.727 7.8514 67.5363 7.59865C67.3446 7.34379 67.0728 7.21741 66.7193 7.21741C66.3647 7.21741 66.0902 7.34326 65.8975 7.59865C65.7053 7.85193 65.6094 8.23848 65.6094 8.76042C65.6094 9.26485 65.7053 9.64768 65.8975 9.90892C66.0902 10.1696 66.3647 10.2997 66.7193 10.2997C67.0697 10.2997 67.342 10.1723 67.5347 9.91582C67.727 9.66042 67.8228 9.27387 67.8228 8.76042Z" fill="white"/>
<path d="M74.0665 8.65362C74.0665 9.01309 74.0215 9.32902 73.9335 9.60406C73.8455 9.87911 73.7292 10.1064 73.5836 10.2837C73.4359 10.4653 73.2694 10.6007 73.0834 10.6936C72.897 10.7855 72.7016 10.8322 72.4984 10.8322C72.3455 10.8322 72.213 10.8025 72.0977 10.7462C71.982 10.6883 71.8851 10.6384 71.8065 10.597V12.2611H71.1314V10.597C70.9879 10.6724 70.8748 10.7303 70.7894 10.7701C70.7056 10.812 70.5663 10.8322 70.372 10.8322C69.9173 10.8322 69.5539 10.6485 69.2805 10.2816C69.0071 9.91521 68.8704 9.41291 68.8704 8.77415C68.8704 8.43751 68.9138 8.13698 69.0008 7.87203C69.0882 7.60813 69.2082 7.38247 69.3611 7.19716C69.5015 7.02778 69.6633 6.89397 69.8487 6.79946C70.0341 6.70389 70.2264 6.6561 70.4275 6.6561C70.5694 6.6561 70.6988 6.68212 70.814 6.73043C70.9282 6.77981 71.0345 6.83716 71.1319 6.89769V5.16406H71.8071V6.89822C71.9129 6.83344 72.0354 6.77769 72.1726 6.72831C72.3109 6.68158 72.4523 6.65663 72.5969 6.65663C73.052 6.65663 73.4103 6.83875 73.6732 7.19981C73.9356 7.56141 74.0665 8.04619 74.0665 8.65362ZM71.1309 10.0819V7.39627C71.0434 7.35486 70.9565 7.31928 70.869 7.28743C70.7821 7.25663 70.6846 7.24176 70.5788 7.24176C70.2693 7.24176 70.0237 7.36335 69.8425 7.60442C69.6597 7.84707 69.5696 8.22672 69.5696 8.7407C69.5696 9.20902 69.6513 9.57751 69.8142 9.84778C69.9776 10.1159 70.2117 10.2513 70.5165 10.2513C70.6375 10.2513 70.7464 10.2322 70.8428 10.1972C70.9402 10.1611 71.0356 10.1234 71.1309 10.0819ZM73.3652 8.73008C73.3652 8.27132 73.2867 7.90813 73.1316 7.64212C72.9756 7.37451 72.7451 7.24229 72.4408 7.24229C72.3146 7.24229 72.203 7.25822 72.1082 7.29114C72.0129 7.32194 71.9118 7.35804 71.806 7.39681V10.0825C71.9118 10.1334 71.9977 10.1738 72.0653 10.2051C72.1307 10.2375 72.2287 10.2524 72.3565 10.2524C72.6718 10.2524 72.9174 10.1234 73.0976 9.86636C73.2757 9.60884 73.3652 9.23026 73.3652 8.73008Z" fill="white"/>
<path d="M77.8816 6.74609L75.6996 12.2597H74.9705L75.6965 10.5787L74.2231 6.74609H74.9595L76.0668 9.72751L77.1708 6.74609H77.8816Z" fill="white"/>
<path d="M81.5095 10.773H80.8265V8.95972H78.9918V10.773H78.3088V6.74609H78.9918V8.37618H80.8265V6.74609H81.5095V10.773Z" fill="white"/>
<path d="M85.6666 10.773H84.817L83.427 8.91724H83.0866V10.773H82.4031V6.74609H83.0866V8.49884C83.262 8.49618 83.4129 8.45848 83.537 8.38786C83.6611 8.31778 83.7669 8.18025 83.8554 7.97636C83.8816 7.91689 83.912 7.84627 83.944 7.76609C83.9764 7.68804 84.0021 7.61742 84.022 7.55795C84.1283 7.26167 84.276 7.05247 84.4646 6.92928C84.6526 6.80822 84.8993 6.74609 85.202 6.74609H85.3864V7.33016H85.2298C85.0396 7.33016 84.8951 7.36946 84.8013 7.44804C84.705 7.52556 84.6248 7.66786 84.5588 7.87494C84.4908 8.08415 84.4106 8.24716 84.3205 8.36344C84.2284 8.47972 84.1267 8.56999 84.0141 8.63158L85.6666 10.773Z" fill="white"/>
<path d="M89.5931 11.7394H88.9583V10.773H86.0154V6.74609H86.6984V10.1889H88.5095V6.74609H89.1909V10.1889H89.5937V11.7394H89.5931Z" fill="white"/>
<path d="M93.3756 10.773H92.7005V7.76981L90.793 10.773H90.176V6.74609H90.8517V9.70255L92.7367 6.74609H93.3762V10.773H93.3756Z" fill="white"/>
<path d="M97.6087 8.76042C97.6087 9.43741 97.4448 9.96202 97.1159 10.33C96.7875 10.6985 96.348 10.8838 95.8012 10.8838C95.2382 10.8838 94.7962 10.6942 94.4709 10.3114C94.1483 9.93122 93.9885 9.41458 93.9885 8.76095C93.9885 8.08821 94.154 7.56414 94.4866 7.1914C94.8197 6.82025 95.2581 6.63281 95.8007 6.63281C96.3475 6.63281 96.7864 6.81918 97.1153 7.19087C97.4448 7.56095 97.6087 8.08503 97.6087 8.76042ZM96.9053 8.76042C96.9053 8.23848 96.8095 7.8514 96.6188 7.59865C96.4266 7.34379 96.1563 7.21741 95.8012 7.21741C95.4472 7.21741 95.1722 7.34326 94.98 7.59865C94.7878 7.85193 94.6919 8.23848 94.6919 8.76042C94.6919 9.26485 94.7878 9.64768 94.98 9.90892C95.1727 10.1696 95.4472 10.2997 95.8012 10.2997C96.1516 10.2997 96.425 10.1723 96.6167 9.91582C96.8095 9.66042 96.9053 9.27387 96.9053 8.76042Z" fill="white"/>
<path d="M101.421 10.773H100.74V8.95972H98.9023V10.773H98.2209V6.74609H98.9023V8.37618H100.74V6.74609H101.421V10.773Z" fill="white"/>
<path d="M104.58 10.3445C104.524 10.3849 104.449 10.4417 104.358 10.515C104.262 10.5883 104.172 10.6467 104.087 10.6897C103.965 10.7529 103.848 10.7996 103.736 10.833C103.624 10.8681 103.465 10.8845 103.262 10.8845C103.095 10.8845 102.936 10.8527 102.786 10.7911C102.637 10.729 102.504 10.6414 102.392 10.5288C102.283 10.4173 102.196 10.2798 102.13 10.1189C102.066 9.9564 102.032 9.7849 102.032 9.6049C102.032 9.32667 102.091 9.08826 102.21 8.89286C102.328 8.69746 102.516 8.54136 102.773 8.42667C102.999 8.3226 103.268 8.25038 103.578 8.21215C103.889 8.1718 104.222 8.14207 104.58 8.12348V7.99446C104.58 7.83516 104.556 7.70614 104.508 7.61056C104.459 7.51233 104.391 7.43746 104.303 7.3849C104.217 7.32915 104.111 7.29251 103.985 7.27446C103.859 7.25746 103.728 7.24738 103.596 7.24738C103.44 7.24738 103.254 7.27127 103.041 7.31799C102.829 7.36525 102.614 7.43322 102.403 7.52189H102.362V6.83269C102.488 6.79711 102.668 6.75729 102.903 6.71428C103.138 6.67127 103.37 6.64844 103.6 6.64844C103.878 6.64844 104.113 6.67127 104.304 6.71428C104.496 6.75782 104.666 6.8364 104.818 6.94791C104.966 7.05941 105.077 7.20277 105.149 7.37746C105.223 7.55269 105.259 7.76614 105.259 8.01888V10.7736H104.58V10.3445ZM104.58 9.78224V8.66348C104.417 8.67835 104.213 8.698 103.965 8.72401C103.716 8.74844 103.517 8.78348 103.364 8.82915C103.183 8.8849 103.034 8.96932 102.913 9.08454C102.795 9.1987 102.737 9.35746 102.737 9.56083C102.737 9.79233 102.802 9.96649 102.933 10.0844C103.064 10.2017 103.254 10.2612 103.506 10.2612C103.721 10.2612 103.916 10.2145 104.09 10.121C104.263 10.0297 104.428 9.91605 104.58 9.78224Z" fill="white"/>
<path d="M109.266 10.7735H108.583V7.31583H107.19C107.182 7.51654 107.177 7.70662 107.169 7.89087C107.16 8.07565 107.155 8.24131 107.146 8.39105C107.133 8.76804 107.107 9.08397 107.072 9.33884C107.037 9.5937 106.992 9.79813 106.94 9.95158C106.887 10.1109 106.828 10.2346 106.764 10.3227C106.7 10.4114 106.628 10.4921 106.548 10.5643C106.465 10.636 106.377 10.6902 106.283 10.7268C106.189 10.7618 106.083 10.7804 105.965 10.7804C105.925 10.7804 105.875 10.7794 105.814 10.7778C105.755 10.7746 105.713 10.773 105.689 10.773V10.1826H105.724C105.741 10.1826 105.758 10.1826 105.777 10.1857C105.795 10.1884 105.817 10.1889 105.841 10.1889C105.899 10.1889 105.955 10.1815 106.011 10.165C106.067 10.147 106.117 10.1162 106.159 10.07C106.281 9.95211 106.37 9.74662 106.425 9.45246C106.479 9.15777 106.519 8.74521 106.544 8.21742C106.554 8.02043 106.564 7.7868 106.571 7.51813C106.58 7.24893 106.587 6.9914 106.596 6.74609H109.266V10.7735Z" fill="white"/>
<path d="M113.234 9.52574C113.234 9.72061 113.194 9.89636 113.116 10.0551C113.038 10.2149 112.931 10.3424 112.796 10.4411C112.635 10.5627 112.465 10.6472 112.283 10.6965C112.102 10.748 111.868 10.773 111.583 10.773H110.165V6.74609H110.846V8.31565H111.601C111.905 8.31565 112.142 8.33105 112.31 8.36185C112.478 8.3937 112.647 8.47016 112.813 8.59282C112.954 8.69689 113.06 8.82857 113.129 8.98999C113.2 9.14928 113.234 9.32928 113.234 9.52574ZM112.531 9.53636C112.531 9.4153 112.509 9.30698 112.466 9.21353C112.425 9.12061 112.354 9.04627 112.258 8.98946C112.156 8.9284 112.04 8.89282 111.912 8.88061C111.781 8.8684 111.595 8.86202 111.354 8.86202H110.846V10.2319H111.34C111.58 10.2319 111.769 10.2208 111.901 10.2011C112.035 10.181 112.15 10.1427 112.245 10.0849C112.346 10.0217 112.418 9.94893 112.462 9.86344C112.507 9.77795 112.531 9.66804 112.531 9.53636Z" fill="white"/>
<path d="M116.994 10.773H116.314V8.95972H114.476V10.773H113.795V6.74609H114.476V8.37618H116.314V6.74609H116.994V10.773Z" fill="white"/>
<path d="M120.897 9.52574C120.897 9.72061 120.859 9.89636 120.779 10.0551C120.701 10.2149 120.595 10.3424 120.459 10.4411C120.299 10.5627 120.128 10.6472 119.947 10.6965C119.765 10.748 119.533 10.773 119.247 10.773H117.89V6.74609H118.571V8.31565H119.265C119.569 8.31565 119.806 8.33105 119.974 8.36185C120.142 8.3937 120.31 8.47016 120.476 8.59282C120.616 8.69689 120.723 8.82857 120.793 8.98999C120.863 9.14928 120.897 9.32928 120.897 9.52574ZM120.194 9.53636C120.194 9.4153 120.173 9.30698 120.13 9.21353C120.088 9.12061 120.018 9.04627 119.922 8.98946C119.82 8.9284 119.705 8.89282 119.575 8.88061C119.445 8.8684 119.26 8.86202 119.018 8.86202H118.571V10.2319H119.004C119.245 10.2319 119.432 10.2208 119.565 10.2011C119.7 10.181 119.814 10.1427 119.912 10.0849C120.01 10.0217 120.083 9.94893 120.126 9.86344C120.173 9.77795 120.194 9.66804 120.194 9.53636ZM122.051 10.773H121.37V6.74609H122.051V10.773Z" fill="white"/>
<path d="M126.15 10.7725H125.475V7.76934L123.568 10.7725H122.951V6.74562H123.625V9.70208L125.511 6.74562H126.15V10.7725ZM125.845 4.875C125.845 5.08102 125.819 5.26898 125.769 5.43889C125.719 5.60881 125.645 5.75058 125.551 5.8658C125.443 5.99376 125.319 6.08827 125.182 6.15305C125.044 6.2173 124.868 6.24863 124.651 6.24863C124.453 6.24863 124.279 6.21571 124.131 6.14934C123.982 6.08403 123.856 5.98845 123.756 5.86633C123.656 5.74739 123.581 5.60243 123.529 5.43465C123.479 5.26633 123.453 5.08049 123.453 4.87606H124.042C124.042 5.20102 124.091 5.43358 124.194 5.57642C124.296 5.72031 124.448 5.79093 124.651 5.79093C124.843 5.79093 124.992 5.72031 125.099 5.58066C125.204 5.43996 125.259 5.20473 125.259 4.87606H125.845V4.875Z" fill="white"/>
<path d="M132.544 10.773H131.695L130.304 8.91724H129.964V10.773H129.281V6.74609H129.964V8.49884C130.14 8.49618 130.291 8.45848 130.415 8.38786C130.539 8.31778 130.645 8.18025 130.733 7.97636C130.759 7.91689 130.789 7.84627 130.821 7.76609C130.853 7.68804 130.879 7.61742 130.899 7.55795C131.004 7.26167 131.154 7.05247 131.341 6.92928C131.53 6.80822 131.776 6.74609 132.079 6.74609H132.264V7.33016H132.107C131.916 7.33016 131.772 7.36946 131.678 7.44804C131.582 7.52556 131.501 7.66786 131.436 7.87494C131.368 8.08415 131.287 8.24716 131.197 8.36344C131.105 8.47972 131.003 8.56999 130.891 8.63158L132.544 10.773Z" fill="white"/>
<path d="M136.229 8.76042C136.229 9.43741 136.065 9.96202 135.734 10.33C135.406 10.6985 134.969 10.8838 134.422 10.8838C133.857 10.8838 133.414 10.6942 133.092 10.3114C132.769 9.93122 132.607 9.41458 132.607 8.76095C132.607 8.08821 132.773 7.56414 133.106 7.1914C133.438 6.82025 133.877 6.63281 134.422 6.63281C134.969 6.63281 135.406 6.81918 135.734 7.19087C136.064 7.56095 136.229 8.08503 136.229 8.76042ZM135.523 8.76042C135.523 8.23848 135.428 7.8514 135.237 7.59865C135.047 7.34379 134.774 7.21741 134.422 7.21741C134.065 7.21741 133.791 7.34326 133.598 7.59865C133.405 7.85193 133.309 8.23848 133.309 8.76042C133.309 9.26485 133.405 9.64768 133.598 9.90892C133.791 10.1696 134.065 10.2997 134.422 10.2997C134.772 10.2997 135.043 10.1723 135.236 9.91582C135.427 9.66042 135.523 9.27387 135.523 8.76042Z" fill="white"/>
<path d="M140.599 10.773H139.924V7.60946L138.951 9.66326H138.444L137.478 7.60946V10.773H136.838V6.74609H137.662L138.73 8.98096L139.759 6.74609H140.598V10.773H140.599Z" fill="white"/>
<path d="M144.698 10.773H144.015V7.33016H142.18V10.773H141.497V6.74609H144.698V10.773Z" fill="white"/>
<path d="M148.733 10.7735H148.051V7.31583H146.657C146.651 7.51654 146.643 7.70662 146.635 7.89087C146.629 8.07565 146.621 8.24131 146.615 8.39105C146.599 8.76804 146.575 9.08397 146.539 9.33884C146.505 9.5937 146.46 9.79813 146.406 9.95158C146.354 10.1109 146.294 10.2346 146.232 10.3227C146.166 10.4114 146.096 10.4921 146.015 10.5643C145.933 10.636 145.845 10.6902 145.75 10.7268C145.655 10.7618 145.548 10.7804 145.431 10.7804C145.392 10.7804 145.342 10.7794 145.282 10.7778C145.223 10.7746 145.179 10.773 145.154 10.773V10.1826H145.192C145.209 10.1826 145.226 10.1826 145.245 10.1857C145.263 10.1884 145.283 10.1889 145.309 10.1889C145.365 10.1889 145.423 10.1815 145.479 10.165C145.534 10.147 145.583 10.1162 145.628 10.07C145.748 9.95211 145.835 9.74662 145.891 9.45246C145.948 9.15777 145.988 8.74521 146.012 8.21742C146.022 8.02043 146.03 7.7868 146.041 7.51813C146.048 7.24893 146.056 6.9914 146.062 6.74609H148.733V10.7735H148.733Z" fill="white"/>
<path d="M151.394 10.8652C150.747 10.8652 150.246 10.6852 149.89 10.3236C149.533 9.96202 149.355 9.44803 149.355 8.78166C149.355 8.12591 149.527 7.60343 149.874 7.21635C150.218 6.82662 150.671 6.63281 151.23 6.63281C151.482 6.63281 151.705 6.66998 151.897 6.74272C152.091 6.81387 152.262 6.92697 152.405 7.08042C152.55 7.23547 152.662 7.42237 152.74 7.64432C152.816 7.8668 152.856 8.13972 152.856 8.46149V8.82839H150.047C150.047 9.29777 150.167 9.65671 150.402 9.90361C150.638 10.1505 150.968 10.2748 151.386 10.2748C151.536 10.2748 151.683 10.2578 151.827 10.2238C151.972 10.1898 152.102 10.1473 152.217 10.0948C152.339 10.039 152.444 9.98538 152.53 9.93494C152.615 9.88131 152.684 9.83405 152.741 9.78892H152.78V10.528C152.7 10.5578 152.601 10.5971 152.482 10.6443C152.364 10.691 152.258 10.7282 152.163 10.7537C152.029 10.7898 151.909 10.8174 151.801 10.8371C151.694 10.8562 151.558 10.8652 151.394 10.8652ZM152.191 8.31069C152.187 8.1275 152.165 7.9698 152.126 7.83759C152.086 7.70485 152.03 7.59387 151.958 7.50255C151.878 7.40113 151.776 7.32573 151.652 7.2721C151.528 7.21901 151.373 7.19193 151.189 7.19193C151.009 7.19193 150.854 7.21954 150.726 7.2737C150.599 7.32839 150.484 7.40644 150.379 7.50998C150.279 7.61511 150.201 7.73193 150.147 7.86149C150.095 7.99051 150.061 8.13972 150.047 8.31069H152.191Z" fill="white"/>
<path d="M156.719 10.773H155.869L154.479 8.91724H154.138V10.773H153.456V6.74609H154.138V8.49884C154.314 8.49618 154.464 8.45848 154.589 8.38786C154.713 8.31778 154.819 8.18025 154.907 7.97636C154.933 7.91689 154.964 7.84627 154.996 7.76609C155.027 7.68804 155.054 7.61742 155.073 7.55795C155.18 7.26167 155.328 7.05247 155.517 6.92928C155.705 6.80822 155.951 6.74609 156.254 6.74609H156.438V7.33016H156.282C156.092 7.33016 155.947 7.36946 155.853 7.44804C155.757 7.52556 155.678 7.66786 155.611 7.87494C155.543 8.08415 155.463 8.24716 155.373 8.36344C155.28 8.47972 155.178 8.56999 155.066 8.63158L156.719 10.773Z" fill="white"/>
<path d="M158.678 10.864C158.399 10.864 158.144 10.821 157.913 10.7361C157.68 10.6506 157.481 10.5205 157.313 10.3479C157.147 10.1754 157.017 9.95712 156.924 9.69429C156.834 9.42987 156.788 9.12084 156.788 8.76509C156.788 8.41146 156.834 8.10774 156.93 7.85128C157.027 7.59217 157.154 7.37659 157.313 7.2019C157.473 7.02615 157.671 6.89181 157.909 6.79518C158.149 6.70066 158.405 6.65234 158.676 6.65234C158.9 6.65234 159.115 6.6842 159.321 6.74633C159.528 6.80898 159.712 6.88172 159.874 6.96296V7.72279H159.834C159.786 7.68243 159.724 7.63571 159.649 7.58261C159.572 7.53004 159.479 7.47641 159.37 7.42066C159.276 7.37234 159.166 7.3304 159.037 7.29535C158.908 7.25872 158.784 7.24119 158.667 7.24119C158.314 7.24119 158.03 7.37234 157.815 7.63836C157.601 7.90332 157.494 8.27925 157.494 8.76456C157.494 9.24084 157.597 9.61252 157.805 9.87854C158.011 10.1435 158.297 10.2762 158.667 10.2762C158.889 10.2762 159.101 10.2311 159.301 10.1398C159.501 10.0479 159.68 9.93057 159.835 9.78562H159.875V10.546C159.807 10.5778 159.723 10.6145 159.621 10.6591C159.52 10.7042 159.428 10.7366 159.346 10.7589C159.23 10.7923 159.126 10.8184 159.034 10.8359C158.943 10.855 158.824 10.864 158.678 10.864Z" fill="white"/>
<path d="M34.3828 9.74999C34.4048 9.70167 34.4268 9.65495 34.4483 9.6045C35.9179 6.09583 34.3022 2.04185 30.8407 0.551406C27.3755 -0.940098 23.3761 0.698486 21.907 4.20875C21.8871 4.25866 21.8688 4.30804 21.8525 4.35424C24.1246 4.35052 26.4354 4.79972 28.6613 5.75548C30.8847 6.71495 32.8074 8.08857 34.3828 9.74999Z" fill="white"/>
<path d="M12.427 36.6562C12.8753 37.8308 13.4703 39.3435 13.4703 39.3435C13.7731 40.1001 14.6325 40.4713 15.3799 40.1649C15.3799 40.1649 16.8637 39.5469 18.0097 39.0594C17.0376 38.8322 16.0697 38.5141 15.1149 38.1047C14.1638 37.6943 13.2661 37.2074 12.427 36.6562Z" fill="white"/>
<path d="M13.9936 6.29224C13.2933 5.70764 12.4317 5.28233 11.4204 5.08587C4.74092 3.87419 -1.35244 11.9344 0.262297 21.4818C1.83146 18.8689 3.49543 17.8701 5.1044 17.5457C5.316 16.7105 5.59097 15.8822 5.93403 15.0676C7.58595 11.1172 10.4985 8.10127 13.9936 6.29224Z" fill="white"/>
<path d="M41.1113 17.8617C40.2722 17.2628 39.3698 16.9309 38.4721 16.8242C39.6128 20.6297 39.495 24.8494 37.842 28.7961C37.5 29.6143 37.1035 30.389 36.6599 31.1249C37.5466 32.5235 37.9929 34.4292 37.2287 37.3888C45.1248 31.9347 46.6123 21.8924 41.1113 17.8617Z" fill="white"/>
<path d="M5.32811 27.1172C3.32213 27.6949 1.8949 30.0588 3.4295 32.7036C4.70746 34.9029 7.09054 35.6462 7.38541 39.9168C8.91949 38.4264 9.91933 36.7554 10.4148 35.1067C8.00239 32.9494 6.26143 30.1671 5.32811 27.1172Z" fill="white"/>
<path d="M20.51 39.4513C19.6851 40.9556 19.1891 42.8448 19.2001 45.0005C22.4364 42.248 24.6199 43.4697 27.0674 42.8745C30.0088 42.1556 30.695 39.471 29.7108 37.6094C26.9009 39.0494 23.7175 39.7104 20.51 39.4513Z" fill="white"/>
<path d="M17.3262 23.799C18.481 23.7879 19.6553 24.0082 20.7856 24.4919C21.9321 24.9815 22.9246 25.6925 23.7285 26.5548C23.7175 25.3856 23.9365 24.1925 24.4115 23.0482C24.8949 21.8849 25.5983 20.8797 26.45 20.0631C25.293 20.0753 24.1193 19.8539 22.99 19.3712C21.8415 18.8817 20.8495 18.1696 20.045 17.3047C20.056 18.4739 19.8376 19.6696 19.362 20.8139C18.8791 21.9773 18.1752 22.9829 17.3262 23.799Z" fill="white"/>
<path d="M23.3923 9.94631C22.6978 11.613 23.4719 13.5415 25.117 14.2451C26.7642 14.9454 28.6639 14.158 29.3584 12.4929C30.0492 10.8256 29.2709 8.8971 27.6284 8.19515C25.9838 7.49161 24.081 8.27905 23.3923 9.94631Z" fill="white"/>
<path d="M29.4688 25.2035C28.7801 26.8708 29.5563 28.7993 31.1977 29.5012C32.8428 30.201 34.7451 29.4173 35.4365 27.7495C36.1304 26.0812 35.3527 24.1533 33.7096 23.4524C32.065 22.7504 30.1633 23.5357 29.4688 25.2035Z" fill="white"/>
<path d="M34.4146 14.6493C33.9317 15.8132 33.2288 16.8173 32.3777 17.6339C33.5331 17.6217 34.7073 17.8432 35.8376 18.3258C36.0895 18.4336 36.332 18.5499 36.564 18.6789C36.2037 17.0005 35.5626 15.3959 34.6764 13.9336C34.5989 14.1731 34.5141 14.4131 34.4146 14.6493Z" fill="white"/>
<path d="M14.4176 31.3736C13.7236 33.0408 14.503 34.9693 16.1465 35.6697C17.789 36.3716 19.6923 35.5858 20.3868 33.9196C21.0782 32.2497 20.3009 30.3239 18.6568 29.6193C17.0123 28.9189 15.111 29.7053 14.4176 31.3736Z" fill="white"/>
<path d="M29.068 34.6319C27.922 34.1429 26.9306 33.433 26.1261 32.5664C26.1371 33.7388 25.9197 34.9287 25.4457 36.0751C25.3404 36.3294 25.2231 36.5758 25.0974 36.8142C26.7525 36.4462 28.3337 35.799 29.7766 34.8974C29.5399 34.8199 29.3032 34.7307 29.068 34.6319Z" fill="white"/>
<path d="M14.7048 9.23043C15.8508 9.72052 16.8422 10.431 17.6493 11.2954C17.6352 10.1256 17.8562 8.93361 18.3297 7.78777C18.4371 7.53344 18.5533 7.2876 18.679 7.05078C17.0261 7.41768 15.4417 8.0676 13.9988 8.96547C14.2355 9.04246 14.4717 9.13007 14.7048 9.23043Z" fill="white"/>
<path d="M9.35924 29.2132C9.84214 28.0466 10.5445 27.0436 11.3982 26.2243C10.2423 26.2392 9.06803 26.0178 7.93829 25.5367C7.68584 25.4273 7.44335 25.3126 7.20923 25.1836C7.57271 26.8609 8.21117 28.4655 9.09579 29.9257C9.17331 29.6857 9.2613 29.4478 9.35924 29.2132Z" fill="white"/>
<path d="M14.3044 18.6551C14.9958 16.9868 14.2196 15.0599 12.5766 14.359C10.9304 13.6554 9.02867 14.4445 8.33574 16.1112C7.64439 17.7774 8.42059 19.7059 10.0647 20.4068C11.7103 21.1087 13.6126 20.3234 14.3044 18.6551Z" fill="white"/>
<path d="M23.4802 18.1863C27.2769 19.8047 31.6503 17.9978 33.2493 14.1483C33.4693 13.6194 33.6243 13.081 33.7186 12.5378C32.8256 11.3782 31.755 10.3375 30.5336 9.46774C30.9773 10.5568 31.0071 11.8152 30.5226 12.987C29.5563 15.31 26.9197 16.4007 24.6257 15.4226C22.3364 14.4456 21.259 11.7711 22.2238 9.44544C22.7135 8.26721 23.6369 7.40384 24.7247 6.97004C23.2545 6.68225 21.777 6.62384 20.3309 6.77942C20.0036 7.23659 19.7218 7.73942 19.4971 8.28367C17.9002 12.1332 19.682 16.5658 23.4802 18.1863Z" fill="white"/>
<path d="M20.2954 25.6725C16.4971 24.052 12.1248 25.8589 10.5258 29.71C10.3074 30.2373 10.1529 30.7778 10.0549 31.3183C10.95 32.4806 12.019 33.5198 13.2441 34.3911C12.7984 33.3037 12.7654 32.0442 13.2498 30.8707C14.2172 28.5472 16.8559 27.456 19.1478 28.4341C21.4398 29.4122 22.5161 32.0888 21.5519 34.4113C21.0616 35.5927 20.1367 36.456 19.0483 36.8893C20.519 37.1776 21.997 37.235 23.4421 37.0805C23.7715 36.6228 24.0512 36.1178 24.2785 35.5746C25.8754 31.7245 24.0915 27.2904 20.2954 25.6725Z" fill="white"/>
<path d="M30.708 30.6841C28.4181 29.7081 27.3413 27.0304 28.3045 24.7069C29.2698 22.3839 31.909 21.2927 34.2004 22.2703C35.3647 22.7678 36.2153 23.7018 36.6432 24.8083C36.9297 23.3179 36.9836 21.8195 36.8343 20.3535C36.3808 20.0205 35.8848 19.7359 35.3469 19.5071C31.5502 17.8892 27.1774 19.695 25.5794 23.5457C23.9819 27.3947 25.7658 31.8289 29.562 33.4478C30.0852 33.6719 30.6142 33.828 31.1506 33.9251C32.2965 33.0188 33.3215 31.934 34.1784 30.6942C33.1052 31.1444 31.8629 31.1768 30.708 30.6841Z" fill="white"/>
<path d="M18.1961 20.3136C19.7935 16.4635 18.0096 12.0309 14.2135 10.4099C13.6908 10.1874 13.1591 10.0302 12.6212 9.93359C11.4789 10.841 10.4566 11.9247 9.59709 13.1646C10.6682 12.7159 11.9105 12.6819 13.0659 13.172C15.3579 14.1506 16.4342 16.8288 15.4731 19.1524C14.5052 21.4759 11.8649 22.5665 9.57509 21.5874C8.41026 21.0915 7.56231 20.1559 7.13178 19.0504C6.84738 20.5414 6.79029 22.0403 6.94166 23.5069C7.39628 23.8361 7.89227 24.1223 8.42703 24.3511C12.2242 25.9706 16.5981 24.1621 18.1961 20.3136Z" fill="white"/>
</svg>
