<svg width="160" height="56" viewBox="0 0 160 56" fill="none" xmlns="http://www.w3.org/2000/svg">
<path d="M41.1421 11.9546C41.1677 11.897 41.194 11.8393 41.2204 11.7784C42.9788 7.4748 41.0444 2.50236 36.9029 0.676952C32.7573 -1.15407 27.9702 0.857989 26.2134 5.1608C26.1894 5.22168 26.1662 5.28255 26.147 5.34022C28.8669 5.33381 31.6309 5.88406 34.2941 7.06069C36.9549 8.23491 39.2565 9.91776 41.1421 11.9546Z" fill="white"/>
<path d="M14.8702 44.9453C15.4078 46.3863 16.1206 48.2421 16.1206 48.2421C16.4822 49.168 17.5102 49.6246 18.4038 49.2513C18.4038 49.2513 20.1774 48.4904 21.5494 47.8945C20.3854 47.6133 19.2294 47.2241 18.0878 46.7227C16.9494 46.2196 15.8758 45.6245 14.8702 44.9453Z" fill="white"/>
<path d="M16.7453 7.71357C15.9069 6.9959 14.8782 6.47528 13.667 6.23419C5.67505 4.74919 -1.61853 14.6332 0.314256 26.3409C2.19344 23.1363 4.18541 21.9116 6.10859 21.5119C6.36299 20.4882 6.69262 19.4726 7.10302 18.4746C9.079 13.6319 12.5638 9.93065 16.7453 7.71357Z" fill="white"/>
<path d="M49.193 21.9009C48.189 21.1664 47.1106 20.7595 46.0338 20.6289C47.4002 25.2962 47.2578 30.472 45.281 35.3083C44.8722 36.3135 44.3978 37.2611 43.8658 38.1646C44.9274 39.8794 45.4618 42.2167 44.5467 45.8435C53.9954 39.157 55.7762 26.8436 49.193 21.9009Z" fill="white"/>
<path d="M6.37488 33.25C3.9765 33.9589 2.26775 36.856 4.10453 40.1007C5.63492 42.796 8.48605 43.7059 8.83965 48.945C10.6748 47.118 11.8708 45.0667 12.466 43.0491C9.57726 40.4019 7.49327 36.9897 6.37488 33.25Z" fill="white"/>
<path d="M24.5415 48.3751C23.5535 50.2214 22.9607 52.5378 22.9727 55.1802C26.8455 51.8065 29.4591 53.3027 32.3879 52.5714C35.907 51.6919 36.7278 48.4008 35.551 46.1172C32.1879 47.8825 28.3791 48.6923 24.5415 48.3751Z" fill="white"/>
<path d="M20.6239 29.2257C22.0319 29.2129 23.4639 29.4884 24.8439 30.0956C26.2447 30.7051 27.4527 31.5926 28.4358 32.6739C28.423 31.2081 28.6895 29.7199 29.2687 28.2886C29.859 26.8308 30.7182 25.5773 31.755 24.5536C30.3462 24.5705 28.9119 24.2941 27.5351 23.6894C26.1343 23.0775 24.9239 22.1884 23.9423 21.1055C23.9559 22.5696 23.6903 24.0611 23.1087 25.494C22.5191 26.9486 21.6591 28.2061 20.6239 29.2257Z" fill="white"/>
<path d="M41.4729 17.7837C40.8849 19.2391 40.0264 20.4966 38.9865 21.517C40.3976 21.4986 41.8304 21.7814 43.208 22.3805C43.516 22.5174 43.812 22.66 44.0952 22.825C43.656 20.7249 42.8728 18.7192 41.7904 16.8906C41.6984 17.1902 41.5945 17.4897 41.4729 17.7837Z" fill="white"/>
<path d="M34.9505 42.7682C33.5521 42.1563 32.3417 41.2688 31.3617 40.1875C31.3737 41.6525 31.1089 43.1399 30.5305 44.5712C30.4001 44.8908 30.2593 45.1984 30.1057 45.4963C32.1241 45.0358 34.0537 44.2268 35.8121 43.0982C35.5257 43.0013 35.2361 42.894 34.9505 42.7682Z" fill="white"/>
<path d="M17.4273 11.0133C18.8241 11.6244 20.0337 12.5151 21.0193 13.5956C21.0009 12.1298 21.2697 10.6408 21.8481 9.20869C21.9793 8.8915 22.1209 8.58552 22.2745 8.28516C20.2601 8.74571 18.3281 9.5555 16.5681 10.6817C16.8545 10.7794 17.1433 10.8875 17.4273 11.0133Z" fill="white"/>
<path d="M10.9067 35.9959C11.4963 34.5374 12.3523 33.2815 13.3939 32.2602C11.9827 32.2786 10.5515 31.9999 9.17311 31.4C8.86512 31.2654 8.5699 31.1196 8.2843 30.957C8.7267 33.0556 9.5067 35.0588 10.5859 36.8882C10.6787 36.5879 10.7875 36.2891 10.9067 35.9959Z" fill="white"/>
<path d="M28.0667 11.5833C27.2003 13.7091 28.1659 16.1704 30.2146 17.0715C32.2682 17.9662 34.6362 16.9594 35.5018 14.8336C36.3634 12.7055 35.3922 10.2417 33.3466 9.34379C31.2963 8.4467 28.9243 9.45271 28.0667 11.5833Z" fill="white"/>
<path d="M35.6384 31.0709C34.7816 33.2039 35.7487 35.6668 37.7927 36.5623C39.8455 37.4562 42.2167 36.4566 43.0783 34.3212C43.9423 32.1922 42.9719 29.7308 40.9255 28.8362C38.8751 27.9391 36.5047 28.9443 35.6384 31.0709Z" fill="white"/>
<path d="M16.8813 38.9458C16.0173 41.0763 16.9877 43.5409 19.0349 44.4356C21.0813 45.3319 23.4541 44.3251 24.3181 42.1977C25.1805 40.0687 24.2133 37.6073 22.1613 36.7095C20.1141 35.8156 17.7453 36.82 16.8813 38.9458Z" fill="white"/>
<path d="M16.74 22.7114C17.6015 20.5752 16.636 18.1146 14.5872 17.2191C12.5352 16.3212 10.1648 17.328 9.30163 19.4602C8.43924 21.5884 9.40563 24.049 11.456 24.9477C13.5072 25.8447 15.8776 24.8379 16.74 22.7114Z" fill="white"/>
<path d="M23.8011 9.71751C21.9476 14.2919 24.0204 19.5751 28.4235 21.4958C29.4939 21.9644 30.6219 22.2054 31.7739 22.2054C35.2683 22.2054 38.405 20.0428 39.761 16.6956C39.9738 16.1693 40.1386 15.6255 40.2514 15.0736C39.5754 14.1973 38.8274 13.398 38.013 12.6635C38.0962 13.6959 37.9387 14.742 37.5419 15.7264C36.5619 18.1405 34.3019 19.7024 31.7803 19.7024C30.9443 19.7024 30.1315 19.5302 29.3555 19.193C26.1795 17.8049 24.6843 13.9875 26.0195 10.6883C26.4235 9.69028 27.0443 8.83886 27.8267 8.17326C26.7555 8.07314 25.6771 8.07313 24.6051 8.16925C24.2907 8.65143 24.0195 9.17045 23.8011 9.71751Z" fill="white"/>
<path d="M26.1784 45.6833C26.708 45.6833 27.244 45.6625 27.7712 45.6112C28.0824 45.1338 28.3544 44.6164 28.58 44.0589C30.4312 39.4878 28.3568 34.2038 23.9576 32.2847C22.8848 31.8137 21.7568 31.5742 20.5992 31.5742C17.1089 31.5742 13.9761 33.7376 12.6201 37.0873C12.4105 37.6039 12.2465 38.1494 12.1273 38.7084C12.8057 39.5807 13.5553 40.3833 14.3689 41.1154C14.2841 40.0845 14.4377 39.0385 14.8377 38.0541C15.8185 35.6351 18.0808 34.0764 20.5992 34.0764C21.4352 34.0764 22.2496 34.247 23.0224 34.5826C24.5624 35.2611 25.756 36.513 26.3856 38.1221C27.0176 39.7265 27.0088 41.4926 26.3616 43.0906C25.956 44.0886 25.336 44.944 24.5536 45.6088C25.092 45.6601 25.636 45.6833 26.1784 45.6833Z" fill="white"/>
<path d="M44.2057 28.5901C44.3041 27.4855 44.3057 26.3642 44.2113 25.2396C43.7409 24.9152 43.2393 24.6357 42.7169 24.4066C41.6441 23.9356 40.5161 23.6953 39.3625 23.6953C35.8682 23.6953 32.7354 25.8603 31.3786 29.21C29.5282 33.7771 31.6018 39.0627 36.0017 40.9875C36.5057 41.2045 37.0322 41.3799 37.5673 41.4993C38.4089 40.7928 39.1833 40.0135 39.8857 39.1701C38.8889 39.2574 37.8737 39.09 36.9329 38.6807C33.7586 37.2918 32.261 33.4776 33.597 30.1768C34.577 27.7642 36.8386 26.2015 39.3625 26.2015C40.1961 26.2015 41.0089 26.3698 41.7841 26.7118C42.7457 27.1307 43.5697 27.7787 44.2057 28.5901Z" fill="white"/>
<path d="M8.17315 25.1897C8.07715 26.2974 8.07554 27.4212 8.17154 28.5377C8.64354 28.8629 9.14433 29.1433 9.66352 29.3724C10.7347 29.8425 11.8635 30.0836 13.0179 30.0836C16.5115 30.0836 19.6434 27.9186 20.9994 24.5705C22.8498 20.0034 20.7746 14.7162 16.3795 12.7915C15.8715 12.5696 15.3443 12.3974 14.8107 12.2812C13.9723 12.9861 13.1987 13.7663 12.4971 14.6121C13.5003 14.5232 14.5083 14.6874 15.4451 15.0959C18.6194 16.4888 20.117 20.3006 18.7842 23.6038C17.8051 26.0179 15.5411 27.579 13.0211 27.579C12.1875 27.579 11.3715 27.4068 10.5971 27.064C9.63871 26.6498 8.81395 26.0035 8.17315 25.1897Z" fill="white"/>
<path d="M70.8491 18.6361C70.8491 20.9637 72.4315 23.2913 75.8923 23.9193C75.9915 24.3999 75.8427 24.9165 75.3979 25.3226C70.5027 25.5813 67.7835 28.943 67.7835 31.9354C67.7835 34.4104 69.6131 36.6644 73.6675 36.6644C76.5842 36.6644 79.1554 35.4453 80.5402 33.3387C81.4802 33.3387 82.0234 33.7088 82.0234 34.3367C82.0234 36.9231 76.4851 39.9155 70.1563 39.9155C63.6788 39.9155 60.8108 36.4425 60.8108 32.6002C60.8108 29.0159 63.9755 25.2481 69.4635 23.9922C66.7443 22.6618 65.5075 20.6305 65.5075 18.524C65.5075 14.9036 69.3643 11.1719 76.1386 11.1719C81.8746 11.1719 84.1978 13.389 84.1978 15.7534C84.1978 17.8223 82.6162 19.6325 80.1442 19.6325C79.353 19.6325 77.8203 19.1896 77.2763 18.1547C78.8091 17.8223 79.6986 16.5664 79.6986 15.4202C79.6986 14.2748 78.809 13.2408 76.7819 13.2408C72.9755 13.2424 70.8491 15.9392 70.8491 18.6361Z" fill="white"/>
<path d="M84.446 24.3243C84.1988 24.3243 83.902 24.4717 83.4572 24.7672C82.8148 24.4717 82.4684 23.3263 83.4572 22.7352C85.1388 21.738 86.918 20.9618 88.9947 20.9618C90.7755 20.9618 91.8132 21.5898 91.3684 22.9939C90.0844 27.5378 89.49 33.0421 91.5667 36.0721C95.3243 33.855 97.7963 29.9759 97.7963 26.5037C97.7963 24.0287 96.8075 21.8485 94.7307 21.1468C94.8299 19.2261 96.4123 18.265 98.0451 18.3018C99.9731 18.3386 102.05 19.7059 102.05 22.4028C102.05 30.8634 93.9403 39.9144 88.5996 39.9144C83.3588 39.9144 83.2108 29.1638 84.99 24.8778C85.0892 24.5822 84.8916 24.3243 84.446 24.3243Z" fill="white"/>
<path d="M108.278 33.9692C108.774 35.9636 110.603 36.7021 112.877 36.7021C116.438 36.7021 120.986 34.8182 123.113 32.7132C124.398 32.529 124.893 33.3043 124.349 33.9692C120.938 37.7001 115.202 39.9172 110.405 39.9172C107.142 39.9172 104.274 38.9191 102.889 36.7021C102.692 36.7765 102.494 36.851 102.295 36.8863C100.367 37.2563 98.5873 36.1854 98.9345 34.7437C100.071 34.855 101.059 34.67 102.098 34.3376C102.048 34.0052 101.998 33.6728 101.998 33.3035C101.998 28.5009 106.251 20.8164 114.411 20.8164C118.91 20.8164 120.047 22.7003 120.047 24.3631C120.047 27.5037 117.822 30.0164 108.278 33.9692ZM108.132 32.38C112.927 30.1269 116.191 27.5406 116.191 25.1392C116.191 24.2894 115.598 23.6983 114.757 23.6983C109.862 23.6983 108.278 29.7937 108.132 32.38Z" fill="white"/>
<path d="M123.755 22.7382C125.437 21.741 127.216 20.9648 129.293 20.9648C131.074 20.9648 132.111 21.5928 131.666 22.9969L131.173 24.6589C133.249 22.4426 136.413 20.9648 139.282 20.9648C141.902 20.9648 143.782 22.5171 142.645 26.3954L140.221 34.8921C139.925 35.9638 140.569 36.4068 141.557 36.4068C143.387 36.4068 145.512 35.484 146.748 34.5597C147.293 34.744 147.589 35.0772 147.589 35.4464C147.589 35.7043 147.44 35.9999 147.145 36.2594C144.82 38.2169 141.507 39.9166 138.194 39.9166C135.722 39.9166 133.101 38.9931 134.338 34.6703L136.415 27.3181C136.859 25.7659 136.166 25.1379 135.079 25.1379C133.745 25.1379 131.766 26.0614 130.679 27.0586L127.662 37.5882C127.169 39.287 125.289 39.9158 123.51 39.9158C122.619 39.9158 121.78 39.7316 121.186 39.4352L125.241 25.2485C125.438 24.6573 125.19 24.3249 124.746 24.3249C124.498 24.3249 124.202 24.4731 123.757 24.7687C123.113 24.4747 122.766 23.3293 123.755 22.7382Z" fill="white"/>
<path d="M155.401 23.2932L152.484 33.6746C151.89 35.7427 152.681 36.4075 153.967 36.4075C155.797 36.4075 157.923 35.4848 159.159 34.5605C159.703 34.7447 160 35.0779 160 35.4464C160 35.7051 159.851 36.0006 159.554 36.2601C157.231 38.2177 153.473 39.9174 150.161 39.9174C147.144 39.9174 145.166 38.5133 146.303 34.45L149.467 23.2924H146.995C146.748 22.1102 147.539 21.1498 149.072 21.1498H150.061L150.951 18.1206C151.445 16.4209 153.325 15.793 155.104 15.793C155.994 15.793 156.835 15.9772 157.427 16.2727L156.043 21.149H159.653C159.902 22.3313 159.109 23.2917 157.576 23.2917H155.401V23.2932Z" fill="white"/>
</svg>
