<svg width="160" height="89" viewBox="0 0 160 89" fill="none" xmlns="http://www.w3.org/2000/svg">
<path d="M79.9996 88.7147C79.5553 88.7147 79.1116 88.6242 78.696 88.4426C51.6681 76.6253 10.7649 58.7814 8.85612 58.062C5.90789 57.018 0.287109 52.7848 0.287109 44.2955C0.287109 35.3473 8.33711 31.7818 8.67952 31.6339L78.6795 0.569074C79.1001 0.3824 79.5502 0.289062 80.0003 0.289062C80.4504 0.289062 80.9005 0.3824 81.3212 0.569074L151.355 31.649C151.664 31.7818 159.714 35.3466 159.714 44.2955C159.714 52.7848 154.093 57.018 151.121 58.0706C149.236 58.7821 108.333 76.6246 81.3047 88.4426C80.8883 88.6242 80.444 88.7147 79.9996 88.7147Z" fill="white"/>
<path d="M79.9996 88.7147C79.5553 88.7147 79.1116 88.6242 78.696 88.4426C51.6681 76.6253 10.7649 58.7814 8.85612 58.062C5.90789 57.018 0.287109 52.7848 0.287109 44.2955C0.287109 35.3473 8.33711 31.7818 8.67952 31.6339L78.6795 0.569074C79.1001 0.3824 79.5502 0.289062 80.0003 0.289062C80.4504 0.289062 80.9005 0.3824 81.3212 0.569074L151.355 31.649C151.664 31.7818 159.714 35.3466 159.714 44.2955C159.714 52.7848 154.093 57.018 151.121 58.0706C149.236 58.7821 108.333 76.6246 81.3047 88.4426C80.8883 88.6242 80.444 88.7147 79.9996 88.7147Z" stroke="white" stroke-width="0.8004" stroke-miterlimit="10"/>
<path d="M150.033 34.6268L79.9996 3.54688L9.96595 34.6268C9.96595 34.6268 3.5426 37.3895 3.5426 44.2965C3.5426 51.2028 8.01411 54.3109 9.96595 55.0016C11.9185 55.6916 79.9996 85.4597 79.9996 85.4597C79.9996 85.4597 148.081 55.6923 150.033 55.0016C151.985 54.3109 156.457 51.202 156.457 44.2965C156.457 37.3895 150.033 34.6268 150.033 34.6268Z" fill="white"/>
<path d="M134.234 36.8525L80.0003 12.7852L25.7666 36.8525C25.7666 36.8525 20.7911 38.9936 20.7911 44.3411C20.7911 49.69 24.2533 52.0967 25.7666 52.6316C27.2769 53.1672 80.0003 76.2194 80.0003 76.2194C80.0003 76.2194 132.721 53.1672 134.234 52.6316C135.746 52.0967 139.209 49.69 139.209 44.3411C139.209 38.9936 134.234 36.8525 134.234 36.8525Z" fill="white"/>
<path d="M79.9989 3.12462C80.5773 3.12462 81.0462 2.60966 81.0462 1.97442C81.0462 1.33918 80.5773 0.824219 79.9989 0.824219C79.4205 0.824219 78.9515 1.33918 78.9515 1.97442C78.9515 2.60966 79.4205 3.12462 79.9989 3.12462Z" fill="#00100F"/>
<path d="M2.90001 40.7936C3.47844 40.7936 3.94736 40.2793 3.94736 39.6449C3.94736 39.0104 3.47844 38.4961 2.90001 38.4961C2.32157 38.4961 1.85266 39.0104 1.85266 39.6449C1.85266 40.2793 2.32157 40.7936 2.90001 40.7936Z" fill="#00100F"/>
<path d="M1.90437 45.652C2.4836 45.652 2.95316 45.137 2.95316 44.5018C2.95316 43.8665 2.4836 43.3516 1.90437 43.3516C1.32515 43.3516 0.855591 43.8665 0.855591 44.5018C0.855591 45.137 1.32515 45.652 1.90437 45.652Z" fill="#00100F"/>
<path d="M2.95248 50.7951C3.53131 50.7951 4.00055 50.2804 4.00055 49.6456C4.00055 49.0107 3.53131 48.4961 2.95248 48.4961C2.37365 48.4961 1.90442 49.0107 1.90442 49.6456C1.90442 50.2804 2.37365 50.7951 2.95248 50.7951Z" fill="#00100F"/>
<path d="M69.3803 7.64416C69.9592 7.64416 70.4284 7.12919 70.4284 6.49395C70.4284 5.85871 69.9592 5.34375 69.3803 5.34375C68.8015 5.34375 68.3323 5.85871 68.3323 6.49395C68.3323 7.12919 68.8015 7.64416 69.3803 7.64416Z" fill="#00100F"/>
<path d="M74.7664 5.19206C75.3453 5.19206 75.8145 4.67774 75.8145 4.0433C75.8145 3.40885 75.3453 2.89453 74.7664 2.89453C74.1876 2.89453 73.7184 3.40885 73.7184 4.0433C73.7184 4.67774 74.1876 5.19206 74.7664 5.19206Z" fill="#00100F"/>
<path d="M64.0123 10.0163C64.5915 10.0163 65.0611 9.50196 65.0611 8.86752C65.0611 8.23307 64.5915 7.71875 64.0123 7.71875C63.4331 7.71875 62.9635 8.23307 62.9635 8.86752C62.9635 9.50196 63.4331 10.0163 64.0123 10.0163Z" fill="#00100F"/>
<path d="M53.3923 14.7389C53.9708 14.7389 54.4397 14.2246 54.4397 13.5902C54.4397 12.9557 53.9708 12.4414 53.3923 12.4414C52.8139 12.4414 52.345 12.9557 52.345 13.5902C52.345 14.2246 52.8139 14.7389 53.3923 14.7389Z" fill="#00100F"/>
<path d="M58.7274 12.3405C59.3062 12.3405 59.7754 11.8262 59.7754 11.1917C59.7754 10.5573 59.3062 10.043 58.7274 10.043C58.1486 10.043 57.6793 10.5573 57.6793 11.1917C57.6793 11.8262 58.1486 12.3405 58.7274 12.3405Z" fill="#00100F"/>
<path d="M48.3443 16.8341C48.9232 16.8341 49.3924 16.3195 49.3924 15.6846C49.3924 15.0498 48.9232 14.5352 48.3443 14.5352C47.7655 14.5352 47.2963 15.0498 47.2963 15.6846C47.2963 16.3195 47.7655 16.8341 48.3443 16.8341Z" fill="#00100F"/>
<path d="M37.7267 21.6608C38.3051 21.6608 38.774 21.1465 38.774 20.512C38.774 19.8776 38.3051 19.3633 37.7267 19.3633C37.1482 19.3633 36.6793 19.8776 36.6793 20.512C36.6793 21.1465 37.1482 21.6608 37.7267 21.6608Z" fill="#00100F"/>
<path d="M43.1119 19.2599C43.6904 19.2599 44.1593 18.7453 44.1593 18.1104C44.1593 17.4756 43.6904 16.9609 43.1119 16.9609C42.5335 16.9609 42.0646 17.4756 42.0646 18.1104C42.0646 18.7453 42.5335 19.2599 43.1119 19.2599Z" fill="#00100F"/>
<path d="M32.3061 24.1349C32.8846 24.1349 33.3535 23.6203 33.3535 22.9854C33.3535 22.3506 32.8846 21.8359 32.3061 21.8359C31.7277 21.8359 31.2588 22.3506 31.2588 22.9854C31.2588 23.6203 31.7277 24.1349 32.3061 24.1349Z" fill="#00100F"/>
<path d="M21.7373 28.756C22.3161 28.756 22.7853 28.2414 22.7853 27.6065C22.7853 26.9717 22.3161 26.457 21.7373 26.457C21.1584 26.457 20.6892 26.9717 20.6892 27.6065C20.6892 28.2414 21.1584 28.756 21.7373 28.756Z" fill="#00100F"/>
<path d="M27.073 26.3537C27.6514 26.3537 28.1203 25.839 28.1203 25.2042C28.1203 24.5693 27.6514 24.0547 27.073 24.0547C26.4945 24.0547 26.0256 24.5693 26.0256 25.2042C26.0256 25.839 26.4945 26.3537 27.073 26.3537Z" fill="#00100F"/>
<path d="M16.7072 31.0529C17.2861 31.0529 17.7553 30.5382 17.7553 29.9034C17.7553 29.2685 17.2861 28.7539 16.7072 28.7539C16.1284 28.7539 15.6592 29.2685 15.6592 29.9034C15.6592 30.5382 16.1284 31.0529 16.7072 31.0529Z" fill="#00100F"/>
<path d="M6.18857 36.321C6.7674 36.321 7.23663 35.8067 7.23663 35.1722C7.23663 34.5378 6.7674 34.0234 6.18857 34.0234C5.60974 34.0234 5.1405 34.5378 5.1405 35.1722C5.1405 35.8067 5.60974 36.321 6.18857 36.321Z" fill="#00100F"/>
<path d="M11.4734 33.2755C12.0522 33.2755 12.5214 32.7609 12.5214 32.126C12.5214 31.4912 12.0522 30.9766 11.4734 30.9766C10.8945 30.9766 10.4253 31.4912 10.4253 32.126C10.4253 32.7609 10.8945 33.2755 11.4734 33.2755Z" fill="#00100F"/>
<path d="M80.9407 87.0145C80.9378 86.3798 80.4684 85.8658 79.8905 85.8672C79.3105 85.8686 78.8417 86.3849 78.8431 87.0188C78.846 87.655 79.3169 88.1676 79.8955 88.1662C80.4741 88.1647 80.9414 87.6492 80.9407 87.0145Z" fill="#00100F"/>
<path d="M69.2605 83.674C69.8393 83.674 70.3085 83.1593 70.3085 82.5245C70.3085 81.8896 69.8393 81.375 69.2605 81.375C68.6816 81.375 68.2124 81.8896 68.2124 82.5245C68.2124 83.1593 68.6816 83.674 69.2605 83.674Z" fill="#00100F"/>
<path d="M75.7025 84.9591C75.6996 84.3244 75.2294 83.8111 74.6501 83.8125C74.0715 83.8139 73.6035 84.3294 73.6063 84.9649C73.6063 85.5995 74.0772 86.1129 74.6566 86.1107C75.2351 86.11 75.7032 85.5938 75.7025 84.9591Z" fill="#00100F"/>
<path d="M63.8867 81.3185C64.4655 81.3185 64.9348 80.8039 64.9348 80.169C64.9348 79.5342 64.4655 79.0195 63.8867 79.0195C63.3079 79.0195 62.8386 79.5342 62.8386 80.169C62.8386 80.8039 63.3079 81.3185 63.8867 81.3185Z" fill="#00100F"/>
<path d="M53.2545 76.6232C53.8333 76.6232 54.3026 76.1085 54.3026 75.4737C54.3026 74.8389 53.8333 74.3242 53.2545 74.3242C52.6757 74.3242 52.2064 74.8389 52.2064 75.4737C52.2064 76.1085 52.6757 76.6232 53.2545 76.6232Z" fill="#00100F"/>
<path d="M58.5946 79.0074C59.173 79.0074 59.6419 78.4925 59.6419 77.8572C59.6419 77.222 59.173 76.707 58.5946 76.707C58.0162 76.707 57.5472 77.222 57.5472 77.8572C57.5472 78.4925 58.0162 79.0074 58.5946 79.0074Z" fill="#00100F"/>
<path d="M49.2482 73.3895C49.2475 72.7541 48.7759 72.2408 48.198 72.2422C47.6187 72.2436 47.1507 72.7599 47.1521 73.3945C47.155 74.0292 47.6245 74.5433 48.2023 74.5412C48.7845 74.5412 49.2504 74.0249 49.2482 73.3895Z" fill="#00100F"/>
<path d="M37.5702 69.7429C38.149 69.7429 38.6182 69.2285 38.6182 68.5941C38.6182 67.9596 38.149 67.4453 37.5702 67.4453C36.9913 67.4453 36.5221 67.9596 36.5221 68.5941C36.5221 69.2285 36.9913 69.7429 37.5702 69.7429Z" fill="#00100F"/>
<path d="M42.9619 72.1296C43.5403 72.1296 44.0092 71.6152 44.0092 70.9808C44.0092 70.3464 43.5403 69.832 42.9619 69.832C42.3835 69.832 41.9146 70.3464 41.9146 70.9808C41.9146 71.6152 42.3835 72.1296 42.9619 72.1296Z" fill="#00100F"/>
<path d="M33.189 66.1342C33.189 65.5002 32.7196 64.9854 32.1388 64.9883C31.5609 64.9897 31.0936 65.506 31.0936 66.1399C31.0972 66.7746 31.5667 67.288 32.1446 67.2865C32.7246 67.2851 33.1919 66.7689 33.189 66.1342Z" fill="#00100F"/>
<path d="M21.5621 62.6935C22.1409 62.6935 22.6102 62.1789 22.6102 61.544C22.6102 60.9092 22.1409 60.3945 21.5621 60.3945C20.9833 60.3945 20.514 60.9092 20.514 61.544C20.514 62.1789 20.9833 62.6935 21.5621 62.6935Z" fill="#00100F"/>
<path d="M26.9037 65.0788C27.4825 65.0788 27.9517 64.5645 27.9517 63.93C27.9517 63.2956 27.4825 62.7812 26.9037 62.7812C26.3248 62.7812 25.8556 63.2956 25.8556 63.93C25.8556 64.5645 26.3248 65.0788 26.9037 65.0788Z" fill="#00100F"/>
<path d="M16.5256 60.4069C17.1044 60.4069 17.5737 59.8926 17.5737 59.2581C17.5737 58.6237 17.1044 58.1094 16.5256 58.1094C15.9468 58.1094 15.4775 58.6237 15.4775 59.2581C15.4775 59.8926 15.9468 60.4069 16.5256 60.4069Z" fill="#00100F"/>
<path d="M5.99397 55.1676C6.5732 55.1676 7.04276 54.6526 7.04276 54.0174C7.04276 53.3822 6.5732 52.8672 5.99397 52.8672C5.41475 52.8672 4.94519 53.3822 4.94519 54.0174C4.94519 54.6526 5.41475 55.1676 5.99397 55.1676Z" fill="#00100F"/>
<path d="M11.286 58.1999C11.8652 58.1999 12.3347 57.6856 12.3347 57.0511C12.3347 56.4167 11.8652 55.9023 11.286 55.9023C10.7067 55.9023 10.2372 56.4167 10.2372 57.0511C10.2372 57.6856 10.7067 58.1999 11.286 58.1999Z" fill="#00100F"/>
<path d="M157.1 40.7936C157.678 40.7936 158.147 40.2793 158.147 39.6449C158.147 39.0104 157.678 38.4961 157.1 38.4961C156.521 38.4961 156.052 39.0104 156.052 39.6449C156.052 40.2793 156.521 40.7936 157.1 40.7936Z" fill="#00100F"/>
<path d="M158.095 45.652C158.674 45.652 159.143 45.137 159.143 44.5018C159.143 43.8665 158.674 43.3516 158.095 43.3516C157.517 43.3516 157.047 43.8665 157.047 44.5018C157.047 45.137 157.517 45.652 158.095 45.652Z" fill="#00100F"/>
<path d="M157.047 50.7951C157.626 50.7951 158.095 50.2804 158.095 49.6456C158.095 49.0107 157.626 48.4961 157.047 48.4961C156.469 48.4961 156 49.0107 156 49.6456C156 50.2804 156.469 50.7951 157.047 50.7951Z" fill="#00100F"/>
<path d="M90.6187 7.64416C91.198 7.64416 91.6675 7.12919 91.6675 6.49395C91.6675 5.85871 91.198 5.34375 90.6187 5.34375C90.0395 5.34375 89.5699 5.85871 89.5699 6.49395C89.5699 7.12919 90.0395 7.64416 90.6187 7.64416Z" fill="#00100F"/>
<path d="M84.1853 4.04473C84.1853 4.67943 84.6519 5.1935 85.2341 5.1935C85.8127 5.1935 86.2814 4.67943 86.2814 4.04473C86.2814 3.40932 85.8127 2.89453 85.2341 2.89453C84.6526 2.89525 84.1853 3.41004 84.1853 4.04473Z" fill="#00100F"/>
<path d="M95.9875 10.0163C96.5663 10.0163 97.0356 9.50196 97.0356 8.86752C97.0356 8.23307 96.5663 7.71875 95.9875 7.71875C95.4087 7.71875 94.9395 8.23307 94.9395 8.86752C94.9395 9.50196 95.4087 10.0163 95.9875 10.0163Z" fill="#00100F"/>
<path d="M106.606 14.7389C107.184 14.7389 107.653 14.2246 107.653 13.5902C107.653 12.9557 107.184 12.4414 106.606 12.4414C106.028 12.4414 105.559 12.9557 105.559 13.5902C105.559 14.2246 106.028 14.7389 106.606 14.7389Z" fill="#00100F"/>
<path d="M101.272 12.3405C101.851 12.3405 102.32 11.8262 102.32 11.1917C102.32 10.5573 101.851 10.043 101.272 10.043C100.694 10.043 100.224 10.5573 100.224 11.1917C100.224 11.8262 100.694 12.3405 101.272 12.3405Z" fill="#00100F"/>
<path d="M111.655 16.8341C112.234 16.8341 112.703 16.3195 112.703 15.6846C112.703 15.0498 112.234 14.5352 111.655 14.5352C111.076 14.5352 110.607 15.0498 110.607 15.6846C110.607 16.3195 111.076 16.8341 111.655 16.8341Z" fill="#00100F"/>
<path d="M122.272 21.6608C122.851 21.6608 123.32 21.1465 123.32 20.512C123.32 19.8776 122.851 19.3633 122.272 19.3633C121.694 19.3633 121.224 19.8776 121.224 20.512C121.224 21.1465 121.694 21.6608 122.272 21.6608Z" fill="#00100F"/>
<path d="M116.888 19.2599C117.466 19.2599 117.935 18.7453 117.935 18.1104C117.935 17.4756 117.466 16.9609 116.888 16.9609C116.309 16.9609 115.841 17.4756 115.841 18.1104C115.841 18.7453 116.309 19.2599 116.888 19.2599Z" fill="#00100F"/>
<path d="M127.693 24.1349C128.272 24.1349 128.741 23.6203 128.741 22.9854C128.741 22.3506 128.272 21.8359 127.693 21.8359C127.114 21.8359 126.645 22.3506 126.645 22.9854C126.645 23.6203 127.114 24.1349 127.693 24.1349Z" fill="#00100F"/>
<path d="M138.262 28.756C138.84 28.756 139.309 28.2414 139.309 27.6065C139.309 26.9717 138.84 26.457 138.262 26.457C137.683 26.457 137.214 26.9717 137.214 27.6065C137.214 28.2414 137.683 28.756 138.262 28.756Z" fill="#00100F"/>
<path d="M132.926 26.3537C133.505 26.3537 133.974 25.839 133.974 25.2042C133.974 24.5693 133.505 24.0547 132.926 24.0547C132.347 24.0547 131.878 24.5693 131.878 25.2042C131.878 25.839 132.347 26.3537 132.926 26.3537Z" fill="#00100F"/>
<path d="M143.293 31.0529C143.871 31.0529 144.34 30.5382 144.34 29.9034C144.34 29.2685 143.871 28.7539 143.293 28.7539C142.714 28.7539 142.245 29.2685 142.245 29.9034C142.245 30.5382 142.714 31.0529 143.293 31.0529Z" fill="#00100F"/>
<path d="M153.811 36.321C154.389 36.321 154.858 35.8067 154.858 35.1722C154.858 34.5378 154.389 34.0234 153.811 34.0234C153.232 34.0234 152.763 34.5378 152.763 35.1722C152.763 35.8067 153.232 36.321 153.811 36.321Z" fill="#00100F"/>
<path d="M148.526 33.2755C149.104 33.2755 149.573 32.7609 149.573 32.126C149.573 31.4912 149.104 30.9766 148.526 30.9766C147.947 30.9766 147.478 31.4912 147.478 32.126C147.478 32.7609 147.947 33.2755 148.526 33.2755Z" fill="#00100F"/>
<path d="M90.7386 83.674C91.3174 83.674 91.7867 83.1593 91.7867 82.5245C91.7867 81.8896 91.3174 81.375 90.7386 81.375C90.1598 81.375 89.6906 81.8896 89.6906 82.5245C89.6906 83.1593 90.1598 83.674 90.7386 83.674Z" fill="#00100F"/>
<path d="M85.3461 86.1115C85.9254 86.1115 86.3949 85.5968 86.3949 84.962C86.3949 84.3271 85.9254 83.8125 85.3461 83.8125C84.7669 83.8125 84.2974 84.3271 84.2974 84.962C84.2974 85.5968 84.7669 86.1115 85.3461 86.1115Z" fill="#00100F"/>
<path d="M96.1131 81.3185C96.6916 81.3185 97.1605 80.8039 97.1605 80.169C97.1605 79.5342 96.6916 79.0195 96.1131 79.0195C95.5347 79.0195 95.0658 79.5342 95.0658 80.169C95.0658 80.8039 95.5347 81.3185 96.1131 81.3185Z" fill="#00100F"/>
<path d="M106.745 76.6232C107.323 76.6232 107.793 76.1085 107.793 75.4737C107.793 74.8389 107.323 74.3242 106.745 74.3242C106.166 74.3242 105.697 74.8389 105.697 75.4737C105.697 76.1085 106.166 76.6232 106.745 76.6232Z" fill="#00100F"/>
<path d="M101.405 79.0074C101.983 79.0074 102.453 78.4925 102.453 77.8572C102.453 77.222 101.983 76.707 101.405 76.707C100.826 76.707 100.356 77.222 100.356 77.8572C100.356 78.4925 100.826 79.0074 101.405 79.0074Z" fill="#00100F"/>
<path d="M110.75 73.3895C110.751 72.7541 111.223 72.2408 111.801 72.2422C112.381 72.2436 112.85 72.7599 112.847 73.3945C112.844 74.0292 112.375 74.5433 111.796 74.5412C111.215 74.5412 110.747 74.0249 110.75 73.3895Z" fill="#00100F"/>
<path d="M122.43 69.7429C123.008 69.7429 123.478 69.2285 123.478 68.5941C123.478 67.9596 123.008 67.4453 122.43 67.4453C121.851 67.4453 121.382 67.9596 121.382 68.5941C121.382 69.2285 121.851 69.7429 122.43 69.7429Z" fill="#00100F"/>
<path d="M117.038 72.1296C117.616 72.1296 118.085 71.6152 118.085 70.9808C118.085 70.3464 117.616 69.832 117.038 69.832C116.459 69.832 115.99 70.3464 115.99 70.9808C115.99 71.6152 116.459 72.1296 117.038 72.1296Z" fill="#00100F"/>
<path d="M127.857 67.2858C128.436 67.2858 128.905 66.7715 128.905 66.137C128.905 65.5026 128.436 64.9883 127.857 64.9883C127.277 64.9883 126.808 65.5026 126.808 66.137C126.808 66.7715 127.277 67.2858 127.857 67.2858Z" fill="#00100F"/>
<path d="M138.437 62.6935C139.016 62.6935 139.485 62.1789 139.485 61.544C139.485 60.9092 139.016 60.3945 138.437 60.3945C137.858 60.3945 137.389 60.9092 137.389 61.544C137.389 62.1789 137.858 62.6935 138.437 62.6935Z" fill="#00100F"/>
<path d="M133.096 65.0788C133.675 65.0788 134.144 64.5645 134.144 63.93C134.144 63.2956 133.675 62.7812 133.096 62.7812C132.518 62.7812 132.049 63.2956 132.049 63.93C132.049 64.5645 132.518 65.0788 133.096 65.0788Z" fill="#00100F"/>
<path d="M143.474 60.4069C144.053 60.4069 144.522 59.8926 144.522 59.2581C144.522 58.6237 144.053 58.1094 143.474 58.1094C142.895 58.1094 142.426 58.6237 142.426 59.2581C142.426 59.8926 142.895 60.4069 143.474 60.4069Z" fill="#00100F"/>
<path d="M154.006 55.1676C154.585 55.1676 155.055 54.6526 155.055 54.0174C155.055 53.3822 154.585 52.8672 154.006 52.8672C153.427 52.8672 152.957 53.3822 152.957 54.0174C152.957 54.6526 153.427 55.1676 154.006 55.1676Z" fill="#00100F"/>
<path d="M148.715 58.1999C149.293 58.1999 149.763 57.6856 149.763 57.0511C149.763 56.4167 149.293 55.9023 148.715 55.9023C148.136 55.9023 147.667 56.4167 147.667 57.0511C147.667 57.6856 148.136 58.1999 148.715 58.1999Z" fill="#00100F"/>
<path d="M51.2511 69.8259C51.0006 69.8259 50.7694 69.6909 50.6452 69.4734L48.6963 66.0429V69.1288C48.6963 69.5136 48.384 69.8252 47.9992 69.8252H45.3446C44.9598 69.8252 44.6476 69.5136 44.6476 69.1288V58.9198C44.6476 58.535 44.9598 58.2234 45.3446 58.2234H47.9992C48.384 58.2234 48.6963 58.535 48.6963 58.9198V62.0545C49.0602 62.0014 49.3287 61.8851 49.511 61.702C49.9769 61.2339 49.9748 60.2387 49.9712 59.1848L49.9705 58.9191C49.9705 58.5343 50.2827 58.2227 50.6675 58.2227H53.3501C53.7349 58.2227 54.0471 58.5343 54.0471 58.9191V59.09C54.0486 60.9976 54.05 62.9642 52.3128 64.4095L54.7471 68.3541C54.8145 68.4639 54.8511 68.591 54.8511 68.7202V69.1288C54.8511 69.5136 54.5389 69.8252 54.1541 69.8252H51.2511V69.8259Z" fill="white"/>
<path d="M51.2511 69.8259C51.0006 69.8259 50.7694 69.6909 50.6452 69.4734L48.6963 66.0429V69.1288C48.6963 69.5136 48.384 69.8252 47.9992 69.8252H45.3446C44.9598 69.8252 44.6476 69.5136 44.6476 69.1288V58.9198C44.6476 58.535 44.9598 58.2234 45.3446 58.2234H47.9992C48.384 58.2234 48.6963 58.535 48.6963 58.9198V62.0545C49.0602 62.0014 49.3287 61.8851 49.511 61.702C49.9769 61.2339 49.9748 60.2387 49.9712 59.1848L49.9705 58.9191C49.9705 58.5343 50.2827 58.2227 50.6675 58.2227H53.3501C53.7349 58.2227 54.0471 58.5343 54.0471 58.9191V59.09C54.0486 60.9976 54.05 62.9642 52.3128 64.4095L54.7471 68.3541C54.8145 68.4639 54.8511 68.591 54.8511 68.7202V69.1288C54.8511 69.5136 54.5389 69.8252 54.1541 69.8252H51.2511V69.8259Z" stroke="white" stroke-width="0.5545" stroke-miterlimit="10"/>
<path d="M62.596 69.8245C62.3254 69.8245 62.0792 69.668 61.965 69.4224L61.5537 68.5408H58.4167L58.0075 69.4217C57.8934 69.6673 57.6472 69.8245 57.3758 69.8245H54.8231C54.4384 69.8245 54.1261 69.5129 54.1261 69.1281V68.7483C54.1261 68.6477 54.1483 68.5479 54.1907 68.4568L58.7821 58.4948C58.8955 58.2478 59.1425 58.0898 59.4145 58.0898H60.5387C60.81 58.0898 61.057 58.2478 61.1711 58.4941L65.7797 68.456C65.8221 68.5472 65.8443 68.6477 65.8443 68.7483V69.1281C65.8443 69.5129 65.5321 69.8245 65.1473 69.8245H62.596V69.8245Z" fill="white"/>
<path d="M62.596 69.8245C62.3254 69.8245 62.0792 69.668 61.965 69.4224L61.5537 68.5408H58.4167L58.0075 69.4217C57.8934 69.6673 57.6472 69.8245 57.3758 69.8245H54.8231C54.4384 69.8245 54.1261 69.5129 54.1261 69.1281V68.7483C54.1261 68.6477 54.1483 68.5479 54.1907 68.4568L58.7821 58.4948C58.8955 58.2478 59.1425 58.0898 59.4145 58.0898H60.5387C60.81 58.0898 61.057 58.2478 61.1711 58.4941L65.7797 68.456C65.8221 68.5472 65.8443 68.6477 65.8443 68.7483V69.1281C65.8443 69.5129 65.5321 69.8245 65.1473 69.8245H62.596V69.8245Z" stroke="white" stroke-width="0.5545" stroke-miterlimit="10"/>
<path d="M66.4896 69.8252C66.1049 69.8252 65.7926 69.5136 65.7926 69.1288V58.9191C65.7926 58.5343 66.1049 58.2227 66.4896 58.2227H70.9812C73.8483 58.2306 75.3444 60.4965 75.3415 62.7309C75.3379 64.9587 73.839 67.2139 70.9812 67.2139H69.7968V69.1288C69.7968 69.5136 69.4845 69.8252 69.0998 69.8252H66.4896ZM70.9654 63.4732C71.2418 63.4732 71.3725 63.0066 71.3739 62.6914C71.3739 62.6842 71.3725 61.9526 70.9583 61.9483C70.7501 61.9432 70.5469 61.9418 70.3431 61.9418L69.7961 61.9447V63.4732H70.9654V63.4732Z" fill="white"/>
<path d="M66.4896 69.8252C66.1049 69.8252 65.7926 69.5136 65.7926 69.1288V58.9191C65.7926 58.5343 66.1049 58.2227 66.4896 58.2227H70.9812C73.8483 58.2306 75.3444 60.4965 75.3415 62.7309C75.3379 64.9587 73.839 67.2139 70.9812 67.2139H69.7968V69.1288C69.7968 69.5136 69.4845 69.8252 69.0998 69.8252H66.4896ZM70.9654 63.4732C71.2418 63.4732 71.3725 63.0066 71.3739 62.6914C71.3739 62.6842 71.3725 61.9526 70.9583 61.9483C70.7501 61.9432 70.5469 61.9418 70.3431 61.9418L69.7961 61.9447V63.4732H70.9654V63.4732Z" stroke="white" stroke-width="0.5545" stroke-miterlimit="10"/>
<path d="M82.4856 69.8245C82.215 69.8245 81.968 69.6673 81.8539 69.4217L81.444 68.5408H78.3084L77.8971 69.4224C77.7829 69.668 77.5367 69.8245 77.2661 69.8245H74.7141C74.3294 69.8245 74.0171 69.5129 74.0171 69.1281V68.7483C74.0171 68.6477 74.0393 68.5479 74.0817 68.4568L78.6752 58.4948C78.7887 58.2478 79.0356 58.0898 79.3077 58.0898H80.4297C80.701 58.0898 80.9479 58.2478 81.0621 58.4941L85.6707 68.456C85.7131 68.5472 85.7353 68.6477 85.7353 68.7483V69.1281C85.7353 69.5129 85.423 69.8245 85.0383 69.8245H82.4856V69.8245Z" fill="white"/>
<path d="M82.4856 69.8245C82.215 69.8245 81.968 69.6673 81.8539 69.4217L81.444 68.5408H78.3084L77.8971 69.4224C77.7829 69.668 77.5367 69.8245 77.2661 69.8245H74.7141C74.3294 69.8245 74.0171 69.5129 74.0171 69.1281V68.7483C74.0171 68.6477 74.0393 68.5479 74.0817 68.4568L78.6752 58.4948C78.7887 58.2478 79.0356 58.0898 79.3077 58.0898H80.4297C80.701 58.0898 80.9479 58.2478 81.0621 58.4941L85.6707 68.456C85.7131 68.5472 85.7353 68.6477 85.7353 68.7483V69.1281C85.7353 69.5129 85.423 69.8245 85.0383 69.8245H82.4856V69.8245Z" stroke="white" stroke-width="0.5545" stroke-miterlimit="10"/>
<path d="M90.9879 70.0407C88.0404 70.0407 85.0555 67.9787 85.0555 64.0384C85.0555 60.1046 88.0397 58.0469 90.9879 58.0469C93.9361 58.0469 96.9202 60.1046 96.9202 64.0384C96.9202 67.9787 93.9354 70.0407 90.9879 70.0407ZM90.9958 61.9785C90.0683 61.9785 89.1322 62.6154 89.1322 64.0384C89.1322 65.4765 90.0683 66.1205 90.9958 66.1205C91.9225 66.1205 92.8586 65.4765 92.8586 64.0384C92.8579 62.6154 91.9225 61.9785 90.9958 61.9785Z" fill="white"/>
<path d="M90.9879 70.0407C88.0404 70.0407 85.0555 67.9787 85.0555 64.0384C85.0555 60.1046 88.0397 58.0469 90.9879 58.0469C93.9361 58.0469 96.9202 60.1046 96.9202 64.0384C96.9202 67.9787 93.9354 70.0407 90.9879 70.0407ZM90.9958 61.9785C90.0683 61.9785 89.1322 62.6154 89.1322 64.0384C89.1322 65.4765 90.0683 66.1205 90.9958 66.1205C91.9225 66.1205 92.8586 65.4765 92.8586 64.0384C92.8579 62.6154 91.9225 61.9785 90.9958 61.9785Z" stroke="white" stroke-width="0.5545" stroke-miterlimit="10"/>
<path d="M104.112 69.8259C103.862 69.8259 103.631 69.6909 103.506 69.4734L101.557 66.0429V69.1288C101.557 69.5136 101.245 69.8252 100.86 69.8252H98.2058C97.821 69.8252 97.5088 69.5136 97.5088 69.1288V58.9198C97.5088 58.535 97.821 58.2234 98.2058 58.2234H100.86C101.245 58.2234 101.557 58.535 101.557 58.9198V62.0545C101.921 62.0014 102.19 61.8851 102.372 61.702C102.839 61.2331 102.836 60.2373 102.833 59.1833L102.832 58.9191C102.832 58.5343 103.145 58.2227 103.529 58.2227H106.213C106.598 58.2227 106.91 58.5343 106.91 58.9191V59.0864C106.912 60.9955 106.913 62.9635 105.175 64.4095L107.609 68.3548C107.676 68.4646 107.713 68.5917 107.713 68.7202V69.1288C107.713 69.5136 107.401 69.8252 107.016 69.8252H104.112V69.8259Z" fill="white"/>
<path d="M104.112 69.8259C103.862 69.8259 103.631 69.6909 103.506 69.4734L101.557 66.0429V69.1288C101.557 69.5136 101.245 69.8252 100.86 69.8252H98.2058C97.821 69.8252 97.5088 69.5136 97.5088 69.1288V58.9198C97.5088 58.535 97.821 58.2234 98.2058 58.2234H100.86C101.245 58.2234 101.557 58.535 101.557 58.9198V62.0545C101.921 62.0014 102.19 61.8851 102.372 61.702C102.839 61.2331 102.836 60.2373 102.833 59.1833L102.832 58.9191C102.832 58.5343 103.145 58.2227 103.529 58.2227H106.213C106.598 58.2227 106.91 58.5343 106.91 58.9191V59.0864C106.912 60.9955 106.913 62.9635 105.175 64.4095L107.609 68.3548C107.676 68.4646 107.713 68.5917 107.713 68.7202V69.1288C107.713 69.5136 107.401 69.8252 107.016 69.8252H104.112V69.8259Z" stroke="white" stroke-width="0.5545" stroke-miterlimit="10"/>
<path d="M108.517 69.8252C108.132 69.8252 107.82 69.5136 107.82 69.1288V58.9191C107.82 58.5343 108.132 58.2227 108.517 58.2227H114.889C115.274 58.2227 115.587 58.5343 115.587 58.9191V61.2518C115.587 61.6366 115.274 61.9483 114.889 61.9483H111.808V61.9992H114.584C114.969 61.9992 115.281 62.3108 115.281 62.6957V65.0147C115.281 65.3996 114.969 65.7112 114.584 65.7112H111.808V66.1118H115.021C115.406 66.1118 115.718 66.4234 115.718 66.8083V69.128C115.718 69.5129 115.406 69.8245 115.021 69.8245H108.517V69.8252Z" fill="white"/>
<path d="M108.517 69.8252C108.132 69.8252 107.82 69.5136 107.82 69.1288V58.9191C107.82 58.5343 108.132 58.2227 108.517 58.2227H114.889C115.274 58.2227 115.587 58.5343 115.587 58.9191V61.2518C115.587 61.6366 115.274 61.9483 114.889 61.9483H111.808V61.9992H114.584C114.969 61.9992 115.281 62.3108 115.281 62.6957V65.0147C115.281 65.3996 114.969 65.7112 114.584 65.7112H111.808V66.1118H115.021C115.406 66.1118 115.718 66.4234 115.718 66.8083V69.128C115.718 69.5129 115.406 69.8245 115.021 69.8245H108.517V69.8252Z" stroke="white" stroke-width="0.5545" stroke-miterlimit="10"/>
<path d="M45.3446 69.1276V58.918C46.2204 58.918 47.0947 58.918 47.9992 58.918V62.7829H48.1887C50.7988 62.7829 50.6668 60.8278 50.6668 58.918C51.5569 58.918 52.4463 58.918 53.3494 58.918C53.3494 61.0037 53.4082 62.9286 51.381 64.226L54.1526 68.7191V69.1276H51.2504L49.0042 65.1752C48.6546 65.2326 48.333 65.2326 47.9992 65.2326V69.1276C47.0947 69.1276 46.2204 69.1276 45.3446 69.1276Z" fill="#00100F"/>
<path d="M61.9973 67.8432H57.9723L57.3758 69.1269H54.8231V68.7471L59.4145 58.7852H60.5387L65.1473 68.7471V69.1269H62.5953L61.9973 67.8432ZM59.9708 62.9279L58.8194 65.6117H61.1524L59.9708 62.9279Z" fill="#00100F"/>
<path d="M66.4896 69.1276C66.4896 65.7287 66.4896 62.3305 66.4896 58.918C67.9634 58.918 69.4788 58.918 70.9812 58.918C75.8662 58.9323 75.8662 66.5163 70.9812 66.5163H69.0997V69.1276C68.2254 69.1276 67.3496 69.1276 66.4896 69.1276ZM70.9654 61.2507C70.3531 61.2363 69.6977 61.2507 69.099 61.2507C69.099 62.0821 69.099 63.3364 69.099 64.1686H70.9654C72.3954 64.1693 72.483 61.2658 70.9654 61.2507Z" fill="#00100F"/>
<path d="M81.8883 67.8432H77.8648L77.2661 69.1269H74.7141V68.7471L79.3076 58.7852H80.4297L85.0383 68.7471V69.1269H82.4849L81.8883 67.8432ZM79.8618 62.9279L78.709 65.6117H81.0434L79.8618 62.9279Z" fill="#00100F"/>
<path d="M85.7526 64.0371C85.7526 56.9772 96.2232 56.9772 96.2232 64.0371C96.2232 71.1121 85.7526 71.1121 85.7526 64.0371ZM93.5549 64.0371C93.5549 60.3618 88.4352 60.3618 88.4352 64.0371C88.4352 67.7426 93.5549 67.7426 93.5549 64.0371Z" fill="#00100F"/>
<path d="M98.2065 69.1276V58.918C99.0823 58.918 99.9567 58.918 100.861 58.918V62.7829H101.051C103.661 62.7829 103.529 60.8278 103.529 58.918C104.42 58.918 105.309 58.918 106.213 58.918C106.213 61.0037 106.271 62.9286 104.244 64.226L107.015 68.7191V69.1276H104.112L101.866 65.1752C101.517 65.2326 101.195 65.2326 100.861 65.2326V69.1276C99.9567 69.1276 99.0816 69.1276 98.2065 69.1276Z" fill="#00100F"/>
<path d="M114.889 61.2507C113.373 61.2507 112.615 61.2507 111.111 61.2507V62.6953H114.584C114.584 63.4685 114.584 64.2411 114.584 65.0143H111.111C111.111 65.6124 111.111 66.1954 111.111 66.8078C112.615 66.8078 113.489 66.8078 115.02 66.8078C115.02 67.5667 115.02 68.3544 115.02 69.1276C112.63 69.1276 110.88 69.1276 108.516 69.1276C108.516 65.7151 108.516 62.3018 108.516 58.918C110.88 58.918 112.498 58.918 114.889 58.918C114.889 59.6754 114.889 60.4623 114.889 61.2507Z" fill="#00100F"/>
<path d="M20.916 53.3897C20.2592 53.3897 19.7266 52.857 19.7266 52.2V34.7639C19.7266 34.107 20.2592 33.5742 20.916 33.5742H33.444C34.1008 33.5742 34.6335 34.107 34.6335 34.7639V38.7494C34.6335 39.4064 34.1008 39.9391 33.444 39.9391H30.8002C34.2394 40.8043 36.0283 43.6733 36.0326 46.5136C36.0383 49.9197 33.4821 53.3754 28.5892 53.3897C28.5885 53.3897 20.916 53.3897 20.916 53.3897ZM28.5619 47.0248C28.7277 47.0248 28.9531 46.9961 29.0852 46.8597C29.1656 46.7757 29.2123 46.6501 29.2123 46.5151C29.2123 46.3198 29.1276 45.9917 28.5626 45.9917H26.5648V47.0256H28.5619V47.0248Z" fill="white"/>
<path d="M20.916 53.3897C20.2592 53.3897 19.7266 52.857 19.7266 52.2V34.7639C19.7266 34.107 20.2592 33.5742 20.916 33.5742H33.444C34.1008 33.5742 34.6335 34.107 34.6335 34.7639V38.7494C34.6335 39.4064 34.1008 39.9391 33.444 39.9391H30.8002C34.2394 40.8043 36.0283 43.6733 36.0326 46.5136C36.0383 49.9197 33.4821 53.3754 28.5892 53.3897C28.5885 53.3897 20.916 53.3897 20.916 53.3897ZM28.5619 47.0248C28.7277 47.0248 28.9531 46.9961 29.0852 46.8597C29.1656 46.7757 29.2123 46.6501 29.2123 46.5151C29.2123 46.3198 29.1276 45.9917 28.5626 45.9917H26.5648V47.0256H28.5619V47.0248Z" stroke="white" stroke-width="0.9469" stroke-miterlimit="10"/>
<path d="M46.0696 53.7559C41.0353 53.7559 35.9399 50.235 35.9399 43.5054C35.9399 36.7879 41.036 33.2734 46.0696 33.2734C51.1031 33.2734 56.1992 36.7879 56.1992 43.5054C56.1992 50.2343 51.1031 53.7559 46.0696 53.7559ZM46.081 39.988C44.4975 39.988 42.8995 41.0757 42.8995 43.5054C42.8995 45.9616 44.4975 47.0608 46.081 47.0608C47.6646 47.0608 49.2626 45.9616 49.2626 43.5054C49.2626 41.0757 47.6646 39.988 46.081 39.988Z" fill="white"/>
<path d="M46.0696 53.7559C41.0353 53.7559 35.9399 50.235 35.9399 43.5054C35.9399 36.7879 41.036 33.2734 46.0696 33.2734C51.1031 33.2734 56.1992 36.7879 56.1992 43.5054C56.1992 50.2343 51.1031 53.7559 46.0696 53.7559ZM46.081 39.988C44.4975 39.988 42.8995 41.0757 42.8995 43.5054C42.8995 45.9616 44.4975 47.0608 46.081 47.0608C47.6646 47.0608 49.2626 45.9616 49.2626 43.5054C49.2626 41.0757 47.6646 39.988 46.081 39.988Z" stroke="white" stroke-width="0.9469" stroke-miterlimit="10"/>
<path d="M59.4424 53.3897C58.7856 53.3897 58.253 52.857 58.253 52.2V51.7276C58.253 51.5474 58.2946 51.3686 58.3729 51.2071L60.843 46.1317L55.2631 36.011C55.1662 35.8351 55.1152 35.637 55.1152 35.4367V34.7639C55.1152 34.107 55.6479 33.5742 56.3047 33.5742H61.2852C61.7317 33.5742 62.1401 33.8248 62.3447 34.2218L64.5866 38.6044L66.6073 34.262C66.8019 33.8427 67.2225 33.5742 67.6856 33.5742H72.516C73.1728 33.5742 73.7055 34.107 73.7055 34.7639V35.4367C73.7055 35.619 73.6631 35.7992 73.5827 35.9629L65.3159 52.7263C65.1156 53.1327 64.7022 53.3897 64.2492 53.3897H59.4424V53.3897Z" fill="white"/>
<path d="M59.4424 53.3897C58.7856 53.3897 58.253 52.857 58.253 52.2V51.7276C58.253 51.5474 58.2946 51.3686 58.3729 51.2071L60.843 46.1317L55.2631 36.011C55.1662 35.8351 55.1152 35.637 55.1152 35.4367V34.7639C55.1152 34.107 55.6479 33.5742 56.3047 33.5742H61.2852C61.7317 33.5742 62.1401 33.8248 62.3447 34.2218L64.5866 38.6044L66.6073 34.262C66.8019 33.8427 67.2225 33.5742 67.6856 33.5742H72.516C73.1728 33.5742 73.7055 34.107 73.7055 34.7639V35.4367C73.7055 35.619 73.6631 35.7992 73.5827 35.9629L65.3159 52.7263C65.1156 53.1327 64.7022 53.3897 64.2492 53.3897H59.4424V53.3897Z" stroke="white" stroke-width="0.9469" stroke-miterlimit="10"/>
<path d="M84.4467 53.3865C83.975 53.3865 83.5472 53.1072 83.357 52.6749L79.9694 44.9574L76.6213 52.6706C76.4318 53.105 76.004 53.3865 75.5295 53.3865H71.1714C70.5146 53.3865 69.9819 52.8537 69.9819 52.1968V51.5491C69.9819 51.3768 70.0193 51.2067 70.091 51.0509L77.9365 34.0391C78.131 33.6176 78.5524 33.3477 79.0168 33.3477H80.9342C81.3979 33.3477 81.8186 33.6169 82.0139 34.0376L89.8837 51.0494C89.9562 51.206 89.9935 51.3768 89.9935 51.5491V52.1968C89.9935 52.8537 89.4609 53.3865 88.804 53.3865H84.4467V53.3865Z" fill="white"/>
<path d="M84.4467 53.3865C83.975 53.3865 83.5472 53.1072 83.357 52.6749L79.9694 44.9574L76.6213 52.6706C76.4318 53.105 76.004 53.3865 75.5295 53.3865H71.1714C70.5146 53.3865 69.9819 52.8537 69.9819 52.1968V51.5491C69.9819 51.3768 70.0193 51.2067 70.091 51.0509L77.9365 34.0391C78.131 33.6176 78.5524 33.3477 79.0168 33.3477H80.9342C81.3979 33.3477 81.8186 33.6169 82.0139 34.0376L89.8837 51.0494C89.9562 51.206 89.9935 51.3768 89.9935 51.5491V52.1968C89.9935 52.8537 89.4609 53.3865 88.804 53.3865H84.4467V53.3865Z" stroke="white" stroke-width="0.9469" stroke-miterlimit="10"/>
<path d="M91.1199 53.4153C90.4631 53.4153 89.9304 52.8826 89.9304 52.2256V34.7644C89.9304 34.1074 90.4631 33.5747 91.1199 33.5747H95.6776C96.3344 33.5747 96.867 34.1074 96.867 34.7644V40.4816L103.663 33.8389C103.885 33.6213 104.184 33.5 104.494 33.5H106.114C106.771 33.5 107.303 34.0327 107.303 34.6897V52.2005C107.303 52.8574 106.771 53.3902 106.114 53.3902H101.506C100.849 53.3902 100.316 52.8574 100.316 52.2005V46.4588L93.5462 53.0764C93.3237 53.294 93.0251 53.4153 92.715 53.4153H91.1199Z" fill="white"/>
<path d="M91.1199 53.4153C90.4631 53.4153 89.9304 52.8826 89.9304 52.2256V34.7644C89.9304 34.1074 90.4631 33.5747 91.1199 33.5747H95.6776C96.3344 33.5747 96.867 34.1074 96.867 34.7644V40.4816L103.663 33.8389C103.885 33.6213 104.184 33.5 104.494 33.5H106.114C106.771 33.5 107.303 34.0327 107.303 34.6897V52.2005C107.303 52.8574 106.771 53.3902 106.114 53.3902H101.506C100.849 53.3902 100.316 52.8574 100.316 52.2005V46.4588L93.5462 53.0764C93.3237 53.294 93.0251 53.4153 92.715 53.4153H91.1199Z" stroke="white" stroke-width="0.9469" stroke-miterlimit="10"/>
<path d="M120.532 53.3897C119.875 53.3897 119.342 52.857 119.342 52.2V46.3909H116.341V52.2C116.341 52.857 115.808 53.3897 115.151 53.3897H110.594C109.937 53.3897 109.404 52.857 109.404 52.2V34.7639C109.404 34.107 109.937 33.5742 110.594 33.5742H115.151C115.808 33.5742 116.341 34.107 116.341 34.7639V39.9011H119.342V34.7639C119.342 34.107 119.875 33.5742 120.532 33.5742H125.09C125.747 33.5742 126.28 34.107 126.28 34.7639V52.2C126.28 52.857 125.747 53.3897 125.09 53.3897H120.532V53.3897Z" fill="white"/>
<path d="M120.532 53.3897C119.875 53.3897 119.342 52.857 119.342 52.2V46.3909H116.341V52.2C116.341 52.857 115.808 53.3897 115.151 53.3897H110.594C109.937 53.3897 109.404 52.857 109.404 52.2V34.7639C109.404 34.107 109.937 33.5742 110.594 33.5742H115.151C115.808 33.5742 116.341 34.107 116.341 34.7639V39.9011H119.342V34.7639C119.342 34.107 119.875 33.5742 120.532 33.5742H125.09C125.747 33.5742 126.28 34.107 126.28 34.7639V52.2C126.28 52.857 125.747 53.3897 125.09 53.3897H120.532V53.3897Z" stroke="white" stroke-width="0.9469" stroke-miterlimit="10"/>
<path d="M129.547 53.3897C128.89 53.3897 128.358 52.857 128.358 52.2V34.7639C128.358 34.107 128.89 33.5742 129.547 33.5742H140.405C141.062 33.5742 141.595 34.107 141.595 34.7639V38.7494C141.595 39.4064 141.062 39.9391 140.405 39.9391H135.268V52.2C135.268 52.857 134.736 53.3897 134.079 53.3897H129.547V53.3897Z" fill="white"/>
<path d="M129.547 53.3897C128.89 53.3897 128.358 52.857 128.358 52.2V34.7639C128.358 34.107 128.89 33.5742 129.547 33.5742H140.405C141.062 33.5742 141.595 34.107 141.595 34.7639V38.7494C141.595 39.4064 141.062 39.9391 140.405 39.9391H135.268V52.2C135.268 52.857 134.736 53.3897 134.079 53.3897H129.547V53.3897Z" stroke="white" stroke-width="0.9469" stroke-miterlimit="10"/>
<path d="M28.5856 40.8684C36.9292 40.8684 36.9292 52.1773 28.5856 52.2018H20.916V34.7656H33.444V38.7511H25.3746V40.8684H28.5856ZM25.3746 44.803V48.2163C26.3954 48.2163 27.5152 48.2163 28.5619 48.2163C31.027 48.2163 31.0018 44.803 28.5619 44.803H25.3746Z" fill="#00100F"/>
<path d="M37.1294 43.5071C37.1294 31.4508 55.0097 31.4508 55.0097 43.5071C55.0097 55.5878 37.1294 55.5878 37.1294 43.5071ZM50.452 43.5071C50.452 37.2305 41.71 37.2305 41.71 43.5071C41.71 49.8339 50.452 49.8339 50.452 43.5071Z" fill="#00100F"/>
<path d="M59.4424 51.7293L62.1825 46.0996L56.3047 35.4384V34.7656H61.2852L64.5729 41.1915H64.6957L67.6855 34.7656H72.516V35.4384L64.2492 52.2018H59.4424V51.7293Z" fill="#00100F"/>
<path d="M75.5302 52.1992H71.1721V51.5516L79.0168 34.5391H80.9342L88.804 51.5509V52.1985H84.4466L79.9637 41.9859L75.5302 52.1992Z" fill="#00100F"/>
<path d="M92.7142 52.2273H91.1191V34.7661C92.6381 34.7661 94.1585 34.7661 95.6768 34.7661V43.31L104.493 34.6914H106.113V52.2022C104.593 52.2022 103.048 52.2022 101.505 52.2022V43.6338L92.7142 52.2273Z" fill="#00100F"/>
<path d="M125.09 52.2018C123.57 52.2018 122.051 52.2018 120.532 52.2018V45.2029H115.151V52.2018C113.634 52.2018 112.088 52.2018 110.594 52.2018V34.7656C112.088 34.7656 113.633 34.7656 115.151 34.7656V41.0925H120.532V34.7656C122.051 34.7656 123.57 34.7656 125.09 34.7656V52.2018Z" fill="#00100F"/>
<path d="M134.078 52.2018C132.584 52.2018 131.065 52.2018 129.547 52.2018V34.7656C133.109 34.7656 136.844 34.7656 140.405 34.7656C140.405 36.2346 140.405 37.257 140.405 38.7511H134.079V52.2018H134.078Z" fill="#00100F"/>
<path d="M57.7691 26.4494C56.5797 26.4494 55.622 26.2053 54.9236 25.7228C54.1318 25.1786 53.7133 24.3809 53.7133 23.4181C53.7133 22.9895 53.7966 22.4811 53.9674 21.8644C54.0191 21.7007 54.0751 21.5305 54.1361 21.3467C54.0586 21.514 53.9796 21.6827 53.9006 21.8543C53.5202 22.6901 53.1591 23.5071 52.8203 24.3019C52.7183 24.5417 52.5166 24.7248 52.2682 24.8031L48.2605 26.0725C48.1722 26.1005 48.0817 26.1141 47.9913 26.1141C47.7508 26.1141 47.5161 26.0165 47.3452 25.837C47.1098 25.59 47.0358 25.2303 47.1543 24.91L49.6675 18.1503C49.2647 19.0521 48.8075 19.9366 48.3078 20.7738C47.7673 21.6799 47.1449 22.5745 46.4579 23.4332C45.0014 25.2978 43.3941 26.2469 41.6885 26.2469C40.8228 26.2469 39.9973 25.9827 39.2342 25.4615C38.6118 25.0938 38.2701 24.2122 38.0641 22.4531C38.0605 22.4187 38.0583 22.3842 38.0583 22.349C38.0583 21.43 38.7152 21.1866 39.0626 21.1866C39.3584 21.1866 39.8939 21.3087 40.1976 22.1157C40.4072 22.5486 40.7489 22.9629 41.2119 23.347C41.5995 23.6471 41.9728 23.8158 42.2693 23.8158C42.3569 23.8158 42.6225 23.8158 42.9893 23.365C43.2456 23.049 43.7358 22.2593 44.6152 20.2855L45.7272 17.7676C46.4802 16.0789 47.1751 14.6659 47.7924 13.566C48.4421 12.4064 49.282 11.3273 50.2891 10.3588C51.4061 9.28323 52.6781 8.73828 54.0708 8.73828C54.9401 8.73828 55.6788 8.99388 56.2667 9.49934C56.8618 10.0113 57.187 10.6991 57.2107 11.4946C57.5667 11.0688 57.9378 10.6725 58.3219 10.3085C59.357 9.32559 60.4819 8.82731 61.6635 8.82731C62.2414 8.82731 62.741 8.97952 63.148 9.27892C63.6268 9.63001 63.891 10.1513 63.891 10.745C63.891 10.8219 63.8809 10.8987 63.8616 10.9726L63.7503 11.3948C63.7395 11.4343 63.7273 11.4731 63.7108 11.5104L61.3067 17.2786L60.2134 19.8461C59.9981 20.3645 59.8071 20.8377 59.6485 21.2591C59.4453 21.7675 59.2874 22.1968 59.1725 22.5529C58.9206 23.3355 58.8423 23.7606 58.8215 23.9817C58.8818 24.0047 58.9378 24.0154 58.9902 24.0154C59.3664 24.0154 60.3211 23.8489 62.4768 22.7339C62.6053 22.6671 62.746 22.6341 62.8867 22.6341C63.0138 22.6341 63.1408 22.6613 63.2593 22.7152C63.5091 22.8293 63.6921 23.0526 63.7553 23.3197L63.8666 23.7871C63.9606 24.1827 63.7754 24.5927 63.4165 24.783C62.4151 25.3143 61.4367 25.7257 60.507 26.0071C59.5465 26.3015 58.6248 26.4494 57.7691 26.4494Z" fill="white"/>
<path d="M57.7691 26.4494C56.5797 26.4494 55.622 26.2053 54.9236 25.7228C54.1318 25.1786 53.7133 24.3809 53.7133 23.4181C53.7133 22.9895 53.7966 22.4811 53.9674 21.8644C54.0191 21.7007 54.0751 21.5305 54.1361 21.3467C54.0586 21.514 53.9796 21.6827 53.9006 21.8543C53.5202 22.6901 53.1591 23.5071 52.8203 24.3019C52.7183 24.5417 52.5166 24.7248 52.2682 24.8031L48.2605 26.0725C48.1722 26.1005 48.0817 26.1141 47.9913 26.1141C47.7508 26.1141 47.5161 26.0165 47.3452 25.837C47.1098 25.59 47.0358 25.2303 47.1543 24.91L49.6675 18.1503C49.2647 19.0521 48.8075 19.9366 48.3078 20.7738C47.7673 21.6799 47.1449 22.5745 46.4579 23.4332C45.0014 25.2978 43.3941 26.2469 41.6885 26.2469C40.8228 26.2469 39.9973 25.9827 39.2342 25.4615C38.6118 25.0938 38.2701 24.2122 38.0641 22.4531C38.0605 22.4187 38.0583 22.3842 38.0583 22.349C38.0583 21.43 38.7152 21.1866 39.0626 21.1866C39.3584 21.1866 39.8939 21.3087 40.1976 22.1157C40.4072 22.5486 40.7489 22.9629 41.2119 23.347C41.5995 23.6471 41.9728 23.8158 42.2693 23.8158C42.3569 23.8158 42.6225 23.8158 42.9893 23.365C43.2456 23.049 43.7358 22.2593 44.6152 20.2855L45.7272 17.7676C46.4802 16.0789 47.1751 14.6659 47.7924 13.566C48.4421 12.4064 49.282 11.3273 50.2891 10.3588C51.4061 9.28323 52.6781 8.73828 54.0708 8.73828C54.9401 8.73828 55.6788 8.99388 56.2667 9.49934C56.8618 10.0113 57.187 10.6991 57.2107 11.4946C57.5667 11.0688 57.9378 10.6725 58.3219 10.3085C59.357 9.32559 60.4819 8.82731 61.6635 8.82731C62.2414 8.82731 62.741 8.97952 63.148 9.27892C63.6268 9.63001 63.891 10.1513 63.891 10.745C63.891 10.8219 63.8809 10.8987 63.8616 10.9726L63.7503 11.3948C63.7395 11.4343 63.7273 11.4731 63.7108 11.5104L61.3067 17.2786L60.2134 19.8461C59.9981 20.3645 59.8071 20.8377 59.6485 21.2591C59.4453 21.7675 59.2874 22.1968 59.1725 22.5529C58.9206 23.3355 58.8423 23.7606 58.8215 23.9817C58.8818 24.0047 58.9378 24.0154 58.9902 24.0154C59.3664 24.0154 60.3211 23.8489 62.4768 22.7339C62.6053 22.6671 62.746 22.6341 62.8867 22.6341C63.0138 22.6341 63.1408 22.6613 63.2593 22.7152C63.5091 22.8293 63.6921 23.0526 63.7553 23.3197L63.8666 23.7871C63.9606 24.1827 63.7754 24.5927 63.4165 24.783C62.4151 25.3143 61.4367 25.7257 60.507 26.0071C59.5465 26.3015 58.6248 26.4494 57.7691 26.4494Z" stroke="white" stroke-width="0.9948" stroke-miterlimit="10"/>
<path d="M65.5392 26.2499C61.6807 26.2499 61.105 24.0536 61.105 22.7454C61.105 22.0928 61.2098 21.438 61.4158 20.7975C61.6175 20.1743 61.9363 19.5245 62.3634 18.8662C63.1753 17.6355 64.209 16.6928 65.4408 16.0589C66.2692 15.5649 67.0445 15.3114 67.7652 15.3114C67.8155 15.3114 67.8657 15.3143 67.9138 15.3201C68.3869 14.8175 69.0143 14.5547 69.7479 14.5547C70.6251 14.5547 71.3703 14.9388 71.9029 15.664C72.3803 16.3216 72.6201 17.1983 72.6201 18.2753C72.6201 19.2172 72.4736 20.1039 72.1843 20.9224C72.2245 20.9239 72.2654 20.9239 72.3078 20.9239C72.8397 20.9239 73.3236 20.8349 73.7449 20.6582C73.8548 20.6123 73.9718 20.5893 74.0888 20.5893C74.2237 20.5893 74.358 20.6195 74.4822 20.6805C74.7133 20.7939 74.8849 21.0014 74.9509 21.2506L75.0407 21.5851C75.1548 22.0123 74.9394 22.4589 74.5346 22.6355C73.844 22.9357 73.1549 23.0879 72.4858 23.0879C72.0436 23.0879 71.6122 23.0455 71.1973 22.9629C69.8111 25.1449 67.9109 26.2499 65.5392 26.2499ZM67.2965 19.5741C67.0825 20.0494 66.8736 20.5527 66.6726 21.0782C66.2915 22.0748 66.0969 22.9594 66.0969 23.7061C66.0969 23.8963 66.1328 23.9904 66.1508 24.0126C66.771 23.9976 67.5161 23.0441 68.1974 21.3633C67.7875 20.7946 67.4867 20.1966 67.2965 19.5741Z" fill="white"/>
<path d="M65.5392 26.2499C61.6807 26.2499 61.105 24.0536 61.105 22.7454C61.105 22.0928 61.2098 21.438 61.4158 20.7975C61.6175 20.1743 61.9363 19.5245 62.3634 18.8662C63.1753 17.6355 64.209 16.6928 65.4408 16.0589C66.2692 15.5649 67.0445 15.3114 67.7652 15.3114C67.8155 15.3114 67.8657 15.3143 67.9138 15.3201C68.3869 14.8175 69.0143 14.5547 69.7479 14.5547C70.6251 14.5547 71.3703 14.9388 71.9029 15.664C72.3803 16.3216 72.6201 17.1983 72.6201 18.2753C72.6201 19.2172 72.4736 20.1039 72.1843 20.9224C72.2245 20.9239 72.2654 20.9239 72.3078 20.9239C72.8397 20.9239 73.3236 20.8349 73.7449 20.6582C73.8548 20.6123 73.9718 20.5893 74.0888 20.5893C74.2237 20.5893 74.358 20.6195 74.4822 20.6805C74.7133 20.7939 74.8849 21.0014 74.9509 21.2506L75.0407 21.5851C75.1548 22.0123 74.9394 22.4589 74.5346 22.6355C73.844 22.9357 73.1549 23.0879 72.4858 23.0879C72.0436 23.0879 71.6122 23.0455 71.1973 22.9629C69.8111 25.1449 67.9109 26.2499 65.5392 26.2499ZM67.2965 19.5741C67.0825 20.0494 66.8736 20.5527 66.6726 21.0782C66.2915 22.0748 66.0969 22.9594 66.0969 23.7061C66.0969 23.8963 66.1328 23.9904 66.1508 24.0126C66.771 23.9976 67.5161 23.0441 68.1974 21.3633C67.7875 20.7946 67.4867 20.1966 67.2965 19.5741Z" stroke="white" stroke-width="0.9948" stroke-miterlimit="10"/>
<path d="M73.2855 30.4983C73.0436 30.4983 72.8081 30.4 72.6373 30.219C72.4061 29.9742 72.3315 29.621 72.4456 29.3036L73.778 25.5917C72.961 25.0481 72.8175 24.3007 72.8175 23.8427C72.8175 23.3997 72.9524 22.7793 73.6014 22.3464C73.5877 22.2933 73.5798 22.2387 73.5762 22.1827L73.5317 21.4468C73.5303 20.3454 73.9337 19.3833 74.7291 18.5318C75.3522 17.8648 76.06 17.3177 76.8389 16.9012L76.9868 16.4827C77.0916 16.1854 77.3457 15.9657 77.6551 15.904L81.1295 15.2125C81.1869 15.2011 81.2458 15.1953 81.3032 15.1953C81.5566 15.1953 81.8014 15.303 81.973 15.4976C82.0728 15.611 82.1402 15.7453 82.1733 15.8874L82.6233 15.8451C82.6506 15.8429 82.6786 15.8415 82.7059 15.8415C83.9377 15.8415 84.9248 16.138 85.6405 16.7232C86.4122 17.3493 86.8041 18.2532 86.8041 19.4084C86.8041 21.2342 85.8666 22.8447 84.0131 24.211C84.1481 24.2318 84.2766 24.2426 84.3979 24.2426C84.8903 24.2426 85.7876 23.9582 87.27 22.6056C87.4344 22.4548 87.649 22.3722 87.8716 22.3722C87.8895 22.3722 87.9082 22.373 87.9261 22.3737C88.1666 22.3887 88.3913 22.5 88.5485 22.6838L88.8155 22.9954C88.9728 23.1778 89.0488 23.4169 89.0273 23.6567C89.0058 23.8965 88.888 24.1176 88.7007 24.2699C88.3044 24.5915 87.9168 24.8888 87.5421 25.1645C87.1724 25.4366 86.812 25.6828 86.4725 25.8939C85.7489 26.3384 84.9097 26.5631 83.9751 26.5631C83.0052 26.5631 81.9723 26.3448 80.8983 25.9147C80.1805 26.1567 79.444 26.306 78.6988 26.3613L77.8726 28.7831C77.7793 29.0566 77.5589 29.2677 77.2825 29.3503L73.5411 30.4624C73.4556 30.4861 73.3702 30.4983 73.2855 30.4983ZM80.3707 22.7607C80.7131 22.2057 81.0118 21.6047 81.2623 20.9657C81.5825 20.1487 81.7454 19.4608 81.7454 18.9202C81.7454 18.6179 81.6923 18.381 81.5997 18.2711C81.5681 18.2338 81.5401 18.2087 81.5078 18.1922L79.9824 22.6171L80.3707 22.7607Z" fill="white"/>
<path d="M73.2855 30.4983C73.0436 30.4983 72.8081 30.4 72.6373 30.219C72.4061 29.9742 72.3315 29.621 72.4456 29.3036L73.778 25.5917C72.961 25.0481 72.8175 24.3007 72.8175 23.8427C72.8175 23.3997 72.9524 22.7793 73.6014 22.3464C73.5877 22.2933 73.5798 22.2387 73.5762 22.1827L73.5317 21.4468C73.5303 20.3454 73.9337 19.3833 74.7291 18.5318C75.3522 17.8648 76.06 17.3177 76.8389 16.9012L76.9868 16.4827C77.0916 16.1854 77.3457 15.9657 77.6551 15.904L81.1295 15.2125C81.1869 15.2011 81.2458 15.1953 81.3032 15.1953C81.5566 15.1953 81.8014 15.303 81.973 15.4976C82.0728 15.611 82.1402 15.7453 82.1733 15.8874L82.6233 15.8451C82.6506 15.8429 82.6786 15.8415 82.7059 15.8415C83.9377 15.8415 84.9248 16.138 85.6405 16.7232C86.4122 17.3493 86.8041 18.2532 86.8041 19.4084C86.8041 21.2342 85.8666 22.8447 84.0131 24.211C84.1481 24.2318 84.2766 24.2426 84.3979 24.2426C84.8903 24.2426 85.7876 23.9582 87.27 22.6056C87.4344 22.4548 87.649 22.3722 87.8716 22.3722C87.8895 22.3722 87.9082 22.373 87.9261 22.3737C88.1666 22.3887 88.3913 22.5 88.5485 22.6838L88.8155 22.9954C88.9728 23.1778 89.0488 23.4169 89.0273 23.6567C89.0058 23.8965 88.888 24.1176 88.7007 24.2699C88.3044 24.5915 87.9168 24.8888 87.5421 25.1645C87.1724 25.4366 86.812 25.6828 86.4725 25.8939C85.7489 26.3384 84.9097 26.5631 83.9751 26.5631C83.0052 26.5631 81.9723 26.3448 80.8983 25.9147C80.1805 26.1567 79.444 26.306 78.6988 26.3613L77.8726 28.7831C77.7793 29.0566 77.5589 29.2677 77.2825 29.3503L73.5411 30.4624C73.4556 30.4861 73.3702 30.4983 73.2855 30.4983ZM80.3707 22.7607C80.7131 22.2057 81.0118 21.6047 81.2623 20.9657C81.5825 20.1487 81.7454 19.4608 81.7454 18.9202C81.7454 18.6179 81.6923 18.381 81.5997 18.2711C81.5681 18.2338 81.5401 18.2087 81.5078 18.1922L79.9824 22.6171L80.3707 22.7607Z" stroke="white" stroke-width="0.9948" stroke-miterlimit="10"/>
<path d="M90.9878 26.2489C87.092 26.2489 86.5112 24.3226 86.5112 23.1738C86.5112 22.3144 86.7409 21.2862 87.2147 20.0298C88.4107 16.9539 90.5843 15.332 93.5045 15.332C96.279 15.332 96.5784 17.0782 96.5784 17.8284C96.5784 18.927 96.0651 19.9695 95.053 20.9272C94.2303 21.7048 93.1126 22.4056 91.725 23.0115V23.2176C91.725 23.5507 91.8262 23.6893 91.9145 23.7719C92.0251 23.8667 92.2483 23.9284 92.5469 23.9284C93.7493 23.9284 94.9941 23.4876 96.2475 22.6181C96.3982 22.5133 96.5755 22.4587 96.7564 22.4587C96.8146 22.4587 96.8727 22.4644 96.9309 22.4759C97.1685 22.5233 97.3766 22.6655 97.5073 22.8694L97.7298 23.2154C97.8583 23.415 97.9014 23.657 97.8511 23.8889C97.8009 24.1208 97.6595 24.3226 97.4599 24.4504C96.4571 25.0915 95.4255 25.5647 94.394 25.8569C93.8656 25.9904 93.3416 26.0881 92.8125 26.1534C92.2856 26.2173 91.6891 26.2489 90.9878 26.2489Z" fill="white"/>
<path d="M90.9878 26.2489C87.092 26.2489 86.5112 24.3226 86.5112 23.1738C86.5112 22.3144 86.7409 21.2862 87.2147 20.0298C88.4107 16.9539 90.5843 15.332 93.5045 15.332C96.279 15.332 96.5784 17.0782 96.5784 17.8284C96.5784 18.927 96.0651 19.9695 95.053 20.9272C94.2303 21.7048 93.1126 22.4056 91.725 23.0115V23.2176C91.725 23.5507 91.8262 23.6893 91.9145 23.7719C92.0251 23.8667 92.2483 23.9284 92.5469 23.9284C93.7493 23.9284 94.9941 23.4876 96.2475 22.6181C96.3982 22.5133 96.5755 22.4587 96.7564 22.4587C96.8146 22.4587 96.8727 22.4644 96.9309 22.4759C97.1685 22.5233 97.3766 22.6655 97.5073 22.8694L97.7298 23.2154C97.8583 23.415 97.9014 23.657 97.8511 23.8889C97.8009 24.1208 97.6595 24.3226 97.4599 24.4504C96.4571 25.0915 95.4255 25.5647 94.394 25.8569C93.8656 25.9904 93.3416 26.0881 92.8125 26.1534C92.2856 26.2173 91.6891 26.2489 90.9878 26.2489Z" stroke="white" stroke-width="0.9948" stroke-miterlimit="10"/>
<path d="M99.7621 26.2467C95.9043 26.2467 95.3286 24.0504 95.3286 22.7422C95.3286 22.0874 95.4334 21.4319 95.6394 20.7929C95.8383 20.1769 96.157 19.5271 96.5856 18.8637C97.3982 17.6309 98.4326 16.6882 99.6659 16.0542C100.494 15.5603 101.268 15.3075 101.987 15.3075C102.038 15.3075 102.088 15.3104 102.137 15.3161C102.609 14.8136 103.236 14.5508 103.97 14.5508C104.849 14.5508 105.594 14.9349 106.126 15.6615C106.603 16.3156 106.844 17.1937 106.844 18.2714C106.844 19.2133 106.698 20.1 106.409 20.9185C106.449 20.92 106.489 20.92 106.531 20.92C107.063 20.92 107.546 20.8309 107.967 20.6543C108.077 20.6084 108.194 20.5854 108.311 20.5854C108.446 20.5854 108.58 20.6156 108.704 20.6766C108.936 20.79 109.107 20.9975 109.173 21.2467L109.263 21.5812C109.377 22.0084 109.162 22.455 108.757 22.6309C108.067 22.931 107.378 23.0832 106.709 23.0832C106.267 23.0832 105.835 23.0409 105.42 22.9583C104.035 25.1417 102.135 26.2467 99.7621 26.2467ZM101.519 19.5723C101.306 20.0462 101.097 20.5495 100.895 21.0758C100.514 22.0731 100.319 22.9576 100.319 23.7029C100.319 23.8917 100.354 23.9843 100.373 24.0066C100.994 23.9944 101.74 23.0409 102.421 21.3601C102.01 20.7915 101.71 20.1941 101.519 19.5723Z" fill="white"/>
<path d="M99.7621 26.2467C95.9043 26.2467 95.3286 24.0504 95.3286 22.7422C95.3286 22.0874 95.4334 21.4319 95.6394 20.7929C95.8383 20.1769 96.157 19.5271 96.5856 18.8637C97.3982 17.6309 98.4326 16.6882 99.6659 16.0542C100.494 15.5603 101.268 15.3075 101.987 15.3075C102.038 15.3075 102.088 15.3104 102.137 15.3161C102.609 14.8136 103.236 14.5508 103.97 14.5508C104.849 14.5508 105.594 14.9349 106.126 15.6615C106.603 16.3156 106.844 17.1937 106.844 18.2714C106.844 19.2133 106.698 20.1 106.409 20.9185C106.449 20.92 106.489 20.92 106.531 20.92C107.063 20.92 107.546 20.8309 107.967 20.6543C108.077 20.6084 108.194 20.5854 108.311 20.5854C108.446 20.5854 108.58 20.6156 108.704 20.6766C108.936 20.79 109.107 20.9975 109.173 21.2467L109.263 21.5812C109.377 22.0084 109.162 22.455 108.757 22.6309C108.067 22.931 107.378 23.0832 106.709 23.0832C106.267 23.0832 105.835 23.0409 105.42 22.9583C104.035 25.1417 102.135 26.2467 99.7621 26.2467ZM101.519 19.5723C101.306 20.0462 101.097 20.5495 100.895 21.0758C100.514 22.0731 100.319 22.9576 100.319 23.7029C100.319 23.8917 100.354 23.9843 100.373 24.0066C100.994 23.9944 101.74 23.0409 102.421 21.3601C102.01 20.7915 101.71 20.1941 101.519 19.5723Z" stroke="white" stroke-width="0.9948" stroke-miterlimit="10"/>
<path d="M116.706 26.1801C115.656 26.1801 114.793 25.9388 114.142 25.4621C113.413 24.9293 113.029 24.1683 113.029 23.2607C113.029 22.7682 113.165 22.2362 113.448 21.6345L113.562 21.3402C113.557 21.3423 113.552 21.3452 113.548 21.3473C113.447 21.445 113.189 21.7602 112.811 22.6849C112.502 23.5393 112.167 24.2472 111.8 24.8145C111.57 25.2029 111.319 25.5159 111.051 25.7435C111.024 25.7665 110.996 25.788 110.967 25.8067C110.596 26.0537 110.115 26.1793 109.536 26.1793C106.902 26.1793 106.618 24.4325 106.618 23.6815C106.618 23.1832 106.73 22.6569 106.951 22.1177L108.967 16.6862C109.077 16.389 109.337 16.1729 109.648 16.1176L113.3 15.4714C113.352 15.4621 113.404 15.4577 113.456 15.4577C113.719 15.4577 113.972 15.5741 114.143 15.7808C114.348 16.0278 114.404 16.366 114.291 16.6661L113.381 19.0706C113.513 19.0555 113.648 19.0484 113.789 19.0484C113.939 19.0484 114.144 19.0649 114.406 19.1022C114.412 19.1029 114.418 19.1036 114.424 19.1051L115.385 16.6769C115.5 16.3897 115.754 16.1815 116.058 16.1269L119.71 15.4714C119.763 15.4621 119.815 15.457 119.868 15.457C120.133 15.457 120.387 15.5748 120.558 15.783C120.763 16.0328 120.817 16.3739 120.7 16.6747L118.183 23.1279C118.077 23.4216 118.024 23.6011 117.999 23.7023C118.013 23.703 118.027 23.703 118.043 23.703C118.195 23.703 118.307 23.7016 118.378 23.6901C118.431 23.6772 118.525 23.6384 118.652 23.5846C118.81 23.5178 118.925 23.4711 118.998 23.4424C119.173 23.3534 119.353 23.2528 119.54 23.1401L120.574 22.5342C120.715 22.4509 120.871 22.4114 121.025 22.4114C121.313 22.4114 121.597 22.5521 121.768 22.8084L121.946 23.0755C122.206 23.4661 122.12 23.9924 121.748 24.2788C120.11 25.541 118.414 26.1801 116.706 26.1801Z" fill="white"/>
<path d="M116.706 26.1801C115.656 26.1801 114.793 25.9388 114.142 25.4621C113.413 24.9293 113.029 24.1683 113.029 23.2607C113.029 22.7682 113.165 22.2362 113.448 21.6345L113.562 21.3402C113.557 21.3423 113.552 21.3452 113.548 21.3473C113.447 21.445 113.189 21.7602 112.811 22.6849C112.502 23.5393 112.167 24.2472 111.8 24.8145C111.57 25.2029 111.319 25.5159 111.051 25.7435C111.024 25.7665 110.996 25.788 110.967 25.8067C110.596 26.0537 110.115 26.1793 109.536 26.1793C106.902 26.1793 106.618 24.4325 106.618 23.6815C106.618 23.1832 106.73 22.6569 106.951 22.1177L108.967 16.6862C109.077 16.389 109.337 16.1729 109.648 16.1176L113.3 15.4714C113.352 15.4621 113.404 15.4577 113.456 15.4577C113.719 15.4577 113.972 15.5741 114.143 15.7808C114.348 16.0278 114.404 16.366 114.291 16.6661L113.381 19.0706C113.513 19.0555 113.648 19.0484 113.789 19.0484C113.939 19.0484 114.144 19.0649 114.406 19.1022C114.412 19.1029 114.418 19.1036 114.424 19.1051L115.385 16.6769C115.5 16.3897 115.754 16.1815 116.058 16.1269L119.71 15.4714C119.763 15.4621 119.815 15.457 119.868 15.457C120.133 15.457 120.387 15.5748 120.558 15.783C120.763 16.0328 120.817 16.3739 120.7 16.6747L118.183 23.1279C118.077 23.4216 118.024 23.6011 117.999 23.7023C118.013 23.703 118.027 23.703 118.043 23.703C118.195 23.703 118.307 23.7016 118.378 23.6901C118.431 23.6772 118.525 23.6384 118.652 23.5846C118.81 23.5178 118.925 23.4711 118.998 23.4424C119.173 23.3534 119.353 23.2528 119.54 23.1401L120.574 22.5342C120.715 22.4509 120.871 22.4114 121.025 22.4114C121.313 22.4114 121.597 22.5521 121.768 22.8084L121.946 23.0755C122.206 23.4661 122.12 23.9924 121.748 24.2788C120.11 25.541 118.414 26.1801 116.706 26.1801Z" stroke="white" stroke-width="0.9948" stroke-miterlimit="10"/>
<path d="M62.8882 23.5307L62.9995 23.9981C62.049 24.5029 61.1331 24.8892 60.2501 25.1562C59.3671 25.424 58.5387 25.5576 57.7685 25.5576C56.7577 25.5576 55.9782 25.3673 55.4297 24.989C54.8798 24.6106 54.6056 24.0872 54.6056 23.4187C54.6056 23.0777 54.6796 22.639 54.8282 22.1041C54.9186 21.8219 55.0335 21.4773 55.1727 21.0688C55.3141 20.661 55.5029 20.1591 55.7398 19.5653C57.1956 15.6897 58.8137 12.6469 60.5961 10.4348C59.7189 10.7019 58.7067 11.6776 57.556 13.3627C56.4053 15.0485 55.3479 16.8478 54.3831 18.7641C53.9667 19.6099 53.536 20.5159 53.091 21.4802C52.7055 22.3267 52.3415 23.1509 51.9998 23.9522L47.9921 25.2216L53.3322 10.8562L53.442 10.4793C53.442 10.3005 53.3322 10.1979 53.1082 10.1677C52.7679 10.1677 52.3573 10.5798 51.8756 11.4041C51.394 12.2283 50.9546 13.0935 50.5541 13.9996L48.9432 17.5816C48.5276 18.535 48.0602 19.4476 47.5412 20.3185C47.0215 21.1894 46.4293 22.0424 45.7617 22.8767C44.4703 24.5294 43.1135 25.3558 41.6893 25.3558C40.9901 25.3558 40.3311 25.139 39.7088 24.7061C39.3671 24.5273 39.1144 23.7411 38.9514 22.3511C38.9514 22.1723 38.9873 22.0819 39.0634 22.0819C39.1804 22.0819 39.2852 22.2097 39.3749 22.4638C39.6413 23.0332 40.0648 23.5566 40.6434 24.0362C41.2227 24.4856 41.7654 24.7104 42.2708 24.7104C42.7891 24.7104 43.2607 24.4498 43.6835 23.9292C44.107 23.4087 44.6899 22.3159 45.4322 20.6509L46.5456 18.1301C47.2878 16.4651 47.9633 15.0902 48.5721 14.0046C49.1808 12.919 49.959 11.9181 50.9094 11.0042C51.8591 10.0894 52.9136 9.63281 54.0715 9.63281C54.7241 9.63281 55.2625 9.81446 55.686 10.1785C56.1095 10.5425 56.3206 11.0135 56.3206 11.5922C56.3206 12.0237 56.2689 12.3504 56.1648 12.5722L52.7356 21.2131L54.2058 18.3182C55.0801 16.5225 55.8719 15.0521 56.5769 13.9091C57.2825 12.7661 58.0685 11.7817 58.9371 10.9582C59.8057 10.134 60.7146 9.72184 61.665 9.72184C62.0498 9.72184 62.3692 9.81518 62.6212 10.0004C62.8753 10.1864 63.0002 10.4355 63.0002 10.7478L62.8889 11.17L60.4848 16.9383L59.3937 19.4993C59.1705 20.0349 58.9759 20.5174 58.8137 20.9474C58.6055 21.4673 58.4425 21.9124 58.3234 22.2829C58.0556 23.115 57.9221 23.7239 57.9221 24.1101C57.9221 24.3327 58.0269 24.5251 58.2351 24.6888C58.4863 24.8375 58.7397 24.9121 58.991 24.9121C59.8086 24.9121 61.1072 24.4519 62.8882 23.5307Z" fill="#00100F"/>
<path d="M74.0888 21.4806L74.1786 21.8152C73.5985 22.0672 73.0336 22.1936 72.4859 22.1936C71.8778 22.1936 71.3057 22.1039 70.7709 21.9265C69.524 24.2126 67.7796 25.3556 65.5392 25.3556C63.1789 25.3556 61.9973 24.4847 61.9973 22.7436C61.9973 22.1778 62.0878 21.6199 62.2651 21.0692C62.4431 20.5186 62.7252 19.9463 63.1121 19.3497C63.8386 18.2483 64.751 17.4154 65.8493 16.8504C66.5765 16.4182 67.2147 16.2028 67.7653 16.2028C67.8988 16.2028 67.972 16.2552 67.9871 16.3593L67.1867 17.7658C66.7107 18.6583 66.2614 19.6563 65.8393 20.7569C65.4172 21.859 65.2047 22.8412 65.2047 23.7042C65.2047 24.0769 65.2894 24.3669 65.4588 24.5751C65.6304 24.7841 65.8493 24.8882 66.1171 24.8882C67.2757 24.8882 68.3058 23.6633 69.2117 21.2128C68.3654 20.2034 67.9433 19.1056 67.9433 17.918C67.9433 17.1455 68.1027 16.5409 68.4221 16.1015C68.7408 15.665 69.183 15.4453 69.748 15.4453C70.3395 15.4453 70.819 15.6945 71.1837 16.1906C71.5455 16.6889 71.7278 17.3831 71.7278 18.2734C71.7278 19.4911 71.4608 20.5825 70.926 21.5474C71.2835 21.7262 71.7436 21.8152 72.3078 21.8152C72.9604 21.8152 73.5547 21.7047 74.0888 21.4806ZM69.4364 20.6341C69.6432 19.5213 69.7487 18.6676 69.7487 18.0738C69.7487 17.391 69.6877 16.8791 69.5692 16.5366C69.4795 16.1949 69.3237 16.0104 69.1026 15.9802C68.9239 15.9802 68.7638 16.1295 68.6224 16.4254C68.4831 16.7233 68.4113 17.0572 68.4113 17.4277C68.4113 17.9331 68.4996 18.4895 68.6791 19.097C68.8564 19.7072 69.1084 20.2192 69.4364 20.6341Z" fill="#00100F"/>
<path d="M77.8288 16.7774L81.3032 16.0859L81.0362 16.8879L82.7059 16.7321C83.731 16.7321 84.5214 16.959 85.0763 17.412C85.634 17.8651 85.9118 18.5307 85.9118 19.4059C85.9118 21.3523 84.6061 23.0238 81.9931 24.4202C82.9141 24.8963 83.7138 25.1332 84.3986 25.1332C85.3476 25.1332 86.5069 24.5093 87.8723 23.2629L88.1393 23.5745C87.7546 23.8868 87.3777 24.1754 87.0145 24.4432C86.6512 24.711 86.3124 24.9408 86.0023 25.1332C85.4223 25.49 84.7468 25.6681 83.9758 25.6681C83.0268 25.6681 82.0074 25.4297 80.9242 24.9551C79.9896 25.312 79.0334 25.49 78.0528 25.49L77.0277 28.4919L73.2863 29.6041L74.8914 25.1332C74.1039 24.8805 73.7105 24.4504 73.7105 23.8416C73.7105 23.0999 74.409 22.7287 75.8045 22.7287L77.4053 18.0073C75.9969 18.9873 75.017 20.3601 74.4671 22.127L74.4226 21.3911C74.4226 20.5747 74.7413 19.8245 75.3809 19.1402C76.0191 18.4574 76.7456 17.9218 77.5618 17.5355L77.8288 16.7774ZM75.6473 23.0848C75.3508 23.0848 75.1046 23.181 74.9129 23.3734C74.7191 23.5673 74.6236 23.797 74.6236 24.0641C74.6236 24.3764 74.7643 24.6213 75.0471 24.7993L75.6473 23.0848ZM78.1633 25.1332C78.8159 25.1332 79.4548 24.9336 80.0786 24.5315L79.3212 24.1316L78.6314 23.7978L78.1633 25.1332ZM78.8539 23.1516L80.7239 23.8416C81.2738 23.0697 81.7282 22.2196 82.0929 21.2913C82.4568 20.3637 82.6377 19.5732 82.6377 18.9198C82.6377 18.3849 82.5193 17.9771 82.2824 17.6956C82.0448 17.4128 81.7411 17.272 81.37 17.272H80.8797L78.8539 23.1516Z" fill="#00100F"/>
<path d="M96.7565 23.3525L96.979 23.6986C96.0436 24.2967 95.1011 24.7296 94.1514 24.9988C93.6762 25.1187 93.1938 25.2078 92.7035 25.2681C92.2132 25.3277 91.6418 25.3571 90.9878 25.3571C88.5974 25.3571 87.4036 24.6305 87.4036 23.1752C87.4036 22.4321 87.6189 21.4901 88.0496 20.3463C89.1171 17.6001 90.9361 16.2266 93.5046 16.2266C94.9582 16.2266 95.6861 16.7607 95.6861 17.8298C95.6861 18.6763 95.2719 19.4927 94.44 20.2803C93.6087 21.0672 92.4436 21.7643 90.9454 22.3732C90.8844 22.6403 90.8464 22.804 90.8335 22.8636C90.8335 23.0265 90.8335 23.145 90.8335 23.219C90.8335 23.7244 90.9885 24.1258 91.3008 24.4216C91.6109 24.6894 92.028 24.8229 92.547 24.8229C93.9403 24.8222 95.3444 24.3325 96.7565 23.3525ZM90.9878 21.8605C91.6418 21.3436 92.3768 20.5524 93.193 19.4876C94.0092 18.4236 94.4177 17.58 94.4177 16.9589C94.4177 16.648 94.2389 16.4937 93.8822 16.4937C93.3488 16.4937 92.7946 17.1334 92.2239 18.4114C91.654 19.6908 91.2419 20.8396 90.9878 21.8605Z" fill="#00100F"/>
<path d="M108.311 21.4806L108.401 21.8152C107.821 22.0672 107.257 22.1936 106.709 22.1936C106.099 22.1936 105.529 22.1039 104.994 21.9265C103.748 24.2126 102.003 25.3556 99.7621 25.3556C97.4011 25.3556 96.2209 24.4847 96.2209 22.7436C96.2209 22.1778 96.3107 21.6199 96.4887 21.0692C96.666 20.5186 96.9496 19.9463 97.3351 19.3497C98.0615 18.2483 98.9739 17.4154 100.074 16.8504C100.801 16.4182 101.438 16.2028 101.987 16.2028C102.122 16.2028 102.194 16.2552 102.211 16.3593L101.409 17.7658C100.934 18.6583 100.485 19.6563 100.061 20.7569C99.6394 21.859 99.4262 22.8412 99.4262 23.7042C99.4262 24.0769 99.5116 24.3669 99.6824 24.5751C99.8533 24.7841 100.073 24.8882 100.34 24.8882C101.497 24.8882 102.529 23.6633 103.435 21.2128C102.588 20.2034 102.165 19.1056 102.165 17.918C102.165 17.1455 102.325 16.5409 102.644 16.1015C102.962 15.665 103.405 15.4453 103.969 15.4453C104.562 15.4453 105.041 15.6945 105.404 16.1906C105.768 16.6889 105.951 17.3831 105.951 18.2734C105.951 19.4911 105.684 20.5825 105.15 21.5474C105.506 21.7262 105.964 21.8152 106.531 21.8152C107.184 21.8152 107.777 21.7047 108.311 21.4806ZM103.658 20.6341C103.865 19.5213 103.97 18.6676 103.97 18.0738C103.97 17.391 103.911 16.8791 103.791 16.5366C103.703 16.1949 103.547 16.0104 103.325 15.9802C103.145 15.9802 102.986 16.1295 102.846 16.4254C102.705 16.7233 102.634 17.0572 102.634 17.4277C102.634 17.9331 102.723 18.4895 102.901 19.097C103.079 19.7072 103.331 20.2192 103.658 20.6341Z" fill="#00100F"/>
<path d="M114.256 22.0164L114.836 20.5245C114.45 20.4347 114.123 20.3895 113.857 20.3895C113.53 20.3895 113.247 20.4713 113.01 20.6343C112.684 20.9021 112.343 21.4743 111.985 22.3496C111.689 23.1659 111.378 23.8264 111.051 24.3312C110.857 24.6579 110.664 24.9027 110.472 25.0664C110.249 25.215 109.936 25.289 109.536 25.289C108.185 25.289 107.51 24.7541 107.51 23.6843C107.51 23.298 107.6 22.8902 107.776 22.4587L109.803 16.9992L113.455 16.353L110.404 24.4202V24.6435L110.582 24.599L110.671 24.4877C110.908 24.0569 111.2 23.3181 111.552 22.272C111.9 21.2252 112.298 20.5381 112.743 20.2114C112.994 20.0334 113.343 19.9436 113.788 19.9436C113.907 19.9436 114.071 19.9587 114.279 19.9881C114.488 20.0183 114.725 20.0549 114.991 20.0994L116.215 17.0071L119.868 16.3516L117.351 22.8048C117.172 23.2973 117.084 23.6261 117.084 23.7905C117.084 24.329 117.402 24.5976 118.042 24.5976C118.295 24.5976 118.469 24.5861 118.565 24.5645C118.663 24.5423 118.807 24.4899 118.999 24.4087C119.192 24.3276 119.312 24.2788 119.357 24.263C119.563 24.1596 119.778 24.0404 120 23.9069L121.025 23.3066L121.203 23.5737C119.719 24.7167 118.22 25.289 116.705 25.289C115.844 25.289 115.166 25.1073 114.668 24.7433C114.171 24.38 113.92 23.8868 113.92 23.2628C113.921 22.9067 114.034 22.4917 114.256 22.0164Z" fill="#00100F"/>
</svg>
