<svg width="155" height="42" viewBox="0 0 155 42" fill="none" xmlns="http://www.w3.org/2000/svg">
<path d="M24.0954 18.2175H21.5701C21.4123 18.2175 21.2019 18.1125 21.2019 17.955C21.2019 17.9025 21.2019 17.9025 21.2019 17.85V6.93C21.2019 5.9325 20.8862 4.935 20.3075 4.1475C19.6236 3.3075 18.5714 2.8875 17.5192 2.94C16.9931 2.94 16.5196 3.045 16.0461 3.3075C15.6252 3.5175 15.2043 3.8325 14.8887 4.2C14.573 4.5675 14.31 4.9875 14.1521 5.46C13.9943 5.9325 13.8891 6.4575 13.8891 6.93V17.85C13.8891 18.1125 13.7839 18.27 13.5208 18.27H11.0481C10.7851 18.27 10.6272 18.165 10.6272 17.9025V6.93C10.6272 5.9325 10.3642 4.935 9.78548 4.1475C9.20677 3.36 8.3124 2.94 7.04976 2.94C6.52365 2.94 5.94494 3.045 5.47145 3.255C4.94535 3.4125 4.52447 3.7275 4.20881 4.095C3.89315 4.4625 3.68271 4.935 3.52488 5.355C3.36705 5.8275 3.26183 6.3525 3.26183 6.8775V17.7975C3.26183 18.06 3.15661 18.2175 2.89356 18.2175H0.420881C0.15783 18.2175 0 18.1125 0 17.85V6.93C0 5.985 0.15783 5.0925 0.473491 4.2C0.789152 3.4125 1.21003 2.6775 1.84135 2.0475C2.42007 1.4175 3.20922 0.8925 3.99837 0.5775C4.94535 0.21 5.94494 0.0525 6.99715 0.0525C7.99674 0.0525 8.99633 0.2625 9.8907 0.6825C10.6799 1.1025 11.4164 1.6275 11.9951 2.31C12.1529 2.52 12.3108 2.52 12.4686 2.3625C13.0473 1.68 13.7839 1.155 14.6256 0.735C15.5726 0.2625 16.6774 0.0525 17.7296 0.0525C18.7292 0.0525 19.7814 0.21 20.7284 0.5775C21.5175 0.8925 22.2541 1.365 22.8328 1.995C23.4115 2.625 23.8324 3.36 24.0954 4.1475C24.3585 5.04 24.5163 5.985 24.5163 6.8775V17.745C24.4637 18.1125 24.3585 18.2175 24.0954 18.2175ZM51.9788 11.55C51.9788 13.755 51.3475 15.435 50.0322 16.6425C48.717 17.85 46.9808 18.4275 44.7712 18.4275C42.509 18.4275 40.7202 17.85 39.4576 16.6425C38.1949 15.435 37.5636 13.755 37.5636 11.55V6.8775C37.5636 4.7775 38.1949 3.0975 39.405 1.89C40.615 0.6825 42.4038 0.0525 44.7186 0.0525C47.0334 0.0525 48.8222 0.63 50.0848 1.8375C51.3475 3.045 51.9788 4.725 51.9788 6.8775V11.55ZM48.717 6.8775C48.7696 5.8275 48.4013 4.7775 47.77 3.99C47.1387 3.255 46.1391 2.8875 44.8238 2.835C43.7716 2.7825 42.7194 3.2025 41.9829 3.9375C41.2463 4.725 40.8781 5.775 40.9307 6.825V11.55C40.8781 12.6 41.1937 13.5975 41.825 14.4375C42.4038 15.1725 43.4033 15.5925 44.8238 15.5925C46.2443 15.5925 47.2439 15.225 47.8226 14.49C48.4013 13.7025 48.717 12.6525 48.717 11.6025V6.8775ZM67.8144 0.3675C68.0775 0.3675 68.2353 0.4725 68.2353 0.735V2.6775C68.2353 2.7825 68.2879 2.8875 68.3932 2.94C68.4984 2.9925 68.6036 2.94 68.7088 2.7825C69.2349 2.0475 69.8662 1.47 70.6554 0.945C71.4972 0.3675 72.4967 0.105 73.4963 0.105C73.6542 0.105 73.8646 0.105 74.1277 0.105C74.2855 0.105 74.4433 0.1575 74.6012 0.21C74.8116 0.2625 74.9694 0.315 74.9694 0.42C75.022 0.525 75.022 0.6825 74.9694 0.7875L74.4959 3.2025C74.4433 3.4125 74.3907 3.57 74.2855 3.57C74.1803 3.6225 74.0751 3.6225 73.9698 3.57C73.6016 3.465 73.1807 3.465 72.8124 3.465C71.2867 3.465 70.2345 3.885 69.6032 4.7775C68.9719 5.775 68.6562 6.93 68.7088 8.085V17.7975C68.7088 18.06 68.6036 18.2175 68.3405 18.2175H65.7626C65.4996 18.2175 65.3418 18.1125 65.3418 17.85V0.735C65.3418 0.4725 65.447 0.315 65.71 0.315L67.8144 0.3675ZM100.327 9.03C100.327 9.2925 100.222 9.555 100.064 9.765C99.9066 9.9225 99.7488 10.0275 99.5383 10.0275H89.9633C89.7529 10.0275 89.595 10.08 89.4372 10.2375C89.2794 10.395 89.2268 10.5525 89.2268 10.7625V11.55C89.2268 12.075 89.2794 12.6 89.4372 13.125C89.7002 14.1225 90.3842 14.9625 91.3312 15.33C91.9099 15.54 92.5412 15.645 93.1725 15.645C93.9617 15.645 94.6982 15.435 95.3821 15.0675C96.0661 14.7 96.6448 14.175 97.0657 13.545C97.2235 13.2825 97.5392 13.23 97.8022 13.335C97.8548 13.335 97.8548 13.3875 97.9074 13.3875L99.3279 14.385C99.6436 14.595 99.7488 14.805 99.6436 15.015C99.0648 16.17 98.1179 17.0625 96.9604 17.5875C95.803 18.1125 94.5404 18.4275 93.2251 18.375C91.0155 18.375 89.2268 17.745 87.9115 16.5375C86.5436 15.2775 85.8597 13.4925 85.9123 11.655V7.035C85.9123 6.0375 86.0702 5.0925 86.4384 4.2C86.7541 3.36 87.2802 2.5725 87.9115 1.9425C88.5428 1.3125 89.332 0.84 90.1737 0.525C91.0681 0.1575 92.0677 0 93.0673 0C94.0669 0 95.0665 0.1575 96.0135 0.525C96.8552 0.84 97.6444 1.3125 98.3283 1.9425C98.9596 2.5725 99.4331 3.36 99.7488 4.2C100.117 5.0925 100.275 6.09 100.275 7.035L100.327 9.03ZM93.1725 2.8875C91.1207 2.7825 89.4372 4.3575 89.332 6.405C89.332 6.51 89.332 6.5625 89.332 6.6675V6.93C89.332 7.035 89.3846 7.1925 89.4372 7.245C89.5424 7.35 89.7529 7.4025 89.9107 7.4025H96.6448C96.9078 7.4025 97.0657 7.245 97.0657 6.93V6.5625C97.0657 5.6175 96.75 4.6725 96.0661 3.9375C95.3295 3.2025 94.2247 2.7825 93.1725 2.8875ZM127.369 11.55C127.369 13.755 126.738 15.435 125.423 16.6425C124.107 17.85 122.371 18.4275 120.162 18.4275C117.899 18.4275 116.111 17.85 114.848 16.6425C113.585 15.435 112.954 13.755 112.954 11.55V6.8775C112.954 4.7775 113.585 3.0975 114.795 1.89C116.005 0.63 117.794 0.0525 120.109 0.0525C122.424 0.0525 124.212 0.63 125.475 1.8375C126.738 3.045 127.369 4.725 127.369 6.8775V11.55ZM124.055 6.8775C124.107 5.8275 123.739 4.83 123.108 3.99C122.476 3.255 121.477 2.835 120.162 2.835C119.109 2.7825 118.057 3.2025 117.321 3.9375C116.584 4.725 116.216 5.775 116.268 6.825V11.55C116.216 12.6 116.531 13.5975 117.163 14.4375C117.741 15.1725 118.741 15.5925 120.162 15.5925C121.582 15.5925 122.529 15.225 123.16 14.4375C123.792 13.5975 124.16 12.5475 124.107 11.4975V6.8775H124.055ZM154.621 18.2175H152.096C151.938 18.2175 151.728 18.1125 151.728 17.955C151.728 17.9025 151.728 17.9025 151.728 17.85V6.93C151.78 5.88 151.412 4.83 150.728 4.0425C149.939 3.255 148.887 2.835 147.782 2.8875C146.73 2.835 145.677 3.255 144.888 3.99C144.152 4.7775 143.783 5.8275 143.836 6.8775V17.7975C143.889 18.0075 143.731 18.165 143.52 18.2175C143.468 18.2175 143.468 18.2175 143.415 18.2175H140.995C140.732 18.2175 140.574 18.1125 140.574 17.85V0.735C140.574 0.4725 140.679 0.315 140.943 0.315H143.31C143.468 0.315 143.626 0.42 143.678 0.5775C143.678 0.63 143.678 0.63 143.678 0.6825V1.3125C143.678 1.575 143.783 1.68 143.941 1.68C144.047 1.6275 144.152 1.575 144.257 1.5225C145.414 0.5775 146.835 0.0525 148.361 0.105C150.412 0.105 152.043 0.735 153.201 1.9425C154.411 3.3075 155.095 5.0925 154.989 6.8775V17.7975C154.989 18.1125 154.884 18.2175 154.621 18.2175Z" fill="#28B0A9"/>
<path d="M21.8859 41.5274C21.9386 41.7374 21.7807 41.9474 21.5703 41.9474C21.5177 41.9474 21.5177 41.9474 21.4651 41.9474H19.7289C19.5185 41.9999 19.308 41.8424 19.308 41.6324C19.308 41.5799 19.308 41.5799 19.308 41.5274V31.1324C19.2554 30.9224 19.4133 30.7124 19.6237 30.7124C19.6763 30.7124 19.6763 30.7124 19.7289 30.7124H26.1474C26.2526 30.7124 26.3578 30.7649 26.4104 30.8174C26.5156 30.9224 26.5156 31.0274 26.5156 31.1324V32.6024C26.5156 32.8649 26.4104 33.0224 26.1474 33.0224H22.2542C22.0964 33.0224 21.9912 33.0749 21.9386 33.1274C21.8859 33.1799 21.8859 33.2849 21.8859 33.3374V34.7549C21.8859 34.8599 21.8859 34.9649 21.9386 35.0174C21.9912 35.0699 22.0964 35.1224 22.2542 35.1224H25.3582C25.5687 35.1224 25.7265 35.2274 25.7791 35.4374C25.7791 35.4899 25.7791 35.4899 25.7791 35.5424V37.0124C25.7791 37.3274 25.6739 37.4324 25.3582 37.4324H22.2542C22.149 37.4324 22.0438 37.4324 21.9386 37.5374C21.8859 37.6424 21.8333 37.7474 21.8333 37.9049L21.8859 41.5274Z" fill="white"/>
<path d="M37.9844 41.9474C37.6687 41.9474 37.5635 41.8424 37.5635 41.5799V31.0799C37.5635 30.8174 37.7213 30.7124 37.9844 30.7124H39.7205C39.8257 30.7124 39.9309 30.7124 40.0362 30.8174C40.1414 30.8699 40.194 31.0274 40.1414 31.1324V41.6324C40.1414 41.8949 39.9835 41.9999 39.7205 41.9999H37.9844V41.9474Z" fill="white"/>
<path d="M58.976 32.9174C58.9234 33.0224 58.8182 33.0224 58.7129 33.0224H56.819C56.7138 33.0224 56.5559 33.0224 56.5033 33.1274C56.4507 33.1799 56.4507 33.2849 56.4507 33.3899L56.3981 41.6324C56.3981 41.8949 56.2403 41.9999 55.9246 41.9999H54.1885C54.0833 41.9999 53.978 41.9999 53.8728 41.8949C53.7676 41.8424 53.715 41.7374 53.7676 41.6324V33.3899C53.7676 33.2849 53.7676 33.2324 53.715 33.1274C53.6624 33.0749 53.5572 33.0224 53.3993 33.0224H51.7158C51.6106 33.0224 51.5054 32.9699 51.4001 32.9174C51.3475 32.8124 51.2949 32.7074 51.2949 32.6024V31.1849C51.2949 31.0799 51.2949 30.9749 51.4001 30.8699C51.4528 30.7649 51.6106 30.7649 51.7158 30.7649H58.7129C58.9234 30.7649 59.0812 30.9224 59.0812 31.1849V32.6024C59.0286 32.7074 58.976 32.8124 58.976 32.9174Z" fill="white"/>
<path d="M77.9155 41.9474H76.758C76.6528 41.9474 76.495 41.9474 76.3898 41.9474C76.2845 41.9474 76.1793 41.8424 76.0741 41.6849L72.7071 36.2774C72.7071 36.2774 72.7071 36.2249 72.6545 36.2774V36.3299V41.6324C72.6545 41.7374 72.6018 41.8424 72.5492 41.8949C72.444 41.9474 72.3388 41.9474 72.181 41.9474H70.6027C70.4974 41.9474 70.3922 41.9474 70.287 41.8949C70.1818 41.8424 70.1292 41.7374 70.1818 41.6324V31.1324C70.1818 30.8699 70.3396 30.7124 70.6553 30.7124H71.8653C72.0231 30.7124 72.1283 30.7124 72.2862 30.7649C72.3914 30.8699 72.4966 30.9749 72.5492 31.0799L75.8111 36.4874C75.8111 36.5399 75.8637 36.5399 75.8637 36.5399L75.9163 36.4874V31.0799C75.9163 30.8174 76.0741 30.7124 76.3898 30.7124H77.9681C78.0733 30.7124 78.1785 30.7124 78.2837 30.8174C78.389 30.8699 78.4416 31.0274 78.389 31.1324V41.5799C78.389 41.8424 78.2311 41.9474 77.9155 41.9474Z" fill="white"/>
<path d="M97.0658 39.6374C97.3289 39.6374 97.4341 39.7949 97.4341 40.0574V41.5274C97.4341 41.8424 97.3289 41.9474 97.0658 41.9474H90.6474C90.4369 41.9999 90.2265 41.8424 90.2265 41.6324C90.2265 41.5799 90.2265 41.5799 90.2265 41.5274V31.1324C90.1739 30.9224 90.3317 30.7124 90.5422 30.7124C90.5948 30.7124 90.5948 30.7124 90.6474 30.7124H96.908C97.171 30.7124 97.2763 30.8174 97.2763 31.1324V32.6024C97.2763 32.8649 97.171 33.0224 96.908 33.0224H93.2253C93.1201 33.0224 92.9622 33.0224 92.857 33.1274C92.8044 33.1799 92.7518 33.2849 92.8044 33.3899V34.6499C92.8044 34.7549 92.8044 34.9124 92.9096 35.0174C93.0148 35.1224 93.1201 35.1224 93.2779 35.1224H96.3293C96.4345 35.1224 96.5397 35.1749 96.6449 35.2274C96.6975 35.3324 96.7502 35.4374 96.7502 35.5424V36.9599C96.7502 37.0649 96.7502 37.1699 96.6449 37.2749C96.5923 37.3799 96.4345 37.4324 96.3293 37.3799H93.2253C93.0674 37.3799 92.9622 37.4324 92.9096 37.4849C92.857 37.5899 92.8044 37.6949 92.857 37.7999V39.2699C92.857 39.4274 92.9096 39.5324 92.9622 39.5849C93.0674 39.6374 93.2253 39.6899 93.3831 39.6374H97.0658Z" fill="white"/>
<path d="M116.584 38.5875C116.637 39.585 116.163 40.53 115.427 41.16C115.058 41.475 114.638 41.6849 114.164 41.7899C113.691 41.9474 113.164 42 112.638 42C111.954 42 111.271 41.895 110.639 41.685C109.903 41.475 109.271 41.1075 108.693 40.635C108.535 40.53 108.43 40.4249 108.377 40.2674C108.324 40.1624 108.43 40.0049 108.587 39.7949L109.324 38.7975C109.482 38.5875 109.64 38.535 109.745 38.535C109.903 38.5875 110.008 38.6399 110.113 38.6924C110.324 38.8499 110.534 38.955 110.744 39.06C110.955 39.165 111.218 39.27 111.428 39.375C111.639 39.48 111.849 39.5325 112.112 39.585C112.27 39.6375 112.481 39.6375 112.638 39.6375C112.901 39.6375 113.164 39.6374 113.375 39.5324C113.533 39.4799 113.691 39.4275 113.796 39.3225C113.901 39.2175 113.954 39.1124 114.006 39.0074C114.059 38.9024 114.059 38.7974 114.059 38.6924C114.059 38.2724 113.743 37.8524 113.375 37.6949C112.744 37.3799 112.112 37.1174 111.428 36.9074C111.113 36.8024 110.744 36.645 110.429 36.4875C110.113 36.33 109.85 36.1199 109.64 35.8574C109.429 35.5949 109.219 35.28 109.114 34.965C108.956 34.5975 108.903 34.1775 108.903 33.81C108.903 33.3375 109.008 32.865 109.219 32.445C109.429 32.025 109.692 31.71 110.008 31.395C110.376 31.08 110.744 30.87 111.218 30.7125C111.691 30.555 112.165 30.45 112.691 30.45C113.322 30.45 114.006 30.5025 114.638 30.7125C115.111 30.87 115.532 31.0275 115.9 31.29C116.005 31.3425 116.111 31.4475 116.163 31.5525C116.163 31.6575 116.163 31.7625 116.005 32.025L115.479 33.075C115.427 33.285 115.164 33.4425 114.901 33.3375C114.848 33.3375 114.848 33.3374 114.848 33.2849C114.585 33.1799 114.217 33.0224 113.848 32.9174C113.48 32.8124 113.112 32.7075 112.744 32.7075C112.428 32.7075 112.165 32.7599 111.902 32.9174C111.639 33.0749 111.481 33.3899 111.534 33.7049C111.534 33.9149 111.586 34.0724 111.744 34.2299C111.849 34.3874 112.007 34.4925 112.165 34.5975C112.323 34.7025 112.533 34.755 112.691 34.86L113.164 35.0174L114.375 35.4375C114.795 35.595 115.164 35.8049 115.532 36.0674C115.9 36.3299 116.216 36.645 116.479 37.0125C116.532 37.59 116.637 38.115 116.584 38.5875Z" fill="white"/>
<path d="M135.682 38.5874C135.682 39.1124 135.576 39.6374 135.366 40.0574C135.156 40.4774 134.893 40.8449 134.524 41.1074C134.156 41.4224 133.735 41.6324 133.262 41.7374C132.788 41.8949 132.262 41.9474 131.736 41.9474C131.052 41.9474 130.368 41.8424 129.684 41.6324C128.948 41.4224 128.316 41.0549 127.738 40.5824C127.58 40.4774 127.474 40.3724 127.422 40.2149C127.422 40.0574 127.474 39.8999 127.632 39.7424L128.369 38.9024C128.527 38.6924 128.685 38.6399 128.79 38.6399C128.948 38.6924 129.053 38.7449 129.158 38.7974C129.368 38.9549 129.579 39.0599 129.789 39.1649C130 39.2699 130.263 39.3749 130.473 39.4799C130.684 39.5849 130.894 39.6374 131.157 39.6899C131.315 39.7424 131.525 39.7424 131.683 39.7424C131.946 39.7424 132.157 39.7424 132.42 39.6374C132.578 39.5849 132.735 39.5324 132.841 39.4274C132.946 39.3224 132.999 39.2174 133.051 39.1124C133.051 39.0074 133.104 38.9024 133.104 38.7974C133.104 38.3774 132.788 37.9574 132.42 37.7999C131.789 37.4849 131.157 37.2224 130.473 37.0124C130.158 36.9074 129.789 36.7499 129.474 36.5924C129.158 36.4349 128.895 36.2249 128.632 35.9624C128.421 35.6999 128.211 35.3849 128.106 35.0699C127.948 34.7024 127.895 34.2824 127.895 33.9149C127.895 33.4424 128.001 32.9699 128.211 32.5499C128.421 32.1299 128.685 31.8149 129.053 31.4999C129.421 31.1849 129.789 30.9749 130.263 30.8174C130.736 30.6599 131.21 30.5549 131.736 30.5549C132.367 30.5549 133.051 30.6074 133.682 30.8174C134.156 30.9224 134.577 31.1324 134.998 31.3949C135.103 31.4474 135.208 31.5524 135.261 31.6574C135.313 31.7624 135.261 31.8674 135.103 32.1299L134.577 33.1799C134.524 33.3899 134.261 33.5474 133.998 33.4424C133.946 33.4424 133.946 33.4424 133.946 33.3899C133.63 33.2324 133.262 33.1274 132.946 33.0224C132.578 32.9174 132.209 32.8124 131.841 32.8124C131.525 32.8124 131.262 32.8649 130.999 33.0224C130.736 33.1799 130.578 33.4949 130.631 33.8099C130.631 34.0199 130.684 34.1774 130.842 34.3349C130.947 34.4924 131.105 34.5974 131.262 34.7024C131.42 34.8074 131.631 34.8599 131.789 34.9649L132.262 35.1224L133.472 35.5424C133.893 35.6999 134.261 35.9099 134.629 36.1724C134.998 36.4349 135.261 36.7499 135.524 37.1174C135.576 37.5899 135.734 38.1149 135.682 38.5874Z" fill="white"/>
</svg>
