<svg width="556" height="35" viewBox="0 0 556 35" fill="none" xmlns="http://www.w3.org/2000/svg">
<path d="M38 4.96L41.12 34H30.76L30.12 13.28L26.12 34H15.64L11.56 13.44L10.96 34H0.6L3.72 4.96H17.32L20.8 23.88L23.84 4.96H38ZM57.1909 34.4C52.6309 34.4 49.2709 33.36 47.1109 31.28C44.9776 29.1733 43.9109 26.4133 43.9109 23C43.9109 19.6667 44.9776 16.96 47.1109 14.88C49.2709 12.8 52.6309 11.76 57.1909 11.76C60.2576 11.76 62.8176 12.2667 64.8709 13.28C66.9509 14.2667 68.4843 15.6133 69.4709 17.32C70.4576 19 70.9509 20.8933 70.9509 23C70.9509 26.44 69.8043 29.2 67.5109 31.28C65.2443 33.36 61.8043 34.4 57.1909 34.4ZM57.3509 27.6C59.0843 27.6 60.3776 27.1867 61.2309 26.36C62.0843 25.5333 62.5109 24.4267 62.5109 23.04C62.5109 21.7333 62.0843 20.6667 61.2309 19.84C60.3776 18.9867 59.0843 18.56 57.3509 18.56C55.6176 18.56 54.3509 18.9733 53.5509 19.8C52.7509 20.6267 52.3509 21.7067 52.3509 23.04C52.3509 24.4267 52.7509 25.5333 53.5509 26.36C54.3509 27.1867 55.6176 27.6 57.3509 27.6ZM83.0441 18.08C84.1641 14.0533 86.9507 12.04 91.4041 12.04C92.1774 12.04 92.9241 12.0933 93.6441 12.2L92.3641 21.16C90.4441 20.44 88.8707 20.08 87.6441 20.08C86.1241 20.08 85.0041 20.5333 84.2841 21.44C83.5641 22.3467 83.2041 23.56 83.2041 25.08V25.04L83.1641 27.68C83.1641 29.5733 83.2174 31.68 83.3241 34H73.7641C73.9774 30.16 74.0841 26.5333 74.0841 23.12C74.0841 19.7067 73.9774 16.0533 73.7641 12.16C75.5241 12.24 76.8707 12.28 77.8041 12.28C78.7907 12.28 80.1374 12.24 81.8441 12.16L83.0441 18.08ZM116.799 24H103.759C103.972 25.1733 104.492 26.1333 105.319 26.88C106.172 27.6 107.372 27.96 108.919 27.96C110.039 27.96 111.092 27.7467 112.079 27.32C113.066 26.8667 113.852 26.24 114.439 25.44C116.226 26.32 118.599 27.2667 121.559 28.28C120.732 30.1467 119.226 31.64 117.039 32.76C114.879 33.8533 112.052 34.4 108.559 34.4C104.026 34.4 100.666 33.36 98.4791 31.28C96.3191 29.1733 95.2391 26.4133 95.2391 23C95.2391 19.6667 96.3191 16.96 98.4791 14.88C100.639 12.8 103.999 11.76 108.559 11.76C111.279 11.76 113.639 12.2133 115.639 13.12C117.639 14.0267 119.172 15.2933 120.239 16.92C121.306 18.52 121.839 20.36 121.839 22.44C121.839 23.1333 121.812 23.6533 121.759 24H116.799ZM109.119 17.8C107.786 17.8 106.692 18.0533 105.839 18.56C104.986 19.0667 104.386 19.76 104.039 20.64H113.479C113.159 19.7867 112.639 19.1067 111.919 18.6C111.199 18.0667 110.266 17.8 109.119 17.8ZM137.503 34.4C132.943 34.4 129.583 33.36 127.423 31.28C125.29 29.1733 124.223 26.4133 124.223 23C124.223 19.6667 125.29 16.96 127.423 14.88C129.583 12.8 132.943 11.76 137.503 11.76C140.57 11.76 143.13 12.2667 145.183 13.28C147.263 14.2667 148.797 15.6133 149.783 17.32C150.77 19 151.263 20.8933 151.263 23C151.263 26.44 150.117 29.2 147.823 31.28C145.557 33.36 142.117 34.4 137.503 34.4ZM137.663 27.6C139.397 27.6 140.69 27.1867 141.543 26.36C142.397 25.5333 142.823 24.4267 142.823 23.04C142.823 21.7333 142.397 20.6667 141.543 19.84C140.69 18.9867 139.397 18.56 137.663 18.56C135.93 18.56 134.663 18.9733 133.863 19.8C133.063 20.6267 132.663 21.7067 132.663 23.04C132.663 24.4267 133.063 25.5333 133.863 26.36C134.663 27.1867 135.93 27.6 137.663 27.6ZM169.677 34C169.837 30.08 169.917 26.4667 169.917 23.16C169.917 21.9867 169.623 21.0533 169.037 20.36C168.477 19.6667 167.757 19.32 166.877 19.32C165.997 19.32 165.25 19.72 164.637 20.52C164.023 21.2933 163.663 22.36 163.557 23.72C163.503 25.7467 163.477 27.1867 163.477 28.04C163.477 29.8533 163.53 31.84 163.637 34H154.077C154.29 30.16 154.397 26.5333 154.397 23.12C154.397 19.7067 154.29 16.0533 154.077 12.16C155.837 12.24 157.183 12.28 158.117 12.28C159.103 12.28 160.45 12.24 162.157 12.16L163.317 18.04C163.93 15.9067 164.89 14.3333 166.197 13.32C167.503 12.28 169.023 11.76 170.757 11.76C172.357 11.76 173.743 12.12 174.917 12.84C176.09 13.5333 176.97 14.48 177.557 15.68C178.17 16.88 178.477 18.2267 178.477 19.72V25.48C178.477 29.0267 178.543 31.8667 178.677 34H169.677ZM221.097 12.44H199.337V16.64C200.697 16.6667 202.737 16.68 205.457 16.68C210.15 16.68 214.924 16.6 219.777 16.44V24.28C214.924 24.0933 209.804 24 204.417 24C202.177 24 200.484 24.0133 199.337 24.04V34H189.897C190.11 28.8267 190.217 23.9867 190.217 19.48C190.217 14.9733 190.11 10.1333 189.897 4.96H221.097V12.44ZM229.671 9.8C227.991 9.8 226.738 9.38667 225.911 8.56C225.111 7.73333 224.711 6.65333 224.711 5.32C224.711 4.01333 225.111 2.93333 225.911 2.08C226.738 1.22667 227.991 0.799998 229.671 0.799998C231.271 0.799998 232.498 1.24 233.351 2.12C234.204 2.97333 234.631 4.04 234.631 5.32C234.631 6.65333 234.218 7.73333 233.391 8.56C232.564 9.38667 231.324 9.8 229.671 9.8ZM225.031 34C225.218 29.7067 225.311 26.16 225.311 23.36C225.311 20.0267 225.204 16.2933 224.991 12.16H234.591C234.378 16.1333 234.271 19.8667 234.271 23.36C234.271 26.2933 234.364 29.84 234.551 34H225.031ZM256.337 19.32C253.884 19.16 251.644 19.04 249.617 18.96L249.577 23.2C249.577 24.64 249.884 25.7733 250.497 26.6C251.137 27.4 252.257 27.8 253.857 27.8C254.471 27.8 255.057 27.7467 255.617 27.64C255.511 28.6267 255.457 29.6267 255.457 30.64C255.457 31.12 255.484 32.2133 255.537 33.92C254.364 34.1333 253.377 34.2667 252.577 34.32C251.777 34.3733 250.737 34.4 249.457 34.4C246.337 34.4 244.124 33.6533 242.817 32.16C241.537 30.64 240.897 28.5333 240.897 25.84L240.937 19.08C239.684 19.1333 238.377 19.2133 237.017 19.32V12.24C238.404 12.24 239.577 11.8 240.537 10.92C241.497 10.04 242.071 8.98667 242.257 7.76H253.137C251.777 9.62667 250.271 11.12 248.617 12.24H256.337V19.32ZM274.325 34C274.485 30.08 274.565 26.4667 274.565 23.16C274.565 21.9867 274.272 21.0533 273.685 20.36C273.125 19.6667 272.405 19.32 271.525 19.32C270.645 19.32 269.898 19.72 269.285 20.52C268.672 21.2933 268.312 22.36 268.205 23.72C268.152 25.7467 268.125 27.1867 268.125 28.04C268.125 29.8533 268.178 31.84 268.285 34H258.725C258.938 30.16 259.045 26.5333 259.045 23.12C259.045 19.7067 258.938 16.0533 258.725 12.16C260.485 12.24 261.832 12.28 262.765 12.28C263.752 12.28 265.098 12.24 266.805 12.16L267.965 18.04C268.578 15.9067 269.538 14.3333 270.845 13.32C272.152 12.28 273.672 11.76 275.405 11.76C277.005 11.76 278.392 12.12 279.565 12.84C280.738 13.5333 281.618 14.48 282.205 15.68C282.818 16.88 283.125 18.2267 283.125 19.72V25.48C283.125 29.0267 283.192 31.8667 283.325 34H274.325ZM307.698 24H294.658C294.871 25.1733 295.391 26.1333 296.218 26.88C297.071 27.6 298.271 27.96 299.818 27.96C300.938 27.96 301.991 27.7467 302.978 27.32C303.964 26.8667 304.751 26.24 305.338 25.44C307.124 26.32 309.498 27.2667 312.458 28.28C311.631 30.1467 310.124 31.64 307.938 32.76C305.778 33.8533 302.951 34.4 299.458 34.4C294.924 34.4 291.564 33.36 289.378 31.28C287.218 29.1733 286.138 26.4133 286.138 23C286.138 19.6667 287.218 16.96 289.378 14.88C291.538 12.8 294.898 11.76 299.458 11.76C302.178 11.76 304.538 12.2133 306.538 13.12C308.538 14.0267 310.071 15.2933 311.138 16.92C312.204 18.52 312.738 20.36 312.738 22.44C312.738 23.1333 312.711 23.6533 312.658 24H307.698ZM300.018 17.8C298.684 17.8 297.591 18.0533 296.738 18.56C295.884 19.0667 295.284 19.76 294.938 20.64H304.378C304.058 19.7867 303.538 19.1067 302.818 18.6C302.098 18.0667 301.164 17.8 300.018 17.8ZM328.442 34.4C326.202 34.4 323.922 34.0933 321.602 33.48C319.309 32.84 317.149 31.88 315.122 30.6L319.322 24.88C320.549 25.76 322.029 26.4533 323.762 26.96C325.495 27.44 326.989 27.68 328.242 27.68C329.442 27.68 330.362 27.52 331.002 27.2C331.669 26.8533 332.002 26.4133 332.002 25.88C332.002 25.4533 331.842 25.12 331.522 24.88C331.202 24.64 330.762 24.52 330.202 24.52C329.855 24.52 329.455 24.5333 329.002 24.56C328.575 24.5867 328.229 24.6133 327.962 24.64C326.575 24.8 325.149 24.88 323.682 24.88C321.309 24.88 319.375 24.44 317.882 23.56C316.415 22.6533 315.682 21.1867 315.682 19.16C315.682 16.8133 316.789 15 319.002 13.72C321.215 12.4133 324.469 11.76 328.762 11.76C330.869 11.76 332.989 12.0667 335.122 12.68C337.282 13.2667 339.189 14.16 340.842 15.36L336.242 20C334.722 19.2 333.295 18.64 331.962 18.32C330.655 17.9733 329.335 17.8 328.002 17.8C327.069 17.8 326.269 17.9867 325.602 18.36C324.935 18.7333 324.602 19.16 324.602 19.64C324.602 20.0133 324.735 20.3067 325.002 20.52C325.295 20.7333 325.669 20.84 326.122 20.84C326.575 20.84 327.202 20.8 328.002 20.72C329.949 20.5867 331.402 20.52 332.362 20.52C335.135 20.52 337.282 20.9867 338.802 21.92C340.322 22.8533 341.082 24.28 341.082 26.2C341.082 29.08 339.962 31.1733 337.722 32.48C335.482 33.76 332.389 34.4 328.442 34.4ZM356.801 34.4C354.561 34.4 352.281 34.0933 349.961 33.48C347.668 32.84 345.508 31.88 343.481 30.6L347.681 24.88C348.908 25.76 350.388 26.4533 352.121 26.96C353.855 27.44 355.348 27.68 356.601 27.68C357.801 27.68 358.721 27.52 359.361 27.2C360.028 26.8533 360.361 26.4133 360.361 25.88C360.361 25.4533 360.201 25.12 359.881 24.88C359.561 24.64 359.121 24.52 358.561 24.52C358.215 24.52 357.815 24.5333 357.361 24.56C356.935 24.5867 356.588 24.6133 356.321 24.64C354.935 24.8 353.508 24.88 352.041 24.88C349.668 24.88 347.735 24.44 346.241 23.56C344.775 22.6533 344.041 21.1867 344.041 19.16C344.041 16.8133 345.148 15 347.361 13.72C349.575 12.4133 352.828 11.76 357.121 11.76C359.228 11.76 361.348 12.0667 363.481 12.68C365.641 13.2667 367.548 14.16 369.201 15.36L364.601 20C363.081 19.2 361.655 18.64 360.321 18.32C359.015 17.9733 357.695 17.8 356.361 17.8C355.428 17.8 354.628 17.9867 353.961 18.36C353.295 18.7333 352.961 19.16 352.961 19.64C352.961 20.0133 353.095 20.3067 353.361 20.52C353.655 20.7333 354.028 20.84 354.481 20.84C354.935 20.84 355.561 20.8 356.361 20.72C358.308 20.5867 359.761 20.52 360.721 20.52C363.495 20.52 365.641 20.9867 367.161 21.92C368.681 22.8533 369.441 24.28 369.441 26.2C369.441 29.08 368.321 31.1733 366.081 32.48C363.841 33.76 360.748 34.4 356.801 34.4Z" fill="#33B0AA"/>
<path d="M412.368 4.96C412.182 9.46667 412.088 14.3067 412.088 19.48C412.088 24.6533 412.182 29.4933 412.368 34H402.928V24.72H397.048C394.515 28.72 392.662 31.8133 391.488 34H380.608L387.088 25C387.222 24.76 387.448 24.4267 387.768 24C385.022 23.28 383.075 22.12 381.928 20.52C380.808 18.92 380.248 16.96 380.248 14.64C380.248 11.68 381.315 9.33333 383.448 7.6C385.582 5.86667 389.342 5 394.728 5H402.928V4.96H412.368ZM402.928 17.24V12.68H397.528C395.235 12.68 393.502 12.7467 392.328 12.88C391.155 13.0133 390.355 13.24 389.928 13.56C389.502 13.88 389.288 14.3333 389.288 14.92C389.288 15.5333 389.515 16 389.968 16.32C390.422 16.64 391.222 16.88 392.368 17.04C393.542 17.1733 395.262 17.24 397.528 17.24H402.928ZM423.681 23.08C423.734 24.44 424.161 25.5333 424.961 26.36C425.788 27.1867 427.001 27.6 428.601 27.6C429.481 27.6 430.268 27.44 430.961 27.12C431.654 26.7733 432.294 26.2667 432.881 25.6C435.148 26.48 437.801 27.24 440.841 27.88C439.961 29.9333 438.468 31.5333 436.361 32.68C434.281 33.8267 431.574 34.4 428.241 34.4C423.788 34.4 420.494 33.36 418.361 31.28C416.228 29.2 415.161 26.4667 415.161 23.08C415.161 19.6933 416.228 16.96 418.361 14.88C420.494 12.8 423.788 11.76 428.241 11.76C431.574 11.76 434.281 12.3333 436.361 13.48C438.468 14.6267 439.961 16.2267 440.841 18.28C438.468 18.7867 435.814 19.5467 432.881 20.56C432.294 19.8933 431.654 19.4 430.961 19.08C430.268 18.7333 429.481 18.56 428.601 18.56C427.001 18.56 425.788 18.9733 424.961 19.8C424.161 20.6267 423.734 21.72 423.681 23.08ZM469.042 12.16C468.909 16.2133 468.842 19.8533 468.842 23.08C468.842 26.3067 468.909 29.9467 469.042 34H460.362V26.72H452.522V34H443.842C443.976 30.96 444.042 27.32 444.042 23.08C444.042 18.84 443.976 15.2 443.842 12.16H452.522V19.44H460.362V12.16H469.042ZM493.401 24H480.361C480.574 25.1733 481.094 26.1333 481.921 26.88C482.774 27.6 483.974 27.96 485.521 27.96C486.641 27.96 487.694 27.7467 488.681 27.32C489.667 26.8667 490.454 26.24 491.041 25.44C492.827 26.32 495.201 27.2667 498.161 28.28C497.334 30.1467 495.827 31.64 493.641 32.76C491.481 33.8533 488.654 34.4 485.161 34.4C480.627 34.4 477.267 33.36 475.081 31.28C472.921 29.1733 471.841 26.4133 471.841 23C471.841 19.6667 472.921 16.96 475.081 14.88C477.241 12.8 480.601 11.76 485.161 11.76C487.881 11.76 490.241 12.2133 492.241 13.12C494.241 14.0267 495.774 15.2933 496.841 16.92C497.907 18.52 498.441 20.36 498.441 22.44C498.441 23.1333 498.414 23.6533 498.361 24H493.401ZM485.721 17.8C484.387 17.8 483.294 18.0533 482.441 18.56C481.587 19.0667 480.987 19.76 480.641 20.64H490.081C489.761 19.7867 489.241 19.1067 488.521 18.6C487.801 18.0667 486.867 17.8 485.721 17.8ZM518.865 23.16C523.425 23.16 525.705 24.6133 525.705 27.52C525.705 29.6 524.905 31.2 523.305 32.32C521.732 33.44 518.878 34 514.745 34H501.225C501.358 30.96 501.425 27.32 501.425 23.08C501.425 18.84 501.358 15.2 501.225 12.16H509.505V12.2H514.705C517.212 12.2 519.172 12.4133 520.585 12.84C522.025 13.24 523.038 13.8267 523.625 14.6C524.212 15.3733 524.505 16.36 524.505 17.56C524.505 20.2533 522.625 22.12 518.865 23.16ZM509.505 17.68V20.48H512.545C513.772 20.48 514.638 20.3733 515.145 20.16C515.652 19.92 515.905 19.5067 515.905 18.92C515.905 18.4667 515.638 18.1467 515.105 17.96C514.598 17.7733 513.745 17.68 512.545 17.68H509.505ZM512.545 28.48C514.065 28.48 515.105 28.3733 515.665 28.16C516.225 27.92 516.505 27.5067 516.505 26.92C516.505 26.4133 516.212 26.04 515.625 25.8C515.038 25.56 514.012 25.44 512.545 25.44H509.505V28.48H512.545ZM541.371 34.4C536.811 34.4 533.451 33.36 531.291 31.28C529.157 29.1733 528.091 26.4133 528.091 23C528.091 19.6667 529.157 16.96 531.291 14.88C533.451 12.8 536.811 11.76 541.371 11.76C544.437 11.76 546.997 12.2667 549.051 13.28C551.131 14.2667 552.664 15.6133 553.651 17.32C554.637 19 555.131 20.8933 555.131 23C555.131 26.44 553.984 29.2 551.691 31.28C549.424 33.36 545.984 34.4 541.371 34.4ZM541.531 27.6C543.264 27.6 544.557 27.1867 545.411 26.36C546.264 25.5333 546.691 24.4267 546.691 23.04C546.691 21.7333 546.264 20.6667 545.411 19.84C544.557 18.9867 543.264 18.56 541.531 18.56C539.797 18.56 538.531 18.9733 537.731 19.8C536.931 20.6267 536.531 21.7067 536.531 23.04C536.531 24.4267 536.931 25.5333 537.731 26.36C538.531 27.1867 539.797 27.6 541.531 27.6Z" fill="white"/>
</svg>
