<svg width="677" height="40" viewBox="0 0 677 40" fill="none" xmlns="http://www.w3.org/2000/svg">
<path d="M32.72 0.96C32.5333 4.32 32.44 9.14667 32.44 15.44C32.44 21.7333 32.5333 26.56 32.72 29.92H22.64L22.76 22.68C19.8 24.7067 16.36 25.72 12.44 25.72C8.28 25.72 5.29333 24.7467 3.48 22.8C1.69333 20.8533 0.8 18.0267 0.8 14.32V9.6C0.8 5.97333 0.733333 3.09333 0.6 0.96H10.08C9.92 4.88 9.84 8.53333 9.84 11.92C9.84 13.28 10.0267 14.3733 10.4 15.2C10.8 16.0267 11.4533 16.64 12.36 17.04C13.2933 17.44 14.5867 17.64 16.24 17.64C18.9333 17.64 21.12 16.8 22.8 15.12V11.2C22.8 6.42666 22.7467 3.01333 22.64 0.96H32.72ZM61.5525 23.36C61.5525 24.2667 61.6592 24.9067 61.8725 25.28C62.0858 25.6533 62.5125 25.92 63.1525 26.08L62.9925 29.84C62.1392 29.9733 61.3925 30.0667 60.7525 30.12C60.1392 30.1733 59.3125 30.2 58.2725 30.2C55.9792 30.2 54.4592 29.6933 53.7125 28.68C52.9658 27.64 52.5925 26.32 52.5925 24.72V23.72C51.8192 25.9067 50.6858 27.5333 49.1925 28.6C47.7258 29.6667 45.8458 30.2 43.5525 30.2C40.8858 30.2 38.8725 29.6667 37.5125 28.6C36.1792 27.5333 35.5125 25.9467 35.5125 23.84C35.5125 22.1067 36.0858 20.7467 37.2325 19.76C38.3792 18.7733 40.1525 18.0933 42.5525 17.72C40.5258 16.28 38.4992 15.0267 36.4725 13.96C38.0725 11.9333 39.8992 10.4 41.9525 9.36C44.0058 8.29333 46.4992 7.76 49.4325 7.76C53.5392 7.76 56.5792 8.65333 58.5525 10.44C60.5525 12.2 61.5525 14.92 61.5525 18.6V23.36ZM50.2725 14.8C48.9125 14.8 47.7125 15.0267 46.6725 15.48C45.6325 15.9333 44.6992 16.6133 43.8725 17.52C45.4725 17.3333 47.4725 17.24 49.8725 17.24C50.8592 17.24 51.5525 17.12 51.9525 16.88C52.3525 16.64 52.5525 16.3333 52.5525 15.96C52.5525 15.64 52.3525 15.3733 51.9525 15.16C51.5525 14.92 50.9925 14.8 50.2725 14.8ZM46.0725 23.68C47.5658 23.68 48.9125 23.4 50.1125 22.84C51.3125 22.2533 52.1392 21.4933 52.5925 20.56V19.52C51.9525 19.84 51.2458 20.0933 50.4725 20.28C49.6992 20.44 48.7658 20.6 47.6725 20.76L46.2325 21C44.7392 21.2933 43.9925 21.8 43.9925 22.52C43.9925 23.2933 44.6858 23.68 46.0725 23.68ZM73.6809 19.08C73.7343 20.44 74.1609 21.5333 74.9609 22.36C75.7876 23.1867 77.0009 23.6 78.6009 23.6C79.4809 23.6 80.2676 23.44 80.9609 23.12C81.6543 22.7733 82.2943 22.2667 82.8809 21.6C85.1476 22.48 87.8009 23.24 90.8409 23.88C89.9609 25.9333 88.4676 27.5333 86.3609 28.68C84.2809 29.8267 81.5743 30.4 78.2409 30.4C73.7876 30.4 70.4943 29.36 68.3609 27.28C66.2276 25.2 65.1609 22.4667 65.1609 19.08C65.1609 15.6933 66.2276 12.96 68.3609 10.88C70.4943 8.8 73.7876 7.76 78.2409 7.76C81.5743 7.76 84.2809 8.33333 86.3609 9.48C88.4676 10.6267 89.9609 12.2267 90.8409 14.28C88.4676 14.7867 85.8143 15.5467 82.8809 16.56C82.2943 15.8933 81.6543 15.4 80.9609 15.08C80.2676 14.7333 79.4809 14.56 78.6009 14.56C77.0009 14.56 75.7876 14.9733 74.9609 15.8C74.1609 16.6267 73.7343 17.72 73.6809 19.08ZM118.122 15.68C114.122 15.5733 111.216 15.5067 109.402 15.48V30H100.922V15.48C99.1355 15.5067 96.2422 15.5733 92.2422 15.68V8.16H118.122V15.68ZM132.621 30.4C128.061 30.4 124.701 29.36 122.541 27.28C120.407 25.1733 119.341 22.4133 119.341 19C119.341 15.6667 120.407 12.96 122.541 10.88C124.701 8.8 128.061 7.76 132.621 7.76C135.687 7.76 138.247 8.26667 140.301 9.28C142.381 10.2667 143.914 11.6133 144.901 13.32C145.887 15 146.381 16.8933 146.381 19C146.381 22.44 145.234 25.2 142.941 27.28C140.674 29.36 137.234 30.4 132.621 30.4ZM132.781 23.6C134.514 23.6 135.807 23.1867 136.661 22.36C137.514 21.5333 137.941 20.4267 137.941 19.04C137.941 17.7333 137.514 16.6667 136.661 15.84C135.807 14.9867 134.514 14.56 132.781 14.56C131.047 14.56 129.781 14.9733 128.981 15.8C128.181 16.6267 127.781 17.7067 127.781 19.04C127.781 20.4267 128.181 21.5333 128.981 22.36C129.781 23.1867 131.047 23.6 132.781 23.6ZM174.762 18.8C175.028 18.7733 175.402 18.76 175.882 18.76C177.668 18.76 178.975 19.1733 179.802 20C180.655 20.8267 181.082 21.8 181.082 22.92C181.082 25.2933 180.002 27.1333 177.842 28.44C175.682 29.7467 172.908 30.4 169.522 30.4C166.562 30.4 163.948 29.8933 161.682 28.88C159.442 27.8667 157.815 26.16 156.802 23.76L158.522 23.32C161.002 22.7067 162.842 22.12 164.042 21.56C164.468 22.3867 165.068 23.0267 165.842 23.48C166.615 23.9067 167.642 24.12 168.922 24.12C170.362 24.12 171.455 23.9867 172.202 23.72C172.975 23.4533 173.362 23.0133 173.362 22.4C173.362 21.92 172.935 21.5867 172.082 21.4C171.228 21.2133 170.002 21.12 168.402 21.12H166.122V15.84H167.482C168.948 15.84 170.122 15.7733 171.002 15.64C171.882 15.5067 172.322 15.2133 172.322 14.76C172.322 14.3067 172.068 13.9467 171.562 13.68C171.055 13.4133 170.375 13.28 169.522 13.28C168.135 13.28 167.042 13.5333 166.242 14.04C165.468 14.5467 164.735 15.3733 164.042 16.52C161.935 15.64 159.628 15.0133 157.122 14.64C159.175 10.08 163.442 7.8 169.922 7.8C171.815 7.8 173.548 8.08 175.122 8.64C176.695 9.17333 177.935 9.92 178.842 10.88C179.748 11.8133 180.202 12.8667 180.202 14.04C180.202 16.6 178.388 18.1867 174.762 18.8ZM209.521 23.36C209.521 24.2667 209.628 24.9067 209.841 25.28C210.055 25.6533 210.481 25.92 211.121 26.08L210.961 29.84C210.108 29.9733 209.361 30.0667 208.721 30.12C208.108 30.1733 207.281 30.2 206.241 30.2C203.948 30.2 202.428 29.6933 201.681 28.68C200.935 27.64 200.561 26.32 200.561 24.72V23.72C199.788 25.9067 198.655 27.5333 197.161 28.6C195.695 29.6667 193.815 30.2 191.521 30.2C188.855 30.2 186.841 29.6667 185.481 28.6C184.148 27.5333 183.481 25.9467 183.481 23.84C183.481 22.1067 184.055 20.7467 185.201 19.76C186.348 18.7733 188.121 18.0933 190.521 17.72C188.495 16.28 186.468 15.0267 184.441 13.96C186.041 11.9333 187.868 10.4 189.921 9.36C191.975 8.29333 194.468 7.76 197.401 7.76C201.508 7.76 204.548 8.65333 206.521 10.44C208.521 12.2 209.521 14.92 209.521 18.6V23.36ZM198.241 14.8C196.881 14.8 195.681 15.0267 194.641 15.48C193.601 15.9333 192.668 16.6133 191.841 17.52C193.441 17.3333 195.441 17.24 197.841 17.24C198.828 17.24 199.521 17.12 199.921 16.88C200.321 16.64 200.521 16.3333 200.521 15.96C200.521 15.64 200.321 15.3733 199.921 15.16C199.521 14.92 198.961 14.8 198.241 14.8ZM194.041 23.68C195.535 23.68 196.881 23.4 198.081 22.84C199.281 22.2533 200.108 21.4933 200.561 20.56V19.52C199.921 19.84 199.215 20.0933 198.441 20.28C197.668 20.44 196.735 20.6 195.641 20.76L194.201 21C192.708 21.2933 191.961 21.8 191.961 22.52C191.961 23.2933 192.655 23.68 194.041 23.68ZM238.49 24.32H239.69V35.08H232.13V30.72H219.49V35.16H211.93V24.32H213.25C214.156 24.1867 214.836 23.8533 215.29 23.32C215.77 22.7867 216.143 21.9067 216.41 20.68C216.596 19.72 216.69 17.4267 216.69 13.8V8.16L238.49 8.2V24.32ZM223.49 23C223.436 23.2933 223.33 23.7333 223.17 24.32H230.85V14.92H224.05V16.12C224.023 17.6667 223.983 18.8933 223.93 19.8C223.876 20.68 223.73 21.7467 223.49 23ZM268.545 23.36C268.545 24.2667 268.651 24.9067 268.865 25.28C269.078 25.6533 269.505 25.92 270.145 26.08L269.985 29.84C269.131 29.9733 268.385 30.0667 267.745 30.12C267.131 30.1733 266.305 30.2 265.265 30.2C262.971 30.2 261.451 29.6933 260.705 28.68C259.958 27.64 259.585 26.32 259.585 24.72V23.72C258.811 25.9067 257.678 27.5333 256.185 28.6C254.718 29.6667 252.838 30.2 250.545 30.2C247.878 30.2 245.865 29.6667 244.505 28.6C243.171 27.5333 242.505 25.9467 242.505 23.84C242.505 22.1067 243.078 20.7467 244.225 19.76C245.371 18.7733 247.145 18.0933 249.545 17.72C247.518 16.28 245.491 15.0267 243.465 13.96C245.065 11.9333 246.891 10.4 248.945 9.36C250.998 8.29333 253.491 7.76 256.425 7.76C260.531 7.76 263.571 8.65333 265.545 10.44C267.545 12.2 268.545 14.92 268.545 18.6V23.36ZM257.265 14.8C255.905 14.8 254.705 15.0267 253.665 15.48C252.625 15.9333 251.691 16.6133 250.865 17.52C252.465 17.3333 254.465 17.24 256.865 17.24C257.851 17.24 258.545 17.12 258.945 16.88C259.345 16.64 259.545 16.3333 259.545 15.96C259.545 15.64 259.345 15.3733 258.945 15.16C258.545 14.92 257.985 14.8 257.265 14.8ZM253.065 23.68C254.558 23.68 255.905 23.4 257.105 22.84C258.305 22.2533 259.131 21.4933 259.585 20.56V19.52C258.945 19.84 258.238 20.0933 257.465 20.28C256.691 20.44 255.758 20.6 254.665 20.76L253.225 21C251.731 21.2933 250.985 21.8 250.985 22.52C250.985 23.2933 251.678 23.68 253.065 23.68ZM290.193 19.16C294.753 19.16 297.033 20.6133 297.033 23.52C297.033 25.6 296.233 27.2 294.633 28.32C293.06 29.44 290.206 30 286.073 30H272.553C272.686 26.96 272.753 23.32 272.753 19.08C272.753 14.84 272.686 11.2 272.553 8.16H280.833V8.2H286.033C288.54 8.2 290.5 8.41333 291.913 8.84C293.353 9.24 294.366 9.82667 294.953 10.6C295.54 11.3733 295.833 12.36 295.833 13.56C295.833 16.2533 293.953 18.12 290.193 19.16ZM280.833 13.68V16.48H283.873C285.1 16.48 285.966 16.3733 286.473 16.16C286.98 15.92 287.233 15.5067 287.233 14.92C287.233 14.4667 286.966 14.1467 286.433 13.96C285.926 13.7733 285.073 13.68 283.873 13.68H280.833ZM283.873 24.48C285.393 24.48 286.433 24.3733 286.993 24.16C287.553 23.92 287.833 23.5067 287.833 22.92C287.833 22.4133 287.54 22.04 286.953 21.8C286.366 21.56 285.34 21.44 283.873 21.44H280.833V24.48H283.873ZM325.459 23.36C325.459 24.2667 325.565 24.9067 325.779 25.28C325.992 25.6533 326.419 25.92 327.059 26.08L326.899 29.84C326.045 29.9733 325.299 30.0667 324.659 30.12C324.045 30.1733 323.219 30.2 322.179 30.2C319.885 30.2 318.365 29.6933 317.619 28.68C316.872 27.64 316.499 26.32 316.499 24.72V23.72C315.725 25.9067 314.592 27.5333 313.099 28.6C311.632 29.6667 309.752 30.2 307.459 30.2C304.792 30.2 302.779 29.6667 301.419 28.6C300.085 27.5333 299.419 25.9467 299.419 23.84C299.419 22.1067 299.992 20.7467 301.139 19.76C302.285 18.7733 304.059 18.0933 306.459 17.72C304.432 16.28 302.405 15.0267 300.379 13.96C301.979 11.9333 303.805 10.4 305.859 9.36C307.912 8.29333 310.405 7.76 313.339 7.76C317.445 7.76 320.485 8.65333 322.459 10.44C324.459 12.2 325.459 14.92 325.459 18.6V23.36ZM314.179 14.8C312.819 14.8 311.619 15.0267 310.579 15.48C309.539 15.9333 308.605 16.6133 307.779 17.52C309.379 17.3333 311.379 17.24 313.779 17.24C314.765 17.24 315.459 17.12 315.859 16.88C316.259 16.64 316.459 16.3333 316.459 15.96C316.459 15.64 316.259 15.3733 315.859 15.16C315.459 14.92 314.899 14.8 314.179 14.8ZM309.979 23.68C311.472 23.68 312.819 23.4 314.019 22.84C315.219 22.2533 316.045 21.4933 316.499 20.56V19.52C315.859 19.84 315.152 20.0933 314.379 20.28C313.605 20.44 312.672 20.6 311.579 20.76L310.139 21C308.645 21.2933 307.899 21.8 307.899 22.52C307.899 23.2933 308.592 23.68 309.979 23.68ZM350.627 20H337.587C337.801 21.1733 338.321 22.1333 339.147 22.88C340.001 23.6 341.201 23.96 342.747 23.96C343.867 23.96 344.921 23.7467 345.907 23.32C346.894 22.8667 347.681 22.24 348.267 21.44C350.054 22.32 352.427 23.2667 355.387 24.28C354.561 26.1467 353.054 27.64 350.867 28.76C348.707 29.8533 345.881 30.4 342.387 30.4C337.854 30.4 334.494 29.36 332.307 27.28C330.147 25.1733 329.067 22.4133 329.067 19C329.067 15.6667 330.147 12.96 332.307 10.88C334.467 8.8 337.827 7.76 342.387 7.76C345.107 7.76 347.467 8.21333 349.467 9.12C351.467 10.0267 353.001 11.2933 354.067 12.92C355.134 14.52 355.667 16.36 355.667 18.44C355.667 19.1333 355.641 19.6533 355.587 20H350.627ZM342.947 13.8C341.614 13.8 340.521 14.0533 339.667 14.56C338.814 15.0667 338.214 15.76 337.867 16.64H347.307C346.987 15.7867 346.467 15.1067 345.747 14.6C345.027 14.0667 344.094 13.8 342.947 13.8ZM388.972 8.16L390.492 30H382.732L382.252 14.36L379.212 30H369.732L366.652 14.56L366.212 30H358.452L359.972 8.16H371.812L374.412 22.44L376.732 8.16H388.972ZM407.566 13.04C411.539 13.04 414.313 13.8267 415.886 15.4C417.459 16.9467 418.246 19.1067 418.246 21.88C418.246 24.4667 417.459 26.4667 415.886 27.88C414.339 29.2667 411.566 29.96 407.566 29.96H402.246V30H393.686C393.819 26.96 393.886 23.32 393.886 19.08C393.886 14.84 393.819 11.2 393.686 8.16H402.246V13.04H407.566ZM428.566 8.16C428.433 11.1467 428.366 14.7733 428.366 19.04C428.366 23.28 428.433 26.9067 428.566 29.92H419.806C419.886 24.56 419.926 20.0533 419.926 16.4C419.926 12.7467 419.886 10 419.806 8.16H428.566ZM405.166 23.6C407.059 23.6 408.379 23.4533 409.126 23.16C409.873 22.8667 410.246 22.2933 410.246 21.44C410.246 20.5867 409.859 20.0133 409.086 19.72C408.313 19.4 407.006 19.24 405.166 19.24L402.246 19.28V23.6H405.166ZM452.932 20H439.892C440.105 21.1733 440.625 22.1333 441.452 22.88C442.305 23.6 443.505 23.96 445.052 23.96C446.172 23.96 447.225 23.7467 448.212 23.32C449.199 22.8667 449.985 22.24 450.572 21.44C452.359 22.32 454.732 23.2667 457.692 24.28C456.865 26.1467 455.359 27.64 453.172 28.76C451.012 29.8533 448.185 30.4 444.692 30.4C440.159 30.4 436.799 29.36 434.612 27.28C432.452 25.1733 431.372 22.4133 431.372 19C431.372 15.6667 432.452 12.96 434.612 10.88C436.772 8.8 440.132 7.76 444.692 7.76C447.412 7.76 449.772 8.21333 451.772 9.12C453.772 10.0267 455.305 11.2933 456.372 12.92C457.439 14.52 457.972 16.36 457.972 18.44C457.972 19.1333 457.945 19.6533 457.892 20H452.932ZM445.252 13.8C443.919 13.8 442.825 14.0533 441.972 14.56C441.119 15.0667 440.519 15.76 440.172 16.64H449.612C449.292 15.7867 448.772 15.1067 448.052 14.6C447.332 14.0667 446.399 13.8 445.252 13.8Z" fill="white"/>
<path d="M486.404 19.16C490.964 19.16 493.244 20.6133 493.244 23.52C493.244 25.6 492.444 27.2 490.844 28.32C489.271 29.44 486.417 30 482.284 30H468.764C468.897 26.96 468.964 23.32 468.964 19.08C468.964 14.84 468.897 11.2 468.764 8.16H477.044V8.2H482.244C484.751 8.2 486.711 8.41333 488.124 8.84C489.564 9.24 490.577 9.82667 491.164 10.6C491.751 11.3733 492.044 12.36 492.044 13.56C492.044 16.2533 490.164 18.12 486.404 19.16ZM477.044 13.68V16.48H480.084C481.311 16.48 482.177 16.3733 482.684 16.16C483.191 15.92 483.444 15.5067 483.444 14.92C483.444 14.4667 483.177 14.1467 482.644 13.96C482.137 13.7733 481.284 13.68 480.084 13.68H477.044ZM480.084 24.48C481.604 24.48 482.644 24.3733 483.204 24.16C483.764 23.92 484.044 23.5067 484.044 22.92C484.044 22.4133 483.751 22.04 483.164 21.8C482.577 21.56 481.551 21.44 480.084 21.44H477.044V24.48H480.084ZM508.91 30.4C504.35 30.4 500.99 29.36 498.83 27.28C496.696 25.1733 495.63 22.4133 495.63 19C495.63 15.6667 496.696 12.96 498.83 10.88C500.99 8.8 504.35 7.76 508.91 7.76C511.976 7.76 514.536 8.26667 516.59 9.28C518.67 10.2667 520.203 11.6133 521.19 13.32C522.176 15 522.67 16.8933 522.67 19C522.67 22.44 521.523 25.2 519.23 27.28C516.963 29.36 513.523 30.4 508.91 30.4ZM509.07 23.6C510.803 23.6 512.096 23.1867 512.95 22.36C513.803 21.5333 514.23 20.4267 514.23 19.04C514.23 17.7333 513.803 16.6667 512.95 15.84C512.096 14.9867 510.803 14.56 509.07 14.56C507.336 14.56 506.07 14.9733 505.27 15.8C504.47 16.6267 504.07 17.7067 504.07 19.04C504.07 20.4267 504.47 21.5333 505.27 22.36C506.07 23.1867 507.336 23.6 509.07 23.6ZM525.483 8.2H551.323V30.2H542.563V15.72H534.243V30.2H525.483V8.2ZM571.986 7.76C573.72 7.76 575.28 8.25333 576.666 9.24C578.053 10.2267 579.133 11.5733 579.906 13.28C580.68 14.96 581.066 16.8133 581.066 18.84C581.066 20.84 580.68 22.7333 579.906 24.52C579.133 26.28 578.04 27.7067 576.626 28.8C575.24 29.8667 573.653 30.4 571.866 30.4C569.786 30.4 568 29.9733 566.506 29.12C565.04 28.24 563.946 26.8933 563.226 25.08C563.226 26.6 563.28 29.04 563.386 32.4C563.493 35.6533 563.546 37.9467 563.546 39.28H554.506C554.666 34.32 554.746 29.1333 554.746 23.72C554.746 18.3067 554.666 13.12 554.506 8.16H562.186L563.346 13.16C564.093 11.2933 565.213 9.93333 566.706 9.08C568.2 8.2 569.96 7.76 571.986 7.76ZM567.706 23.2C568.906 23.2 569.906 22.8267 570.706 22.08C571.533 21.3067 571.946 20.3067 571.946 19.08C571.946 17.72 571.573 16.6133 570.826 15.76C570.08 14.9067 569.066 14.48 567.786 14.48C566.32 14.48 565.213 14.84 564.466 15.56C563.72 16.2533 563.346 17.4267 563.346 19.08C563.346 20.0133 563.586 20.8 564.066 21.44C564.546 22.0533 565.12 22.5067 565.786 22.8C566.453 23.0667 567.093 23.2 567.706 23.2ZM596.761 30.4C592.201 30.4 588.841 29.36 586.681 27.28C584.548 25.1733 583.481 22.4133 583.481 19C583.481 15.6667 584.548 12.96 586.681 10.88C588.841 8.8 592.201 7.76 596.761 7.76C599.828 7.76 602.388 8.26667 604.441 9.28C606.521 10.2667 608.055 11.6133 609.041 13.32C610.028 15 610.521 16.8933 610.521 19C610.521 22.44 609.375 25.2 607.081 27.28C604.815 29.36 601.375 30.4 596.761 30.4ZM596.921 23.6C598.655 23.6 599.948 23.1867 600.801 22.36C601.655 21.5333 602.081 20.4267 602.081 19.04C602.081 17.7333 601.655 16.6667 600.801 15.84C599.948 14.9867 598.655 14.56 596.921 14.56C595.188 14.56 593.921 14.9733 593.121 15.8C592.321 16.6267 591.921 17.7067 591.921 19.04C591.921 20.4267 592.321 21.5333 593.121 22.36C593.921 23.1867 595.188 23.6 596.921 23.6ZM621.454 19.08C621.508 20.44 621.934 21.5333 622.734 22.36C623.561 23.1867 624.774 23.6 626.374 23.6C627.254 23.6 628.041 23.44 628.734 23.12C629.428 22.7733 630.068 22.2667 630.654 21.6C632.921 22.48 635.574 23.24 638.614 23.88C637.734 25.9333 636.241 27.5333 634.134 28.68C632.054 29.8267 629.348 30.4 626.014 30.4C621.561 30.4 618.268 29.36 616.134 27.28C614.001 25.2 612.934 22.4667 612.934 19.08C612.934 15.6933 614.001 12.96 616.134 10.88C618.268 8.8 621.561 7.76 626.014 7.76C629.348 7.76 632.054 8.33333 634.134 9.48C636.241 10.6267 637.734 12.2267 638.614 14.28C636.241 14.7867 633.588 15.5467 630.654 16.56C630.068 15.8933 629.428 15.4 628.734 15.08C628.041 14.7333 627.254 14.56 626.374 14.56C624.774 14.56 623.561 14.9733 622.734 15.8C621.934 16.6267 621.508 17.72 621.454 19.08ZM655.496 13.04C659.469 13.04 662.242 13.8267 663.816 15.4C665.389 16.9467 666.176 19.1067 666.176 21.88C666.176 24.4667 665.389 26.4667 663.816 27.88C662.269 29.2667 659.496 29.96 655.496 29.96H650.176V30H641.616C641.749 26.96 641.816 23.32 641.816 19.08C641.816 14.84 641.749 11.2 641.616 8.16H650.176V13.04H655.496ZM676.496 8.16C676.362 11.1467 676.296 14.7733 676.296 19.04C676.296 23.28 676.362 26.9067 676.496 29.92H667.736C667.816 24.56 667.856 20.0533 667.856 16.4C667.856 12.7467 667.816 10 667.736 8.16H676.496ZM653.096 23.6C654.989 23.6 656.309 23.4533 657.056 23.16C657.802 22.8667 658.176 22.2933 658.176 21.44C658.176 20.5867 657.789 20.0133 657.016 19.72C656.242 19.4 654.936 19.24 653.096 19.24L650.176 19.28V23.6H653.096Z" fill="#33B0AA"/>
</svg>
