<svg width="529" height="87" viewBox="0 0 529 87" fill="none" xmlns="http://www.w3.org/2000/svg">
<path d="M18.8 68.8L18.3247 69.6799L18.3367 69.6862L18.8 68.8ZM5.1 55.8L4.24342 56.316L5.1 55.8ZM5.1 18.2L4.24342 17.684L5.1 18.2ZM18.8 5.3L19.2674 6.18404L19.2711 6.18207L18.8 5.3ZM55.9 4L55.4961 4.91479L55.9 4ZM68.7 13.8L69.3709 14.5415L70.0674 13.9114L69.4821 13.1768L68.7 13.8ZM56.1 25.2L55.3302 25.8383L55.9967 26.642L56.7709 25.9415L56.1 25.2ZM29.4 19.5L28.9143 18.6258L28.906 18.6305L29.4 19.5ZM22.5 26.6L21.6214 26.1225L21.6176 26.1294L22.5 26.6ZM22.5 47.5L21.6134 47.9626L21.6195 47.9742L21.6258 47.9856L22.5 47.5ZM29.4 54.5L28.906 55.3695L28.9144 55.3742L29.4 54.5ZM56.1 48.8L56.7709 48.0585L55.9967 47.358L55.3302 48.1617L56.1 48.8ZM68.7 60.2L69.4821 60.8232L70.0674 60.0886L69.3709 59.4585L68.7 60.2ZM55.9 70L56.3039 70.9148L55.9 70ZM38.6 72.4C31.4103 72.4 24.9721 70.8979 19.2633 67.9138L18.3367 69.6862C24.3613 72.8354 31.123 74.4 38.6 74.4V72.4ZM19.2753 67.9202C13.6293 64.87 9.19567 60.6609 5.95658 55.284L4.24342 56.316C7.671 62.0058 12.3707 66.4633 18.3247 69.6798L19.2753 67.9202ZM5.95658 55.284C2.72489 49.9194 1.1 43.8339 1.1 37H-0.9C-0.9 44.1661 0.808446 50.614 4.24342 56.316L5.95658 55.284ZM1.1 37C1.1 30.1661 2.72489 24.0806 5.95658 18.716L4.24342 17.684C0.808446 23.386 -0.9 29.8339 -0.9 37H1.1ZM5.95658 18.716C9.19454 13.341 13.6255 9.16709 19.2674 6.18403L18.3326 4.41596C12.3745 7.56623 7.67213 11.9923 4.24342 17.684L5.95658 18.716ZM19.2711 6.18207C24.9784 3.13387 31.4138 1.59999 38.6 1.59999V-0.400005C31.1195 -0.400005 24.355 1.19945 18.3289 4.41792L19.2711 6.18207ZM38.6 1.59999C44.8804 1.59999 50.5067 2.71168 55.4961 4.91479L56.3039 3.08521C51.0267 0.754982 45.1196 -0.400005 38.6 -0.400005V1.59999ZM55.4961 4.91479C60.486 7.11815 64.6215 10.2865 67.9179 14.4232L69.4821 13.1768C65.9785 8.78013 61.5806 5.41518 56.3039 3.08521L55.4961 4.91479ZM68.0291 13.0585L55.4291 24.4585L56.7709 25.9415L69.3709 14.5415L68.0291 13.0585ZM56.8698 24.5617C52.1676 18.8914 46.3959 16 39.6 16V18C45.7374 18 50.9657 20.5752 55.3302 25.8383L56.8698 24.5617ZM39.6 16C35.6487 16 32.0784 16.868 28.9144 18.6258L29.8856 20.3742C32.7216 18.7986 35.9513 18 39.6 18V16ZM28.906 18.6305C25.8046 20.3927 23.3739 22.8978 21.6214 26.1225L23.3786 27.0775C24.9594 24.1689 27.1287 21.9406 29.894 20.3695L28.906 18.6305ZM21.6176 26.1294C19.9291 29.2955 19.1 32.9284 19.1 37H21.1C21.1 33.2049 21.8709 29.9045 23.3824 27.0706L21.6176 26.1294ZM19.1 37C19.1 41.0721 19.9292 44.7346 21.6134 47.9626L23.3866 47.0374C21.8708 44.1321 21.1 40.7945 21.1 37H19.1ZM21.6258 47.9856C23.38 51.1431 25.8103 53.6105 28.906 55.3695L29.894 53.6305C27.1231 52.0562 24.9533 49.8569 23.3742 47.0144L21.6258 47.9856ZM28.9144 55.3742C32.0784 57.132 35.6487 58 39.6 58V56C35.9513 56 32.7216 55.2014 29.8856 53.6258L28.9144 55.3742ZM39.6 58C46.3959 58 52.1676 55.1086 56.8698 49.4383L55.3302 48.1617C50.9657 53.4248 45.7374 56 39.6 56V58ZM55.4291 49.5415L68.0291 60.9415L69.3709 59.4585L56.7709 48.0585L55.4291 49.5415ZM67.9179 59.5768C64.6215 63.7135 60.486 66.8818 55.4961 69.0852L56.3039 70.9148C61.5806 68.5848 65.9785 65.2199 69.4821 60.8232L67.9179 59.5768ZM55.4961 69.0852C50.5067 71.2883 44.8804 72.4 38.6 72.4V74.4C45.1196 74.4 51.0267 73.245 56.3039 70.9148L55.4961 69.0852ZM143.345 2H144.345V0.999996H143.345V2ZM143.345 72V73H144.345V72H143.345ZM123.745 72H122.745V73H123.745V72ZM123.745 17.7H124.745V16.7H123.745V17.7ZM97.1445 17.7V16.7H96.1445V17.7H97.1445ZM97.1445 72V73H98.1445V72H97.1445ZM77.6445 72H76.6445V73H77.6445V72ZM77.6445 2V0.999996H76.6445V2H77.6445ZM142.345 2V72H144.345V2H142.345ZM143.345 71H123.745V73H143.345V71ZM124.745 72V17.7H122.745V72H124.745ZM123.745 16.7H97.1445V18.7H123.745V16.7ZM96.1445 17.7V72H98.1445V17.7H96.1445ZM97.1445 71H77.6445V73H97.1445V71ZM78.6445 72V2H76.6445V72H78.6445ZM77.6445 3H143.345V0.999996H77.6445V3ZM206.609 58.4L207.536 58.0251L207.283 57.4H206.609V58.4ZM177.009 58.4V57.4H176.334L176.082 58.0251L177.009 58.4ZM171.509 72V73H172.183L172.436 72.3749L171.509 72ZM151.309 72L150.394 71.5962L149.774 73H151.309V72ZM182.209 2V0.999996H181.557L181.294 1.59616L182.209 2ZM201.709 2L202.623 1.59507L202.359 0.999996H201.709V2ZM232.709 72V73H234.245L233.623 71.5951L232.709 72ZM212.109 72L211.182 72.3749L211.434 73H212.109V72ZM200.809 43.8V44.8H202.288L201.736 43.4272L200.809 43.8ZM191.809 21.4L192.736 21.0272L191.809 18.7177L190.881 21.0272L191.809 21.4ZM182.809 43.8L181.881 43.4272L181.329 44.8H182.809V43.8ZM206.609 57.4H177.009V59.4H206.609V57.4ZM176.082 58.0251L170.582 71.6251L172.436 72.3749L177.936 58.7749L176.082 58.0251ZM171.509 71H151.309V73H171.509V71ZM152.223 72.4038L183.123 2.40383L181.294 1.59616L150.394 71.5962L152.223 72.4038ZM182.209 3H201.709V0.999996H182.209V3ZM200.794 2.40492L231.794 72.4049L233.623 71.5951L202.623 1.59507L200.794 2.40492ZM232.709 71H212.109V73H232.709V71ZM213.036 71.6251L207.536 58.0251L205.682 58.7749L211.182 72.3749L213.036 71.6251ZM201.736 43.4272L192.736 21.0272L190.881 21.7728L199.881 44.1728L201.736 43.4272ZM190.881 21.0272L181.881 43.4272L183.736 44.1728L192.736 21.7728L190.881 21.0272ZM182.809 44.8H200.809V42.8H182.809V44.8ZM235.296 36.2V35.2H234.296V36.2H235.296ZM264.496 36.2H265.496V35.2H264.496V36.2ZM264.496 50.8V51.8H265.496V50.8H264.496ZM235.296 50.8H234.296V51.8H235.296V50.8ZM235.296 37.2H264.496V35.2H235.296V37.2ZM263.496 36.2V50.8H265.496V36.2H263.496ZM264.496 49.8H235.296V51.8H264.496V49.8ZM236.296 50.8V36.2H234.296V50.8H236.296ZM352.266 56.3H353.266V55.3H352.266V56.3ZM352.266 86.3V87.3H353.266V86.3H352.266ZM334.166 86.3H333.166V87.3H334.166V86.3ZM334.166 72H335.166V71H334.166V72ZM276.766 72H275.766V73H276.766V72ZM276.766 2V0.999996H275.766V2H276.766ZM296.266 2H297.266V0.999996H296.266V2ZM296.266 56.3H295.266V57.3H296.266V56.3ZM323.166 56.3V57.3H324.166V56.3H323.166ZM323.166 2V0.999996H322.166V2H323.166ZM342.666 2H343.666V0.999996H342.666V2ZM342.666 56.3H341.666V57.3H342.666V56.3ZM351.266 56.3V86.3H353.266V56.3H351.266ZM352.266 85.3H334.166V87.3H352.266V85.3ZM335.166 86.3V72H333.166V86.3H335.166ZM334.166 71H276.766V73H334.166V71ZM277.766 72V2H275.766V72H277.766ZM276.766 3H296.266V0.999996H276.766V3ZM295.266 2V56.3H297.266V2H295.266ZM296.266 57.3H323.166V55.3H296.266V57.3ZM324.166 56.3V2H322.166V56.3H324.166ZM323.166 3H342.666V0.999996H323.166V3ZM341.666 2V56.3H343.666V2H341.666ZM342.666 57.3H352.266V55.3H342.666V57.3ZM417.829 56.7H418.829V55.7H417.829V56.7ZM417.829 72V73H418.829V72H417.829ZM361.629 72H360.629V73H361.629V72ZM361.629 2V0.999996H360.629V2H361.629ZM416.529 2H417.529V0.999996H416.529V2ZM416.529 17.3V18.3H417.529V17.3H416.529ZM381.229 17.3V16.3H380.229V17.3H381.229ZM381.229 29.1H380.229V30.1H381.229V29.1ZM412.329 29.1H413.329V28.1H412.329V29.1ZM412.329 43.9V44.9H413.329V43.9H412.329ZM381.229 43.9V42.9H380.229V43.9H381.229ZM381.229 56.7H380.229V57.7H381.229V56.7ZM416.829 56.7V72H418.829V56.7H416.829ZM417.829 71H361.629V73H417.829V71ZM362.629 72V2H360.629V72H362.629ZM361.629 3H416.529V0.999996H361.629V3ZM415.529 2V17.3H417.529V2H415.529ZM416.529 16.3H381.229V18.3H416.529V16.3ZM380.229 17.3V29.1H382.229V17.3H380.229ZM381.229 30.1H412.329V28.1H381.229V30.1ZM411.329 29.1V43.9H413.329V29.1H411.329ZM412.329 42.9H381.229V44.9H412.329V42.9ZM380.229 43.9V56.7H382.229V43.9H380.229ZM381.229 57.7H417.829V55.7H381.229V57.7ZM495.709 2H496.709V0.999996H495.709V2ZM495.709 72V73H496.709V72H495.709ZM475.909 72H474.909V73H475.909V72ZM475.909 44.7H476.909V43.7H475.909V44.7ZM448.909 44.7V43.7H447.909V44.7H448.909ZM448.909 72V73H449.909V72H448.909ZM429.109 72H428.109V73H429.109V72ZM429.109 2V0.999996H428.109V2H429.109ZM448.909 2H449.909V0.999996H448.909V2ZM448.909 28.3H447.909V29.3H448.909V28.3ZM475.909 28.3V29.3H476.909V28.3H475.909ZM475.909 2V0.999996H474.909V2H475.909ZM494.709 2V72H496.709V2H494.709ZM495.709 71H475.909V73H495.709V71ZM476.909 72V44.7H474.909V72H476.909ZM475.909 43.7H448.909V45.7H475.909V43.7ZM447.909 44.7V72H449.909V44.7H447.909ZM448.909 71H429.109V73H448.909V71ZM430.109 72V2H428.109V72H430.109ZM429.109 3H448.909V0.999996H429.109V3ZM447.909 2V28.3H449.909V2H447.909ZM448.909 29.3H475.909V27.3H448.909V29.3ZM476.909 28.3V2H474.909V28.3H476.909ZM475.909 3H495.709V0.999996H475.909V3ZM567.15 17.7V18.7H568.15V17.7H567.15ZM545.75 17.7V16.7H544.75V17.7H545.75ZM545.75 72V73H546.75V72H545.75ZM526.25 72H525.25V73H526.25V72ZM526.25 17.7H527.25V16.7H526.25V17.7ZM504.75 17.7H503.75V18.7H504.75V17.7ZM504.75 2V0.999996H503.75V2H504.75ZM567.15 2H568.15V0.999996H567.15V2ZM567.15 16.7H545.75V18.7H567.15V16.7ZM544.75 17.7V72H546.75V17.7H544.75ZM545.75 71H526.25V73H545.75V71ZM527.25 72V17.7H525.25V72H527.25ZM526.25 16.7H504.75V18.7H526.25V16.7ZM505.75 17.7V2H503.75V17.7H505.75ZM504.75 3H567.15V0.999996H504.75V3ZM566.15 2V17.7H568.15V2H566.15ZM624.777 5.2L624.362 6.10954L624.372 6.11435L624.777 5.2ZM635.577 14.2L634.737 14.7415L634.741 14.748L635.577 14.2ZM635.577 41.6L634.741 41.052L635.577 41.6ZM624.777 50.6L625.182 51.5144L625.193 51.5095L624.777 50.6ZM596.077 53.7V52.7H595.077V53.7H596.077ZM596.077 72V73H597.077V72H596.077ZM576.277 72H575.277V73H576.277V72ZM576.277 2V0.999996H575.277V2H576.277ZM616.277 35.5L616.92 36.2662L616.927 36.2602L616.934 36.2541L616.277 35.5ZM616.277 20.3L615.621 21.0541L616.277 20.3ZM596.077 17.6V16.6H595.077V17.6H596.077ZM596.077 38.1H595.077V39.1H596.077V38.1ZM608.277 3C614.5 3 619.852 4.04806 624.362 6.10947L625.193 4.29052C620.369 2.08527 614.721 0.999996 608.277 0.999996V3ZM624.372 6.11435C628.877 8.10943 632.319 10.9872 634.737 14.7415L636.418 13.6585C633.769 9.54612 630.011 6.4239 625.182 4.28564L624.372 6.11435ZM634.741 14.748C637.153 18.43 638.377 22.8001 638.377 27.9H640.377C640.377 22.4665 639.068 17.7034 636.414 13.652L634.741 14.748ZM638.377 27.9C638.377 32.9999 637.153 37.37 634.741 41.052L636.414 42.148C639.068 38.0966 640.377 33.3335 640.377 27.9H638.377ZM634.741 41.052C632.322 44.7439 628.876 47.6267 624.362 49.6905L625.193 51.5095C630.012 49.3066 633.766 46.1894 636.414 42.148L634.741 41.052ZM624.372 49.6856C619.86 51.684 614.504 52.7 608.277 52.7V54.7C614.718 54.7 620.361 53.6494 625.182 51.5144L624.372 49.6856ZM608.277 52.7H596.077V54.7H608.277V52.7ZM595.077 53.7V72H597.077V53.7H595.077ZM596.077 71H576.277V73H596.077V71ZM577.277 72V2H575.277V72H577.277ZM576.277 3H608.277V0.999996H576.277V3ZM607.077 39.1C611.264 39.1 614.601 38.2108 616.92 36.2662L615.635 34.7338C613.82 36.2559 611.024 37.1 607.077 37.1V39.1ZM616.934 36.2541C619.261 34.2275 620.377 31.3949 620.377 27.9H618.377C618.377 30.9384 617.427 33.1725 615.621 34.7459L616.934 36.2541ZM620.377 27.9C620.377 24.4051 619.261 21.5725 616.934 19.5459L615.621 21.0541C617.427 22.6275 618.377 24.8616 618.377 27.9H620.377ZM616.934 19.5459C614.615 17.5259 611.272 16.6 607.077 16.6V18.6C611.016 18.6 613.806 19.4741 615.621 21.0541L616.934 19.5459ZM607.077 16.6H596.077V18.6H607.077V16.6ZM595.077 17.6V38.1H597.077V17.6H595.077ZM596.077 39.1H607.077V37.1H596.077V39.1Z" fill="white" fill-opacity="0.1"/>
</svg>
