<svg width="94" height="16" viewBox="0 0 94 16" fill="none" xmlns="http://www.w3.org/2000/svg">
<path fill-rule="evenodd" clip-rule="evenodd" d="M85.706 13.2669L90.832 16L89.853 10.2111L94.0001 6.11146L88.269 5.26687L85.706 0V13.2669Z" fill="#EDEDED"/>
<path fill-rule="evenodd" clip-rule="evenodd" d="M85.7059 13.0082L80.8308 15.6075L81.7618 10.102L77.8177 6.20296L83.2683 5.39972L85.7059 0.390625V13.0082Z" fill="#33B0AA"/>
<path fill-rule="evenodd" clip-rule="evenodd" d="M66.3527 13.0082L61.4776 15.6075L62.4087 10.102L58.4646 6.20296L63.9152 5.39972L66.3527 0.390625L68.7903 5.39972L74.2409 6.20296L70.2968 10.102L71.2279 15.6075L66.3527 13.0082Z" fill="#33B0AA"/>
<path fill-rule="evenodd" clip-rule="evenodd" d="M46.9997 13.0082L42.1245 15.6075L43.0556 10.102L39.1115 6.20296L44.5621 5.39972L46.9997 0.390625L49.4373 5.39972L54.8878 6.20296L50.9438 10.102L51.8748 15.6075L46.9997 13.0082Z" fill="#33B0AA"/>
<path fill-rule="evenodd" clip-rule="evenodd" d="M27.6471 13.0082L22.772 15.6075L23.7031 10.102L19.759 6.20296L25.2096 5.39972L27.6471 0.390625L30.0847 5.39972L35.5353 6.20296L31.5912 10.102L32.5223 15.6075L27.6471 13.0082Z" fill="#33B0AA"/>
<path fill-rule="evenodd" clip-rule="evenodd" d="M8.2941 13.0082L3.41895 15.6075L4.35002 10.102L0.405942 6.20296L5.85652 5.39972L8.2941 0.390625L10.7317 5.39972L16.1822 6.20296L12.2382 10.102L13.1692 15.6075L8.2941 13.0082Z" fill="#33B0AA"/>
</svg>
