<svg width="703" height="262" viewBox="0 0 703 262" fill="none" xmlns="http://www.w3.org/2000/svg">
<g filter="url(#filter0_d_184_834)">
<path d="M153.293 35.796L157.505 75H143.519L142.655 47.028L137.255 75H123.107L117.599 47.244L116.789 75H102.803L107.015 35.796H125.375L130.073 61.338L134.177 35.796H153.293ZM179.2 75.54C173.044 75.54 168.508 74.136 165.592 71.328C162.712 68.484 161.272 64.758 161.272 60.15C161.272 55.65 162.712 51.996 165.592 49.188C168.508 46.38 173.044 44.976 179.2 44.976C183.34 44.976 186.796 45.66 189.568 47.028C192.376 48.36 194.446 50.178 195.778 52.482C197.11 54.75 197.776 57.306 197.776 60.15C197.776 64.794 196.228 68.52 193.132 71.328C190.072 74.136 185.428 75.54 179.2 75.54ZM179.416 66.36C181.756 66.36 183.502 65.802 184.654 64.686C185.806 63.57 186.382 62.076 186.382 60.204C186.382 58.44 185.806 57 184.654 55.884C183.502 54.732 181.756 54.156 179.416 54.156C177.076 54.156 175.366 54.714 174.286 55.83C173.206 56.946 172.666 58.404 172.666 60.204C172.666 62.076 173.206 63.57 174.286 64.686C175.366 65.802 177.076 66.36 179.416 66.36ZM214.102 53.508C215.614 48.072 219.376 45.354 225.388 45.354C226.432 45.354 227.44 45.426 228.412 45.57L226.684 57.666C224.092 56.694 221.968 56.208 220.312 56.208C218.26 56.208 216.748 56.82 215.776 58.044C214.804 59.268 214.318 60.906 214.318 62.958V62.904L214.264 66.468C214.264 69.024 214.336 71.868 214.48 75H201.574C201.862 69.816 202.006 64.92 202.006 60.312C202.006 55.704 201.862 50.772 201.574 45.516C203.95 45.624 205.768 45.678 207.028 45.678C208.36 45.678 210.178 45.624 212.482 45.516L214.102 53.508ZM259.671 61.5H242.067C242.355 63.084 243.057 64.38 244.173 65.388C245.325 66.36 246.945 66.846 249.033 66.846C250.545 66.846 251.967 66.558 253.299 65.982C254.631 65.37 255.693 64.524 256.485 63.444C258.897 64.632 262.101 65.91 266.097 67.278C264.981 69.798 262.947 71.814 259.995 73.326C257.079 74.802 253.263 75.54 248.547 75.54C242.427 75.54 237.891 74.136 234.939 71.328C232.023 68.484 230.565 64.758 230.565 60.15C230.565 55.65 232.023 51.996 234.939 49.188C237.855 46.38 242.391 44.976 248.547 44.976C252.219 44.976 255.405 45.588 258.105 46.812C260.805 48.036 262.875 49.746 264.315 51.942C265.755 54.102 266.475 56.586 266.475 59.394C266.475 60.33 266.439 61.032 266.367 61.5H259.671ZM249.303 53.13C247.503 53.13 246.027 53.472 244.875 54.156C243.723 54.84 242.913 55.776 242.445 56.964H255.189C254.757 55.812 254.055 54.894 253.083 54.21C252.111 53.49 250.851 53.13 249.303 53.13ZM287.622 75.54C281.466 75.54 276.93 74.136 274.014 71.328C271.134 68.484 269.694 64.758 269.694 60.15C269.694 55.65 271.134 51.996 274.014 49.188C276.93 46.38 281.466 44.976 287.622 44.976C291.762 44.976 295.218 45.66 297.99 47.028C300.798 48.36 302.868 50.178 304.2 52.482C305.532 54.75 306.198 57.306 306.198 60.15C306.198 64.794 304.65 68.52 301.554 71.328C298.494 74.136 293.85 75.54 287.622 75.54ZM287.838 66.36C290.178 66.36 291.924 65.802 293.076 64.686C294.228 63.57 294.804 62.076 294.804 60.204C294.804 58.44 294.228 57 293.076 55.884C291.924 54.732 290.178 54.156 287.838 54.156C285.498 54.156 283.788 54.714 282.708 55.83C281.628 56.946 281.088 58.404 281.088 60.204C281.088 62.076 281.628 63.57 282.708 64.686C283.788 65.802 285.498 66.36 287.838 66.36ZM331.056 75C331.272 69.708 331.38 64.83 331.38 60.366C331.38 58.782 330.984 57.522 330.192 56.586C329.436 55.65 328.464 55.182 327.276 55.182C326.088 55.182 325.08 55.722 324.252 56.802C323.424 57.846 322.938 59.286 322.794 61.122C322.722 63.858 322.686 65.802 322.686 66.954C322.686 69.402 322.758 72.084 322.902 75H309.996C310.284 69.816 310.428 64.92 310.428 60.312C310.428 55.704 310.284 50.772 309.996 45.516C312.372 45.624 314.19 45.678 315.45 45.678C316.782 45.678 318.6 45.624 320.904 45.516L322.47 53.454C323.298 50.574 324.594 48.45 326.358 47.082C328.122 45.678 330.174 44.976 332.514 44.976C334.674 44.976 336.546 45.462 338.13 46.434C339.714 47.37 340.902 48.648 341.694 50.268C342.522 51.888 342.936 53.706 342.936 55.722V63.498C342.936 68.286 343.026 72.12 343.206 75H331.056ZM400.473 45.894H371.097V51.564C372.933 51.6 375.687 51.618 379.359 51.618C385.695 51.618 392.139 51.51 398.691 51.294V61.878C392.139 61.626 385.227 61.5 377.955 61.5C374.931 61.5 372.645 61.518 371.097 61.554V75H358.353C358.641 68.016 358.785 61.482 358.785 55.398C358.785 49.314 358.641 42.78 358.353 35.796H400.473V45.894ZM412.048 42.33C409.78 42.33 408.088 41.772 406.972 40.656C405.892 39.54 405.352 38.082 405.352 36.282C405.352 34.518 405.892 33.06 406.972 31.908C408.088 30.756 409.78 30.18 412.048 30.18C414.208 30.18 415.864 30.774 417.016 31.962C418.168 33.114 418.744 34.554 418.744 36.282C418.744 38.082 418.186 39.54 417.07 40.656C415.954 41.772 414.28 42.33 412.048 42.33ZM405.784 75C406.036 69.204 406.162 64.416 406.162 60.636C406.162 56.136 406.018 51.096 405.73 45.516H418.69C418.402 50.88 418.258 55.92 418.258 60.636C418.258 64.596 418.384 69.384 418.636 75H405.784ZM448.048 55.182C444.736 54.966 441.712 54.804 438.976 54.696L438.922 60.42C438.922 62.364 439.336 63.894 440.164 65.01C441.028 66.09 442.54 66.63 444.7 66.63C445.528 66.63 446.32 66.558 447.076 66.414C446.932 67.746 446.86 69.096 446.86 70.464C446.86 71.112 446.896 72.588 446.968 74.892C445.384 75.18 444.052 75.36 442.972 75.432C441.892 75.504 440.488 75.54 438.76 75.54C434.548 75.54 431.56 74.532 429.796 72.516C428.068 70.464 427.204 67.62 427.204 63.984L427.258 54.858C425.566 54.93 423.802 55.038 421.966 55.182V45.624C423.838 45.624 425.422 45.03 426.718 43.842C428.014 42.654 428.788 41.232 429.04 39.576H443.728C441.892 42.096 439.858 44.112 437.626 45.624H448.048V55.182ZM472.331 75C472.547 69.708 472.655 64.83 472.655 60.366C472.655 58.782 472.259 57.522 471.467 56.586C470.711 55.65 469.739 55.182 468.551 55.182C467.363 55.182 466.355 55.722 465.527 56.802C464.699 57.846 464.213 59.286 464.069 61.122C463.997 63.858 463.961 65.802 463.961 66.954C463.961 69.402 464.033 72.084 464.177 75H451.271C451.559 69.816 451.703 64.92 451.703 60.312C451.703 55.704 451.559 50.772 451.271 45.516C453.647 45.624 455.465 45.678 456.725 45.678C458.057 45.678 459.875 45.624 462.179 45.516L463.745 53.454C464.573 50.574 465.869 48.45 467.633 47.082C469.397 45.678 471.449 44.976 473.789 44.976C475.949 44.976 477.821 45.462 479.405 46.434C480.989 47.37 482.177 48.648 482.969 50.268C483.797 51.888 484.211 53.706 484.211 55.722V63.498C484.211 68.286 484.301 72.12 484.481 75H472.331ZM517.384 61.5H499.78C500.068 63.084 500.77 64.38 501.886 65.388C503.038 66.36 504.658 66.846 506.746 66.846C508.258 66.846 509.68 66.558 511.012 65.982C512.344 65.37 513.406 64.524 514.198 63.444C516.61 64.632 519.814 65.91 523.81 67.278C522.694 69.798 520.66 71.814 517.708 73.326C514.792 74.802 510.976 75.54 506.26 75.54C500.14 75.54 495.604 74.136 492.652 71.328C489.736 68.484 488.278 64.758 488.278 60.15C488.278 55.65 489.736 51.996 492.652 49.188C495.568 46.38 500.104 44.976 506.26 44.976C509.932 44.976 513.118 45.588 515.818 46.812C518.518 48.036 520.588 49.746 522.028 51.942C523.468 54.102 524.188 56.586 524.188 59.394C524.188 60.33 524.152 61.032 524.08 61.5H517.384ZM507.016 53.13C505.216 53.13 503.74 53.472 502.588 54.156C501.436 54.84 500.626 55.776 500.158 56.964H512.902C512.47 55.812 511.768 54.894 510.796 54.21C509.824 53.49 508.564 53.13 507.016 53.13ZM545.389 75.54C542.365 75.54 539.287 75.126 536.155 74.298C533.059 73.434 530.143 72.138 527.407 70.41L533.077 62.688C534.733 63.876 536.731 64.812 539.071 65.496C541.411 66.144 543.427 66.468 545.119 66.468C546.739 66.468 547.981 66.252 548.845 65.82C549.745 65.352 550.195 64.758 550.195 64.038C550.195 63.462 549.979 63.012 549.547 62.688C549.115 62.364 548.521 62.202 547.765 62.202C547.297 62.202 546.757 62.22 546.145 62.256C545.569 62.292 545.101 62.328 544.741 62.364C542.869 62.58 540.943 62.688 538.963 62.688C535.759 62.688 533.149 62.094 531.133 60.906C529.153 59.682 528.163 57.702 528.163 54.966C528.163 51.798 529.657 49.35 532.645 47.622C535.633 45.858 540.025 44.976 545.821 44.976C548.665 44.976 551.527 45.39 554.407 46.218C557.323 47.01 559.897 48.216 562.129 49.836L555.919 56.1C553.867 55.02 551.941 54.264 550.141 53.832C548.377 53.364 546.595 53.13 544.795 53.13C543.535 53.13 542.455 53.382 541.555 53.886C540.655 54.39 540.205 54.966 540.205 55.614C540.205 56.118 540.385 56.514 540.745 56.802C541.141 57.09 541.645 57.234 542.257 57.234C542.869 57.234 543.715 57.18 544.795 57.072C547.423 56.892 549.385 56.802 550.681 56.802C554.425 56.802 557.323 57.432 559.375 58.692C561.427 59.952 562.453 61.878 562.453 64.47C562.453 68.358 560.941 71.184 557.917 72.948C554.893 74.676 550.717 75.54 545.389 75.54ZM583.674 75.54C580.65 75.54 577.572 75.126 574.44 74.298C571.344 73.434 568.428 72.138 565.692 70.41L571.362 62.688C573.018 63.876 575.016 64.812 577.356 65.496C579.696 66.144 581.712 66.468 583.404 66.468C585.024 66.468 586.266 66.252 587.13 65.82C588.03 65.352 588.48 64.758 588.48 64.038C588.48 63.462 588.264 63.012 587.832 62.688C587.4 62.364 586.806 62.202 586.05 62.202C585.582 62.202 585.042 62.22 584.43 62.256C583.854 62.292 583.386 62.328 583.026 62.364C581.154 62.58 579.228 62.688 577.248 62.688C574.044 62.688 571.434 62.094 569.418 60.906C567.438 59.682 566.448 57.702 566.448 54.966C566.448 51.798 567.942 49.35 570.93 47.622C573.918 45.858 578.31 44.976 584.106 44.976C586.95 44.976 589.812 45.39 592.692 46.218C595.608 47.01 598.182 48.216 600.414 49.836L594.204 56.1C592.152 55.02 590.226 54.264 588.426 53.832C586.662 53.364 584.88 53.13 583.08 53.13C581.82 53.13 580.74 53.382 579.84 53.886C578.94 54.39 578.49 54.966 578.49 55.614C578.49 56.118 578.67 56.514 579.03 56.802C579.426 57.09 579.93 57.234 580.542 57.234C581.154 57.234 582 57.18 583.08 57.072C585.708 56.892 587.67 56.802 588.966 56.802C592.71 56.802 595.608 57.432 597.66 58.692C599.712 59.952 600.738 61.878 600.738 64.47C600.738 68.358 599.226 71.184 596.202 72.948C593.178 74.676 589.002 75.54 583.674 75.54Z" fill="#33B0AA"/>
<path d="M112.307 153.54C106.151 153.54 101.615 152.136 98.6988 149.328C95.8188 146.484 94.3788 142.758 94.3788 138.15C94.3788 133.65 95.8188 129.996 98.6988 127.188C101.615 124.38 106.151 122.976 112.307 122.976C116.447 122.976 119.903 123.66 122.675 125.028C125.483 126.36 127.553 128.178 128.885 130.482C130.217 132.75 130.883 135.306 130.883 138.15C130.883 142.794 129.335 146.52 126.239 149.328C123.179 152.136 118.535 153.54 112.307 153.54ZM112.523 144.36C114.863 144.36 116.609 143.802 117.761 142.686C118.913 141.57 119.489 140.076 119.489 138.204C119.489 136.44 118.913 135 117.761 133.884C116.609 132.732 114.863 132.156 112.523 132.156C110.183 132.156 108.473 132.714 107.393 133.83C106.313 134.946 105.773 136.404 105.773 138.204C105.773 140.076 106.313 141.57 107.393 142.686C108.473 143.802 110.183 144.36 112.523 144.36ZM167.459 133.668C162.059 133.524 158.135 133.434 155.687 133.398V153H144.239V133.398C141.827 133.434 137.921 133.524 132.521 133.668V123.516H167.459V133.668ZM197.237 138.906C198.857 140.202 200.099 141.66 200.963 143.28C201.827 144.9 202.637 146.844 203.393 149.112C204.149 151.092 204.689 152.388 205.013 153H191.999C191.891 152.748 191.675 151.956 191.351 150.624C191.063 149.292 190.775 148.23 190.487 147.438C190.199 146.61 189.767 145.89 189.191 145.278C188.291 144.306 187.283 143.676 186.167 143.388C185.051 143.1 183.395 142.956 181.199 142.956V153H169.643C169.823 148.896 169.913 143.982 169.913 138.258C169.913 132.534 169.823 127.62 169.643 123.516H181.199V134.1H181.415C185.699 129.816 188.813 126.288 190.757 123.516H205.013L192.377 136.098C194.249 136.89 195.869 137.826 197.237 138.906ZM230.788 122.976C233.128 122.976 235.234 123.642 237.106 124.974C238.978 126.306 240.436 128.124 241.48 130.428C242.524 132.696 243.046 135.198 243.046 137.934C243.046 140.634 242.524 143.19 241.48 145.602C240.436 147.978 238.96 149.904 237.052 151.38C235.18 152.82 233.038 153.54 230.626 153.54C227.818 153.54 225.406 152.964 223.39 151.812C221.41 150.624 219.934 148.806 218.962 146.358C218.962 148.41 219.034 151.704 219.178 156.24C219.322 160.632 219.394 163.728 219.394 165.528H207.19C207.406 158.832 207.514 151.83 207.514 144.522C207.514 137.214 207.406 130.212 207.19 123.516H217.558L219.124 130.266C220.132 127.746 221.644 125.91 223.66 124.758C225.676 123.57 228.052 122.976 230.788 122.976ZM225.01 143.82C226.63 143.82 227.98 143.316 229.06 142.308C230.176 141.264 230.734 139.914 230.734 138.258C230.734 136.422 230.23 134.928 229.222 133.776C228.214 132.624 226.846 132.048 225.118 132.048C223.138 132.048 221.644 132.534 220.636 133.506C219.628 134.442 219.124 136.026 219.124 138.258C219.124 139.518 219.448 140.58 220.096 141.444C220.744 142.272 221.518 142.884 222.418 143.28C223.318 143.64 224.182 143.82 225.01 143.82ZM264.235 153.54C258.079 153.54 253.543 152.136 250.627 149.328C247.747 146.484 246.307 142.758 246.307 138.15C246.307 133.65 247.747 129.996 250.627 127.188C253.543 124.38 258.079 122.976 264.235 122.976C268.375 122.976 271.831 123.66 274.603 125.028C277.411 126.36 279.481 128.178 280.813 130.482C282.145 132.75 282.811 135.306 282.811 138.15C282.811 142.794 281.263 146.52 278.167 149.328C275.107 152.136 270.463 153.54 264.235 153.54ZM264.451 144.36C266.791 144.36 268.537 143.802 269.689 142.686C270.841 141.57 271.417 140.076 271.417 138.204C271.417 136.44 270.841 135 269.689 133.884C268.537 132.732 266.791 132.156 264.451 132.156C262.111 132.156 260.401 132.714 259.321 133.83C258.241 134.946 257.701 136.404 257.701 138.204C257.701 140.076 258.241 141.57 259.321 142.686C260.401 143.802 262.111 144.36 264.451 144.36ZM315.174 139.5H297.57C297.858 141.084 298.56 142.38 299.676 143.388C300.828 144.36 302.448 144.846 304.536 144.846C306.048 144.846 307.47 144.558 308.802 143.982C310.134 143.37 311.196 142.524 311.988 141.444C314.4 142.632 317.604 143.91 321.6 145.278C320.484 147.798 318.45 149.814 315.498 151.326C312.582 152.802 308.766 153.54 304.05 153.54C297.93 153.54 293.394 152.136 290.442 149.328C287.526 146.484 286.068 142.758 286.068 138.15C286.068 133.65 287.526 129.996 290.442 127.188C293.358 124.38 297.894 122.976 304.05 122.976C307.722 122.976 310.908 123.588 313.608 124.812C316.308 126.036 318.378 127.746 319.818 129.942C321.258 132.102 321.978 134.586 321.978 137.394C321.978 138.33 321.942 139.032 321.87 139.5H315.174ZM304.806 131.13C303.006 131.13 301.53 131.472 300.378 132.156C299.226 132.84 298.416 133.776 297.948 134.964H310.692C310.26 133.812 309.558 132.894 308.586 132.21C307.614 131.49 306.354 131.13 304.806 131.13ZM358.515 133.668C353.115 133.524 349.191 133.434 346.743 133.398V153H335.295V133.398C332.883 133.434 328.977 133.524 323.577 133.668V123.516H358.515V133.668ZM405.207 145.332H406.827V159.858H396.621V153.972H379.557V159.966H369.351V145.332H371.133C372.357 145.152 373.275 144.702 373.887 143.982C374.535 143.262 375.039 142.074 375.399 140.418C375.651 139.122 375.777 136.026 375.777 131.13V123.516L405.207 123.57V145.332ZM384.957 143.55C384.885 143.946 384.741 144.54 384.525 145.332H394.893V132.642H385.713V134.262C385.677 136.35 385.623 138.006 385.551 139.23C385.479 140.418 385.281 141.858 384.957 143.55ZM444.809 153.27H432.983V133.722H425.315L425.261 135.396C425.225 137.124 425.153 138.654 425.045 139.986C424.973 141.282 424.793 142.686 424.505 144.198C423.281 150.786 418.295 154.08 409.547 154.08V145.494C411.239 145.278 412.391 144.756 413.003 143.928C413.615 143.064 413.921 141.732 413.921 139.932V123.516L444.809 123.57V153.27ZM482.238 123.516C482.058 128.988 481.968 133.902 481.968 138.258C481.968 142.614 482.058 147.528 482.238 153H471.6V143.604H467.226C464.742 147.528 462.87 150.66 461.61 153H448.92C451.8 149.076 454.23 145.692 456.21 142.848C453.438 142.128 451.476 140.958 450.324 139.338C449.172 137.718 448.596 135.72 448.596 133.344C448.596 130.356 449.676 127.98 451.836 126.216C453.996 124.452 457.812 123.57 463.284 123.57H471.6V123.516H482.238ZM471.6 135.99V131.346H466.74C464.112 131.346 462.33 131.508 461.394 131.832C460.494 132.156 460.044 132.75 460.044 133.614C460.044 134.514 460.512 135.144 461.448 135.504C462.42 135.828 464.184 135.99 466.74 135.99H471.6ZM521.202 138.366C527.358 138.366 530.436 140.328 530.436 144.252C530.436 147.06 529.356 149.22 527.196 150.732C525.072 152.244 521.22 153 515.64 153H497.388C497.568 148.896 497.658 143.982 497.658 138.258C497.658 132.534 497.568 127.62 497.388 123.516H508.566V123.57H515.586C518.97 123.57 521.616 123.858 523.524 124.434C525.468 124.974 526.836 125.766 527.628 126.81C528.42 127.854 528.816 129.186 528.816 130.806C528.816 134.442 526.278 136.962 521.202 138.366ZM508.566 130.968V134.748H512.67C514.326 134.748 515.496 134.604 516.18 134.316C516.864 133.992 517.206 133.434 517.206 132.642C517.206 132.03 516.846 131.598 516.126 131.346C515.442 131.094 514.29 130.968 512.67 130.968H508.566ZM512.67 145.548C514.722 145.548 516.126 145.404 516.882 145.116C517.638 144.792 518.016 144.234 518.016 143.442C518.016 142.758 517.62 142.254 516.828 141.93C516.036 141.606 514.65 141.444 512.67 141.444H508.566V145.548H512.67ZM568.81 144.036C568.81 145.26 568.954 146.124 569.242 146.628C569.53 147.132 570.106 147.492 570.97 147.708L570.754 152.784C569.602 152.964 568.594 153.09 567.73 153.162C566.902 153.234 565.786 153.27 564.382 153.27C561.286 153.27 559.234 152.586 558.226 151.218C557.218 149.814 556.714 148.032 556.714 145.872V144.522C555.67 147.474 554.14 149.67 552.124 151.11C550.144 152.55 547.606 153.27 544.51 153.27C540.91 153.27 538.192 152.55 536.356 151.11C534.556 149.67 533.656 147.528 533.656 144.684C533.656 142.344 534.43 140.508 535.978 139.176C537.526 137.844 539.92 136.926 543.16 136.422C540.424 134.478 537.688 132.786 534.952 131.346C537.112 128.61 539.578 126.54 542.35 125.136C545.122 123.696 548.488 122.976 552.448 122.976C557.992 122.976 562.096 124.182 564.76 126.594C567.46 128.97 568.81 132.642 568.81 137.61V144.036ZM553.582 132.48C551.746 132.48 550.126 132.786 548.722 133.398C547.318 134.01 546.058 134.928 544.942 136.152C547.102 135.9 549.802 135.774 553.042 135.774C554.374 135.774 555.31 135.612 555.85 135.288C556.39 134.964 556.66 134.55 556.66 134.046C556.66 133.614 556.39 133.254 555.85 132.966C555.31 132.642 554.554 132.48 553.582 132.48ZM547.912 144.468C549.928 144.468 551.746 144.09 553.366 143.334C554.986 142.542 556.102 141.516 556.714 140.256V138.852C555.85 139.284 554.896 139.626 553.852 139.878C552.808 140.094 551.548 140.31 550.072 140.526L548.128 140.85C546.112 141.246 545.104 141.93 545.104 142.902C545.104 143.946 546.04 144.468 547.912 144.468ZM585.184 138.258C585.256 140.094 585.832 141.57 586.912 142.686C588.028 143.802 589.666 144.36 591.826 144.36C593.014 144.36 594.076 144.144 595.012 143.712C595.948 143.244 596.812 142.56 597.604 141.66C600.664 142.848 604.246 143.874 608.35 144.738C607.162 147.51 605.146 149.67 602.302 151.218C599.494 152.766 595.84 153.54 591.34 153.54C585.328 153.54 580.882 152.136 578.002 149.328C575.122 146.52 573.682 142.83 573.682 138.258C573.682 133.686 575.122 129.996 578.002 127.188C580.882 124.38 585.328 122.976 591.34 122.976C595.84 122.976 599.494 123.75 602.302 125.298C605.146 126.846 607.162 129.006 608.35 131.778C605.146 132.462 601.564 133.488 597.604 134.856C596.812 133.956 595.948 133.29 595.012 132.858C594.076 132.39 593.014 132.156 591.826 132.156C589.666 132.156 588.028 132.714 586.912 133.83C585.832 134.946 585.256 136.422 585.184 138.258ZM64.181 201.516C64.001 206.988 63.911 211.902 63.911 216.258C63.911 220.614 64.001 225.528 64.181 231H52.463V221.172H41.879V231H30.161C30.341 226.896 30.431 221.982 30.431 216.258C30.431 210.534 30.341 205.62 30.161 201.516H41.879V211.344H52.463V201.516H64.181ZM85.8869 231.54C79.7309 231.54 75.1949 230.136 72.2789 227.328C69.3989 224.484 67.9589 220.758 67.9589 216.15C67.9589 211.65 69.3989 207.996 72.2789 205.188C75.1949 202.38 79.7309 200.976 85.8869 200.976C90.0269 200.976 93.4829 201.66 96.2549 203.028C99.0629 204.36 101.133 206.178 102.465 208.482C103.797 210.75 104.463 213.306 104.463 216.15C104.463 220.794 102.915 224.52 99.8189 227.328C96.7589 230.136 92.1149 231.54 85.8869 231.54ZM86.1029 222.36C88.4429 222.36 90.1889 221.802 91.3409 220.686C92.4929 219.57 93.0689 218.076 93.0689 216.204C93.0689 214.44 92.4929 213 91.3409 211.884C90.1889 210.732 88.4429 210.156 86.1029 210.156C83.7629 210.156 82.0529 210.714 80.9729 211.83C79.8929 212.946 79.3529 214.404 79.3529 216.204C79.3529 218.076 79.8929 219.57 80.9729 220.686C82.0529 221.802 83.7629 222.36 86.1029 222.36ZM132.075 216.366C138.231 216.366 141.309 218.328 141.309 222.252C141.309 225.06 140.229 227.22 138.069 228.732C135.945 230.244 132.093 231 126.513 231H108.261C108.441 226.896 108.531 221.982 108.531 216.258C108.531 210.534 108.441 205.62 108.261 201.516H119.439V201.57H126.459C129.843 201.57 132.489 201.858 134.397 202.434C136.341 202.974 137.709 203.766 138.501 204.81C139.293 205.854 139.689 207.186 139.689 208.806C139.689 212.442 137.151 214.962 132.075 216.366ZM119.439 208.968V212.748H123.543C125.199 212.748 126.369 212.604 127.053 212.316C127.737 211.992 128.079 211.434 128.079 210.642C128.079 210.03 127.719 209.598 126.999 209.346C126.315 209.094 125.163 208.968 123.543 208.968H119.439ZM123.543 223.548C125.595 223.548 126.999 223.404 127.755 223.116C128.511 222.792 128.889 222.234 128.889 221.442C128.889 220.758 128.493 220.254 127.701 219.93C126.909 219.606 125.523 219.444 123.543 219.444H119.439V223.548H123.543ZM163.807 208.104C169.171 208.104 172.915 209.166 175.039 211.29C177.163 213.378 178.225 216.294 178.225 220.038C178.225 223.53 177.163 226.23 175.039 228.138C172.951 230.01 169.207 230.946 163.807 230.946H156.625V231H145.069C145.249 226.896 145.339 221.982 145.339 216.258C145.339 210.534 145.249 205.62 145.069 201.516H156.625V208.104H163.807ZM192.157 201.516C191.977 205.548 191.887 210.444 191.887 216.204C191.887 221.928 191.977 226.824 192.157 230.892H180.331C180.439 223.656 180.493 217.572 180.493 212.64C180.493 207.708 180.439 204 180.331 201.516H192.157ZM160.567 222.36C163.123 222.36 164.905 222.162 165.913 221.766C166.921 221.37 167.425 220.596 167.425 219.444C167.425 218.292 166.903 217.518 165.859 217.122C164.815 216.69 163.051 216.474 160.567 216.474L156.625 216.528V222.36H160.567ZM225.051 217.5H207.447C207.735 219.084 208.437 220.38 209.553 221.388C210.705 222.36 212.325 222.846 214.413 222.846C215.925 222.846 217.347 222.558 218.679 221.982C220.011 221.37 221.073 220.524 221.865 219.444C224.277 220.632 227.481 221.91 231.477 223.278C230.361 225.798 228.327 227.814 225.375 229.326C222.459 230.802 218.643 231.54 213.927 231.54C207.807 231.54 203.271 230.136 200.319 227.328C197.403 224.484 195.945 220.758 195.945 216.15C195.945 211.65 197.403 207.996 200.319 205.188C203.235 202.38 207.771 200.976 213.927 200.976C217.599 200.976 220.785 201.588 223.485 202.812C226.185 204.036 228.255 205.746 229.695 207.942C231.135 210.102 231.855 212.586 231.855 215.394C231.855 216.33 231.819 217.032 231.747 217.5H225.051ZM214.683 209.13C212.883 209.13 211.407 209.472 210.255 210.156C209.103 210.84 208.293 211.776 207.825 212.964H220.569C220.137 211.812 219.435 210.894 218.463 210.21C217.491 209.49 216.231 209.13 214.683 209.13ZM270.239 216.366C276.395 216.366 279.473 218.328 279.473 222.252C279.473 225.06 278.393 227.22 276.233 228.732C274.109 230.244 270.257 231 264.677 231H246.425C246.605 226.896 246.695 221.982 246.695 216.258C246.695 210.534 246.605 205.62 246.425 201.516H257.603V201.57H264.623C268.007 201.57 270.653 201.858 272.561 202.434C274.505 202.974 275.873 203.766 276.665 204.81C277.457 205.854 277.853 207.186 277.853 208.806C277.853 212.442 275.315 214.962 270.239 216.366ZM257.603 208.968V212.748H261.707C263.363 212.748 264.533 212.604 265.217 212.316C265.901 211.992 266.243 211.434 266.243 210.642C266.243 210.03 265.883 209.598 265.163 209.346C264.479 209.094 263.327 208.968 261.707 208.968H257.603ZM261.707 223.548C263.759 223.548 265.163 223.404 265.919 223.116C266.675 222.792 267.053 222.234 267.053 221.442C267.053 220.758 266.657 220.254 265.865 219.93C265.073 219.606 263.687 219.444 261.707 219.444H257.603V223.548H261.707ZM300.621 231.54C294.465 231.54 289.929 230.136 287.013 227.328C284.133 224.484 282.693 220.758 282.693 216.15C282.693 211.65 284.133 207.996 287.013 205.188C289.929 202.38 294.465 200.976 300.621 200.976C304.761 200.976 308.217 201.66 310.989 203.028C313.797 204.36 315.867 206.178 317.199 208.482C318.531 210.75 319.197 213.306 319.197 216.15C319.197 220.794 317.649 224.52 314.553 227.328C311.493 230.136 306.849 231.54 300.621 231.54ZM300.837 222.36C303.177 222.36 304.923 221.802 306.075 220.686C307.227 219.57 307.803 218.076 307.803 216.204C307.803 214.44 307.227 213 306.075 211.884C304.923 210.732 303.177 210.156 300.837 210.156C298.497 210.156 296.787 210.714 295.707 211.83C294.627 212.946 294.087 214.404 294.087 216.204C294.087 218.076 294.627 219.57 295.707 220.686C296.787 221.802 298.497 222.36 300.837 222.36ZM346.701 215.88C347.061 215.844 347.565 215.826 348.213 215.826C350.625 215.826 352.389 216.384 353.505 217.5C354.657 218.616 355.233 219.93 355.233 221.442C355.233 224.646 353.775 227.13 350.859 228.894C347.943 230.658 344.199 231.54 339.627 231.54C335.631 231.54 332.103 230.856 329.043 229.488C326.019 228.12 323.823 225.816 322.455 222.576L324.777 221.982C328.125 221.154 330.609 220.362 332.229 219.606C332.805 220.722 333.615 221.586 334.659 222.198C335.703 222.774 337.089 223.062 338.817 223.062C340.761 223.062 342.237 222.882 343.245 222.522C344.289 222.162 344.811 221.568 344.811 220.74C344.811 220.092 344.235 219.642 343.083 219.39C341.931 219.138 340.275 219.012 338.115 219.012H335.037V211.884H336.873C338.853 211.884 340.437 211.794 341.625 211.614C342.813 211.434 343.407 211.038 343.407 210.426C343.407 209.814 343.065 209.328 342.381 208.968C341.697 208.608 340.779 208.428 339.627 208.428C337.755 208.428 336.279 208.77 335.199 209.454C334.155 210.138 333.165 211.254 332.229 212.802C329.385 211.614 326.271 210.768 322.887 210.264C325.659 204.108 331.419 201.03 340.167 201.03C342.723 201.03 345.063 201.408 347.187 202.164C349.311 202.884 350.985 203.892 352.209 205.188C353.433 206.448 354.045 207.87 354.045 209.454C354.045 212.91 351.597 215.052 346.701 215.88ZM400.215 201.516L402.267 231H391.791L391.143 209.886L387.039 231H374.241L370.083 210.156L369.489 231H359.013L361.065 201.516H377.049L380.559 220.794L383.691 201.516H400.215ZM423.967 231.54C417.811 231.54 413.275 230.136 410.359 227.328C407.479 224.484 406.039 220.758 406.039 216.15C406.039 211.65 407.479 207.996 410.359 205.188C413.275 202.38 417.811 200.976 423.967 200.976C428.107 200.976 431.563 201.66 434.335 203.028C437.143 204.36 439.213 206.178 440.545 208.482C441.877 210.75 442.543 213.306 442.543 216.15C442.543 220.794 440.995 224.52 437.899 227.328C434.839 230.136 430.195 231.54 423.967 231.54ZM424.183 222.36C426.523 222.36 428.269 221.802 429.421 220.686C430.573 219.57 431.149 218.076 431.149 216.204C431.149 214.44 430.573 213 429.421 211.884C428.269 210.732 426.523 210.156 424.183 210.156C421.843 210.156 420.133 210.714 419.053 211.83C417.973 212.946 417.433 214.404 417.433 216.204C417.433 218.076 417.973 219.57 419.053 220.686C420.133 221.802 421.843 222.36 424.183 222.36ZM476.959 214.908C477.895 215.448 478.723 216.114 479.443 216.906C480.667 218.202 481.603 219.642 482.251 221.226C482.899 222.774 483.547 224.736 484.195 227.112C484.663 228.84 485.059 230.136 485.383 231H474.961C474.817 230.496 474.637 229.668 474.421 228.516C474.205 227.22 473.989 226.176 473.773 225.384C473.557 224.592 473.233 223.89 472.801 223.278C472.225 222.414 471.595 221.73 470.911 221.226C470.227 220.686 469.435 220.29 468.535 220.038C468.535 222.45 468.607 226.104 468.751 231H460.705C460.849 226.176 460.921 222.558 460.921 220.146C460.129 220.398 459.427 220.794 458.815 221.334C458.203 221.838 457.609 222.486 457.033 223.278C456.601 223.89 456.277 224.592 456.061 225.384C455.845 226.176 455.629 227.22 455.413 228.516C455.197 229.668 455.017 230.496 454.873 231H444.451C444.775 230.136 445.171 228.84 445.639 227.112C446.287 224.736 446.935 222.774 447.583 221.226C448.231 219.642 449.167 218.202 450.391 216.906C451.111 216.114 451.939 215.448 452.875 214.908L444.181 201.516H455.035C456.547 204.972 458.509 208.446 460.921 211.938C460.849 207.258 460.777 203.784 460.705 201.516H468.751C468.607 206.268 468.535 209.832 468.535 212.208L468.697 212.262C471.145 208.77 473.179 205.188 474.799 201.516H485.653L476.959 214.908ZM521.81 201.516C521.63 206.988 521.54 211.902 521.54 216.258C521.54 220.614 521.63 225.528 521.81 231H510.092V221.172H499.508V231H487.79C487.97 226.896 488.06 221.982 488.06 216.258C488.06 210.534 487.97 205.62 487.79 201.516H499.508V211.344H510.092V201.516H521.81ZM543.516 231.54C537.36 231.54 532.824 230.136 529.908 227.328C527.028 224.484 525.588 220.758 525.588 216.15C525.588 211.65 527.028 207.996 529.908 205.188C532.824 202.38 537.36 200.976 543.516 200.976C547.656 200.976 551.112 201.66 553.884 203.028C556.692 204.36 558.762 206.178 560.094 208.482C561.426 210.75 562.092 213.306 562.092 216.15C562.092 220.794 560.544 224.52 557.448 227.328C554.388 230.136 549.744 231.54 543.516 231.54ZM543.732 222.36C546.072 222.36 547.818 221.802 548.97 220.686C550.122 219.57 550.698 218.076 550.698 216.204C550.698 214.44 550.122 213 548.97 211.884C547.818 210.732 546.072 210.156 543.732 210.156C541.392 210.156 539.682 210.714 538.602 211.83C537.522 212.946 536.982 214.404 536.982 216.204C536.982 218.076 537.522 219.57 538.602 220.686C539.682 221.802 541.392 222.36 543.732 222.36ZM576.851 216.258C576.923 218.094 577.499 219.57 578.579 220.686C579.695 221.802 581.333 222.36 583.493 222.36C584.681 222.36 585.743 222.144 586.679 221.712C587.615 221.244 588.479 220.56 589.271 219.66C592.331 220.848 595.913 221.874 600.017 222.738C598.829 225.51 596.813 227.67 593.969 229.218C591.161 230.766 587.507 231.54 583.007 231.54C576.995 231.54 572.549 230.136 569.669 227.328C566.789 224.52 565.349 220.83 565.349 216.258C565.349 211.686 566.789 207.996 569.669 205.188C572.549 202.38 576.995 200.976 583.007 200.976C587.507 200.976 591.161 201.75 593.969 203.298C596.813 204.846 598.829 207.006 600.017 209.778C596.813 210.462 593.231 211.488 589.271 212.856C588.479 211.956 587.615 211.29 586.679 210.858C585.743 210.39 584.681 210.156 583.493 210.156C581.333 210.156 579.695 210.714 578.579 211.83C577.499 212.946 576.923 214.422 576.851 216.258ZM636.847 211.668C631.447 211.524 627.523 211.434 625.075 211.398V231H613.627V211.398C611.215 211.434 607.309 211.524 601.909 211.668V201.516H636.847V211.668ZM672.836 201.516C672.656 206.736 672.566 211.452 672.566 215.664C672.566 219.804 672.656 224.52 672.836 229.812H661.766L662.36 211.128L654.098 229.812H639.032C639.248 225.06 639.356 220.344 639.356 215.664C639.356 210.912 639.248 206.196 639.032 201.516H649.67L649.13 220.686L657.392 201.516H672.836Z" fill="white"/>
</g>
<defs>
<filter id="filter0_d_184_834" x="0.160889" y="0.179932" width="702.675" height="261.36" filterUnits="userSpaceOnUse" color-interpolation-filters="sRGB">
<feFlood flood-opacity="0" result="BackgroundImageFix"/>
<feColorMatrix in="SourceAlpha" type="matrix" values="0 0 0 0 0 0 0 0 0 0 0 0 0 0 0 0 0 0 127 0" result="hardAlpha"/>
<feOffset/>
<feGaussianBlur stdDeviation="15"/>
<feComposite in2="hardAlpha" operator="out"/>
<feColorMatrix type="matrix" values="0 0 0 0 0 0 0 0 0 0 0 0 0 0 0 0 0 0 0.1 0"/>
<feBlend mode="normal" in2="BackgroundImageFix" result="effect1_dropShadow_184_834"/>
<feBlend mode="normal" in="SourceGraphic" in2="effect1_dropShadow_184_834" result="shape"/>
</filter>
</defs>
</svg>
