<svg width="227" height="20" viewBox="0 0 227 20" fill="none" xmlns="http://www.w3.org/2000/svg">
<path d="M12.78 8.14H8.5V19H4.6V8.14H0.3V5H12.78V8.14ZM21.0055 5C22.2721 5 23.3721 5.21333 24.3055 5.64C25.2388 6.05333 25.9588 6.65333 26.4655 7.44C26.9721 8.21333 27.2255 9.12667 27.2255 10.18C27.2255 11.2333 26.9721 12.1467 26.4655 12.92C25.9588 13.6933 25.2388 14.2933 24.3055 14.72C23.3721 15.1333 22.2721 15.34 21.0055 15.34H18.5655V19H14.6055V5H21.0055ZM20.7655 12.22C21.5788 12.22 22.1921 12.0467 22.6055 11.7C23.0188 11.34 23.2255 10.8333 23.2255 10.18C23.2255 9.52667 23.0188 9.02 22.6055 8.66C22.1921 8.3 21.5788 8.12 20.7655 8.12H18.5655V12.22H20.7655ZM40.2595 15.94V19H29.0195V5H39.9995V8.06H32.9395V10.42H39.1595V13.38H32.9395V15.94H40.2595ZM55.8356 5V19H51.8756V13.54H46.4756V19H42.5156V5H46.4756V10.26H51.8756V5H55.8356ZM68.5038 16.28H62.5838L61.4838 19H57.4438L63.6238 5H67.5238L73.7238 19H69.6038L68.5038 16.28ZM67.3438 13.36L65.5438 8.88L63.7438 13.36H67.3438ZM87.7664 13.64H86.1064V19H82.2264V13.64H80.5664L77.8264 19H73.2464L77.2264 11.66L73.4864 5H77.6464L80.4464 10.44H82.2264V5H86.1064V10.44H87.8064L90.6664 5H94.8064L91.0664 11.66L95.0464 19H90.4864L87.7664 13.64ZM107.564 15.94V19H96.3242V5H107.304V8.06H100.244V10.42H106.464V13.38H100.244V15.94H107.564ZM116.22 5C117.487 5 118.587 5.21333 119.52 5.64C120.454 6.05333 121.174 6.65333 121.68 7.44C122.187 8.21333 122.44 9.12667 122.44 10.18C122.44 11.2333 122.187 12.1467 121.68 12.92C121.174 13.6933 120.454 14.2933 119.52 14.72C118.587 15.1333 117.487 15.34 116.22 15.34H113.78V19H109.82V5H116.22ZM115.98 12.22C116.794 12.22 117.407 12.0467 117.82 11.7C118.234 11.34 118.44 10.8333 118.44 10.18C118.44 9.52667 118.234 9.02 117.82 8.66C117.407 8.3 116.794 8.12 115.98 8.12H113.78V12.22H115.98ZM137.554 5V19H133.594V13.54H128.194V19H124.234V5H128.194V10.26H133.594V5H137.554ZM147.703 9.46C149.423 9.46 150.749 9.84667 151.683 10.62C152.616 11.38 153.083 12.5133 153.083 14.02C153.083 15.6333 152.563 16.8667 151.523 17.72C150.483 18.5733 149.036 19 147.183 19H140.563V5H144.463V9.46H147.703ZM146.923 16.16C147.589 16.16 148.116 15.98 148.503 15.62C148.903 15.26 149.103 14.7533 149.103 14.1C149.103 12.8867 148.376 12.28 146.923 12.28H144.463V16.16H146.923ZM154.623 5H158.523V19H154.623V5ZM161.539 5H165.439V13.22L171.219 5H174.939V19H171.039V10.8L165.279 19H161.539V5ZM168.219 4.16C166.806 4.16 165.766 3.88667 165.099 3.34C164.446 2.79333 164.119 1.98 164.119 0.899999H166.779C166.792 1.36667 166.912 1.71333 167.139 1.94C167.366 2.16667 167.726 2.28 168.219 2.28C168.712 2.28 169.079 2.16667 169.319 1.94C169.559 1.71333 169.686 1.36667 169.699 0.899999H172.359C172.359 1.98 172.026 2.79333 171.359 3.34C170.692 3.88667 169.646 4.16 168.219 4.16ZM192.426 11.72C193.199 12.0133 193.806 12.4533 194.246 13.04C194.686 13.6267 194.906 14.3 194.906 15.06C194.906 15.9267 194.612 16.68 194.026 17.32C193.439 17.96 192.646 18.4533 191.646 18.8C190.646 19.1333 189.546 19.3 188.346 19.3C187.399 19.3 186.432 19.1867 185.446 18.96C184.472 18.7333 183.539 18.3933 182.646 17.94L183.826 15.18C184.452 15.5 185.119 15.7467 185.826 15.92C186.546 16.08 187.239 16.16 187.906 16.16C188.786 16.16 189.506 16.02 190.066 15.74C190.626 15.4467 190.906 15.04 190.906 14.52C190.906 14.1067 190.732 13.8 190.386 13.6C190.039 13.4 189.572 13.3 188.986 13.3H185.406V10.4H188.666C189.199 10.4 189.612 10.2933 189.906 10.08C190.199 9.86667 190.346 9.58 190.346 9.22C190.346 8.76667 190.119 8.42 189.666 8.18C189.212 7.92667 188.626 7.8 187.906 7.8C187.319 7.8 186.699 7.88667 186.046 8.06C185.392 8.22 184.772 8.45333 184.186 8.76L183.026 5.76C184.519 5.04 186.159 4.68 187.946 4.68C189.092 4.68 190.152 4.84667 191.126 5.18C192.112 5.5 192.892 5.96667 193.466 6.58C194.052 7.19333 194.346 7.92 194.346 8.76C194.346 9.41333 194.172 10 193.826 10.52C193.492 11.0267 193.026 11.4267 192.426 11.72ZM206.707 16.28H200.787L199.687 19H195.647L201.827 5H205.727L211.927 19H207.807L206.707 16.28ZM205.547 13.36L203.747 8.88L201.947 13.36H205.547ZM226.748 5V19H222.848V8.14H218.828L218.748 10.42C218.681 12.42 218.514 14.0467 218.248 15.3C217.994 16.5533 217.554 17.5267 216.928 18.22C216.301 18.9 215.414 19.24 214.268 19.24C213.734 19.24 213.134 19.16 212.468 19L212.688 15.76C212.861 15.8 213.041 15.82 213.228 15.82C213.748 15.82 214.148 15.6133 214.428 15.2C214.708 14.7867 214.908 14.2133 215.028 13.48C215.148 12.7333 215.228 11.7667 215.268 10.58L215.468 5H226.748Z" fill="#33B0AA"/>
</svg>
