<svg width="719" height="45" viewBox="0 0 719 45" fill="none" xmlns="http://www.w3.org/2000/svg">
<path d="M24.04 19.56C30.12 19.56 33.16 21.4933 33.16 25.36C33.16 27.1733 32.7467 28.72 31.92 30C31.0933 31.2533 29.6133 32.24 27.48 32.96C25.3467 33.6533 22.3867 34 18.6 34H0.6C0.813333 28.8267 0.92 23.9867 0.92 19.48C0.92 14.9733 0.813333 10.1333 0.6 4.96H10V5H18.52C21.8267 5 24.4267 5.28 26.32 5.84C28.24 6.37333 29.5867 7.16 30.36 8.2C31.16 9.24 31.56 10.56 31.56 12.16C31.56 13.7867 30.9867 15.24 29.84 16.52C28.72 17.7733 26.7867 18.7867 24.04 19.56ZM10 12.28V16H17.68C19.3333 16 20.48 15.8533 21.12 15.56C21.7867 15.2667 22.12 14.7333 22.12 13.96C22.12 13.3467 21.7733 12.92 21.08 12.68C20.4133 12.4133 19.28 12.28 17.68 12.28H10ZM17.68 26.68C19.0667 26.68 20.12 26.6267 20.84 26.52C21.5867 26.3867 22.12 26.1733 22.44 25.88C22.76 25.56 22.92 25.1333 22.92 24.6C22.92 23.9067 22.5333 23.4133 21.76 23.12C21.0133 22.8 19.6533 22.64 17.68 22.64H10V26.68H17.68ZM61.3822 12.16C61.2489 16.0267 61.1822 19.52 61.1822 22.64C61.1822 25.7067 61.2489 29.2 61.3822 33.12H53.1822L53.6222 19.28L47.5022 33.12H36.3422C36.5022 29.6 36.5822 26.1067 36.5822 22.64C36.5822 19.12 36.5022 15.6267 36.3422 12.16H44.2222L43.8222 26.36L49.9422 12.16H61.3822ZM89.5444 28.32H90.7444V39.08H83.1844V34.72H70.5444V39.16H62.9844V28.32H64.3044C65.211 28.1867 65.891 27.8533 66.3444 27.32C66.8244 26.7867 67.1977 25.9067 67.4644 24.68C67.651 23.72 67.7444 21.4267 67.7444 17.8V12.16L89.5444 12.2V28.32ZM74.5444 27C74.491 27.2933 74.3844 27.7333 74.2244 28.32H81.9044V18.92H75.1044V20.12C75.0777 21.6667 75.0377 22.8933 74.9844 23.8C74.931 24.68 74.7844 25.7467 74.5444 27ZM115.119 24H102.079C102.293 25.1733 102.813 26.1333 103.639 26.88C104.493 27.6 105.693 27.96 107.239 27.96C108.359 27.96 109.413 27.7467 110.399 27.32C111.386 26.8667 112.173 26.24 112.759 25.44C114.546 26.32 116.919 27.2667 119.879 28.28C119.053 30.1467 117.546 31.64 115.359 32.76C113.199 33.8533 110.373 34.4 106.879 34.4C102.346 34.4 98.986 33.36 96.7994 31.28C94.6394 29.1733 93.5594 26.4133 93.5594 23C93.5594 19.6667 94.6394 16.96 96.7994 14.88C98.9594 12.8 102.319 11.76 106.879 11.76C109.599 11.76 111.959 12.2133 113.959 13.12C115.959 14.0267 117.493 15.2933 118.559 16.92C119.626 18.52 120.159 20.36 120.159 22.44C120.159 23.1333 120.133 23.6533 120.079 24H115.119ZM107.439 17.8C106.106 17.8 105.013 18.0533 104.159 18.56C103.306 19.0667 102.706 19.76 102.359 20.64H111.799C111.479 19.7867 110.959 19.1067 110.239 18.6C109.519 18.0667 108.586 17.8 107.439 17.8ZM135.824 34.4C131.264 34.4 127.904 33.36 125.744 31.28C123.61 29.1733 122.544 26.4133 122.544 23C122.544 19.6667 123.61 16.96 125.744 14.88C127.904 12.8 131.264 11.76 135.824 11.76C138.89 11.76 141.45 12.2667 143.504 13.28C145.584 14.2667 147.117 15.6133 148.104 17.32C149.09 19 149.584 20.8933 149.584 23C149.584 26.44 148.437 29.2 146.144 31.28C143.877 33.36 140.437 34.4 135.824 34.4ZM135.984 27.6C137.717 27.6 139.01 27.1867 139.864 26.36C140.717 25.5333 141.144 24.4267 141.144 23.04C141.144 21.7333 140.717 20.6667 139.864 19.84C139.01 18.9867 137.717 18.56 135.984 18.56C134.25 18.56 132.984 18.9733 132.184 19.8C131.384 20.6267 130.984 21.7067 130.984 23.04C130.984 24.4267 131.384 25.5333 132.184 26.36C132.984 27.1867 134.25 27.6 135.984 27.6ZM173.285 34.4C168.725 34.4 165.365 33.36 163.205 31.28C161.071 29.1733 160.005 26.4133 160.005 23C160.005 19.6667 161.071 16.96 163.205 14.88C165.365 12.8 168.725 11.76 173.285 11.76C176.351 11.76 178.911 12.2667 180.965 13.28C183.045 14.2667 184.578 15.6133 185.565 17.32C186.551 19 187.045 20.8933 187.045 23C187.045 26.44 185.898 29.2 183.605 31.28C181.338 33.36 177.898 34.4 173.285 34.4ZM173.445 27.6C175.178 27.6 176.471 27.1867 177.325 26.36C178.178 25.5333 178.605 24.4267 178.605 23.04C178.605 21.7333 178.178 20.6667 177.325 19.84C176.471 18.9867 175.178 18.56 173.445 18.56C171.711 18.56 170.445 18.9733 169.645 19.8C168.845 20.6267 168.445 21.7067 168.445 23.04C168.445 24.4267 168.845 25.5333 169.645 26.36C170.445 27.1867 171.711 27.6 173.445 27.6ZM218.306 23.56C219.506 24.52 220.426 25.6 221.066 26.8C221.706 28 222.306 29.44 222.866 31.12C223.426 32.5867 223.826 33.5467 224.066 34H214.426C214.346 33.8133 214.186 33.2267 213.946 32.24C213.732 31.2533 213.519 30.4667 213.306 29.88C213.092 29.2667 212.772 28.7333 212.346 28.28C211.679 27.56 210.932 27.0933 210.106 26.88C209.279 26.6667 208.052 26.56 206.426 26.56V34H197.866C197.999 30.96 198.066 27.32 198.066 23.08C198.066 18.84 197.999 15.2 197.866 12.16H206.426V20H206.586C209.759 16.8267 212.066 14.2133 213.506 12.16H224.066L214.706 21.48C216.092 22.0667 217.292 22.76 218.306 23.56ZM250.598 34.2H241.838V19.72H236.158L236.118 20.96C236.091 22.24 236.038 23.3733 235.958 24.36C235.905 25.32 235.771 26.36 235.558 27.48C234.651 32.36 230.958 34.8 224.478 34.8V28.44C225.731 28.28 226.585 27.8933 227.038 27.28C227.491 26.64 227.718 25.6533 227.718 24.32V12.16L250.598 12.2V34.2ZM280.123 12.16L279.203 14.48C276.67 21.2267 274.016 27.7333 271.243 34C269.803 37.2 267.723 39.76 265.003 41.68C262.283 43.6267 258.87 44.56 254.763 44.48C254.256 42.2667 253.83 40.5333 253.483 39.28C253.163 38.0533 252.736 36.8133 252.203 35.56C253.67 35.9067 255.043 36.08 256.323 36.08C258.403 36.08 260.056 35.64 261.283 34.76C260.323 31.9067 259.19 28.84 257.883 25.56C256.576 22.28 254.683 17.8133 252.203 12.16H261.683C262.003 13.4933 262.443 15.04 263.003 16.8C263.563 18.56 264.123 20.2533 264.683 21.88C264.843 22.3867 265.096 23.16 265.443 24.2C265.816 25.2133 266.11 26.0667 266.323 26.76L267.363 23.6C269.363 17.8133 270.55 14 270.923 12.16H280.123ZM298.253 14.16C300.573 14.16 302.613 14.6 304.373 15.48C306.159 16.3333 307.519 17.48 308.453 18.92C309.413 20.36 309.893 21.9467 309.893 23.68C309.893 25.8667 309.266 27.7733 308.013 29.4C306.759 31.0267 305.053 32.2667 302.893 33.12C300.733 33.9733 298.319 34.4 295.653 34.4C292.933 34.4 290.519 33.8133 288.413 32.64C286.306 31.44 284.666 29.7867 283.493 27.68C282.319 25.5733 281.733 23.1733 281.733 20.48C281.733 15.1467 283.066 11.1467 285.733 8.48C288.399 5.78667 292.053 4.26667 296.693 3.92L299.493 3.8C302.293 3.69333 304.253 3.56 305.373 3.4V11C304.439 11.1333 302.893 11.2533 300.733 11.36C299.026 11.4667 297.799 11.56 297.053 11.64C295.666 11.8267 294.359 12.24 293.133 12.88C291.906 13.4933 290.933 14.2 290.213 15C289.493 15.7733 289.133 16.4533 289.133 17.04C290.333 16.0533 291.746 15.3333 293.373 14.88C294.999 14.4 296.626 14.16 298.253 14.16ZM296.053 19.32C294.613 19.32 293.453 19.7067 292.573 20.48C291.693 21.2267 291.253 22.4133 291.253 24.04C291.253 25.6667 291.693 26.8533 292.573 27.6C293.453 28.3467 294.613 28.72 296.053 28.72C297.493 28.72 298.653 28.3467 299.533 27.6C300.413 26.8533 300.853 25.6667 300.853 24.04C300.853 22.4133 300.413 21.2267 299.533 20.48C298.653 19.7067 297.493 19.32 296.053 19.32ZM333.869 24H320.829C321.043 25.1733 321.563 26.1333 322.389 26.88C323.243 27.6 324.443 27.96 325.989 27.96C327.109 27.96 328.163 27.7467 329.149 27.32C330.136 26.8667 330.923 26.24 331.509 25.44C333.296 26.32 335.669 27.2667 338.629 28.28C337.803 30.1467 336.296 31.64 334.109 32.76C331.949 33.8533 329.123 34.4 325.629 34.4C321.096 34.4 317.736 33.36 315.549 31.28C313.389 29.1733 312.309 26.4133 312.309 23C312.309 19.6667 313.389 16.96 315.549 14.88C317.709 12.8 321.069 11.76 325.629 11.76C328.349 11.76 330.709 12.2133 332.709 13.12C334.709 14.0267 336.243 15.2933 337.309 16.92C338.376 18.52 338.909 20.36 338.909 22.44C338.909 23.1333 338.883 23.6533 338.829 24H333.869ZM326.189 17.8C324.856 17.8 323.763 18.0533 322.909 18.56C322.056 19.0667 321.456 19.76 321.109 20.64H330.549C330.229 19.7867 329.709 19.1067 328.989 18.6C328.269 18.0667 327.336 17.8 326.189 17.8Z" fill="white"/>
<path d="M387.102 4.96L390.222 34H379.862L379.222 13.28L375.222 34H364.742L360.662 13.44L360.062 34H349.702L352.822 4.96H366.422L369.902 23.88L372.942 4.96H387.102ZM406.293 34.4C401.733 34.4 398.373 33.36 396.213 31.28C394.079 29.1733 393.013 26.4133 393.013 23C393.013 19.6667 394.079 16.96 396.213 14.88C398.373 12.8 401.733 11.76 406.293 11.76C409.359 11.76 411.919 12.2667 413.973 13.28C416.053 14.2667 417.586 15.6133 418.573 17.32C419.559 19 420.053 20.8933 420.053 23C420.053 26.44 418.906 29.2 416.613 31.28C414.346 33.36 410.906 34.4 406.293 34.4ZM406.453 27.6C408.186 27.6 409.479 27.1867 410.333 26.36C411.186 25.5333 411.613 24.4267 411.613 23.04C411.613 21.7333 411.186 20.6667 410.333 19.84C409.479 18.9867 408.186 18.56 406.453 18.56C404.719 18.56 403.453 18.9733 402.653 19.8C401.853 20.6267 401.453 21.7067 401.453 23.04C401.453 24.4267 401.853 25.5333 402.653 26.36C403.453 27.1867 404.719 27.6 406.453 27.6ZM432.146 18.08C433.266 14.0533 436.052 12.04 440.506 12.04C441.279 12.04 442.026 12.0933 442.746 12.2L441.466 21.16C439.546 20.44 437.972 20.08 436.746 20.08C435.226 20.08 434.106 20.5333 433.386 21.44C432.666 22.3467 432.306 23.56 432.306 25.08V25.04L432.266 27.68C432.266 29.5733 432.319 31.68 432.426 34H422.866C423.079 30.16 423.186 26.5333 423.186 23.12C423.186 19.7067 423.079 16.0533 422.866 12.16C424.626 12.24 425.972 12.28 426.906 12.28C427.892 12.28 429.239 12.24 430.946 12.16L432.146 18.08ZM465.901 24H452.861C453.074 25.1733 453.594 26.1333 454.421 26.88C455.274 27.6 456.474 27.96 458.021 27.96C459.141 27.96 460.194 27.7467 461.181 27.32C462.167 26.8667 462.954 26.24 463.541 25.44C465.327 26.32 467.701 27.2667 470.661 28.28C469.834 30.1467 468.327 31.64 466.141 32.76C463.981 33.8533 461.154 34.4 457.661 34.4C453.127 34.4 449.767 33.36 447.581 31.28C445.421 29.1733 444.341 26.4133 444.341 23C444.341 19.6667 445.421 16.96 447.581 14.88C449.741 12.8 453.101 11.76 457.661 11.76C460.381 11.76 462.741 12.2133 464.741 13.12C466.741 14.0267 468.274 15.2933 469.341 16.92C470.407 18.52 470.941 20.36 470.941 22.44C470.941 23.1333 470.914 23.6533 470.861 24H465.901ZM458.221 17.8C456.887 17.8 455.794 18.0533 454.941 18.56C454.087 19.0667 453.487 19.76 453.141 20.64H462.581C462.261 19.7867 461.741 19.1067 461.021 18.6C460.301 18.0667 459.367 17.8 458.221 17.8ZM486.605 34.4C482.045 34.4 478.685 33.36 476.525 31.28C474.392 29.1733 473.325 26.4133 473.325 23C473.325 19.6667 474.392 16.96 476.525 14.88C478.685 12.8 482.045 11.76 486.605 11.76C489.672 11.76 492.232 12.2667 494.285 13.28C496.365 14.2667 497.898 15.6133 498.885 17.32C499.872 19 500.365 20.8933 500.365 23C500.365 26.44 499.218 29.2 496.925 31.28C494.658 33.36 491.218 34.4 486.605 34.4ZM486.765 27.6C488.498 27.6 489.792 27.1867 490.645 26.36C491.498 25.5333 491.925 24.4267 491.925 23.04C491.925 21.7333 491.498 20.6667 490.645 19.84C489.792 18.9867 488.498 18.56 486.765 18.56C485.032 18.56 483.765 18.9733 482.965 19.8C482.165 20.6267 481.765 21.7067 481.765 23.04C481.765 24.4267 482.165 25.5333 482.965 26.36C483.765 27.1867 485.032 27.6 486.765 27.6ZM518.778 34C518.938 30.08 519.018 26.4667 519.018 23.16C519.018 21.9867 518.725 21.0533 518.138 20.36C517.578 19.6667 516.858 19.32 515.978 19.32C515.098 19.32 514.351 19.72 513.738 20.52C513.125 21.2933 512.765 22.36 512.658 23.72C512.605 25.7467 512.578 27.1867 512.578 28.04C512.578 29.8533 512.631 31.84 512.738 34H503.178C503.391 30.16 503.498 26.5333 503.498 23.12C503.498 19.7067 503.391 16.0533 503.178 12.16C504.938 12.24 506.285 12.28 507.218 12.28C508.205 12.28 509.551 12.24 511.258 12.16L512.418 18.04C513.031 15.9067 513.991 14.3333 515.298 13.32C516.605 12.28 518.125 11.76 519.858 11.76C521.458 11.76 522.845 12.12 524.018 12.84C525.191 13.5333 526.071 14.48 526.658 15.68C527.271 16.88 527.578 18.2267 527.578 19.72V25.48C527.578 29.0267 527.645 31.8667 527.778 34H518.778ZM570.198 12.44H548.438V16.64C549.798 16.6667 551.838 16.68 554.558 16.68C559.252 16.68 564.025 16.6 568.878 16.44V24.28C564.025 24.0933 558.905 24 553.518 24C551.278 24 549.585 24.0133 548.438 24.04V34H538.998C539.212 28.8267 539.318 23.9867 539.318 19.48C539.318 14.9733 539.212 10.1333 538.998 4.96H570.198V12.44ZM578.773 9.8C577.093 9.8 575.839 9.38667 575.013 8.56C574.213 7.73333 573.813 6.65333 573.813 5.32C573.813 4.01333 574.213 2.93333 575.013 2.08C575.839 1.22667 577.093 0.799998 578.773 0.799998C580.373 0.799998 581.599 1.24 582.453 2.12C583.306 2.97333 583.733 4.04 583.733 5.32C583.733 6.65333 583.319 7.73333 582.493 8.56C581.666 9.38667 580.426 9.8 578.773 9.8ZM574.133 34C574.319 29.7067 574.413 26.16 574.413 23.36C574.413 20.0267 574.306 16.2933 574.093 12.16H583.693C583.479 16.1333 583.373 19.8667 583.373 23.36C583.373 26.2933 583.466 29.84 583.653 34H574.133ZM605.439 19.32C602.985 19.16 600.745 19.04 598.719 18.96L598.679 23.2C598.679 24.64 598.985 25.7733 599.599 26.6C600.239 27.4 601.359 27.8 602.959 27.8C603.572 27.8 604.159 27.7467 604.719 27.64C604.612 28.6267 604.559 29.6267 604.559 30.64C604.559 31.12 604.585 32.2133 604.639 33.92C603.465 34.1333 602.479 34.2667 601.679 34.32C600.879 34.3733 599.839 34.4 598.559 34.4C595.439 34.4 593.225 33.6533 591.919 32.16C590.639 30.64 589.999 28.5333 589.999 25.84L590.039 19.08C588.785 19.1333 587.479 19.2133 586.119 19.32V12.24C587.505 12.24 588.679 11.8 589.639 10.92C590.599 10.04 591.172 8.98667 591.359 7.76H602.239C600.879 9.62667 599.372 11.12 597.719 12.24H605.439V19.32ZM623.427 34C623.587 30.08 623.667 26.4667 623.667 23.16C623.667 21.9867 623.373 21.0533 622.787 20.36C622.227 19.6667 621.507 19.32 620.627 19.32C619.747 19.32 619 19.72 618.387 20.52C617.773 21.2933 617.413 22.36 617.307 23.72C617.253 25.7467 617.227 27.1867 617.227 28.04C617.227 29.8533 617.28 31.84 617.387 34H607.827C608.04 30.16 608.147 26.5333 608.147 23.12C608.147 19.7067 608.04 16.0533 607.827 12.16C609.587 12.24 610.933 12.28 611.867 12.28C612.853 12.28 614.2 12.24 615.907 12.16L617.067 18.04C617.68 15.9067 618.64 14.3333 619.947 13.32C621.253 12.28 622.773 11.76 624.507 11.76C626.107 11.76 627.493 12.12 628.667 12.84C629.84 13.5333 630.72 14.48 631.307 15.68C631.92 16.88 632.227 18.2267 632.227 19.72V25.48C632.227 29.0267 632.293 31.8667 632.427 34H623.427ZM656.799 24H643.759C643.972 25.1733 644.492 26.1333 645.319 26.88C646.172 27.6 647.372 27.96 648.919 27.96C650.039 27.96 651.092 27.7467 652.079 27.32C653.066 26.8667 653.852 26.24 654.439 25.44C656.226 26.32 658.599 27.2667 661.559 28.28C660.732 30.1467 659.226 31.64 657.039 32.76C654.879 33.8533 652.052 34.4 648.559 34.4C644.026 34.4 640.666 33.36 638.479 31.28C636.319 29.1733 635.239 26.4133 635.239 23C635.239 19.6667 636.319 16.96 638.479 14.88C640.639 12.8 643.999 11.76 648.559 11.76C651.279 11.76 653.639 12.2133 655.639 13.12C657.639 14.0267 659.172 15.2933 660.239 16.92C661.306 18.52 661.839 20.36 661.839 22.44C661.839 23.1333 661.812 23.6533 661.759 24H656.799ZM649.119 17.8C647.786 17.8 646.692 18.0533 645.839 18.56C644.986 19.0667 644.386 19.76 644.039 20.64H653.479C653.159 19.7867 652.639 19.1067 651.919 18.6C651.199 18.0667 650.266 17.8 649.119 17.8ZM677.543 34.4C675.303 34.4 673.023 34.0933 670.703 33.48C668.41 32.84 666.25 31.88 664.223 30.6L668.423 24.88C669.65 25.76 671.13 26.4533 672.863 26.96C674.597 27.44 676.09 27.68 677.343 27.68C678.543 27.68 679.463 27.52 680.103 27.2C680.77 26.8533 681.103 26.4133 681.103 25.88C681.103 25.4533 680.943 25.12 680.623 24.88C680.303 24.64 679.863 24.52 679.303 24.52C678.957 24.52 678.557 24.5333 678.103 24.56C677.677 24.5867 677.33 24.6133 677.063 24.64C675.677 24.8 674.25 24.88 672.783 24.88C670.41 24.88 668.477 24.44 666.983 23.56C665.517 22.6533 664.783 21.1867 664.783 19.16C664.783 16.8133 665.89 15 668.103 13.72C670.317 12.4133 673.57 11.76 677.863 11.76C679.97 11.76 682.09 12.0667 684.223 12.68C686.383 13.2667 688.29 14.16 689.943 15.36L685.343 20C683.823 19.2 682.397 18.64 681.063 18.32C679.757 17.9733 678.437 17.8 677.103 17.8C676.17 17.8 675.37 17.9867 674.703 18.36C674.037 18.7333 673.703 19.16 673.703 19.64C673.703 20.0133 673.837 20.3067 674.103 20.52C674.397 20.7333 674.77 20.84 675.223 20.84C675.677 20.84 676.303 20.8 677.103 20.72C679.05 20.5867 680.503 20.52 681.463 20.52C684.237 20.52 686.383 20.9867 687.903 21.92C689.423 22.8533 690.183 24.28 690.183 26.2C690.183 29.08 689.063 31.1733 686.823 32.48C684.583 33.76 681.49 34.4 677.543 34.4ZM705.903 34.4C703.663 34.4 701.383 34.0933 699.063 33.48C696.769 32.84 694.609 31.88 692.583 30.6L696.783 24.88C698.009 25.76 699.489 26.4533 701.223 26.96C702.956 27.44 704.449 27.68 705.703 27.68C706.903 27.68 707.823 27.52 708.463 27.2C709.129 26.8533 709.463 26.4133 709.463 25.88C709.463 25.4533 709.303 25.12 708.983 24.88C708.663 24.64 708.223 24.52 707.663 24.52C707.316 24.52 706.916 24.5333 706.463 24.56C706.036 24.5867 705.689 24.6133 705.423 24.64C704.036 24.8 702.609 24.88 701.143 24.88C698.769 24.88 696.836 24.44 695.343 23.56C693.876 22.6533 693.143 21.1867 693.143 19.16C693.143 16.8133 694.249 15 696.463 13.72C698.676 12.4133 701.929 11.76 706.223 11.76C708.329 11.76 710.449 12.0667 712.583 12.68C714.743 13.2667 716.649 14.16 718.303 15.36L713.703 20C712.183 19.2 710.756 18.64 709.423 18.32C708.116 17.9733 706.796 17.8 705.463 17.8C704.529 17.8 703.729 17.9867 703.063 18.36C702.396 18.7333 702.063 19.16 702.063 19.64C702.063 20.0133 702.196 20.3067 702.463 20.52C702.756 20.7333 703.129 20.84 703.583 20.84C704.036 20.84 704.663 20.8 705.463 20.72C707.409 20.5867 708.863 20.52 709.823 20.52C712.596 20.52 714.743 20.9867 716.263 21.92C717.783 22.8533 718.543 24.28 718.543 26.2C718.543 29.08 717.423 31.1733 715.183 32.48C712.943 33.76 709.849 34.4 705.903 34.4Z" fill="#33B0AA"/>
</svg>
